%TF.GenerationSoftware,KiCad,Pcbnew,7.0.10*%
%TF.CreationDate,2024-03-16T23:25:41+05:30*%
%TF.ProjectId,breakout,62726561-6b6f-4757-942e-6b696361645f,rev?*%
%TF.SameCoordinates,Original*%
%TF.FileFunction,Legend,Top*%
%TF.FilePolarity,Positive*%
%FSLAX46Y46*%
G04 Gerber Fmt 4.6, Leading zero omitted, Abs format (unit mm)*
G04 Created by KiCad (PCBNEW 7.0.10) date 2024-03-16 23:25:41*
%MOMM*%
%LPD*%
G01*
G04 APERTURE LIST*
G04 Aperture macros list*
%AMRoundRect*
0 Rectangle with rounded corners*
0 $1 Rounding radius*
0 $2 $3 $4 $5 $6 $7 $8 $9 X,Y pos of 4 corners*
0 Add a 4 corners polygon primitive as box body*
4,1,4,$2,$3,$4,$5,$6,$7,$8,$9,$2,$3,0*
0 Add four circle primitives for the rounded corners*
1,1,$1+$1,$2,$3*
1,1,$1+$1,$4,$5*
1,1,$1+$1,$6,$7*
1,1,$1+$1,$8,$9*
0 Add four rect primitives between the rounded corners*
20,1,$1+$1,$2,$3,$4,$5,0*
20,1,$1+$1,$4,$5,$6,$7,0*
20,1,$1+$1,$6,$7,$8,$9,0*
20,1,$1+$1,$8,$9,$2,$3,0*%
G04 Aperture macros list end*
%ADD10C,0.200000*%
%ADD11C,0.120000*%
%ADD12C,0.127000*%
%ADD13C,0.100000*%
%ADD14C,0.250000*%
%ADD15C,3.200000*%
%ADD16RoundRect,0.237500X0.237500X-0.287500X0.237500X0.287500X-0.237500X0.287500X-0.237500X-0.287500X0*%
%ADD17RoundRect,0.237500X0.287500X0.237500X-0.287500X0.237500X-0.287500X-0.237500X0.287500X-0.237500X0*%
%ADD18RoundRect,0.237500X0.300000X0.237500X-0.300000X0.237500X-0.300000X-0.237500X0.300000X-0.237500X0*%
%ADD19RoundRect,0.102000X-0.450000X-0.200000X0.450000X-0.200000X0.450000X0.200000X-0.450000X0.200000X0*%
%ADD20R,0.460000X0.890000*%
%ADD21RoundRect,0.237500X0.250000X0.237500X-0.250000X0.237500X-0.250000X-0.237500X0.250000X-0.237500X0*%
%ADD22O,1.700000X1.700000*%
%ADD23R,1.700000X1.700000*%
%ADD24RoundRect,0.237500X0.237500X-0.300000X0.237500X0.300000X-0.237500X0.300000X-0.237500X-0.300000X0*%
%ADD25R,1.475000X0.300000*%
%ADD26R,0.300000X1.475000*%
%ADD27RoundRect,0.054880X0.652120X0.337120X-0.652120X0.337120X-0.652120X-0.337120X0.652120X-0.337120X0*%
%ADD28RoundRect,0.080400X0.321600X0.696600X-0.321600X0.696600X-0.321600X-0.696600X0.321600X-0.696600X0*%
%ADD29RoundRect,0.237500X-0.237500X0.287500X-0.237500X-0.287500X0.237500X-0.287500X0.237500X0.287500X0*%
%ADD30RoundRect,0.237500X-0.237500X0.300000X-0.237500X-0.300000X0.237500X-0.300000X0.237500X0.300000X0*%
%ADD31RoundRect,0.237500X-0.300000X-0.237500X0.300000X-0.237500X0.300000X0.237500X-0.300000X0.237500X0*%
%TA.AperFunction,Profile*%
%ADD32C,0.050000*%
%TD*%
G04 APERTURE END LIST*
D10*
X103986339Y-33784552D02*
X103910149Y-33746457D01*
X103910149Y-33746457D02*
X103872054Y-33708361D01*
X103872054Y-33708361D02*
X103833958Y-33632171D01*
X103833958Y-33632171D02*
X103833958Y-33594076D01*
X103833958Y-33594076D02*
X103872054Y-33517885D01*
X103872054Y-33517885D02*
X103910149Y-33479790D01*
X103910149Y-33479790D02*
X103986339Y-33441695D01*
X103986339Y-33441695D02*
X104138720Y-33441695D01*
X104138720Y-33441695D02*
X104214911Y-33479790D01*
X104214911Y-33479790D02*
X104253006Y-33517885D01*
X104253006Y-33517885D02*
X104291101Y-33594076D01*
X104291101Y-33594076D02*
X104291101Y-33632171D01*
X104291101Y-33632171D02*
X104253006Y-33708361D01*
X104253006Y-33708361D02*
X104214911Y-33746457D01*
X104214911Y-33746457D02*
X104138720Y-33784552D01*
X104138720Y-33784552D02*
X103986339Y-33784552D01*
X103986339Y-33784552D02*
X103910149Y-33822647D01*
X103910149Y-33822647D02*
X103872054Y-33860742D01*
X103872054Y-33860742D02*
X103833958Y-33936933D01*
X103833958Y-33936933D02*
X103833958Y-34089314D01*
X103833958Y-34089314D02*
X103872054Y-34165504D01*
X103872054Y-34165504D02*
X103910149Y-34203600D01*
X103910149Y-34203600D02*
X103986339Y-34241695D01*
X103986339Y-34241695D02*
X104138720Y-34241695D01*
X104138720Y-34241695D02*
X104214911Y-34203600D01*
X104214911Y-34203600D02*
X104253006Y-34165504D01*
X104253006Y-34165504D02*
X104291101Y-34089314D01*
X104291101Y-34089314D02*
X104291101Y-33936933D01*
X104291101Y-33936933D02*
X104253006Y-33860742D01*
X104253006Y-33860742D02*
X104214911Y-33822647D01*
X104214911Y-33822647D02*
X104138720Y-33784552D01*
X104633959Y-34241695D02*
X104633959Y-33441695D01*
X104633959Y-33441695D02*
X104938721Y-33441695D01*
X104938721Y-33441695D02*
X105014911Y-33479790D01*
X105014911Y-33479790D02*
X105053006Y-33517885D01*
X105053006Y-33517885D02*
X105091102Y-33594076D01*
X105091102Y-33594076D02*
X105091102Y-33708361D01*
X105091102Y-33708361D02*
X105053006Y-33784552D01*
X105053006Y-33784552D02*
X105014911Y-33822647D01*
X105014911Y-33822647D02*
X104938721Y-33860742D01*
X104938721Y-33860742D02*
X104633959Y-33860742D01*
X101145863Y-33641695D02*
X101679197Y-33641695D01*
X101679197Y-33641695D02*
X101336339Y-34441695D01*
X101983959Y-34441695D02*
X101983959Y-33641695D01*
X101983959Y-33641695D02*
X102288721Y-33641695D01*
X102288721Y-33641695D02*
X102364911Y-33679790D01*
X102364911Y-33679790D02*
X102403006Y-33717885D01*
X102403006Y-33717885D02*
X102441102Y-33794076D01*
X102441102Y-33794076D02*
X102441102Y-33908361D01*
X102441102Y-33908361D02*
X102403006Y-33984552D01*
X102403006Y-33984552D02*
X102364911Y-34022647D01*
X102364911Y-34022647D02*
X102288721Y-34060742D01*
X102288721Y-34060742D02*
X101983959Y-34060742D01*
X98964911Y-33591695D02*
X98812530Y-33591695D01*
X98812530Y-33591695D02*
X98736339Y-33629790D01*
X98736339Y-33629790D02*
X98698244Y-33667885D01*
X98698244Y-33667885D02*
X98622054Y-33782171D01*
X98622054Y-33782171D02*
X98583958Y-33934552D01*
X98583958Y-33934552D02*
X98583958Y-34239314D01*
X98583958Y-34239314D02*
X98622054Y-34315504D01*
X98622054Y-34315504D02*
X98660149Y-34353600D01*
X98660149Y-34353600D02*
X98736339Y-34391695D01*
X98736339Y-34391695D02*
X98888720Y-34391695D01*
X98888720Y-34391695D02*
X98964911Y-34353600D01*
X98964911Y-34353600D02*
X99003006Y-34315504D01*
X99003006Y-34315504D02*
X99041101Y-34239314D01*
X99041101Y-34239314D02*
X99041101Y-34048838D01*
X99041101Y-34048838D02*
X99003006Y-33972647D01*
X99003006Y-33972647D02*
X98964911Y-33934552D01*
X98964911Y-33934552D02*
X98888720Y-33896457D01*
X98888720Y-33896457D02*
X98736339Y-33896457D01*
X98736339Y-33896457D02*
X98660149Y-33934552D01*
X98660149Y-33934552D02*
X98622054Y-33972647D01*
X98622054Y-33972647D02*
X98583958Y-34048838D01*
X99383959Y-34391695D02*
X99383959Y-33591695D01*
X99383959Y-33591695D02*
X99688721Y-33591695D01*
X99688721Y-33591695D02*
X99764911Y-33629790D01*
X99764911Y-33629790D02*
X99803006Y-33667885D01*
X99803006Y-33667885D02*
X99841102Y-33744076D01*
X99841102Y-33744076D02*
X99841102Y-33858361D01*
X99841102Y-33858361D02*
X99803006Y-33934552D01*
X99803006Y-33934552D02*
X99764911Y-33972647D01*
X99764911Y-33972647D02*
X99688721Y-34010742D01*
X99688721Y-34010742D02*
X99383959Y-34010742D01*
X96503006Y-33591695D02*
X96122054Y-33591695D01*
X96122054Y-33591695D02*
X96083958Y-33972647D01*
X96083958Y-33972647D02*
X96122054Y-33934552D01*
X96122054Y-33934552D02*
X96198244Y-33896457D01*
X96198244Y-33896457D02*
X96388720Y-33896457D01*
X96388720Y-33896457D02*
X96464911Y-33934552D01*
X96464911Y-33934552D02*
X96503006Y-33972647D01*
X96503006Y-33972647D02*
X96541101Y-34048838D01*
X96541101Y-34048838D02*
X96541101Y-34239314D01*
X96541101Y-34239314D02*
X96503006Y-34315504D01*
X96503006Y-34315504D02*
X96464911Y-34353600D01*
X96464911Y-34353600D02*
X96388720Y-34391695D01*
X96388720Y-34391695D02*
X96198244Y-34391695D01*
X96198244Y-34391695D02*
X96122054Y-34353600D01*
X96122054Y-34353600D02*
X96083958Y-34315504D01*
X96883959Y-34391695D02*
X96883959Y-33591695D01*
X96883959Y-33591695D02*
X97188721Y-33591695D01*
X97188721Y-33591695D02*
X97264911Y-33629790D01*
X97264911Y-33629790D02*
X97303006Y-33667885D01*
X97303006Y-33667885D02*
X97341102Y-33744076D01*
X97341102Y-33744076D02*
X97341102Y-33858361D01*
X97341102Y-33858361D02*
X97303006Y-33934552D01*
X97303006Y-33934552D02*
X97264911Y-33972647D01*
X97264911Y-33972647D02*
X97188721Y-34010742D01*
X97188721Y-34010742D02*
X96883959Y-34010742D01*
X93864911Y-33858361D02*
X93864911Y-34391695D01*
X93674435Y-33553600D02*
X93483958Y-34125028D01*
X93483958Y-34125028D02*
X93979197Y-34125028D01*
X94283959Y-34391695D02*
X94283959Y-33591695D01*
X94283959Y-33591695D02*
X94588721Y-33591695D01*
X94588721Y-33591695D02*
X94664911Y-33629790D01*
X94664911Y-33629790D02*
X94703006Y-33667885D01*
X94703006Y-33667885D02*
X94741102Y-33744076D01*
X94741102Y-33744076D02*
X94741102Y-33858361D01*
X94741102Y-33858361D02*
X94703006Y-33934552D01*
X94703006Y-33934552D02*
X94664911Y-33972647D01*
X94664911Y-33972647D02*
X94588721Y-34010742D01*
X94588721Y-34010742D02*
X94283959Y-34010742D01*
X88633958Y-33567885D02*
X88672054Y-33529790D01*
X88672054Y-33529790D02*
X88748244Y-33491695D01*
X88748244Y-33491695D02*
X88938720Y-33491695D01*
X88938720Y-33491695D02*
X89014911Y-33529790D01*
X89014911Y-33529790D02*
X89053006Y-33567885D01*
X89053006Y-33567885D02*
X89091101Y-33644076D01*
X89091101Y-33644076D02*
X89091101Y-33720266D01*
X89091101Y-33720266D02*
X89053006Y-33834552D01*
X89053006Y-33834552D02*
X88595863Y-34291695D01*
X88595863Y-34291695D02*
X89091101Y-34291695D01*
X89433959Y-34291695D02*
X89433959Y-33491695D01*
X89433959Y-33491695D02*
X89738721Y-33491695D01*
X89738721Y-33491695D02*
X89814911Y-33529790D01*
X89814911Y-33529790D02*
X89853006Y-33567885D01*
X89853006Y-33567885D02*
X89891102Y-33644076D01*
X89891102Y-33644076D02*
X89891102Y-33758361D01*
X89891102Y-33758361D02*
X89853006Y-33834552D01*
X89853006Y-33834552D02*
X89814911Y-33872647D01*
X89814911Y-33872647D02*
X89738721Y-33910742D01*
X89738721Y-33910742D02*
X89433959Y-33910742D01*
X86541101Y-34241695D02*
X86083958Y-34241695D01*
X86312530Y-34241695D02*
X86312530Y-33441695D01*
X86312530Y-33441695D02*
X86236339Y-33555980D01*
X86236339Y-33555980D02*
X86160149Y-33632171D01*
X86160149Y-33632171D02*
X86083958Y-33670266D01*
X86883959Y-34241695D02*
X86883959Y-33441695D01*
X86883959Y-33441695D02*
X87188721Y-33441695D01*
X87188721Y-33441695D02*
X87264911Y-33479790D01*
X87264911Y-33479790D02*
X87303006Y-33517885D01*
X87303006Y-33517885D02*
X87341102Y-33594076D01*
X87341102Y-33594076D02*
X87341102Y-33708361D01*
X87341102Y-33708361D02*
X87303006Y-33784552D01*
X87303006Y-33784552D02*
X87264911Y-33822647D01*
X87264911Y-33822647D02*
X87188721Y-33860742D01*
X87188721Y-33860742D02*
X86883959Y-33860742D01*
X90995863Y-33491695D02*
X91491101Y-33491695D01*
X91491101Y-33491695D02*
X91224435Y-33796457D01*
X91224435Y-33796457D02*
X91338720Y-33796457D01*
X91338720Y-33796457D02*
X91414911Y-33834552D01*
X91414911Y-33834552D02*
X91453006Y-33872647D01*
X91453006Y-33872647D02*
X91491101Y-33948838D01*
X91491101Y-33948838D02*
X91491101Y-34139314D01*
X91491101Y-34139314D02*
X91453006Y-34215504D01*
X91453006Y-34215504D02*
X91414911Y-34253600D01*
X91414911Y-34253600D02*
X91338720Y-34291695D01*
X91338720Y-34291695D02*
X91110149Y-34291695D01*
X91110149Y-34291695D02*
X91033958Y-34253600D01*
X91033958Y-34253600D02*
X90995863Y-34215504D01*
X91833959Y-34291695D02*
X91833959Y-33491695D01*
X91833959Y-33491695D02*
X92138721Y-33491695D01*
X92138721Y-33491695D02*
X92214911Y-33529790D01*
X92214911Y-33529790D02*
X92253006Y-33567885D01*
X92253006Y-33567885D02*
X92291102Y-33644076D01*
X92291102Y-33644076D02*
X92291102Y-33758361D01*
X92291102Y-33758361D02*
X92253006Y-33834552D01*
X92253006Y-33834552D02*
X92214911Y-33872647D01*
X92214911Y-33872647D02*
X92138721Y-33910742D01*
X92138721Y-33910742D02*
X91833959Y-33910742D01*
X68940476Y-86609695D02*
X68940476Y-85809695D01*
X68940476Y-86190647D02*
X69397619Y-86190647D01*
X69397619Y-86609695D02*
X69397619Y-85809695D01*
X70121428Y-86076361D02*
X70121428Y-86609695D01*
X69930952Y-85771600D02*
X69740475Y-86343028D01*
X69740475Y-86343028D02*
X70235714Y-86343028D01*
X106390476Y-86309695D02*
X106390476Y-85509695D01*
X106390476Y-85890647D02*
X106847619Y-85890647D01*
X106847619Y-86309695D02*
X106847619Y-85509695D01*
X107152380Y-85509695D02*
X107647618Y-85509695D01*
X107647618Y-85509695D02*
X107380952Y-85814457D01*
X107380952Y-85814457D02*
X107495237Y-85814457D01*
X107495237Y-85814457D02*
X107571428Y-85852552D01*
X107571428Y-85852552D02*
X107609523Y-85890647D01*
X107609523Y-85890647D02*
X107647618Y-85966838D01*
X107647618Y-85966838D02*
X107647618Y-86157314D01*
X107647618Y-86157314D02*
X107609523Y-86233504D01*
X107609523Y-86233504D02*
X107571428Y-86271600D01*
X107571428Y-86271600D02*
X107495237Y-86309695D01*
X107495237Y-86309695D02*
X107266666Y-86309695D01*
X107266666Y-86309695D02*
X107190475Y-86271600D01*
X107190475Y-86271600D02*
X107152380Y-86233504D01*
X53040476Y-33259695D02*
X53040476Y-32459695D01*
X53040476Y-32840647D02*
X53497619Y-32840647D01*
X53497619Y-33259695D02*
X53497619Y-32459695D01*
X53840475Y-32535885D02*
X53878571Y-32497790D01*
X53878571Y-32497790D02*
X53954761Y-32459695D01*
X53954761Y-32459695D02*
X54145237Y-32459695D01*
X54145237Y-32459695D02*
X54221428Y-32497790D01*
X54221428Y-32497790D02*
X54259523Y-32535885D01*
X54259523Y-32535885D02*
X54297618Y-32612076D01*
X54297618Y-32612076D02*
X54297618Y-32688266D01*
X54297618Y-32688266D02*
X54259523Y-32802552D01*
X54259523Y-32802552D02*
X53802380Y-33259695D01*
X53802380Y-33259695D02*
X54297618Y-33259695D01*
X72640476Y-34309695D02*
X72640476Y-33509695D01*
X72640476Y-33890647D02*
X73097619Y-33890647D01*
X73097619Y-34309695D02*
X73097619Y-33509695D01*
X73897618Y-34309695D02*
X73440475Y-34309695D01*
X73669047Y-34309695D02*
X73669047Y-33509695D01*
X73669047Y-33509695D02*
X73592856Y-33623980D01*
X73592856Y-33623980D02*
X73516666Y-33700171D01*
X73516666Y-33700171D02*
X73440475Y-33738266D01*
X70810647Y-83597619D02*
X70810647Y-83864285D01*
X71229695Y-83864285D02*
X70429695Y-83864285D01*
X70429695Y-83864285D02*
X70429695Y-83483333D01*
X70810647Y-82911905D02*
X70848742Y-82797619D01*
X70848742Y-82797619D02*
X70886838Y-82759524D01*
X70886838Y-82759524D02*
X70963028Y-82721428D01*
X70963028Y-82721428D02*
X71077314Y-82721428D01*
X71077314Y-82721428D02*
X71153504Y-82759524D01*
X71153504Y-82759524D02*
X71191600Y-82797619D01*
X71191600Y-82797619D02*
X71229695Y-82873809D01*
X71229695Y-82873809D02*
X71229695Y-83178571D01*
X71229695Y-83178571D02*
X70429695Y-83178571D01*
X70429695Y-83178571D02*
X70429695Y-82911905D01*
X70429695Y-82911905D02*
X70467790Y-82835714D01*
X70467790Y-82835714D02*
X70505885Y-82797619D01*
X70505885Y-82797619D02*
X70582076Y-82759524D01*
X70582076Y-82759524D02*
X70658266Y-82759524D01*
X70658266Y-82759524D02*
X70734457Y-82797619D01*
X70734457Y-82797619D02*
X70772552Y-82835714D01*
X70772552Y-82835714D02*
X70810647Y-82911905D01*
X70810647Y-82911905D02*
X70810647Y-83178571D01*
X71229695Y-81959524D02*
X71229695Y-82416667D01*
X71229695Y-82188095D02*
X70429695Y-82188095D01*
X70429695Y-82188095D02*
X70543980Y-82264286D01*
X70543980Y-82264286D02*
X70620171Y-82340476D01*
X70620171Y-82340476D02*
X70658266Y-82416667D01*
X71229695Y-81197619D02*
X71229695Y-81654762D01*
X71229695Y-81426190D02*
X70429695Y-81426190D01*
X70429695Y-81426190D02*
X70543980Y-81502381D01*
X70543980Y-81502381D02*
X70620171Y-81578571D01*
X70620171Y-81578571D02*
X70658266Y-81654762D01*
X104890647Y-56647619D02*
X104890647Y-56914285D01*
X105309695Y-56914285D02*
X104509695Y-56914285D01*
X104509695Y-56914285D02*
X104509695Y-56533333D01*
X104890647Y-55961905D02*
X104928742Y-55847619D01*
X104928742Y-55847619D02*
X104966838Y-55809524D01*
X104966838Y-55809524D02*
X105043028Y-55771428D01*
X105043028Y-55771428D02*
X105157314Y-55771428D01*
X105157314Y-55771428D02*
X105233504Y-55809524D01*
X105233504Y-55809524D02*
X105271600Y-55847619D01*
X105271600Y-55847619D02*
X105309695Y-55923809D01*
X105309695Y-55923809D02*
X105309695Y-56228571D01*
X105309695Y-56228571D02*
X104509695Y-56228571D01*
X104509695Y-56228571D02*
X104509695Y-55961905D01*
X104509695Y-55961905D02*
X104547790Y-55885714D01*
X104547790Y-55885714D02*
X104585885Y-55847619D01*
X104585885Y-55847619D02*
X104662076Y-55809524D01*
X104662076Y-55809524D02*
X104738266Y-55809524D01*
X104738266Y-55809524D02*
X104814457Y-55847619D01*
X104814457Y-55847619D02*
X104852552Y-55885714D01*
X104852552Y-55885714D02*
X104890647Y-55961905D01*
X104890647Y-55961905D02*
X104890647Y-56228571D01*
X105309695Y-55009524D02*
X105309695Y-55466667D01*
X105309695Y-55238095D02*
X104509695Y-55238095D01*
X104509695Y-55238095D02*
X104623980Y-55314286D01*
X104623980Y-55314286D02*
X104700171Y-55390476D01*
X104700171Y-55390476D02*
X104738266Y-55466667D01*
X104509695Y-54514285D02*
X104509695Y-54438095D01*
X104509695Y-54438095D02*
X104547790Y-54361904D01*
X104547790Y-54361904D02*
X104585885Y-54323809D01*
X104585885Y-54323809D02*
X104662076Y-54285714D01*
X104662076Y-54285714D02*
X104814457Y-54247619D01*
X104814457Y-54247619D02*
X105004933Y-54247619D01*
X105004933Y-54247619D02*
X105157314Y-54285714D01*
X105157314Y-54285714D02*
X105233504Y-54323809D01*
X105233504Y-54323809D02*
X105271600Y-54361904D01*
X105271600Y-54361904D02*
X105309695Y-54438095D01*
X105309695Y-54438095D02*
X105309695Y-54514285D01*
X105309695Y-54514285D02*
X105271600Y-54590476D01*
X105271600Y-54590476D02*
X105233504Y-54628571D01*
X105233504Y-54628571D02*
X105157314Y-54666666D01*
X105157314Y-54666666D02*
X105004933Y-54704762D01*
X105004933Y-54704762D02*
X104814457Y-54704762D01*
X104814457Y-54704762D02*
X104662076Y-54666666D01*
X104662076Y-54666666D02*
X104585885Y-54628571D01*
X104585885Y-54628571D02*
X104547790Y-54590476D01*
X104547790Y-54590476D02*
X104509695Y-54514285D01*
X65083333Y-79090647D02*
X64816667Y-79090647D01*
X64816667Y-79509695D02*
X64816667Y-78709695D01*
X64816667Y-78709695D02*
X65197619Y-78709695D01*
X65769047Y-79090647D02*
X65883333Y-79128742D01*
X65883333Y-79128742D02*
X65921428Y-79166838D01*
X65921428Y-79166838D02*
X65959524Y-79243028D01*
X65959524Y-79243028D02*
X65959524Y-79357314D01*
X65959524Y-79357314D02*
X65921428Y-79433504D01*
X65921428Y-79433504D02*
X65883333Y-79471600D01*
X65883333Y-79471600D02*
X65807143Y-79509695D01*
X65807143Y-79509695D02*
X65502381Y-79509695D01*
X65502381Y-79509695D02*
X65502381Y-78709695D01*
X65502381Y-78709695D02*
X65769047Y-78709695D01*
X65769047Y-78709695D02*
X65845238Y-78747790D01*
X65845238Y-78747790D02*
X65883333Y-78785885D01*
X65883333Y-78785885D02*
X65921428Y-78862076D01*
X65921428Y-78862076D02*
X65921428Y-78938266D01*
X65921428Y-78938266D02*
X65883333Y-79014457D01*
X65883333Y-79014457D02*
X65845238Y-79052552D01*
X65845238Y-79052552D02*
X65769047Y-79090647D01*
X65769047Y-79090647D02*
X65502381Y-79090647D01*
X66340476Y-79509695D02*
X66492857Y-79509695D01*
X66492857Y-79509695D02*
X66569047Y-79471600D01*
X66569047Y-79471600D02*
X66607143Y-79433504D01*
X66607143Y-79433504D02*
X66683333Y-79319219D01*
X66683333Y-79319219D02*
X66721428Y-79166838D01*
X66721428Y-79166838D02*
X66721428Y-78862076D01*
X66721428Y-78862076D02*
X66683333Y-78785885D01*
X66683333Y-78785885D02*
X66645238Y-78747790D01*
X66645238Y-78747790D02*
X66569047Y-78709695D01*
X66569047Y-78709695D02*
X66416666Y-78709695D01*
X66416666Y-78709695D02*
X66340476Y-78747790D01*
X66340476Y-78747790D02*
X66302381Y-78785885D01*
X66302381Y-78785885D02*
X66264285Y-78862076D01*
X66264285Y-78862076D02*
X66264285Y-79052552D01*
X66264285Y-79052552D02*
X66302381Y-79128742D01*
X66302381Y-79128742D02*
X66340476Y-79166838D01*
X66340476Y-79166838D02*
X66416666Y-79204933D01*
X66416666Y-79204933D02*
X66569047Y-79204933D01*
X66569047Y-79204933D02*
X66645238Y-79166838D01*
X66645238Y-79166838D02*
X66683333Y-79128742D01*
X66683333Y-79128742D02*
X66721428Y-79052552D01*
X73535714Y-49233504D02*
X73497618Y-49271600D01*
X73497618Y-49271600D02*
X73383333Y-49309695D01*
X73383333Y-49309695D02*
X73307142Y-49309695D01*
X73307142Y-49309695D02*
X73192856Y-49271600D01*
X73192856Y-49271600D02*
X73116666Y-49195409D01*
X73116666Y-49195409D02*
X73078571Y-49119219D01*
X73078571Y-49119219D02*
X73040475Y-48966838D01*
X73040475Y-48966838D02*
X73040475Y-48852552D01*
X73040475Y-48852552D02*
X73078571Y-48700171D01*
X73078571Y-48700171D02*
X73116666Y-48623980D01*
X73116666Y-48623980D02*
X73192856Y-48547790D01*
X73192856Y-48547790D02*
X73307142Y-48509695D01*
X73307142Y-48509695D02*
X73383333Y-48509695D01*
X73383333Y-48509695D02*
X73497618Y-48547790D01*
X73497618Y-48547790D02*
X73535714Y-48585885D01*
X74221428Y-48776361D02*
X74221428Y-49309695D01*
X74030952Y-48471600D02*
X73840475Y-49043028D01*
X73840475Y-49043028D02*
X74335714Y-49043028D01*
X75059523Y-49309695D02*
X74602380Y-49309695D01*
X74830952Y-49309695D02*
X74830952Y-48509695D01*
X74830952Y-48509695D02*
X74754761Y-48623980D01*
X74754761Y-48623980D02*
X74678571Y-48700171D01*
X74678571Y-48700171D02*
X74602380Y-48738266D01*
X67533333Y-48690647D02*
X67266667Y-48690647D01*
X67266667Y-49109695D02*
X67266667Y-48309695D01*
X67266667Y-48309695D02*
X67647619Y-48309695D01*
X68219047Y-48690647D02*
X68333333Y-48728742D01*
X68333333Y-48728742D02*
X68371428Y-48766838D01*
X68371428Y-48766838D02*
X68409524Y-48843028D01*
X68409524Y-48843028D02*
X68409524Y-48957314D01*
X68409524Y-48957314D02*
X68371428Y-49033504D01*
X68371428Y-49033504D02*
X68333333Y-49071600D01*
X68333333Y-49071600D02*
X68257143Y-49109695D01*
X68257143Y-49109695D02*
X67952381Y-49109695D01*
X67952381Y-49109695D02*
X67952381Y-48309695D01*
X67952381Y-48309695D02*
X68219047Y-48309695D01*
X68219047Y-48309695D02*
X68295238Y-48347790D01*
X68295238Y-48347790D02*
X68333333Y-48385885D01*
X68333333Y-48385885D02*
X68371428Y-48462076D01*
X68371428Y-48462076D02*
X68371428Y-48538266D01*
X68371428Y-48538266D02*
X68333333Y-48614457D01*
X68333333Y-48614457D02*
X68295238Y-48652552D01*
X68295238Y-48652552D02*
X68219047Y-48690647D01*
X68219047Y-48690647D02*
X67952381Y-48690647D01*
X69095238Y-48576361D02*
X69095238Y-49109695D01*
X68904762Y-48271600D02*
X68714285Y-48843028D01*
X68714285Y-48843028D02*
X69209524Y-48843028D01*
X91109524Y-39959695D02*
X91109524Y-39159695D01*
X91109524Y-39159695D02*
X91300000Y-39159695D01*
X91300000Y-39159695D02*
X91414286Y-39197790D01*
X91414286Y-39197790D02*
X91490476Y-39273980D01*
X91490476Y-39273980D02*
X91528571Y-39350171D01*
X91528571Y-39350171D02*
X91566667Y-39502552D01*
X91566667Y-39502552D02*
X91566667Y-39616838D01*
X91566667Y-39616838D02*
X91528571Y-39769219D01*
X91528571Y-39769219D02*
X91490476Y-39845409D01*
X91490476Y-39845409D02*
X91414286Y-39921600D01*
X91414286Y-39921600D02*
X91300000Y-39959695D01*
X91300000Y-39959695D02*
X91109524Y-39959695D01*
X91871428Y-39235885D02*
X91909524Y-39197790D01*
X91909524Y-39197790D02*
X91985714Y-39159695D01*
X91985714Y-39159695D02*
X92176190Y-39159695D01*
X92176190Y-39159695D02*
X92252381Y-39197790D01*
X92252381Y-39197790D02*
X92290476Y-39235885D01*
X92290476Y-39235885D02*
X92328571Y-39312076D01*
X92328571Y-39312076D02*
X92328571Y-39388266D01*
X92328571Y-39388266D02*
X92290476Y-39502552D01*
X92290476Y-39502552D02*
X91833333Y-39959695D01*
X91833333Y-39959695D02*
X92328571Y-39959695D01*
X90666667Y-50583504D02*
X90628571Y-50621600D01*
X90628571Y-50621600D02*
X90514286Y-50659695D01*
X90514286Y-50659695D02*
X90438095Y-50659695D01*
X90438095Y-50659695D02*
X90323809Y-50621600D01*
X90323809Y-50621600D02*
X90247619Y-50545409D01*
X90247619Y-50545409D02*
X90209524Y-50469219D01*
X90209524Y-50469219D02*
X90171428Y-50316838D01*
X90171428Y-50316838D02*
X90171428Y-50202552D01*
X90171428Y-50202552D02*
X90209524Y-50050171D01*
X90209524Y-50050171D02*
X90247619Y-49973980D01*
X90247619Y-49973980D02*
X90323809Y-49897790D01*
X90323809Y-49897790D02*
X90438095Y-49859695D01*
X90438095Y-49859695D02*
X90514286Y-49859695D01*
X90514286Y-49859695D02*
X90628571Y-49897790D01*
X90628571Y-49897790D02*
X90666667Y-49935885D01*
X90971428Y-49935885D02*
X91009524Y-49897790D01*
X91009524Y-49897790D02*
X91085714Y-49859695D01*
X91085714Y-49859695D02*
X91276190Y-49859695D01*
X91276190Y-49859695D02*
X91352381Y-49897790D01*
X91352381Y-49897790D02*
X91390476Y-49935885D01*
X91390476Y-49935885D02*
X91428571Y-50012076D01*
X91428571Y-50012076D02*
X91428571Y-50088266D01*
X91428571Y-50088266D02*
X91390476Y-50202552D01*
X91390476Y-50202552D02*
X90933333Y-50659695D01*
X90933333Y-50659695D02*
X91428571Y-50659695D01*
X103916667Y-46783504D02*
X103878571Y-46821600D01*
X103878571Y-46821600D02*
X103764286Y-46859695D01*
X103764286Y-46859695D02*
X103688095Y-46859695D01*
X103688095Y-46859695D02*
X103573809Y-46821600D01*
X103573809Y-46821600D02*
X103497619Y-46745409D01*
X103497619Y-46745409D02*
X103459524Y-46669219D01*
X103459524Y-46669219D02*
X103421428Y-46516838D01*
X103421428Y-46516838D02*
X103421428Y-46402552D01*
X103421428Y-46402552D02*
X103459524Y-46250171D01*
X103459524Y-46250171D02*
X103497619Y-46173980D01*
X103497619Y-46173980D02*
X103573809Y-46097790D01*
X103573809Y-46097790D02*
X103688095Y-46059695D01*
X103688095Y-46059695D02*
X103764286Y-46059695D01*
X103764286Y-46059695D02*
X103878571Y-46097790D01*
X103878571Y-46097790D02*
X103916667Y-46135885D01*
X104678571Y-46859695D02*
X104221428Y-46859695D01*
X104450000Y-46859695D02*
X104450000Y-46059695D01*
X104450000Y-46059695D02*
X104373809Y-46173980D01*
X104373809Y-46173980D02*
X104297619Y-46250171D01*
X104297619Y-46250171D02*
X104221428Y-46288266D01*
X78383333Y-79640647D02*
X78116667Y-79640647D01*
X78116667Y-80059695D02*
X78116667Y-79259695D01*
X78116667Y-79259695D02*
X78497619Y-79259695D01*
X79069047Y-79640647D02*
X79183333Y-79678742D01*
X79183333Y-79678742D02*
X79221428Y-79716838D01*
X79221428Y-79716838D02*
X79259524Y-79793028D01*
X79259524Y-79793028D02*
X79259524Y-79907314D01*
X79259524Y-79907314D02*
X79221428Y-79983504D01*
X79221428Y-79983504D02*
X79183333Y-80021600D01*
X79183333Y-80021600D02*
X79107143Y-80059695D01*
X79107143Y-80059695D02*
X78802381Y-80059695D01*
X78802381Y-80059695D02*
X78802381Y-79259695D01*
X78802381Y-79259695D02*
X79069047Y-79259695D01*
X79069047Y-79259695D02*
X79145238Y-79297790D01*
X79145238Y-79297790D02*
X79183333Y-79335885D01*
X79183333Y-79335885D02*
X79221428Y-79412076D01*
X79221428Y-79412076D02*
X79221428Y-79488266D01*
X79221428Y-79488266D02*
X79183333Y-79564457D01*
X79183333Y-79564457D02*
X79145238Y-79602552D01*
X79145238Y-79602552D02*
X79069047Y-79640647D01*
X79069047Y-79640647D02*
X78802381Y-79640647D01*
X79526190Y-79259695D02*
X80021428Y-79259695D01*
X80021428Y-79259695D02*
X79754762Y-79564457D01*
X79754762Y-79564457D02*
X79869047Y-79564457D01*
X79869047Y-79564457D02*
X79945238Y-79602552D01*
X79945238Y-79602552D02*
X79983333Y-79640647D01*
X79983333Y-79640647D02*
X80021428Y-79716838D01*
X80021428Y-79716838D02*
X80021428Y-79907314D01*
X80021428Y-79907314D02*
X79983333Y-79983504D01*
X79983333Y-79983504D02*
X79945238Y-80021600D01*
X79945238Y-80021600D02*
X79869047Y-80059695D01*
X79869047Y-80059695D02*
X79640476Y-80059695D01*
X79640476Y-80059695D02*
X79564285Y-80021600D01*
X79564285Y-80021600D02*
X79526190Y-79983504D01*
X87566667Y-75359695D02*
X87300000Y-74978742D01*
X87109524Y-75359695D02*
X87109524Y-74559695D01*
X87109524Y-74559695D02*
X87414286Y-74559695D01*
X87414286Y-74559695D02*
X87490476Y-74597790D01*
X87490476Y-74597790D02*
X87528571Y-74635885D01*
X87528571Y-74635885D02*
X87566667Y-74712076D01*
X87566667Y-74712076D02*
X87566667Y-74826361D01*
X87566667Y-74826361D02*
X87528571Y-74902552D01*
X87528571Y-74902552D02*
X87490476Y-74940647D01*
X87490476Y-74940647D02*
X87414286Y-74978742D01*
X87414286Y-74978742D02*
X87109524Y-74978742D01*
X87833333Y-74559695D02*
X88366667Y-74559695D01*
X88366667Y-74559695D02*
X88023809Y-75359695D01*
X54267133Y-60849895D02*
X54267133Y-61421323D01*
X54267133Y-61421323D02*
X54229038Y-61535609D01*
X54229038Y-61535609D02*
X54152847Y-61611800D01*
X54152847Y-61611800D02*
X54038562Y-61649895D01*
X54038562Y-61649895D02*
X53962371Y-61649895D01*
X54609990Y-60926085D02*
X54648086Y-60887990D01*
X54648086Y-60887990D02*
X54724276Y-60849895D01*
X54724276Y-60849895D02*
X54914752Y-60849895D01*
X54914752Y-60849895D02*
X54990943Y-60887990D01*
X54990943Y-60887990D02*
X55029038Y-60926085D01*
X55029038Y-60926085D02*
X55067133Y-61002276D01*
X55067133Y-61002276D02*
X55067133Y-61078466D01*
X55067133Y-61078466D02*
X55029038Y-61192752D01*
X55029038Y-61192752D02*
X54571895Y-61649895D01*
X54571895Y-61649895D02*
X55067133Y-61649895D01*
X78383504Y-47614285D02*
X78421600Y-47652381D01*
X78421600Y-47652381D02*
X78459695Y-47766666D01*
X78459695Y-47766666D02*
X78459695Y-47842857D01*
X78459695Y-47842857D02*
X78421600Y-47957143D01*
X78421600Y-47957143D02*
X78345409Y-48033333D01*
X78345409Y-48033333D02*
X78269219Y-48071428D01*
X78269219Y-48071428D02*
X78116838Y-48109524D01*
X78116838Y-48109524D02*
X78002552Y-48109524D01*
X78002552Y-48109524D02*
X77850171Y-48071428D01*
X77850171Y-48071428D02*
X77773980Y-48033333D01*
X77773980Y-48033333D02*
X77697790Y-47957143D01*
X77697790Y-47957143D02*
X77659695Y-47842857D01*
X77659695Y-47842857D02*
X77659695Y-47766666D01*
X77659695Y-47766666D02*
X77697790Y-47652381D01*
X77697790Y-47652381D02*
X77735885Y-47614285D01*
X77659695Y-47347619D02*
X77659695Y-46852381D01*
X77659695Y-46852381D02*
X77964457Y-47119047D01*
X77964457Y-47119047D02*
X77964457Y-47004762D01*
X77964457Y-47004762D02*
X78002552Y-46928571D01*
X78002552Y-46928571D02*
X78040647Y-46890476D01*
X78040647Y-46890476D02*
X78116838Y-46852381D01*
X78116838Y-46852381D02*
X78307314Y-46852381D01*
X78307314Y-46852381D02*
X78383504Y-46890476D01*
X78383504Y-46890476D02*
X78421600Y-46928571D01*
X78421600Y-46928571D02*
X78459695Y-47004762D01*
X78459695Y-47004762D02*
X78459695Y-47233333D01*
X78459695Y-47233333D02*
X78421600Y-47309524D01*
X78421600Y-47309524D02*
X78383504Y-47347619D01*
X78459695Y-46471428D02*
X78459695Y-46319047D01*
X78459695Y-46319047D02*
X78421600Y-46242857D01*
X78421600Y-46242857D02*
X78383504Y-46204761D01*
X78383504Y-46204761D02*
X78269219Y-46128571D01*
X78269219Y-46128571D02*
X78116838Y-46090476D01*
X78116838Y-46090476D02*
X77812076Y-46090476D01*
X77812076Y-46090476D02*
X77735885Y-46128571D01*
X77735885Y-46128571D02*
X77697790Y-46166666D01*
X77697790Y-46166666D02*
X77659695Y-46242857D01*
X77659695Y-46242857D02*
X77659695Y-46395238D01*
X77659695Y-46395238D02*
X77697790Y-46471428D01*
X77697790Y-46471428D02*
X77735885Y-46509523D01*
X77735885Y-46509523D02*
X77812076Y-46547619D01*
X77812076Y-46547619D02*
X78002552Y-46547619D01*
X78002552Y-46547619D02*
X78078742Y-46509523D01*
X78078742Y-46509523D02*
X78116838Y-46471428D01*
X78116838Y-46471428D02*
X78154933Y-46395238D01*
X78154933Y-46395238D02*
X78154933Y-46242857D01*
X78154933Y-46242857D02*
X78116838Y-46166666D01*
X78116838Y-46166666D02*
X78078742Y-46128571D01*
X78078742Y-46128571D02*
X78002552Y-46090476D01*
X84040476Y-61209695D02*
X84040476Y-61857314D01*
X84040476Y-61857314D02*
X84078571Y-61933504D01*
X84078571Y-61933504D02*
X84116666Y-61971600D01*
X84116666Y-61971600D02*
X84192857Y-62009695D01*
X84192857Y-62009695D02*
X84345238Y-62009695D01*
X84345238Y-62009695D02*
X84421428Y-61971600D01*
X84421428Y-61971600D02*
X84459523Y-61933504D01*
X84459523Y-61933504D02*
X84497619Y-61857314D01*
X84497619Y-61857314D02*
X84497619Y-61209695D01*
X85259523Y-61209695D02*
X84878571Y-61209695D01*
X84878571Y-61209695D02*
X84840475Y-61590647D01*
X84840475Y-61590647D02*
X84878571Y-61552552D01*
X84878571Y-61552552D02*
X84954761Y-61514457D01*
X84954761Y-61514457D02*
X85145237Y-61514457D01*
X85145237Y-61514457D02*
X85221428Y-61552552D01*
X85221428Y-61552552D02*
X85259523Y-61590647D01*
X85259523Y-61590647D02*
X85297618Y-61666838D01*
X85297618Y-61666838D02*
X85297618Y-61857314D01*
X85297618Y-61857314D02*
X85259523Y-61933504D01*
X85259523Y-61933504D02*
X85221428Y-61971600D01*
X85221428Y-61971600D02*
X85145237Y-62009695D01*
X85145237Y-62009695D02*
X84954761Y-62009695D01*
X84954761Y-62009695D02*
X84878571Y-61971600D01*
X84878571Y-61971600D02*
X84840475Y-61933504D01*
X51041333Y-91009695D02*
X51041333Y-91581123D01*
X51041333Y-91581123D02*
X51003238Y-91695409D01*
X51003238Y-91695409D02*
X50927047Y-91771600D01*
X50927047Y-91771600D02*
X50812762Y-91809695D01*
X50812762Y-91809695D02*
X50736571Y-91809695D01*
X51841333Y-91809695D02*
X51384190Y-91809695D01*
X51612762Y-91809695D02*
X51612762Y-91009695D01*
X51612762Y-91009695D02*
X51536571Y-91123980D01*
X51536571Y-91123980D02*
X51460381Y-91200171D01*
X51460381Y-91200171D02*
X51384190Y-91238266D01*
X92683333Y-63520647D02*
X92416667Y-63520647D01*
X92416667Y-63939695D02*
X92416667Y-63139695D01*
X92416667Y-63139695D02*
X92797619Y-63139695D01*
X93369047Y-63520647D02*
X93483333Y-63558742D01*
X93483333Y-63558742D02*
X93521428Y-63596838D01*
X93521428Y-63596838D02*
X93559524Y-63673028D01*
X93559524Y-63673028D02*
X93559524Y-63787314D01*
X93559524Y-63787314D02*
X93521428Y-63863504D01*
X93521428Y-63863504D02*
X93483333Y-63901600D01*
X93483333Y-63901600D02*
X93407143Y-63939695D01*
X93407143Y-63939695D02*
X93102381Y-63939695D01*
X93102381Y-63939695D02*
X93102381Y-63139695D01*
X93102381Y-63139695D02*
X93369047Y-63139695D01*
X93369047Y-63139695D02*
X93445238Y-63177790D01*
X93445238Y-63177790D02*
X93483333Y-63215885D01*
X93483333Y-63215885D02*
X93521428Y-63292076D01*
X93521428Y-63292076D02*
X93521428Y-63368266D01*
X93521428Y-63368266D02*
X93483333Y-63444457D01*
X93483333Y-63444457D02*
X93445238Y-63482552D01*
X93445238Y-63482552D02*
X93369047Y-63520647D01*
X93369047Y-63520647D02*
X93102381Y-63520647D01*
X94283333Y-63139695D02*
X93902381Y-63139695D01*
X93902381Y-63139695D02*
X93864285Y-63520647D01*
X93864285Y-63520647D02*
X93902381Y-63482552D01*
X93902381Y-63482552D02*
X93978571Y-63444457D01*
X93978571Y-63444457D02*
X94169047Y-63444457D01*
X94169047Y-63444457D02*
X94245238Y-63482552D01*
X94245238Y-63482552D02*
X94283333Y-63520647D01*
X94283333Y-63520647D02*
X94321428Y-63596838D01*
X94321428Y-63596838D02*
X94321428Y-63787314D01*
X94321428Y-63787314D02*
X94283333Y-63863504D01*
X94283333Y-63863504D02*
X94245238Y-63901600D01*
X94245238Y-63901600D02*
X94169047Y-63939695D01*
X94169047Y-63939695D02*
X93978571Y-63939695D01*
X93978571Y-63939695D02*
X93902381Y-63901600D01*
X93902381Y-63901600D02*
X93864285Y-63863504D01*
X92240476Y-88209695D02*
X92240476Y-88857314D01*
X92240476Y-88857314D02*
X92278571Y-88933504D01*
X92278571Y-88933504D02*
X92316666Y-88971600D01*
X92316666Y-88971600D02*
X92392857Y-89009695D01*
X92392857Y-89009695D02*
X92545238Y-89009695D01*
X92545238Y-89009695D02*
X92621428Y-88971600D01*
X92621428Y-88971600D02*
X92659523Y-88933504D01*
X92659523Y-88933504D02*
X92697619Y-88857314D01*
X92697619Y-88857314D02*
X92697619Y-88209695D01*
X93421428Y-88476361D02*
X93421428Y-89009695D01*
X93230952Y-88171600D02*
X93040475Y-88743028D01*
X93040475Y-88743028D02*
X93535714Y-88743028D01*
X94483504Y-76664285D02*
X94521600Y-76702381D01*
X94521600Y-76702381D02*
X94559695Y-76816666D01*
X94559695Y-76816666D02*
X94559695Y-76892857D01*
X94559695Y-76892857D02*
X94521600Y-77007143D01*
X94521600Y-77007143D02*
X94445409Y-77083333D01*
X94445409Y-77083333D02*
X94369219Y-77121428D01*
X94369219Y-77121428D02*
X94216838Y-77159524D01*
X94216838Y-77159524D02*
X94102552Y-77159524D01*
X94102552Y-77159524D02*
X93950171Y-77121428D01*
X93950171Y-77121428D02*
X93873980Y-77083333D01*
X93873980Y-77083333D02*
X93797790Y-77007143D01*
X93797790Y-77007143D02*
X93759695Y-76892857D01*
X93759695Y-76892857D02*
X93759695Y-76816666D01*
X93759695Y-76816666D02*
X93797790Y-76702381D01*
X93797790Y-76702381D02*
X93835885Y-76664285D01*
X93759695Y-76397619D02*
X93759695Y-75902381D01*
X93759695Y-75902381D02*
X94064457Y-76169047D01*
X94064457Y-76169047D02*
X94064457Y-76054762D01*
X94064457Y-76054762D02*
X94102552Y-75978571D01*
X94102552Y-75978571D02*
X94140647Y-75940476D01*
X94140647Y-75940476D02*
X94216838Y-75902381D01*
X94216838Y-75902381D02*
X94407314Y-75902381D01*
X94407314Y-75902381D02*
X94483504Y-75940476D01*
X94483504Y-75940476D02*
X94521600Y-75978571D01*
X94521600Y-75978571D02*
X94559695Y-76054762D01*
X94559695Y-76054762D02*
X94559695Y-76283333D01*
X94559695Y-76283333D02*
X94521600Y-76359524D01*
X94521600Y-76359524D02*
X94483504Y-76397619D01*
X94559695Y-75140476D02*
X94559695Y-75597619D01*
X94559695Y-75369047D02*
X93759695Y-75369047D01*
X93759695Y-75369047D02*
X93873980Y-75445238D01*
X93873980Y-75445238D02*
X93950171Y-75521428D01*
X93950171Y-75521428D02*
X93988266Y-75597619D01*
X88833504Y-88714285D02*
X88871600Y-88752381D01*
X88871600Y-88752381D02*
X88909695Y-88866666D01*
X88909695Y-88866666D02*
X88909695Y-88942857D01*
X88909695Y-88942857D02*
X88871600Y-89057143D01*
X88871600Y-89057143D02*
X88795409Y-89133333D01*
X88795409Y-89133333D02*
X88719219Y-89171428D01*
X88719219Y-89171428D02*
X88566838Y-89209524D01*
X88566838Y-89209524D02*
X88452552Y-89209524D01*
X88452552Y-89209524D02*
X88300171Y-89171428D01*
X88300171Y-89171428D02*
X88223980Y-89133333D01*
X88223980Y-89133333D02*
X88147790Y-89057143D01*
X88147790Y-89057143D02*
X88109695Y-88942857D01*
X88109695Y-88942857D02*
X88109695Y-88866666D01*
X88109695Y-88866666D02*
X88147790Y-88752381D01*
X88147790Y-88752381D02*
X88185885Y-88714285D01*
X88909695Y-87952381D02*
X88909695Y-88409524D01*
X88909695Y-88180952D02*
X88109695Y-88180952D01*
X88109695Y-88180952D02*
X88223980Y-88257143D01*
X88223980Y-88257143D02*
X88300171Y-88333333D01*
X88300171Y-88333333D02*
X88338266Y-88409524D01*
X88109695Y-87457142D02*
X88109695Y-87380952D01*
X88109695Y-87380952D02*
X88147790Y-87304761D01*
X88147790Y-87304761D02*
X88185885Y-87266666D01*
X88185885Y-87266666D02*
X88262076Y-87228571D01*
X88262076Y-87228571D02*
X88414457Y-87190476D01*
X88414457Y-87190476D02*
X88604933Y-87190476D01*
X88604933Y-87190476D02*
X88757314Y-87228571D01*
X88757314Y-87228571D02*
X88833504Y-87266666D01*
X88833504Y-87266666D02*
X88871600Y-87304761D01*
X88871600Y-87304761D02*
X88909695Y-87380952D01*
X88909695Y-87380952D02*
X88909695Y-87457142D01*
X88909695Y-87457142D02*
X88871600Y-87533333D01*
X88871600Y-87533333D02*
X88833504Y-87571428D01*
X88833504Y-87571428D02*
X88757314Y-87609523D01*
X88757314Y-87609523D02*
X88604933Y-87647619D01*
X88604933Y-87647619D02*
X88414457Y-87647619D01*
X88414457Y-87647619D02*
X88262076Y-87609523D01*
X88262076Y-87609523D02*
X88185885Y-87571428D01*
X88185885Y-87571428D02*
X88147790Y-87533333D01*
X88147790Y-87533333D02*
X88109695Y-87457142D01*
X72383504Y-73864285D02*
X72421600Y-73902381D01*
X72421600Y-73902381D02*
X72459695Y-74016666D01*
X72459695Y-74016666D02*
X72459695Y-74092857D01*
X72459695Y-74092857D02*
X72421600Y-74207143D01*
X72421600Y-74207143D02*
X72345409Y-74283333D01*
X72345409Y-74283333D02*
X72269219Y-74321428D01*
X72269219Y-74321428D02*
X72116838Y-74359524D01*
X72116838Y-74359524D02*
X72002552Y-74359524D01*
X72002552Y-74359524D02*
X71850171Y-74321428D01*
X71850171Y-74321428D02*
X71773980Y-74283333D01*
X71773980Y-74283333D02*
X71697790Y-74207143D01*
X71697790Y-74207143D02*
X71659695Y-74092857D01*
X71659695Y-74092857D02*
X71659695Y-74016666D01*
X71659695Y-74016666D02*
X71697790Y-73902381D01*
X71697790Y-73902381D02*
X71735885Y-73864285D01*
X71735885Y-73559524D02*
X71697790Y-73521428D01*
X71697790Y-73521428D02*
X71659695Y-73445238D01*
X71659695Y-73445238D02*
X71659695Y-73254762D01*
X71659695Y-73254762D02*
X71697790Y-73178571D01*
X71697790Y-73178571D02*
X71735885Y-73140476D01*
X71735885Y-73140476D02*
X71812076Y-73102381D01*
X71812076Y-73102381D02*
X71888266Y-73102381D01*
X71888266Y-73102381D02*
X72002552Y-73140476D01*
X72002552Y-73140476D02*
X72459695Y-73597619D01*
X72459695Y-73597619D02*
X72459695Y-73102381D01*
X71659695Y-72835714D02*
X71659695Y-72340476D01*
X71659695Y-72340476D02*
X71964457Y-72607142D01*
X71964457Y-72607142D02*
X71964457Y-72492857D01*
X71964457Y-72492857D02*
X72002552Y-72416666D01*
X72002552Y-72416666D02*
X72040647Y-72378571D01*
X72040647Y-72378571D02*
X72116838Y-72340476D01*
X72116838Y-72340476D02*
X72307314Y-72340476D01*
X72307314Y-72340476D02*
X72383504Y-72378571D01*
X72383504Y-72378571D02*
X72421600Y-72416666D01*
X72421600Y-72416666D02*
X72459695Y-72492857D01*
X72459695Y-72492857D02*
X72459695Y-72721428D01*
X72459695Y-72721428D02*
X72421600Y-72797619D01*
X72421600Y-72797619D02*
X72383504Y-72835714D01*
X60833333Y-89370647D02*
X60566667Y-89370647D01*
X60566667Y-89789695D02*
X60566667Y-88989695D01*
X60566667Y-88989695D02*
X60947619Y-88989695D01*
X61519047Y-89370647D02*
X61633333Y-89408742D01*
X61633333Y-89408742D02*
X61671428Y-89446838D01*
X61671428Y-89446838D02*
X61709524Y-89523028D01*
X61709524Y-89523028D02*
X61709524Y-89637314D01*
X61709524Y-89637314D02*
X61671428Y-89713504D01*
X61671428Y-89713504D02*
X61633333Y-89751600D01*
X61633333Y-89751600D02*
X61557143Y-89789695D01*
X61557143Y-89789695D02*
X61252381Y-89789695D01*
X61252381Y-89789695D02*
X61252381Y-88989695D01*
X61252381Y-88989695D02*
X61519047Y-88989695D01*
X61519047Y-88989695D02*
X61595238Y-89027790D01*
X61595238Y-89027790D02*
X61633333Y-89065885D01*
X61633333Y-89065885D02*
X61671428Y-89142076D01*
X61671428Y-89142076D02*
X61671428Y-89218266D01*
X61671428Y-89218266D02*
X61633333Y-89294457D01*
X61633333Y-89294457D02*
X61595238Y-89332552D01*
X61595238Y-89332552D02*
X61519047Y-89370647D01*
X61519047Y-89370647D02*
X61252381Y-89370647D01*
X62395238Y-88989695D02*
X62242857Y-88989695D01*
X62242857Y-88989695D02*
X62166666Y-89027790D01*
X62166666Y-89027790D02*
X62128571Y-89065885D01*
X62128571Y-89065885D02*
X62052381Y-89180171D01*
X62052381Y-89180171D02*
X62014285Y-89332552D01*
X62014285Y-89332552D02*
X62014285Y-89637314D01*
X62014285Y-89637314D02*
X62052381Y-89713504D01*
X62052381Y-89713504D02*
X62090476Y-89751600D01*
X62090476Y-89751600D02*
X62166666Y-89789695D01*
X62166666Y-89789695D02*
X62319047Y-89789695D01*
X62319047Y-89789695D02*
X62395238Y-89751600D01*
X62395238Y-89751600D02*
X62433333Y-89713504D01*
X62433333Y-89713504D02*
X62471428Y-89637314D01*
X62471428Y-89637314D02*
X62471428Y-89446838D01*
X62471428Y-89446838D02*
X62433333Y-89370647D01*
X62433333Y-89370647D02*
X62395238Y-89332552D01*
X62395238Y-89332552D02*
X62319047Y-89294457D01*
X62319047Y-89294457D02*
X62166666Y-89294457D01*
X62166666Y-89294457D02*
X62090476Y-89332552D01*
X62090476Y-89332552D02*
X62052381Y-89370647D01*
X62052381Y-89370647D02*
X62014285Y-89446838D01*
X76853504Y-74001785D02*
X76891600Y-74039881D01*
X76891600Y-74039881D02*
X76929695Y-74154166D01*
X76929695Y-74154166D02*
X76929695Y-74230357D01*
X76929695Y-74230357D02*
X76891600Y-74344643D01*
X76891600Y-74344643D02*
X76815409Y-74420833D01*
X76815409Y-74420833D02*
X76739219Y-74458928D01*
X76739219Y-74458928D02*
X76586838Y-74497024D01*
X76586838Y-74497024D02*
X76472552Y-74497024D01*
X76472552Y-74497024D02*
X76320171Y-74458928D01*
X76320171Y-74458928D02*
X76243980Y-74420833D01*
X76243980Y-74420833D02*
X76167790Y-74344643D01*
X76167790Y-74344643D02*
X76129695Y-74230357D01*
X76129695Y-74230357D02*
X76129695Y-74154166D01*
X76129695Y-74154166D02*
X76167790Y-74039881D01*
X76167790Y-74039881D02*
X76205885Y-74001785D01*
X76396361Y-73316071D02*
X76929695Y-73316071D01*
X76091600Y-73506547D02*
X76663028Y-73697024D01*
X76663028Y-73697024D02*
X76663028Y-73201785D01*
X76129695Y-72973214D02*
X76129695Y-72477976D01*
X76129695Y-72477976D02*
X76434457Y-72744642D01*
X76434457Y-72744642D02*
X76434457Y-72630357D01*
X76434457Y-72630357D02*
X76472552Y-72554166D01*
X76472552Y-72554166D02*
X76510647Y-72516071D01*
X76510647Y-72516071D02*
X76586838Y-72477976D01*
X76586838Y-72477976D02*
X76777314Y-72477976D01*
X76777314Y-72477976D02*
X76853504Y-72516071D01*
X76853504Y-72516071D02*
X76891600Y-72554166D01*
X76891600Y-72554166D02*
X76929695Y-72630357D01*
X76929695Y-72630357D02*
X76929695Y-72858928D01*
X76929695Y-72858928D02*
X76891600Y-72935119D01*
X76891600Y-72935119D02*
X76853504Y-72973214D01*
X107271385Y-72165343D02*
X107919004Y-72165343D01*
X107919004Y-72165343D02*
X107995194Y-72127248D01*
X107995194Y-72127248D02*
X108033290Y-72089153D01*
X108033290Y-72089153D02*
X108071385Y-72012962D01*
X108071385Y-72012962D02*
X108071385Y-71860581D01*
X108071385Y-71860581D02*
X108033290Y-71784391D01*
X108033290Y-71784391D02*
X107995194Y-71746296D01*
X107995194Y-71746296D02*
X107919004Y-71708200D01*
X107919004Y-71708200D02*
X107271385Y-71708200D01*
X108071385Y-70908201D02*
X108071385Y-71365344D01*
X108071385Y-71136772D02*
X107271385Y-71136772D01*
X107271385Y-71136772D02*
X107385670Y-71212963D01*
X107385670Y-71212963D02*
X107461861Y-71289153D01*
X107461861Y-71289153D02*
X107499956Y-71365344D01*
X80585714Y-88783504D02*
X80547618Y-88821600D01*
X80547618Y-88821600D02*
X80433333Y-88859695D01*
X80433333Y-88859695D02*
X80357142Y-88859695D01*
X80357142Y-88859695D02*
X80242856Y-88821600D01*
X80242856Y-88821600D02*
X80166666Y-88745409D01*
X80166666Y-88745409D02*
X80128571Y-88669219D01*
X80128571Y-88669219D02*
X80090475Y-88516838D01*
X80090475Y-88516838D02*
X80090475Y-88402552D01*
X80090475Y-88402552D02*
X80128571Y-88250171D01*
X80128571Y-88250171D02*
X80166666Y-88173980D01*
X80166666Y-88173980D02*
X80242856Y-88097790D01*
X80242856Y-88097790D02*
X80357142Y-88059695D01*
X80357142Y-88059695D02*
X80433333Y-88059695D01*
X80433333Y-88059695D02*
X80547618Y-88097790D01*
X80547618Y-88097790D02*
X80585714Y-88135885D01*
X81347618Y-88859695D02*
X80890475Y-88859695D01*
X81119047Y-88859695D02*
X81119047Y-88059695D01*
X81119047Y-88059695D02*
X81042856Y-88173980D01*
X81042856Y-88173980D02*
X80966666Y-88250171D01*
X80966666Y-88250171D02*
X80890475Y-88288266D01*
X82109523Y-88859695D02*
X81652380Y-88859695D01*
X81880952Y-88859695D02*
X81880952Y-88059695D01*
X81880952Y-88059695D02*
X81804761Y-88173980D01*
X81804761Y-88173980D02*
X81728571Y-88250171D01*
X81728571Y-88250171D02*
X81652380Y-88288266D01*
X59943847Y-58504666D02*
X59943847Y-58771332D01*
X60362895Y-58771332D02*
X59562895Y-58771332D01*
X59562895Y-58771332D02*
X59562895Y-58390380D01*
X59943847Y-57818952D02*
X59981942Y-57704666D01*
X59981942Y-57704666D02*
X60020038Y-57666571D01*
X60020038Y-57666571D02*
X60096228Y-57628475D01*
X60096228Y-57628475D02*
X60210514Y-57628475D01*
X60210514Y-57628475D02*
X60286704Y-57666571D01*
X60286704Y-57666571D02*
X60324800Y-57704666D01*
X60324800Y-57704666D02*
X60362895Y-57780856D01*
X60362895Y-57780856D02*
X60362895Y-58085618D01*
X60362895Y-58085618D02*
X59562895Y-58085618D01*
X59562895Y-58085618D02*
X59562895Y-57818952D01*
X59562895Y-57818952D02*
X59600990Y-57742761D01*
X59600990Y-57742761D02*
X59639085Y-57704666D01*
X59639085Y-57704666D02*
X59715276Y-57666571D01*
X59715276Y-57666571D02*
X59791466Y-57666571D01*
X59791466Y-57666571D02*
X59867657Y-57704666D01*
X59867657Y-57704666D02*
X59905752Y-57742761D01*
X59905752Y-57742761D02*
X59943847Y-57818952D01*
X59943847Y-57818952D02*
X59943847Y-58085618D01*
X59562895Y-57361809D02*
X59562895Y-56828475D01*
X59562895Y-56828475D02*
X60362895Y-57171333D01*
X76209704Y-82364285D02*
X76247800Y-82402381D01*
X76247800Y-82402381D02*
X76285895Y-82516666D01*
X76285895Y-82516666D02*
X76285895Y-82592857D01*
X76285895Y-82592857D02*
X76247800Y-82707143D01*
X76247800Y-82707143D02*
X76171609Y-82783333D01*
X76171609Y-82783333D02*
X76095419Y-82821428D01*
X76095419Y-82821428D02*
X75943038Y-82859524D01*
X75943038Y-82859524D02*
X75828752Y-82859524D01*
X75828752Y-82859524D02*
X75676371Y-82821428D01*
X75676371Y-82821428D02*
X75600180Y-82783333D01*
X75600180Y-82783333D02*
X75523990Y-82707143D01*
X75523990Y-82707143D02*
X75485895Y-82592857D01*
X75485895Y-82592857D02*
X75485895Y-82516666D01*
X75485895Y-82516666D02*
X75523990Y-82402381D01*
X75523990Y-82402381D02*
X75562085Y-82364285D01*
X75485895Y-82097619D02*
X75485895Y-81602381D01*
X75485895Y-81602381D02*
X75790657Y-81869047D01*
X75790657Y-81869047D02*
X75790657Y-81754762D01*
X75790657Y-81754762D02*
X75828752Y-81678571D01*
X75828752Y-81678571D02*
X75866847Y-81640476D01*
X75866847Y-81640476D02*
X75943038Y-81602381D01*
X75943038Y-81602381D02*
X76133514Y-81602381D01*
X76133514Y-81602381D02*
X76209704Y-81640476D01*
X76209704Y-81640476D02*
X76247800Y-81678571D01*
X76247800Y-81678571D02*
X76285895Y-81754762D01*
X76285895Y-81754762D02*
X76285895Y-81983333D01*
X76285895Y-81983333D02*
X76247800Y-82059524D01*
X76247800Y-82059524D02*
X76209704Y-82097619D01*
X75485895Y-81107142D02*
X75485895Y-81030952D01*
X75485895Y-81030952D02*
X75523990Y-80954761D01*
X75523990Y-80954761D02*
X75562085Y-80916666D01*
X75562085Y-80916666D02*
X75638276Y-80878571D01*
X75638276Y-80878571D02*
X75790657Y-80840476D01*
X75790657Y-80840476D02*
X75981133Y-80840476D01*
X75981133Y-80840476D02*
X76133514Y-80878571D01*
X76133514Y-80878571D02*
X76209704Y-80916666D01*
X76209704Y-80916666D02*
X76247800Y-80954761D01*
X76247800Y-80954761D02*
X76285895Y-81030952D01*
X76285895Y-81030952D02*
X76285895Y-81107142D01*
X76285895Y-81107142D02*
X76247800Y-81183333D01*
X76247800Y-81183333D02*
X76209704Y-81221428D01*
X76209704Y-81221428D02*
X76133514Y-81259523D01*
X76133514Y-81259523D02*
X75981133Y-81297619D01*
X75981133Y-81297619D02*
X75790657Y-81297619D01*
X75790657Y-81297619D02*
X75638276Y-81259523D01*
X75638276Y-81259523D02*
X75562085Y-81221428D01*
X75562085Y-81221428D02*
X75523990Y-81183333D01*
X75523990Y-81183333D02*
X75485895Y-81107142D01*
X84590647Y-51066666D02*
X84590647Y-51333332D01*
X85009695Y-51333332D02*
X84209695Y-51333332D01*
X84209695Y-51333332D02*
X84209695Y-50952380D01*
X84590647Y-50380952D02*
X84628742Y-50266666D01*
X84628742Y-50266666D02*
X84666838Y-50228571D01*
X84666838Y-50228571D02*
X84743028Y-50190475D01*
X84743028Y-50190475D02*
X84857314Y-50190475D01*
X84857314Y-50190475D02*
X84933504Y-50228571D01*
X84933504Y-50228571D02*
X84971600Y-50266666D01*
X84971600Y-50266666D02*
X85009695Y-50342856D01*
X85009695Y-50342856D02*
X85009695Y-50647618D01*
X85009695Y-50647618D02*
X84209695Y-50647618D01*
X84209695Y-50647618D02*
X84209695Y-50380952D01*
X84209695Y-50380952D02*
X84247790Y-50304761D01*
X84247790Y-50304761D02*
X84285885Y-50266666D01*
X84285885Y-50266666D02*
X84362076Y-50228571D01*
X84362076Y-50228571D02*
X84438266Y-50228571D01*
X84438266Y-50228571D02*
X84514457Y-50266666D01*
X84514457Y-50266666D02*
X84552552Y-50304761D01*
X84552552Y-50304761D02*
X84590647Y-50380952D01*
X84590647Y-50380952D02*
X84590647Y-50647618D01*
X85009695Y-49428571D02*
X85009695Y-49885714D01*
X85009695Y-49657142D02*
X84209695Y-49657142D01*
X84209695Y-49657142D02*
X84323980Y-49733333D01*
X84323980Y-49733333D02*
X84400171Y-49809523D01*
X84400171Y-49809523D02*
X84438266Y-49885714D01*
X78235714Y-85133504D02*
X78197618Y-85171600D01*
X78197618Y-85171600D02*
X78083333Y-85209695D01*
X78083333Y-85209695D02*
X78007142Y-85209695D01*
X78007142Y-85209695D02*
X77892856Y-85171600D01*
X77892856Y-85171600D02*
X77816666Y-85095409D01*
X77816666Y-85095409D02*
X77778571Y-85019219D01*
X77778571Y-85019219D02*
X77740475Y-84866838D01*
X77740475Y-84866838D02*
X77740475Y-84752552D01*
X77740475Y-84752552D02*
X77778571Y-84600171D01*
X77778571Y-84600171D02*
X77816666Y-84523980D01*
X77816666Y-84523980D02*
X77892856Y-84447790D01*
X77892856Y-84447790D02*
X78007142Y-84409695D01*
X78007142Y-84409695D02*
X78083333Y-84409695D01*
X78083333Y-84409695D02*
X78197618Y-84447790D01*
X78197618Y-84447790D02*
X78235714Y-84485885D01*
X78997618Y-85209695D02*
X78540475Y-85209695D01*
X78769047Y-85209695D02*
X78769047Y-84409695D01*
X78769047Y-84409695D02*
X78692856Y-84523980D01*
X78692856Y-84523980D02*
X78616666Y-84600171D01*
X78616666Y-84600171D02*
X78540475Y-84638266D01*
X79302380Y-84485885D02*
X79340476Y-84447790D01*
X79340476Y-84447790D02*
X79416666Y-84409695D01*
X79416666Y-84409695D02*
X79607142Y-84409695D01*
X79607142Y-84409695D02*
X79683333Y-84447790D01*
X79683333Y-84447790D02*
X79721428Y-84485885D01*
X79721428Y-84485885D02*
X79759523Y-84562076D01*
X79759523Y-84562076D02*
X79759523Y-84638266D01*
X79759523Y-84638266D02*
X79721428Y-84752552D01*
X79721428Y-84752552D02*
X79264285Y-85209695D01*
X79264285Y-85209695D02*
X79759523Y-85209695D01*
X99326733Y-81620295D02*
X99326733Y-82191723D01*
X99326733Y-82191723D02*
X99288638Y-82306009D01*
X99288638Y-82306009D02*
X99212447Y-82382200D01*
X99212447Y-82382200D02*
X99098162Y-82420295D01*
X99098162Y-82420295D02*
X99021971Y-82420295D01*
X99631495Y-81620295D02*
X100126733Y-81620295D01*
X100126733Y-81620295D02*
X99860067Y-81925057D01*
X99860067Y-81925057D02*
X99974352Y-81925057D01*
X99974352Y-81925057D02*
X100050543Y-81963152D01*
X100050543Y-81963152D02*
X100088638Y-82001247D01*
X100088638Y-82001247D02*
X100126733Y-82077438D01*
X100126733Y-82077438D02*
X100126733Y-82267914D01*
X100126733Y-82267914D02*
X100088638Y-82344104D01*
X100088638Y-82344104D02*
X100050543Y-82382200D01*
X100050543Y-82382200D02*
X99974352Y-82420295D01*
X99974352Y-82420295D02*
X99745781Y-82420295D01*
X99745781Y-82420295D02*
X99669590Y-82382200D01*
X99669590Y-82382200D02*
X99631495Y-82344104D01*
X64235714Y-52883504D02*
X64197618Y-52921600D01*
X64197618Y-52921600D02*
X64083333Y-52959695D01*
X64083333Y-52959695D02*
X64007142Y-52959695D01*
X64007142Y-52959695D02*
X63892856Y-52921600D01*
X63892856Y-52921600D02*
X63816666Y-52845409D01*
X63816666Y-52845409D02*
X63778571Y-52769219D01*
X63778571Y-52769219D02*
X63740475Y-52616838D01*
X63740475Y-52616838D02*
X63740475Y-52502552D01*
X63740475Y-52502552D02*
X63778571Y-52350171D01*
X63778571Y-52350171D02*
X63816666Y-52273980D01*
X63816666Y-52273980D02*
X63892856Y-52197790D01*
X63892856Y-52197790D02*
X64007142Y-52159695D01*
X64007142Y-52159695D02*
X64083333Y-52159695D01*
X64083333Y-52159695D02*
X64197618Y-52197790D01*
X64197618Y-52197790D02*
X64235714Y-52235885D01*
X64540475Y-52235885D02*
X64578571Y-52197790D01*
X64578571Y-52197790D02*
X64654761Y-52159695D01*
X64654761Y-52159695D02*
X64845237Y-52159695D01*
X64845237Y-52159695D02*
X64921428Y-52197790D01*
X64921428Y-52197790D02*
X64959523Y-52235885D01*
X64959523Y-52235885D02*
X64997618Y-52312076D01*
X64997618Y-52312076D02*
X64997618Y-52388266D01*
X64997618Y-52388266D02*
X64959523Y-52502552D01*
X64959523Y-52502552D02*
X64502380Y-52959695D01*
X64502380Y-52959695D02*
X64997618Y-52959695D01*
X65264285Y-52159695D02*
X65797619Y-52159695D01*
X65797619Y-52159695D02*
X65454761Y-52959695D01*
X80983504Y-47664285D02*
X81021600Y-47702381D01*
X81021600Y-47702381D02*
X81059695Y-47816666D01*
X81059695Y-47816666D02*
X81059695Y-47892857D01*
X81059695Y-47892857D02*
X81021600Y-48007143D01*
X81021600Y-48007143D02*
X80945409Y-48083333D01*
X80945409Y-48083333D02*
X80869219Y-48121428D01*
X80869219Y-48121428D02*
X80716838Y-48159524D01*
X80716838Y-48159524D02*
X80602552Y-48159524D01*
X80602552Y-48159524D02*
X80450171Y-48121428D01*
X80450171Y-48121428D02*
X80373980Y-48083333D01*
X80373980Y-48083333D02*
X80297790Y-48007143D01*
X80297790Y-48007143D02*
X80259695Y-47892857D01*
X80259695Y-47892857D02*
X80259695Y-47816666D01*
X80259695Y-47816666D02*
X80297790Y-47702381D01*
X80297790Y-47702381D02*
X80335885Y-47664285D01*
X80526361Y-46978571D02*
X81059695Y-46978571D01*
X80221600Y-47169047D02*
X80793028Y-47359524D01*
X80793028Y-47359524D02*
X80793028Y-46864285D01*
X80259695Y-46178571D02*
X80259695Y-46559523D01*
X80259695Y-46559523D02*
X80640647Y-46597619D01*
X80640647Y-46597619D02*
X80602552Y-46559523D01*
X80602552Y-46559523D02*
X80564457Y-46483333D01*
X80564457Y-46483333D02*
X80564457Y-46292857D01*
X80564457Y-46292857D02*
X80602552Y-46216666D01*
X80602552Y-46216666D02*
X80640647Y-46178571D01*
X80640647Y-46178571D02*
X80716838Y-46140476D01*
X80716838Y-46140476D02*
X80907314Y-46140476D01*
X80907314Y-46140476D02*
X80983504Y-46178571D01*
X80983504Y-46178571D02*
X81021600Y-46216666D01*
X81021600Y-46216666D02*
X81059695Y-46292857D01*
X81059695Y-46292857D02*
X81059695Y-46483333D01*
X81059695Y-46483333D02*
X81021600Y-46559523D01*
X81021600Y-46559523D02*
X80983504Y-46597619D01*
X91983504Y-76664285D02*
X92021600Y-76702381D01*
X92021600Y-76702381D02*
X92059695Y-76816666D01*
X92059695Y-76816666D02*
X92059695Y-76892857D01*
X92059695Y-76892857D02*
X92021600Y-77007143D01*
X92021600Y-77007143D02*
X91945409Y-77083333D01*
X91945409Y-77083333D02*
X91869219Y-77121428D01*
X91869219Y-77121428D02*
X91716838Y-77159524D01*
X91716838Y-77159524D02*
X91602552Y-77159524D01*
X91602552Y-77159524D02*
X91450171Y-77121428D01*
X91450171Y-77121428D02*
X91373980Y-77083333D01*
X91373980Y-77083333D02*
X91297790Y-77007143D01*
X91297790Y-77007143D02*
X91259695Y-76892857D01*
X91259695Y-76892857D02*
X91259695Y-76816666D01*
X91259695Y-76816666D02*
X91297790Y-76702381D01*
X91297790Y-76702381D02*
X91335885Y-76664285D01*
X91259695Y-76397619D02*
X91259695Y-75902381D01*
X91259695Y-75902381D02*
X91564457Y-76169047D01*
X91564457Y-76169047D02*
X91564457Y-76054762D01*
X91564457Y-76054762D02*
X91602552Y-75978571D01*
X91602552Y-75978571D02*
X91640647Y-75940476D01*
X91640647Y-75940476D02*
X91716838Y-75902381D01*
X91716838Y-75902381D02*
X91907314Y-75902381D01*
X91907314Y-75902381D02*
X91983504Y-75940476D01*
X91983504Y-75940476D02*
X92021600Y-75978571D01*
X92021600Y-75978571D02*
X92059695Y-76054762D01*
X92059695Y-76054762D02*
X92059695Y-76283333D01*
X92059695Y-76283333D02*
X92021600Y-76359524D01*
X92021600Y-76359524D02*
X91983504Y-76397619D01*
X91335885Y-75597619D02*
X91297790Y-75559523D01*
X91297790Y-75559523D02*
X91259695Y-75483333D01*
X91259695Y-75483333D02*
X91259695Y-75292857D01*
X91259695Y-75292857D02*
X91297790Y-75216666D01*
X91297790Y-75216666D02*
X91335885Y-75178571D01*
X91335885Y-75178571D02*
X91412076Y-75140476D01*
X91412076Y-75140476D02*
X91488266Y-75140476D01*
X91488266Y-75140476D02*
X91602552Y-75178571D01*
X91602552Y-75178571D02*
X92059695Y-75635714D01*
X92059695Y-75635714D02*
X92059695Y-75140476D01*
X87535714Y-72233504D02*
X87497618Y-72271600D01*
X87497618Y-72271600D02*
X87383333Y-72309695D01*
X87383333Y-72309695D02*
X87307142Y-72309695D01*
X87307142Y-72309695D02*
X87192856Y-72271600D01*
X87192856Y-72271600D02*
X87116666Y-72195409D01*
X87116666Y-72195409D02*
X87078571Y-72119219D01*
X87078571Y-72119219D02*
X87040475Y-71966838D01*
X87040475Y-71966838D02*
X87040475Y-71852552D01*
X87040475Y-71852552D02*
X87078571Y-71700171D01*
X87078571Y-71700171D02*
X87116666Y-71623980D01*
X87116666Y-71623980D02*
X87192856Y-71547790D01*
X87192856Y-71547790D02*
X87307142Y-71509695D01*
X87307142Y-71509695D02*
X87383333Y-71509695D01*
X87383333Y-71509695D02*
X87497618Y-71547790D01*
X87497618Y-71547790D02*
X87535714Y-71585885D01*
X88221428Y-71776361D02*
X88221428Y-72309695D01*
X88030952Y-71471600D02*
X87840475Y-72043028D01*
X87840475Y-72043028D02*
X88335714Y-72043028D01*
X88983333Y-71509695D02*
X88830952Y-71509695D01*
X88830952Y-71509695D02*
X88754761Y-71547790D01*
X88754761Y-71547790D02*
X88716666Y-71585885D01*
X88716666Y-71585885D02*
X88640476Y-71700171D01*
X88640476Y-71700171D02*
X88602380Y-71852552D01*
X88602380Y-71852552D02*
X88602380Y-72157314D01*
X88602380Y-72157314D02*
X88640476Y-72233504D01*
X88640476Y-72233504D02*
X88678571Y-72271600D01*
X88678571Y-72271600D02*
X88754761Y-72309695D01*
X88754761Y-72309695D02*
X88907142Y-72309695D01*
X88907142Y-72309695D02*
X88983333Y-72271600D01*
X88983333Y-72271600D02*
X89021428Y-72233504D01*
X89021428Y-72233504D02*
X89059523Y-72157314D01*
X89059523Y-72157314D02*
X89059523Y-71966838D01*
X89059523Y-71966838D02*
X89021428Y-71890647D01*
X89021428Y-71890647D02*
X88983333Y-71852552D01*
X88983333Y-71852552D02*
X88907142Y-71814457D01*
X88907142Y-71814457D02*
X88754761Y-71814457D01*
X88754761Y-71814457D02*
X88678571Y-71852552D01*
X88678571Y-71852552D02*
X88640476Y-71890647D01*
X88640476Y-71890647D02*
X88602380Y-71966838D01*
X102509524Y-42209695D02*
X102509524Y-41409695D01*
X102509524Y-41409695D02*
X102700000Y-41409695D01*
X102700000Y-41409695D02*
X102814286Y-41447790D01*
X102814286Y-41447790D02*
X102890476Y-41523980D01*
X102890476Y-41523980D02*
X102928571Y-41600171D01*
X102928571Y-41600171D02*
X102966667Y-41752552D01*
X102966667Y-41752552D02*
X102966667Y-41866838D01*
X102966667Y-41866838D02*
X102928571Y-42019219D01*
X102928571Y-42019219D02*
X102890476Y-42095409D01*
X102890476Y-42095409D02*
X102814286Y-42171600D01*
X102814286Y-42171600D02*
X102700000Y-42209695D01*
X102700000Y-42209695D02*
X102509524Y-42209695D01*
X103728571Y-42209695D02*
X103271428Y-42209695D01*
X103500000Y-42209695D02*
X103500000Y-41409695D01*
X103500000Y-41409695D02*
X103423809Y-41523980D01*
X103423809Y-41523980D02*
X103347619Y-41600171D01*
X103347619Y-41600171D02*
X103271428Y-41638266D01*
X83200495Y-36741066D02*
X83771923Y-36741066D01*
X83771923Y-36741066D02*
X83886209Y-36779161D01*
X83886209Y-36779161D02*
X83962400Y-36855352D01*
X83962400Y-36855352D02*
X84000495Y-36969637D01*
X84000495Y-36969637D02*
X84000495Y-37045828D01*
X83467161Y-36017256D02*
X84000495Y-36017256D01*
X83162400Y-36207732D02*
X83733828Y-36398209D01*
X83733828Y-36398209D02*
X83733828Y-35902970D01*
D11*
%TO.C,FB11*%
X72810000Y-82721267D02*
X72810000Y-82378733D01*
X71790000Y-82721267D02*
X71790000Y-82378733D01*
%TO.C,FB10*%
X105460000Y-59721267D02*
X105460000Y-59378733D01*
X104440000Y-59721267D02*
X104440000Y-59378733D01*
%TO.C,FB9*%
X69121267Y-78590000D02*
X68778733Y-78590000D01*
X69121267Y-79610000D02*
X68778733Y-79610000D01*
%TO.C,C41*%
X74146267Y-51160000D02*
X73853733Y-51160000D01*
X74146267Y-50140000D02*
X73853733Y-50140000D01*
%TO.C,FB4*%
X68321267Y-51010000D02*
X67978733Y-51010000D01*
X68321267Y-49990000D02*
X67978733Y-49990000D01*
D12*
%TO.C,D2*%
X90579200Y-40598400D02*
X91829200Y-40598400D01*
X90579200Y-42938400D02*
X91829200Y-42938400D01*
D10*
X88934200Y-41118400D02*
G75*
G03*
X88734200Y-41118400I-100000J0D01*
G01*
X88734200Y-41118400D02*
G75*
G03*
X88934200Y-41118400I100000J0D01*
G01*
D13*
%TO.C,C2*%
X92190000Y-45250000D02*
X92190000Y-45250000D01*
X92190000Y-45150000D02*
X92190000Y-45150000D01*
X92190000Y-45150000D02*
G75*
G03*
X92190000Y-45250000I0J-50000D01*
G01*
X92190000Y-45250000D02*
G75*
G03*
X92190000Y-45150000I0J50000D01*
G01*
%TO.C,C1*%
X101124800Y-44807800D02*
X101124800Y-44807800D01*
X101124800Y-44707800D02*
X101124800Y-44707800D01*
X101124800Y-44707800D02*
G75*
G03*
X101124800Y-44807800I0J-50000D01*
G01*
X101124800Y-44807800D02*
G75*
G03*
X101124800Y-44707800I0J50000D01*
G01*
D11*
%TO.C,FB3*%
X79196267Y-78460000D02*
X78853733Y-78460000D01*
X79196267Y-77440000D02*
X78853733Y-77440000D01*
%TO.C,R7*%
X85168824Y-75422500D02*
X84659376Y-75422500D01*
X85168824Y-74377500D02*
X84659376Y-74377500D01*
%TO.C,J2*%
X49978000Y-60655200D02*
X49978000Y-42815200D01*
X52638000Y-42815200D02*
X49978000Y-42815200D01*
X52638000Y-60655200D02*
X49978000Y-60655200D01*
X52638000Y-60655200D02*
X52638000Y-42815200D01*
X52638000Y-61925200D02*
X52638000Y-63255200D01*
X52638000Y-63255200D02*
X51308000Y-63255200D01*
%TO.C,C39*%
X77518800Y-50546267D02*
X77518800Y-50253733D01*
X78538800Y-50546267D02*
X78538800Y-50253733D01*
D10*
%TO.C,U5*%
X80697600Y-66626000D02*
X71397600Y-66626000D01*
X80697600Y-57326000D02*
X80697600Y-66626000D01*
X71397600Y-66626000D02*
X71397600Y-57326000D01*
X71397600Y-57326000D02*
X80697600Y-57326000D01*
D14*
X82397600Y-66476000D02*
G75*
G03*
X82147600Y-66476000I-125000J0D01*
G01*
X82147600Y-66476000D02*
G75*
G03*
X82397600Y-66476000I125000J0D01*
G01*
D11*
%TO.C,J1*%
X49978000Y-87604600D02*
X49978000Y-64684600D01*
X52638000Y-64684600D02*
X49978000Y-64684600D01*
X52638000Y-87604600D02*
X49978000Y-87604600D01*
X52638000Y-87604600D02*
X52638000Y-64684600D01*
X52638000Y-88874600D02*
X52638000Y-90204600D01*
X52638000Y-90204600D02*
X51308000Y-90204600D01*
%TO.C,FB5*%
X93521267Y-62660000D02*
X93178733Y-62660000D01*
X93521267Y-61640000D02*
X93178733Y-61640000D01*
D12*
%TO.C,U4*%
X93738600Y-84278000D02*
X92138600Y-84278000D01*
X92138600Y-87398000D02*
X93738600Y-87398000D01*
D10*
X95538600Y-86788000D02*
G75*
G03*
X95338600Y-86788000I-100000J0D01*
G01*
X95338600Y-86788000D02*
G75*
G03*
X95538600Y-86788000I100000J0D01*
G01*
D11*
%TO.C,C31*%
X93676700Y-79963267D02*
X93676700Y-79670733D01*
X94696700Y-79963267D02*
X94696700Y-79670733D01*
%TO.C,C10*%
X88085200Y-85144967D02*
X88085200Y-84852433D01*
X89105200Y-85144967D02*
X89105200Y-84852433D01*
%TO.C,C23*%
X73340000Y-73595167D02*
X73340000Y-73302633D01*
X74360000Y-73595167D02*
X74360000Y-73302633D01*
%TO.C,FB6*%
X61671267Y-88510000D02*
X61328733Y-88510000D01*
X61671267Y-87490000D02*
X61328733Y-87490000D01*
%TO.C,C43*%
X77490000Y-73633767D02*
X77490000Y-73341233D01*
X78510000Y-73633767D02*
X78510000Y-73341233D01*
D12*
%TO.C,U1*%
X106731400Y-70041400D02*
X106631400Y-70041400D01*
X103631400Y-70041400D02*
X103731400Y-70041400D01*
X106731400Y-71741400D02*
X106731400Y-70041400D01*
X106731400Y-71741400D02*
X106631400Y-71741400D01*
X103631400Y-71741400D02*
X103631400Y-70041400D01*
X103631400Y-71741400D02*
X103731400Y-71741400D01*
D10*
X106231400Y-68422400D02*
G75*
G03*
X106031400Y-68422400I-100000J0D01*
G01*
X106031400Y-68422400D02*
G75*
G03*
X106231400Y-68422400I100000J0D01*
G01*
D11*
%TO.C,C11*%
X82213667Y-86983000D02*
X81921133Y-86983000D01*
X82213667Y-85963000D02*
X81921133Y-85963000D01*
%TO.C,FB7*%
X60310000Y-54378733D02*
X60310000Y-54721267D01*
X59290000Y-54378733D02*
X59290000Y-54721267D01*
%TO.C,C30*%
X76360000Y-78441233D02*
X76360000Y-78733767D01*
X75340000Y-78441233D02*
X75340000Y-78733767D01*
%TO.C,FB1*%
X82540000Y-50571267D02*
X82540000Y-50228733D01*
X83560000Y-50571267D02*
X83560000Y-50228733D01*
%TO.C,C12*%
X82213667Y-85078000D02*
X81921133Y-85078000D01*
X82213667Y-84058000D02*
X81921133Y-84058000D01*
%TO.C,J3*%
X98263400Y-78460600D02*
X98263400Y-60620600D01*
X100923400Y-60620600D02*
X98263400Y-60620600D01*
X100923400Y-78460600D02*
X98263400Y-78460600D01*
X100923400Y-78460600D02*
X100923400Y-60620600D01*
X100923400Y-79730600D02*
X100923400Y-81060600D01*
X100923400Y-81060600D02*
X99593400Y-81060600D01*
%TO.C,C27*%
X68271267Y-53097500D02*
X67978733Y-53097500D01*
X68271267Y-52077500D02*
X67978733Y-52077500D01*
%TO.C,C45*%
X81160000Y-50253733D02*
X81160000Y-50546267D01*
X80140000Y-50253733D02*
X80140000Y-50546267D01*
%TO.C,C32*%
X92207500Y-79518333D02*
X92207500Y-79810867D01*
X91187500Y-79518333D02*
X91187500Y-79810867D01*
%TO.C,C46*%
X84767833Y-71448200D02*
X85060367Y-71448200D01*
X84767833Y-72468200D02*
X85060367Y-72468200D01*
D12*
%TO.C,D1*%
X99097300Y-40588000D02*
X100347300Y-40588000D01*
X99097300Y-42928000D02*
X100347300Y-42928000D01*
D10*
X97452300Y-41108000D02*
G75*
G03*
X97252300Y-41108000I-100000J0D01*
G01*
X97252300Y-41108000D02*
G75*
G03*
X97452300Y-41108000I100000J0D01*
G01*
D11*
%TO.C,J4*%
X105520800Y-37804400D02*
X105520800Y-35144400D01*
X87680800Y-37804400D02*
X105520800Y-37804400D01*
X87680800Y-37804400D02*
X87680800Y-35144400D01*
X85080800Y-36474400D02*
X85080800Y-35144400D01*
X87680800Y-35144400D02*
X105520800Y-35144400D01*
X85080800Y-35144400D02*
X86410800Y-35144400D01*
%TD*%
%LPC*%
D15*
%TO.C,H4*%
X69550000Y-90450000D03*
%TD*%
%TO.C,H3*%
X107000000Y-90150000D03*
%TD*%
%TO.C,H2*%
X48650000Y-32850000D03*
%TD*%
%TO.C,H1*%
X78200000Y-34150000D03*
%TD*%
D16*
%TO.C,FB11*%
X72300000Y-83425000D03*
X72300000Y-81675000D03*
%TD*%
%TO.C,FB10*%
X104950000Y-60425000D03*
X104950000Y-58675000D03*
%TD*%
D17*
%TO.C,FB9*%
X69825000Y-79100000D03*
X68075000Y-79100000D03*
%TD*%
D18*
%TO.C,C41*%
X74862500Y-50650000D03*
X73137500Y-50650000D03*
%TD*%
D17*
%TO.C,FB4*%
X69025000Y-50500000D03*
X67275000Y-50500000D03*
%TD*%
D19*
%TO.C,D2*%
X90104200Y-41118400D03*
X90104200Y-41768400D03*
X90104200Y-42418400D03*
X92304200Y-42418400D03*
X92304200Y-41768400D03*
X92304200Y-41118400D03*
%TD*%
D20*
%TO.C,C2*%
X92190000Y-46125000D03*
X91430000Y-46125000D03*
X90670000Y-46125000D03*
X89910000Y-46125000D03*
X89910000Y-47775000D03*
X90670000Y-47775000D03*
X91430000Y-47775000D03*
X92190000Y-47775000D03*
%TD*%
%TO.C,C1*%
X101124800Y-45682800D03*
X100364800Y-45682800D03*
X99604800Y-45682800D03*
X98844800Y-45682800D03*
X98844800Y-47332800D03*
X99604800Y-47332800D03*
X100364800Y-47332800D03*
X101124800Y-47332800D03*
%TD*%
D17*
%TO.C,FB3*%
X79900000Y-77950000D03*
X78150000Y-77950000D03*
%TD*%
D21*
%TO.C,R7*%
X85826600Y-74900000D03*
X84001600Y-74900000D03*
%TD*%
D22*
%TO.C,J2*%
X51308000Y-44145200D03*
X51308000Y-46685200D03*
X51308000Y-49225200D03*
X51308000Y-51765200D03*
X51308000Y-54305200D03*
X51308000Y-56845200D03*
X51308000Y-59385200D03*
D23*
X51308000Y-61925200D03*
%TD*%
D24*
%TO.C,C39*%
X78028800Y-51262500D03*
X78028800Y-49537500D03*
%TD*%
D25*
%TO.C,U5*%
X81785600Y-65726000D03*
X81785600Y-65226000D03*
X81785600Y-64726000D03*
X81785600Y-64226000D03*
X81785600Y-63726000D03*
X81785600Y-63226000D03*
X81785600Y-62726000D03*
X81785600Y-62226000D03*
X81785600Y-61726000D03*
X81785600Y-61226000D03*
X81785600Y-60726000D03*
X81785600Y-60226000D03*
X81785600Y-59726000D03*
X81785600Y-59226000D03*
X81785600Y-58726000D03*
X81785600Y-58226000D03*
D26*
X79797600Y-56238000D03*
X79297600Y-56238000D03*
X78797600Y-56238000D03*
X78297600Y-56238000D03*
X77797600Y-56238000D03*
X77297600Y-56238000D03*
X76797600Y-56238000D03*
X76297600Y-56238000D03*
X75797600Y-56238000D03*
X75297600Y-56238000D03*
X74797600Y-56238000D03*
X74297600Y-56238000D03*
X73797600Y-56238000D03*
X73297600Y-56238000D03*
X72797600Y-56238000D03*
X72297600Y-56238000D03*
D25*
X70309600Y-58226000D03*
X70309600Y-58726000D03*
X70309600Y-59226000D03*
X70309600Y-59726000D03*
X70309600Y-60226000D03*
X70309600Y-60726000D03*
X70309600Y-61226000D03*
X70309600Y-61726000D03*
X70309600Y-62226000D03*
X70309600Y-62726000D03*
X70309600Y-63226000D03*
X70309600Y-63726000D03*
X70309600Y-64226000D03*
X70309600Y-64726000D03*
X70309600Y-65226000D03*
X70309600Y-65726000D03*
D26*
X72297600Y-67714000D03*
X72797600Y-67714000D03*
X73297600Y-67714000D03*
X73797600Y-67714000D03*
X74297600Y-67714000D03*
X74797600Y-67714000D03*
X75297600Y-67714000D03*
X75797600Y-67714000D03*
X76297600Y-67714000D03*
X76797600Y-67714000D03*
X77297600Y-67714000D03*
X77797600Y-67714000D03*
X78297600Y-67714000D03*
X78797600Y-67714000D03*
X79297600Y-67714000D03*
X79797600Y-67714000D03*
%TD*%
D22*
%TO.C,J1*%
X51308000Y-66014600D03*
X51308000Y-68554600D03*
X51308000Y-71094600D03*
X51308000Y-73634600D03*
X51308000Y-76174600D03*
X51308000Y-78714600D03*
X51308000Y-81254600D03*
X51308000Y-83794600D03*
X51308000Y-86334600D03*
D23*
X51308000Y-88874600D03*
%TD*%
D17*
%TO.C,FB5*%
X94225000Y-62150000D03*
X92475000Y-62150000D03*
%TD*%
D27*
%TO.C,U4*%
X94193600Y-86788000D03*
X94193600Y-85838000D03*
X94193600Y-84888000D03*
X91683600Y-84888000D03*
X91683600Y-85838000D03*
X91683600Y-86788000D03*
%TD*%
D24*
%TO.C,C31*%
X94186700Y-80679500D03*
X94186700Y-78954500D03*
%TD*%
%TO.C,C10*%
X88595200Y-85861200D03*
X88595200Y-84136200D03*
%TD*%
%TO.C,C23*%
X73850000Y-74311400D03*
X73850000Y-72586400D03*
%TD*%
D17*
%TO.C,FB6*%
X62375000Y-88000000D03*
X60625000Y-88000000D03*
%TD*%
D24*
%TO.C,C43*%
X78000000Y-74350000D03*
X78000000Y-72625000D03*
%TD*%
D28*
%TO.C,U1*%
X106131400Y-69706400D03*
X105181400Y-69706400D03*
X104231400Y-69706400D03*
X104231400Y-72076400D03*
X106131400Y-72076400D03*
%TD*%
D18*
%TO.C,C11*%
X82929900Y-86473000D03*
X81204900Y-86473000D03*
%TD*%
D29*
%TO.C,FB7*%
X59800000Y-53675000D03*
X59800000Y-55425000D03*
%TD*%
D30*
%TO.C,C30*%
X75850000Y-77725000D03*
X75850000Y-79450000D03*
%TD*%
D16*
%TO.C,FB1*%
X83050000Y-51275000D03*
X83050000Y-49525000D03*
%TD*%
D18*
%TO.C,C12*%
X82929900Y-84568000D03*
X81204900Y-84568000D03*
%TD*%
D22*
%TO.C,J3*%
X99593400Y-61950600D03*
X99593400Y-64490600D03*
X99593400Y-67030600D03*
X99593400Y-69570600D03*
X99593400Y-72110600D03*
X99593400Y-74650600D03*
X99593400Y-77190600D03*
D23*
X99593400Y-79730600D03*
%TD*%
D18*
%TO.C,C27*%
X68987500Y-52587500D03*
X67262500Y-52587500D03*
%TD*%
D30*
%TO.C,C45*%
X80650000Y-49537500D03*
X80650000Y-51262500D03*
%TD*%
%TO.C,C32*%
X91697500Y-78802100D03*
X91697500Y-80527100D03*
%TD*%
D31*
%TO.C,C46*%
X84051600Y-71958200D03*
X85776600Y-71958200D03*
%TD*%
D19*
%TO.C,D1*%
X98622300Y-41108000D03*
X98622300Y-41758000D03*
X98622300Y-42408000D03*
X100822300Y-42408000D03*
X100822300Y-41758000D03*
X100822300Y-41108000D03*
%TD*%
D23*
%TO.C,J4*%
X86410800Y-36474400D03*
D22*
X88950800Y-36474400D03*
X91490800Y-36474400D03*
X94030800Y-36474400D03*
X96570800Y-36474400D03*
X99110800Y-36474400D03*
X101650800Y-36474400D03*
X104190800Y-36474400D03*
%TD*%
%LPD*%
D32*
X44642800Y-29311600D02*
X111507000Y-29311600D01*
X111507000Y-94973400D01*
X44642800Y-94973400D01*
X44642800Y-29311600D01*
M02*
