%TF.GenerationSoftware,KiCad,Pcbnew,7.0.10*%
%TF.CreationDate,2024-03-16T23:25:40+05:30*%
%TF.ProjectId,breakout,62726561-6b6f-4757-942e-6b696361645f,rev?*%
%TF.SameCoordinates,Original*%
%TF.FileFunction,Copper,L1,Top*%
%TF.FilePolarity,Positive*%
%FSLAX46Y46*%
G04 Gerber Fmt 4.6, Leading zero omitted, Abs format (unit mm)*
G04 Created by KiCad (PCBNEW 7.0.10) date 2024-03-16 23:25:40*
%MOMM*%
%LPD*%
G01*
G04 APERTURE LIST*
G04 Aperture macros list*
%AMRoundRect*
0 Rectangle with rounded corners*
0 $1 Rounding radius*
0 $2 $3 $4 $5 $6 $7 $8 $9 X,Y pos of 4 corners*
0 Add a 4 corners polygon primitive as box body*
4,1,4,$2,$3,$4,$5,$6,$7,$8,$9,$2,$3,0*
0 Add four circle primitives for the rounded corners*
1,1,$1+$1,$2,$3*
1,1,$1+$1,$4,$5*
1,1,$1+$1,$6,$7*
1,1,$1+$1,$8,$9*
0 Add four rect primitives between the rounded corners*
20,1,$1+$1,$2,$3,$4,$5,0*
20,1,$1+$1,$4,$5,$6,$7,0*
20,1,$1+$1,$6,$7,$8,$9,0*
20,1,$1+$1,$8,$9,$2,$3,0*%
G04 Aperture macros list end*
%TA.AperFunction,SMDPad,CuDef*%
%ADD10RoundRect,0.237500X0.237500X-0.287500X0.237500X0.287500X-0.237500X0.287500X-0.237500X-0.287500X0*%
%TD*%
%TA.AperFunction,SMDPad,CuDef*%
%ADD11RoundRect,0.237500X0.287500X0.237500X-0.287500X0.237500X-0.287500X-0.237500X0.287500X-0.237500X0*%
%TD*%
%TA.AperFunction,SMDPad,CuDef*%
%ADD12RoundRect,0.237500X0.300000X0.237500X-0.300000X0.237500X-0.300000X-0.237500X0.300000X-0.237500X0*%
%TD*%
%TA.AperFunction,SMDPad,CuDef*%
%ADD13R,0.900000X0.400000*%
%TD*%
%TA.AperFunction,SMDPad,CuDef*%
%ADD14R,0.460000X0.890000*%
%TD*%
%TA.AperFunction,SMDPad,CuDef*%
%ADD15RoundRect,0.237500X0.250000X0.237500X-0.250000X0.237500X-0.250000X-0.237500X0.250000X-0.237500X0*%
%TD*%
%TA.AperFunction,ComponentPad*%
%ADD16O,1.700000X1.700000*%
%TD*%
%TA.AperFunction,ComponentPad*%
%ADD17R,1.700000X1.700000*%
%TD*%
%TA.AperFunction,SMDPad,CuDef*%
%ADD18RoundRect,0.237500X0.237500X-0.300000X0.237500X0.300000X-0.237500X0.300000X-0.237500X-0.300000X0*%
%TD*%
%TA.AperFunction,SMDPad,CuDef*%
%ADD19R,1.475000X0.300000*%
%TD*%
%TA.AperFunction,SMDPad,CuDef*%
%ADD20R,0.300000X1.475000*%
%TD*%
%TA.AperFunction,SMDPad,CuDef*%
%ADD21RoundRect,0.040600X0.564400X0.249400X-0.564400X0.249400X-0.564400X-0.249400X0.564400X-0.249400X0*%
%TD*%
%TA.AperFunction,SMDPad,CuDef*%
%ADD22RoundRect,0.060000X0.240000X0.615000X-0.240000X0.615000X-0.240000X-0.615000X0.240000X-0.615000X0*%
%TD*%
%TA.AperFunction,SMDPad,CuDef*%
%ADD23RoundRect,0.237500X-0.237500X0.287500X-0.237500X-0.287500X0.237500X-0.287500X0.237500X0.287500X0*%
%TD*%
%TA.AperFunction,SMDPad,CuDef*%
%ADD24RoundRect,0.237500X-0.237500X0.300000X-0.237500X-0.300000X0.237500X-0.300000X0.237500X0.300000X0*%
%TD*%
%TA.AperFunction,SMDPad,CuDef*%
%ADD25RoundRect,0.237500X-0.300000X-0.237500X0.300000X-0.237500X0.300000X0.237500X-0.300000X0.237500X0*%
%TD*%
%TA.AperFunction,ViaPad*%
%ADD26C,0.400000*%
%TD*%
%TA.AperFunction,Conductor*%
%ADD27C,0.200000*%
%TD*%
%TA.AperFunction,Profile*%
%ADD28C,0.050000*%
%TD*%
G04 APERTURE END LIST*
D10*
%TO.P,FB11,1*%
%TO.N,PGND*%
X72300000Y-83425000D03*
%TO.P,FB11,2*%
%TO.N,AGND*%
X72300000Y-81675000D03*
%TD*%
%TO.P,FB10,1*%
%TO.N,PGND*%
X104950000Y-60425000D03*
%TO.P,FB10,2*%
%TO.N,AGND*%
X104950000Y-58675000D03*
%TD*%
D11*
%TO.P,FB9,1*%
%TO.N,AGND*%
X69825000Y-79100000D03*
%TO.P,FB9,2*%
%TO.N,DGND*%
X68075000Y-79100000D03*
%TD*%
D12*
%TO.P,C41,1*%
%TO.N,Net-(U5-VREFP)*%
X74862500Y-50650000D03*
%TO.P,C41,2*%
%TO.N,Net-(U5-VREFN)*%
X73137500Y-50650000D03*
%TD*%
D11*
%TO.P,FB4,1*%
%TO.N,Net-(U5-VREFN)*%
X69025000Y-50500000D03*
%TO.P,FB4,2*%
%TO.N,AVSS*%
X67275000Y-50500000D03*
%TD*%
D13*
%TO.P,D2,1*%
%TO.N,2P*%
X90104200Y-41118400D03*
%TO.P,D2,2*%
%TO.N,1P*%
X90104200Y-41768400D03*
%TO.P,D2,3*%
%TO.N,AGND*%
X90104200Y-42418400D03*
%TO.P,D2,4*%
%TO.N,3P*%
X92304200Y-42418400D03*
%TO.P,D2,5*%
%TO.N,4P*%
X92304200Y-41768400D03*
%TO.P,D2,6,NC*%
%TO.N,unconnected-(D2-NC-Pad6)*%
X92304200Y-41118400D03*
%TD*%
D14*
%TO.P,C2,1*%
%TO.N,AGND*%
X92190000Y-46125000D03*
%TO.P,C2,2*%
X91430000Y-46125000D03*
%TO.P,C2,3*%
X90670000Y-46125000D03*
%TO.P,C2,4*%
X89910000Y-46125000D03*
%TO.P,C2,5*%
%TO.N,IN1P*%
X89910000Y-47775000D03*
%TO.P,C2,6*%
%TO.N,IN2P*%
X90670000Y-47775000D03*
%TO.P,C2,7*%
%TO.N,IN3P*%
X91430000Y-47775000D03*
%TO.P,C2,8*%
%TO.N,IN4P*%
X92190000Y-47775000D03*
%TD*%
%TO.P,C1,1*%
%TO.N,AGND*%
X101124800Y-45682800D03*
%TO.P,C1,2*%
X100364800Y-45682800D03*
%TO.P,C1,3*%
X99604800Y-45682800D03*
%TO.P,C1,4*%
X98844800Y-45682800D03*
%TO.P,C1,5*%
%TO.N,IN5P*%
X98844800Y-47332800D03*
%TO.P,C1,6*%
%TO.N,IN6P*%
X99604800Y-47332800D03*
%TO.P,C1,7*%
%TO.N,SRB1*%
X100364800Y-47332800D03*
%TO.P,C1,8*%
%TO.N,BIAS_DRV*%
X101124800Y-47332800D03*
%TD*%
D11*
%TO.P,FB3,1*%
%TO.N,AVDD*%
X79900000Y-77950000D03*
%TO.P,FB3,2*%
%TO.N,Net-(C21-Pad2)*%
X78150000Y-77950000D03*
%TD*%
D15*
%TO.P,R7,1*%
%TO.N,Net-(U5-BIASOUT)*%
X85826600Y-74900000D03*
%TO.P,R7,2*%
%TO.N,Net-(U5-BIASINV)*%
X84001600Y-74900000D03*
%TD*%
D16*
%TO.P,J2,8,Pin_8*%
%TO.N,unconnected-(J2-Pin_8-Pad8)*%
X51308000Y-44145200D03*
%TO.P,J2,7,Pin_7*%
%TO.N,unconnected-(J2-Pin_7-Pad7)*%
X51308000Y-46685200D03*
%TO.P,J2,6,Pin_6*%
%TO.N,unconnected-(J2-Pin_6-Pad6)*%
X51308000Y-49225200D03*
%TO.P,J2,5,Pin_5*%
%TO.N,unconnected-(J2-Pin_5-Pad5)*%
X51308000Y-51765200D03*
%TO.P,J2,4,Pin_4*%
%TO.N,unconnected-(J2-Pin_4-Pad4)*%
X51308000Y-54305200D03*
%TO.P,J2,3,Pin_3*%
%TO.N,DRDY*%
X51308000Y-56845200D03*
%TO.P,J2,2,Pin_2*%
%TO.N,RESET*%
X51308000Y-59385200D03*
D17*
%TO.P,J2,1,Pin_1*%
%TO.N,START*%
X51308000Y-61925200D03*
%TD*%
D18*
%TO.P,C39,1*%
%TO.N,Net-(U5-VREFN)*%
X78028800Y-51262500D03*
%TO.P,C39,2*%
%TO.N,AGND*%
X78028800Y-49537500D03*
%TD*%
D19*
%TO.P,U5,1,IN8N*%
%TO.N,unconnected-(U5-IN8N-Pad1)*%
X81785600Y-65726000D03*
%TO.P,U5,2,IN8P*%
%TO.N,unconnected-(U5-IN8P-Pad2)*%
X81785600Y-65226000D03*
%TO.P,U5,3,IN7N*%
%TO.N,unconnected-(U5-IN7N-Pad3)*%
X81785600Y-64726000D03*
%TO.P,U5,4,IN7P*%
%TO.N,unconnected-(U5-IN7P-Pad4)*%
X81785600Y-64226000D03*
%TO.P,U5,5,IN6N*%
%TO.N,SRB1*%
X81785600Y-63726000D03*
%TO.P,U5,6,IN6P*%
%TO.N,IN6P*%
X81785600Y-63226000D03*
%TO.P,U5,7,IN5N*%
%TO.N,SRB1*%
X81785600Y-62726000D03*
%TO.P,U5,8,IN5P*%
%TO.N,IN5P*%
X81785600Y-62226000D03*
%TO.P,U5,9,IN4N*%
%TO.N,SRB1*%
X81785600Y-61726000D03*
%TO.P,U5,10,IN4P*%
%TO.N,IN4P*%
X81785600Y-61226000D03*
%TO.P,U5,11,IN3N*%
%TO.N,SRB1*%
X81785600Y-60726000D03*
%TO.P,U5,12,IN3P*%
%TO.N,IN3P*%
X81785600Y-60226000D03*
%TO.P,U5,13,IN2N*%
%TO.N,SRB1*%
X81785600Y-59726000D03*
%TO.P,U5,14,IN2P*%
%TO.N,IN2P*%
X81785600Y-59226000D03*
%TO.P,U5,15,IN1N*%
%TO.N,SRB1*%
X81785600Y-58726000D03*
%TO.P,U5,16,IN1P*%
%TO.N,IN1P*%
X81785600Y-58226000D03*
D20*
%TO.P,U5,17,SRB1*%
%TO.N,SRB1*%
X79797600Y-56238000D03*
%TO.P,U5,18,SRB2*%
%TO.N,unconnected-(U5-SRB2-Pad18)*%
X79297600Y-56238000D03*
%TO.P,U5,19,AVDD*%
%TO.N,Net-(C17-Pad1)*%
X78797600Y-56238000D03*
%TO.P,U5,20,AVSS*%
%TO.N,Net-(U5-VREFN)*%
X78297600Y-56238000D03*
%TO.P,U5,21,AVDD*%
%TO.N,Net-(C17-Pad1)*%
X77797600Y-56238000D03*
%TO.P,U5,22,AVDD*%
X77297600Y-56238000D03*
%TO.P,U5,23,AVSS*%
%TO.N,Net-(U5-VREFN)*%
X76797600Y-56238000D03*
%TO.P,U5,24,VREFP*%
%TO.N,Net-(U5-VREFP)*%
X76297600Y-56238000D03*
%TO.P,U5,25,VREFN*%
%TO.N,Net-(U5-VREFN)*%
X75797600Y-56238000D03*
%TO.P,U5,26,VCAP4*%
%TO.N,Net-(U5-VCAP4)*%
X75297600Y-56238000D03*
%TO.P,U5,27,NC*%
%TO.N,unconnected-(U5-NC-Pad27)*%
X74797600Y-56238000D03*
%TO.P,U5,28,VCAP1*%
%TO.N,Net-(U5-VCAP1)*%
X74297600Y-56238000D03*
%TO.P,U5,29,NC*%
%TO.N,unconnected-(U5-NC-Pad29)*%
X73797600Y-56238000D03*
%TO.P,U5,30,VCAP2*%
%TO.N,Net-(U5-VCAP2)*%
X73297600Y-56238000D03*
%TO.P,U5,31,RESV1*%
%TO.N,DGND*%
X72797600Y-56238000D03*
%TO.P,U5,32,AVSS*%
%TO.N,Net-(U5-VREFN)*%
X72297600Y-56238000D03*
D19*
%TO.P,U5,33,DGND*%
%TO.N,DGND*%
X70309600Y-58226000D03*
%TO.P,U5,34,DIN*%
%TO.N,DIN*%
X70309600Y-58726000D03*
%TO.P,U5,35,\u002APWDN*%
%TO.N,DVDD*%
X70309600Y-59226000D03*
%TO.P,U5,36,\u002ARESET*%
%TO.N,RESET*%
X70309600Y-59726000D03*
%TO.P,U5,37,CLK*%
%TO.N,unconnected-(U5-CLK-Pad37)*%
X70309600Y-60226000D03*
%TO.P,U5,38,START*%
%TO.N,START*%
X70309600Y-60726000D03*
%TO.P,U5,39,\u002ACS*%
%TO.N,CS*%
X70309600Y-61226000D03*
%TO.P,U5,40,SCLK*%
%TO.N,SCLK*%
X70309600Y-61726000D03*
%TO.P,U5,41,DAISY_IN*%
%TO.N,DGND*%
X70309600Y-62226000D03*
%TO.P,U5,42,GPIO1*%
%TO.N,Net-(U5-GPIO1)*%
X70309600Y-62726000D03*
%TO.P,U5,43,DOUT*%
%TO.N,DOUT*%
X70309600Y-63226000D03*
%TO.P,U5,44,GPIO2*%
%TO.N,Net-(U5-GPIO2)*%
X70309600Y-63726000D03*
%TO.P,U5,45,GPIO3*%
%TO.N,Net-(U5-GPIO3)*%
X70309600Y-64226000D03*
%TO.P,U5,46,GPIO4*%
%TO.N,Net-(U5-GPIO4)*%
X70309600Y-64726000D03*
%TO.P,U5,47,\u002ADRDY*%
%TO.N,DRDY*%
X70309600Y-65226000D03*
%TO.P,U5,48,DVDD*%
%TO.N,DVDD*%
X70309600Y-65726000D03*
D20*
%TO.P,U5,49,DGND*%
%TO.N,DGND*%
X72297600Y-67714000D03*
%TO.P,U5,50,DVDD*%
%TO.N,DVDD*%
X72797600Y-67714000D03*
%TO.P,U5,51,DGND*%
%TO.N,DGND*%
X73297600Y-67714000D03*
%TO.P,U5,52,CLKSEL*%
%TO.N,DVDD*%
X73797600Y-67714000D03*
%TO.P,U5,53,AVSS1*%
%TO.N,AGND*%
X74297600Y-67714000D03*
%TO.P,U5,54,AVDD1*%
%TO.N,Net-(U5-AVDD1)*%
X74797600Y-67714000D03*
%TO.P,U5,55,VCAP3*%
%TO.N,Net-(U5-VCAP3)*%
X75297600Y-67714000D03*
%TO.P,U5,56,AVDD*%
%TO.N,Net-(C21-Pad2)*%
X75797600Y-67714000D03*
%TO.P,U5,57,AVSS*%
%TO.N,Net-(C21-Pad1)*%
X76297600Y-67714000D03*
%TO.P,U5,58,AVSS*%
X76797600Y-67714000D03*
%TO.P,U5,59,AVDD*%
%TO.N,Net-(C21-Pad2)*%
X77297600Y-67714000D03*
%TO.P,U5,60,BIASREF*%
%TO.N,AGND*%
X77797600Y-67714000D03*
%TO.P,U5,61,BIASINV*%
%TO.N,Net-(U5-BIASINV)*%
X78297600Y-67714000D03*
%TO.P,U5,62,BIASIN*%
%TO.N,Net-(U5-BIASIN)*%
X78797600Y-67714000D03*
%TO.P,U5,63,BIASOUT*%
%TO.N,Net-(U5-BIASOUT)*%
X79297600Y-67714000D03*
%TO.P,U5,64,RESERVED*%
%TO.N,unconnected-(U5-RESERVED-Pad64)*%
X79797600Y-67714000D03*
%TD*%
D16*
%TO.P,J1,10,Pin_10*%
%TO.N,unconnected-(J1-Pin_10-Pad10)*%
X51308000Y-66014600D03*
%TO.P,J1,9,Pin_9*%
%TO.N,unconnected-(J1-Pin_9-Pad9)*%
X51308000Y-68554600D03*
%TO.P,J1,8,Pin_8*%
%TO.N,CS*%
X51308000Y-71094600D03*
%TO.P,J1,7,Pin_7*%
%TO.N,DIN*%
X51308000Y-73634600D03*
%TO.P,J1,6,Pin_6*%
%TO.N,DOUT*%
X51308000Y-76174600D03*
%TO.P,J1,5,Pin_5*%
%TO.N,SCLK*%
X51308000Y-78714600D03*
%TO.P,J1,4,Pin_4*%
%TO.N,DGND*%
X51308000Y-81254600D03*
%TO.P,J1,3,Pin_3*%
%TO.N,unconnected-(J1-Pin_3-Pad3)*%
X51308000Y-83794600D03*
%TO.P,J1,2,Pin_2*%
%TO.N,unconnected-(J1-Pin_2-Pad2)*%
X51308000Y-86334600D03*
D17*
%TO.P,J1,1,Pin_1*%
%TO.N,unconnected-(J1-Pin_1-Pad1)*%
X51308000Y-88874600D03*
%TD*%
D11*
%TO.P,FB5,1*%
%TO.N,PGND*%
X94225000Y-62150000D03*
%TO.P,FB5,2*%
%TO.N,AGND*%
X92475000Y-62150000D03*
%TD*%
D21*
%TO.P,U4,1,V+*%
%TO.N,DVDD*%
X94193600Y-86788000D03*
%TO.P,U4,2,GND*%
%TO.N,PGND*%
X94193600Y-85838000D03*
%TO.P,U4,3,CAP-*%
%TO.N,Net-(U4-CAP-)*%
X94193600Y-84888000D03*
%TO.P,U4,4,SD*%
%TO.N,DVDD*%
X91683600Y-84888000D03*
%TO.P,U4,5,OUT*%
%TO.N,DVSS*%
X91683600Y-85838000D03*
%TO.P,U4,6,CAP+*%
%TO.N,Net-(U4-CAP+)*%
X91683600Y-86788000D03*
%TD*%
D18*
%TO.P,C31,1*%
%TO.N,DVDD*%
X94186700Y-80679500D03*
%TO.P,C31,2*%
%TO.N,PGND*%
X94186700Y-78954500D03*
%TD*%
%TO.P,C10,1*%
%TO.N,DVSS*%
X88595200Y-85861200D03*
%TO.P,C10,2*%
%TO.N,PGND*%
X88595200Y-84136200D03*
%TD*%
%TO.P,C23,1*%
%TO.N,Net-(C21-Pad1)*%
X73850000Y-74311400D03*
%TO.P,C23,2*%
%TO.N,Net-(U5-VCAP3)*%
X73850000Y-72586400D03*
%TD*%
D11*
%TO.P,FB6,1*%
%TO.N,PGND*%
X62375000Y-88000000D03*
%TO.P,FB6,2*%
%TO.N,DGND*%
X60625000Y-88000000D03*
%TD*%
D18*
%TO.P,C43,1*%
%TO.N,AGND*%
X78000000Y-74350000D03*
%TO.P,C43,2*%
%TO.N,Net-(C21-Pad1)*%
X78000000Y-72625000D03*
%TD*%
D22*
%TO.P,U1,1,VIN*%
%TO.N,VDD*%
X106131400Y-69706400D03*
%TO.P,U1,2,GND*%
%TO.N,PGND*%
X105181400Y-69706400D03*
%TO.P,U1,3,EN*%
%TO.N,VDD*%
X104231400Y-69706400D03*
%TO.P,U1,4,NC*%
%TO.N,unconnected-(U1-NC-Pad4)*%
X104231400Y-72076400D03*
%TO.P,U1,5,VOUT*%
%TO.N,DVDD*%
X106131400Y-72076400D03*
%TD*%
D12*
%TO.P,C11,1*%
%TO.N,Net-(U3-NR)*%
X82929900Y-86473000D03*
%TO.P,C11,2*%
%TO.N,PGND*%
X81204900Y-86473000D03*
%TD*%
D23*
%TO.P,FB7,1*%
%TO.N,AGND*%
X59800000Y-53675000D03*
%TO.P,FB7,2*%
%TO.N,DGND*%
X59800000Y-55425000D03*
%TD*%
D24*
%TO.P,C30,1*%
%TO.N,Net-(C21-Pad2)*%
X75850000Y-77725000D03*
%TO.P,C30,2*%
%TO.N,AGND*%
X75850000Y-79450000D03*
%TD*%
D10*
%TO.P,FB1,1*%
%TO.N,Net-(C17-Pad1)*%
X83050000Y-51275000D03*
%TO.P,FB1,2*%
%TO.N,AVDD*%
X83050000Y-49525000D03*
%TD*%
D12*
%TO.P,C12,1*%
%TO.N,AVSS*%
X82929900Y-84568000D03*
%TO.P,C12,2*%
%TO.N,PGND*%
X81204900Y-84568000D03*
%TD*%
D16*
%TO.P,J3,8,Pin_8*%
%TO.N,unconnected-(J3-Pin_8-Pad8)*%
X99593400Y-61950600D03*
%TO.P,J3,7,Pin_7*%
%TO.N,PGND*%
X99593400Y-64490600D03*
%TO.P,J3,6,Pin_6*%
X99593400Y-67030600D03*
%TO.P,J3,5,Pin_5*%
%TO.N,VDD*%
X99593400Y-69570600D03*
%TO.P,J3,4,Pin_4*%
%TO.N,unconnected-(J3-Pin_4-Pad4)*%
X99593400Y-72110600D03*
%TO.P,J3,3,Pin_3*%
%TO.N,unconnected-(J3-Pin_3-Pad3)*%
X99593400Y-74650600D03*
%TO.P,J3,2,Pin_2*%
%TO.N,unconnected-(J3-Pin_2-Pad2)*%
X99593400Y-77190600D03*
D17*
%TO.P,J3,1,Pin_1*%
%TO.N,unconnected-(J3-Pin_1-Pad1)*%
X99593400Y-79730600D03*
%TD*%
D12*
%TO.P,C27,1*%
%TO.N,Net-(U5-VREFN)*%
X68987500Y-52587500D03*
%TO.P,C27,2*%
%TO.N,AGND*%
X67262500Y-52587500D03*
%TD*%
D24*
%TO.P,C45,1*%
%TO.N,AGND*%
X80650000Y-49537500D03*
%TO.P,C45,2*%
%TO.N,Net-(C17-Pad1)*%
X80650000Y-51262500D03*
%TD*%
%TO.P,C32,1*%
%TO.N,AVDD*%
X91697500Y-78802100D03*
%TO.P,C32,2*%
%TO.N,PGND*%
X91697500Y-80527100D03*
%TD*%
D25*
%TO.P,C46,1*%
%TO.N,Net-(U5-BIASIN)*%
X84051600Y-71958200D03*
%TO.P,C46,2*%
%TO.N,Net-(U5-BIASOUT)*%
X85776600Y-71958200D03*
%TD*%
D13*
%TO.P,D1,1*%
%TO.N,6P*%
X98622300Y-41108000D03*
%TO.P,D1,2*%
%TO.N,5P*%
X98622300Y-41758000D03*
%TO.P,D1,3*%
%TO.N,AGND*%
X98622300Y-42408000D03*
%TO.P,D1,4*%
%TO.N,BIAS_E*%
X100822300Y-42408000D03*
%TO.P,D1,5*%
%TO.N,SRB_IN*%
X100822300Y-41758000D03*
%TO.P,D1,6,NC*%
%TO.N,unconnected-(D1-NC-Pad6)*%
X100822300Y-41108000D03*
%TD*%
D17*
%TO.P,J4,1,Pin_1*%
%TO.N,1P*%
X86410800Y-36474400D03*
D16*
%TO.P,J4,2,Pin_2*%
%TO.N,2P*%
X88950800Y-36474400D03*
%TO.P,J4,3,Pin_3*%
%TO.N,3P*%
X91490800Y-36474400D03*
%TO.P,J4,4,Pin_4*%
%TO.N,4P*%
X94030800Y-36474400D03*
%TO.P,J4,5,Pin_5*%
%TO.N,5P*%
X96570800Y-36474400D03*
%TO.P,J4,6,Pin_6*%
%TO.N,6P*%
X99110800Y-36474400D03*
%TO.P,J4,7,Pin_7*%
%TO.N,SRB_IN*%
X101650800Y-36474400D03*
%TO.P,J4,8,Pin_8*%
%TO.N,BIAS_E*%
X104190800Y-36474400D03*
%TD*%
D26*
%TO.N,AGND*%
X72400000Y-71600000D03*
%TO.N,AVSS*%
X67275000Y-50500000D03*
%TO.N,AGND*%
X78150000Y-65400000D03*
%TO.N,AVSS*%
X83322500Y-79700000D03*
%TO.N,DVDD*%
X94200000Y-80700000D03*
%TO.N,BIAS_DRV*%
X87223600Y-66168900D03*
%TO.N,Net-(C21-Pad1)*%
X76800000Y-69700000D03*
%TO.N,AGND*%
X75850000Y-79450000D03*
X78000000Y-74350000D03*
%TO.N,Net-(U5-VREFN)*%
X68975000Y-52555500D03*
%TO.N,DVDD*%
X72000000Y-65700000D03*
%TO.N,DGND*%
X59550000Y-57400000D03*
X73050000Y-65800000D03*
%TO.N,DRDY*%
X60900000Y-68000000D03*
%TO.N,DGND*%
X70500000Y-55100000D03*
X70300000Y-58050000D03*
%TO.N,IN3P*%
X91430000Y-47775000D03*
%TO.N,AGND*%
X78028800Y-49537500D03*
X87800000Y-50400000D03*
X95750000Y-45400000D03*
X103050000Y-38950000D03*
X100450000Y-39000000D03*
X95800000Y-42650000D03*
X74600000Y-65650000D03*
X88950000Y-42750000D03*
X92750000Y-38850000D03*
X97800000Y-38900000D03*
X96100000Y-47750000D03*
%TO.N,BIAS_DRV*%
X101124800Y-47332800D03*
%TO.N,IN1P*%
X89910000Y-47775000D03*
%TO.N,IN2P*%
X90670000Y-47775000D03*
%TO.N,SRB1*%
X100364800Y-47332800D03*
%TO.N,Net-(C17-Pad1)*%
X80650000Y-51262500D03*
X78350000Y-53950000D03*
%TO.N,Net-(U5-VREFN)*%
X74955400Y-53994600D03*
X76800000Y-58350000D03*
X73137500Y-50650000D03*
X78028800Y-51262500D03*
X72100000Y-58100000D03*
X79050000Y-58350000D03*
%TO.N,VDD*%
X106131400Y-69706400D03*
%TO.N,PGND*%
X106161600Y-67986700D03*
%TO.N,DVDD*%
X72000000Y-61300000D03*
X69312500Y-69550000D03*
X106131400Y-72076400D03*
%TO.N,DVSS*%
X88595200Y-85861200D03*
%TO.N,Net-(U3-NR)*%
X82929900Y-86473000D03*
%TO.N,AVSS*%
X82929900Y-84568000D03*
%TO.N,Net-(U4-CAP+)*%
X91683600Y-86788000D03*
%TO.N,Net-(U4-CAP-)*%
X94193600Y-84888000D03*
%TO.N,Net-(U5-VCAP4)*%
X77150000Y-59800000D03*
%TO.N,Net-(U5-VCAP2)*%
X72825000Y-59850000D03*
%TO.N,Net-(U5-VCAP1)*%
X76762500Y-63000000D03*
%TO.N,Net-(U5-VREFP)*%
X74862500Y-50650000D03*
%TO.N,Net-(C21-Pad1)*%
X78000000Y-72625000D03*
X73850000Y-74312500D03*
%TO.N,Net-(C21-Pad2)*%
X75850000Y-77725000D03*
X77000000Y-65500000D03*
%TO.N,Net-(U5-AVDD1)*%
X74450000Y-70650000D03*
%TO.N,Net-(U5-VCAP3)*%
X73850000Y-72587500D03*
%TO.N,Net-(U5-BIASOUT)*%
X85775500Y-74900000D03*
X85826600Y-71958200D03*
X87223600Y-67993900D03*
%TO.N,Net-(U5-BIASINV)*%
X84050500Y-74900000D03*
%TO.N,AVDD*%
X89200000Y-64250000D03*
X91697500Y-78802100D03*
X84950000Y-53250000D03*
X81122500Y-80350000D03*
%TO.N,3P*%
X91700000Y-43300000D03*
%TO.N,5P*%
X96570800Y-40200000D03*
%TO.N,6P*%
X98650000Y-40000000D03*
%TO.N,4P*%
X93400000Y-41750000D03*
%TO.N,1P*%
X87325000Y-40075000D03*
%TO.N,2P*%
X90100000Y-39950000D03*
%TO.N,SRB_IN*%
X100822300Y-41758000D03*
%TO.N,SCLK*%
X67900000Y-61950000D03*
%TO.N,CS*%
X59900000Y-62502600D03*
X61352600Y-62502600D03*
%TO.N,START*%
X61400000Y-60650000D03*
%TO.N,RESET*%
X61750000Y-59750000D03*
%TO.N,Net-(U5-GPIO3)*%
X65200000Y-64770000D03*
%TO.N,Net-(U5-GPIO1)*%
X66700000Y-62150000D03*
%TO.N,Net-(U5-GPIO4)*%
X65212500Y-66675000D03*
%TO.N,Net-(U5-GPIO2)*%
X66725000Y-63975000D03*
%TO.N,Net-(U5-BIASIN)*%
X84001600Y-71958200D03*
%TO.N,BIAS_E*%
X101100000Y-42436554D03*
%TO.N,IN6P*%
X99604800Y-47332800D03*
%TO.N,IN5P*%
X98844800Y-47332800D03*
%TO.N,IN4P*%
X92190000Y-47775000D03*
%TD*%
D27*
%TO.N,DVDD*%
X72000000Y-59928900D02*
X71297100Y-59226000D01*
X72000000Y-61300000D02*
X72000000Y-59928900D01*
X71297100Y-59226000D02*
X70309600Y-59226000D01*
%TO.N,Net-(U5-VREFN)*%
X75797600Y-54836800D02*
X75797600Y-56238000D01*
X74955400Y-53994600D02*
X75797600Y-54836800D01*
%TO.N,AGND*%
X73750000Y-70250000D02*
X72400000Y-71600000D01*
%TO.N,Net-(U5-GPIO4)*%
X68124000Y-64726000D02*
X70309600Y-64726000D01*
X65212500Y-66675000D02*
X66175000Y-66675000D01*
X66175000Y-66675000D02*
X68124000Y-64726000D01*
%TO.N,Net-(U5-GPIO3)*%
X67463950Y-64226000D02*
X70309600Y-64226000D01*
X66919950Y-64770000D02*
X67463950Y-64226000D01*
X65112500Y-64770000D02*
X66919950Y-64770000D01*
%TO.N,Net-(U5-VREFN)*%
X68975000Y-52555500D02*
X69025000Y-52505500D01*
X69025000Y-52505500D02*
X69025000Y-50500000D01*
%TO.N,AGND*%
X74297600Y-67714000D02*
X74297600Y-65952400D01*
X74297600Y-65952400D02*
X74600000Y-65650000D01*
%TO.N,Net-(U5-BIASOUT)*%
X87223600Y-67993900D02*
X85717500Y-69500000D01*
X79297600Y-69147600D02*
X79297600Y-67714000D01*
X85717500Y-69500000D02*
X79650000Y-69500000D01*
X79650000Y-69500000D02*
X79297600Y-69147600D01*
%TO.N,DVDD*%
X69312500Y-69550000D02*
X69312500Y-67737500D01*
X69312500Y-67737500D02*
X70309600Y-66740400D01*
X70309600Y-66740400D02*
X70309600Y-65726000D01*
%TO.N,Net-(U5-VREFN)*%
X69000000Y-52600000D02*
X68987500Y-52587500D01*
%TO.N,DVDD*%
X72698800Y-69398800D02*
X72797600Y-69300000D01*
X72550000Y-69550000D02*
X72800000Y-69550000D01*
X72698800Y-69398800D02*
X72698800Y-69448800D01*
X72550000Y-69547600D02*
X72698800Y-69398800D01*
X72800000Y-69550000D02*
X73350000Y-69550000D01*
X72698800Y-69448800D02*
X72800000Y-69550000D01*
%TO.N,AVSS*%
X82929900Y-84568000D02*
X82982000Y-84568000D01*
X82982000Y-84568000D02*
X83322500Y-84227500D01*
X83322500Y-84227500D02*
X83322500Y-79700000D01*
%TO.N,Net-(U5-BIASIN)*%
X78797600Y-67714000D02*
X78797600Y-69697600D01*
X81058200Y-71958200D02*
X84001600Y-71958200D01*
X78797600Y-69697600D02*
X81058200Y-71958200D01*
%TO.N,Net-(U5-BIASINV)*%
X78297600Y-67714000D02*
X78297600Y-70897600D01*
X78297600Y-70897600D02*
X82300000Y-74900000D01*
X82300000Y-74900000D02*
X84001600Y-74900000D01*
%TO.N,Net-(U5-BIASOUT)*%
X85775500Y-74900000D02*
X85826600Y-74900000D01*
X85826600Y-71958200D02*
X85776600Y-71958200D01*
%TO.N,DVDD*%
X94186700Y-80713300D02*
X94186700Y-82384900D01*
X94200000Y-80700000D02*
X94186700Y-80713300D01*
X94186700Y-80686700D02*
X94200000Y-80700000D01*
X94186700Y-80679500D02*
X94186700Y-80686700D01*
X94186700Y-82384900D02*
X91683600Y-84888000D01*
X91683600Y-84888000D02*
X92476600Y-84888000D01*
X92476600Y-84888000D02*
X93100000Y-85511400D01*
X93846992Y-86788000D02*
X94193600Y-86788000D01*
X93100000Y-85511400D02*
X93100000Y-86041008D01*
X93100000Y-86041008D02*
X93846992Y-86788000D01*
%TO.N,AVDD*%
X81122500Y-80350000D02*
X79900000Y-79127500D01*
X79900000Y-79127500D02*
X79900000Y-77950000D01*
%TO.N,VDD*%
X106131400Y-69706400D02*
X106131400Y-70468600D01*
X104550000Y-70900000D02*
X104231400Y-70581400D01*
X106131400Y-70468600D02*
X105700000Y-70900000D01*
X105700000Y-70900000D02*
X104550000Y-70900000D01*
X104231400Y-70581400D02*
X104231400Y-69706400D01*
%TO.N,AVDD*%
X88950000Y-77950000D02*
X89200000Y-77950000D01*
X79900000Y-77950000D02*
X88950000Y-77950000D01*
X89200000Y-64250000D02*
X89200000Y-77650000D01*
X89200000Y-77650000D02*
X89200000Y-77800000D01*
X88950000Y-77950000D02*
X88950000Y-77900000D01*
X88950000Y-77900000D02*
X89200000Y-77650000D01*
X89200000Y-77800000D02*
X89200000Y-77950000D01*
X89200000Y-77950000D02*
X90052100Y-78802100D01*
X90052100Y-78802100D02*
X91697500Y-78802100D01*
X84950000Y-53250000D02*
X84950000Y-51425000D01*
X84950000Y-51425000D02*
X83050000Y-49525000D01*
%TO.N,Net-(C17-Pad1)*%
X83050000Y-51275000D02*
X80662500Y-51275000D01*
X80662500Y-51275000D02*
X80650000Y-51262500D01*
%TO.N,IN1P*%
X82624000Y-58226000D02*
X81785600Y-58226000D01*
X89910000Y-47775000D02*
X89910000Y-50940000D01*
X89910000Y-50940000D02*
X82624000Y-58226000D01*
%TO.N,IN2P*%
X82774000Y-59226000D02*
X81785600Y-59226000D01*
X90670000Y-51330000D02*
X82774000Y-59226000D01*
X90670000Y-47775000D02*
X90670000Y-51330000D01*
%TO.N,IN4P*%
X92190000Y-51809100D02*
X82773100Y-61226000D01*
X82773100Y-61226000D02*
X81785600Y-61226000D01*
X92190000Y-47775000D02*
X92190000Y-51809100D01*
%TO.N,IN3P*%
X91430000Y-47775000D02*
X91430000Y-51569100D01*
X91430000Y-51569100D02*
X82773100Y-60226000D01*
X82773100Y-60226000D02*
X81785600Y-60226000D01*
%TO.N,BIAS_DRV*%
X101124800Y-47332800D02*
X101124800Y-50025200D01*
X101124800Y-50025200D02*
X87223600Y-63926400D01*
X87223600Y-63926400D02*
X87223600Y-66168900D01*
%TO.N,DVDD*%
X73047600Y-69550000D02*
X72797600Y-69300000D01*
X69312500Y-69550000D02*
X72550000Y-69550000D01*
X72797600Y-69300000D02*
X72797600Y-67714000D01*
X72550000Y-69550000D02*
X72550000Y-69547600D01*
X73350000Y-69550000D02*
X73797600Y-69102400D01*
X73797600Y-69102400D02*
X73797600Y-67714000D01*
%TO.N,Net-(C21-Pad2)*%
X75850000Y-77725000D02*
X75797600Y-77672600D01*
X75797600Y-77672600D02*
X75797600Y-67714000D01*
%TO.N,Net-(C21-Pad1)*%
X76797600Y-71422600D02*
X78000000Y-72625000D01*
X76797600Y-69697600D02*
X76797600Y-67714000D01*
X76800000Y-69700000D02*
X76797600Y-69697600D01*
X76797600Y-69702400D02*
X76800000Y-69700000D01*
X76797600Y-71422600D02*
X76797600Y-69702400D01*
%TO.N,Net-(U5-VCAP3)*%
X75297600Y-67714000D02*
X75297600Y-71138800D01*
X75297600Y-71138800D02*
X73850000Y-72586400D01*
%TO.N,AGND*%
X74297600Y-67714000D02*
X74297600Y-69702400D01*
X74297600Y-69702400D02*
X73750000Y-70250000D01*
%TO.N,Net-(U5-AVDD1)*%
X74450000Y-70650000D02*
X74797600Y-70302400D01*
X74797600Y-70302400D02*
X74797600Y-67714000D01*
%TO.N,Net-(C21-Pad1)*%
X73850000Y-74312500D02*
X73850000Y-74311400D01*
%TO.N,Net-(C17-Pad1)*%
X78350000Y-53950000D02*
X78797600Y-54397600D01*
X78797600Y-54397600D02*
X78797600Y-56238000D01*
X78350000Y-53950000D02*
X77797600Y-54502400D01*
X77797600Y-54502400D02*
X77797600Y-56238000D01*
%TO.N,Net-(U5-VREFP)*%
X74862500Y-50650000D02*
X76297600Y-52085100D01*
X76297600Y-52085100D02*
X76297600Y-56238000D01*
%TO.N,Net-(U5-VREFN)*%
X78050000Y-58350000D02*
X78300000Y-58350000D01*
X78300000Y-58350000D02*
X79050000Y-58350000D01*
X78300000Y-58100000D02*
X78300000Y-58350000D01*
X79050000Y-58350000D02*
X78550000Y-58350000D01*
X78297600Y-58100000D02*
X78300000Y-58100000D01*
X78300000Y-58100000D02*
X78550000Y-58350000D01*
X76800000Y-58350000D02*
X78050000Y-58350000D01*
X78297600Y-58100000D02*
X78297600Y-56238000D01*
X78050000Y-58350000D02*
X78050000Y-58347600D01*
X78050000Y-58347600D02*
X78297600Y-58100000D01*
X76800000Y-58350000D02*
X76250000Y-58350000D01*
X75797600Y-57897600D02*
X75797600Y-56238000D01*
X76250000Y-58350000D02*
X75797600Y-57897600D01*
%TO.N,Net-(U5-VCAP2)*%
X72825000Y-59850000D02*
X73297600Y-59377400D01*
X73297600Y-59377400D02*
X73297600Y-56238000D01*
%TO.N,Net-(U5-VCAP4)*%
X77150000Y-59800000D02*
X76100000Y-59800000D01*
X75297600Y-58997600D02*
X75297600Y-56238000D01*
X76100000Y-59800000D02*
X75297600Y-58997600D01*
%TO.N,Net-(U5-VREFN)*%
X76800000Y-58350000D02*
X76800000Y-56240400D01*
X76800000Y-56240400D02*
X76797600Y-56238000D01*
%TO.N,Net-(U5-VCAP1)*%
X74300000Y-60537500D02*
X74300000Y-56240400D01*
X76762500Y-63000000D02*
X74300000Y-60537500D01*
X74300000Y-56240400D02*
X74297600Y-56238000D01*
%TO.N,Net-(U5-VREFN)*%
X68975000Y-52555500D02*
X69000000Y-52575000D01*
%TO.N,BIAS_E*%
X100850854Y-42436554D02*
X100822300Y-42408000D01*
X101100000Y-42436554D02*
X100850854Y-42436554D01*
%TO.N,IN5P*%
X98844800Y-47332800D02*
X98844800Y-49355200D01*
X98844800Y-49355200D02*
X85974000Y-62226000D01*
X85974000Y-62226000D02*
X81785600Y-62226000D01*
%TO.N,IN6P*%
X85963950Y-63226000D02*
X81785600Y-63226000D01*
X99604800Y-47332800D02*
X99604800Y-49585150D01*
X99604800Y-49585150D02*
X85963950Y-63226000D01*
%TO.N,SRB1*%
X100364800Y-47332800D02*
X100364800Y-49835200D01*
X100364800Y-49835200D02*
X86474000Y-63726000D01*
X86474000Y-63726000D02*
X81785600Y-63726000D01*
%TO.N,DVDD*%
X70309600Y-65726000D02*
X71974000Y-65726000D01*
X71974000Y-65726000D02*
X72000000Y-65700000D01*
%TO.N,DGND*%
X73050000Y-65800000D02*
X73050000Y-63978900D01*
X73050000Y-63978900D02*
X71297100Y-62226000D01*
X71297100Y-62226000D02*
X70309600Y-62226000D01*
X73050000Y-65800000D02*
X73297600Y-66047600D01*
X73297600Y-66047600D02*
X73297600Y-67714000D01*
X72750000Y-66100000D02*
X73050000Y-65800000D01*
X72297600Y-67714000D02*
X72297600Y-66552400D01*
X72297600Y-66552400D02*
X72750000Y-66100000D01*
%TO.N,SCLK*%
X67900000Y-61950000D02*
X68124000Y-61726000D01*
X68124000Y-61726000D02*
X70309600Y-61726000D01*
%TO.N,CS*%
X61352600Y-62502600D02*
X62629200Y-61226000D01*
X62629200Y-61226000D02*
X70309600Y-61226000D01*
X59900000Y-62502600D02*
X51308000Y-71094600D01*
%TO.N,DRDY*%
X60950000Y-68000000D02*
X60900000Y-68000000D01*
X60950000Y-68000000D02*
X66000000Y-68000000D01*
X66000000Y-68000000D02*
X68774000Y-65226000D01*
X68774000Y-65226000D02*
X70309600Y-65226000D01*
%TO.N,Net-(U5-VREFN)*%
X72297600Y-57902400D02*
X72297600Y-56238000D01*
X72100000Y-58100000D02*
X72297600Y-57902400D01*
%TO.N,DGND*%
X71500000Y-54550000D02*
X71050000Y-54550000D01*
X72797600Y-54847600D02*
X72750000Y-54800000D01*
X71050000Y-54550000D02*
X70500000Y-55100000D01*
X72797600Y-56238000D02*
X72797600Y-54847600D01*
X72750000Y-54800000D02*
X72500000Y-54550000D01*
X72500000Y-54550000D02*
X71500000Y-54550000D01*
X70300000Y-58050000D02*
X70309600Y-58226000D01*
%TO.N,Net-(U5-GPIO2)*%
X66950000Y-63750000D02*
X70285600Y-63750000D01*
X70285600Y-63750000D02*
X70309600Y-63726000D01*
X66725000Y-63975000D02*
X66950000Y-63750000D01*
%TO.N,RESET*%
X61750000Y-59750000D02*
X61774000Y-59726000D01*
X61774000Y-59726000D02*
X70309600Y-59726000D01*
%TO.N,START*%
X61400000Y-60650000D02*
X61476000Y-60726000D01*
X61476000Y-60726000D02*
X70309600Y-60726000D01*
%TO.N,DIN*%
X70309600Y-58726000D02*
X61574000Y-58726000D01*
X61574000Y-58726000D02*
X60650000Y-59650000D01*
X60650000Y-64989950D02*
X52005350Y-73634600D01*
X52005350Y-73634600D02*
X51308000Y-73634600D01*
X60650000Y-59650000D02*
X60650000Y-64989950D01*
%TO.N,DOUT*%
X70309600Y-63226000D02*
X64274000Y-63226000D01*
X64274000Y-63226000D02*
X51325400Y-76174600D01*
X51325400Y-76174600D02*
X51308000Y-76174600D01*
%TO.N,AGND*%
X88950000Y-42750000D02*
X89400000Y-43200000D01*
X89400000Y-43200000D02*
X89800000Y-43200000D01*
X89800000Y-43200000D02*
X90104200Y-42895800D01*
X90104200Y-42895800D02*
X90104200Y-42418400D01*
%TO.N,2P*%
X88950800Y-36474400D02*
X88950800Y-40400800D01*
X88950800Y-40400800D02*
X89668400Y-41118400D01*
X89668400Y-41118400D02*
X90104200Y-41118400D01*
%TO.N,SRB1*%
X80386050Y-58413950D02*
X80698100Y-58726000D01*
X80474000Y-58726000D02*
X80425000Y-58775000D01*
X79797600Y-57825500D02*
X80386050Y-58413950D01*
X80425000Y-58775000D02*
X80250000Y-58950000D01*
X80386050Y-58413950D02*
X80425000Y-58452900D01*
X80425000Y-58452900D02*
X80425000Y-58775000D01*
X80475000Y-62625000D02*
X80576000Y-62726000D01*
X80350000Y-62500000D02*
X80475000Y-62625000D01*
X80475000Y-62625000D02*
X80475000Y-62875000D01*
X80674000Y-62726000D02*
X80500000Y-62900000D01*
X80500000Y-62900000D02*
X80350000Y-63050000D01*
X80475000Y-62875000D02*
X80500000Y-62900000D01*
X80475000Y-61625000D02*
X80576000Y-61726000D01*
X80350000Y-61500000D02*
X80475000Y-61625000D01*
X80724000Y-61726000D02*
X80525000Y-61925000D01*
X80525000Y-61925000D02*
X80350000Y-62100000D01*
X80475000Y-61625000D02*
X80525000Y-61675000D01*
X80525000Y-61675000D02*
X80525000Y-61925000D01*
X80724000Y-60726000D02*
X80525000Y-60925000D01*
X80526000Y-60924000D02*
X80525000Y-60925000D01*
X80525000Y-60925000D02*
X80350000Y-61100000D01*
X80526000Y-60726000D02*
X80526000Y-60924000D01*
X80450000Y-59600000D02*
X80576000Y-59726000D01*
X80674000Y-59726000D02*
X80450000Y-59950000D01*
X80250000Y-59400000D02*
X80450000Y-59600000D01*
X80450000Y-59600000D02*
X80450000Y-59950000D01*
X80450000Y-59950000D02*
X80300000Y-60100000D01*
%TO.N,AGND*%
X77797600Y-65752400D02*
X77797600Y-67714000D01*
X97500000Y-42408000D02*
X97292000Y-42408000D01*
X91181600Y-42418400D02*
X91200000Y-42400000D01*
X95800000Y-42650000D02*
X96042000Y-42408000D01*
X90104200Y-42418400D02*
X91181600Y-42418400D01*
X96042000Y-42408000D02*
X97500000Y-42408000D01*
X98622300Y-42408000D02*
X97500000Y-42408000D01*
X78150000Y-65400000D02*
X77797600Y-65752400D01*
%TO.N,SRB1*%
X81785600Y-61726000D02*
X80724000Y-61726000D01*
X80300000Y-60500000D02*
X80526000Y-60726000D01*
X81785600Y-59726000D02*
X80674000Y-59726000D01*
X80250000Y-58950000D02*
X80250000Y-59400000D01*
X80350000Y-61100000D02*
X80350000Y-61500000D01*
X80300000Y-60100000D02*
X80300000Y-60500000D01*
X80698100Y-58726000D02*
X80474000Y-58726000D01*
X79797600Y-56238000D02*
X79797600Y-57825500D01*
X80576000Y-59726000D02*
X81785600Y-59726000D01*
X80626000Y-63726000D02*
X81785600Y-63726000D01*
X80698100Y-58726000D02*
X81785600Y-58726000D01*
X80576000Y-61726000D02*
X81785600Y-61726000D01*
X80350000Y-63050000D02*
X80350000Y-63450000D01*
X81785600Y-60726000D02*
X80724000Y-60726000D01*
X80576000Y-62726000D02*
X81785600Y-62726000D01*
X81785600Y-62726000D02*
X80674000Y-62726000D01*
X80350000Y-63450000D02*
X80626000Y-63726000D01*
X80350000Y-62100000D02*
X80350000Y-62500000D01*
X80526000Y-60726000D02*
X81785600Y-60726000D01*
%TO.N,Net-(C17-Pad1)*%
X77797600Y-56238000D02*
X77297600Y-56238000D01*
%TO.N,Net-(U5-VREFN)*%
X72987500Y-50500000D02*
X73137500Y-50650000D01*
X69000000Y-52575000D02*
X68987500Y-52587500D01*
X69025000Y-50500000D02*
X72987500Y-50500000D01*
%TO.N,VDD*%
X106187800Y-69650000D02*
X106131400Y-69706400D01*
%TO.N,DVSS*%
X88618400Y-85838000D02*
X88595200Y-85861200D01*
X91683600Y-85838000D02*
X88618400Y-85838000D01*
%TO.N,Net-(C21-Pad1)*%
X76297600Y-67714000D02*
X76797600Y-67714000D01*
%TO.N,Net-(C21-Pad2)*%
X76450000Y-65500000D02*
X75797600Y-66152400D01*
X75797600Y-66152400D02*
X75797600Y-67714000D01*
X77297600Y-65797600D02*
X77297600Y-67714000D01*
X78150000Y-77950000D02*
X76075000Y-77950000D01*
X77000000Y-65500000D02*
X76450000Y-65500000D01*
X76075000Y-77950000D02*
X75850000Y-77725000D01*
X77000000Y-65500000D02*
X77297600Y-65797600D01*
%TO.N,3P*%
X92304200Y-42418400D02*
X92304200Y-42695800D01*
X92304200Y-42695800D02*
X91700000Y-43300000D01*
%TO.N,5P*%
X96570800Y-40200000D02*
X98128800Y-41758000D01*
X98128800Y-41758000D02*
X98622300Y-41758000D01*
%TO.N,6P*%
X98622300Y-40027700D02*
X98650000Y-40000000D01*
X98622300Y-41108000D02*
X98622300Y-40027700D01*
%TO.N,4P*%
X92304200Y-41768400D02*
X93381600Y-41768400D01*
X93381600Y-41768400D02*
X93400000Y-41750000D01*
%TO.N,1P*%
X87325000Y-40075000D02*
X89018400Y-41768400D01*
X89018400Y-41768400D02*
X90104200Y-41768400D01*
%TO.N,2P*%
X90104200Y-39954200D02*
X90100000Y-39950000D01*
X90104200Y-41118400D02*
X90104200Y-39954200D01*
%TO.N,Net-(U5-GPIO1)*%
X67276000Y-62726000D02*
X70309600Y-62726000D01*
X66700000Y-62150000D02*
X67276000Y-62726000D01*
%TD*%
%TA.AperFunction,Conductor*%
%TO.N,DGND*%
G36*
X71866610Y-54925017D02*
G01*
X71902753Y-54974386D01*
X71902975Y-55035571D01*
X71868040Y-55084573D01*
X71790055Y-55142953D01*
X71790050Y-55142958D01*
X71703802Y-55258170D01*
X71653510Y-55393011D01*
X71653508Y-55393022D01*
X71647100Y-55452629D01*
X71647100Y-57023366D01*
X71647101Y-57023370D01*
X71653508Y-57082980D01*
X71653509Y-57082982D01*
X71690858Y-57183120D01*
X71697100Y-57217717D01*
X71697100Y-57476523D01*
X71678193Y-57534714D01*
X71663749Y-57550625D01*
X71571823Y-57632064D01*
X71571816Y-57632072D01*
X71533711Y-57687276D01*
X71485094Y-57724425D01*
X71423926Y-57725903D01*
X71392907Y-57710290D01*
X71289190Y-57632647D01*
X71289188Y-57632646D01*
X71154481Y-57582403D01*
X71154470Y-57582401D01*
X71094924Y-57576000D01*
X70409601Y-57576000D01*
X70409600Y-57576001D01*
X70409600Y-57976500D01*
X70390693Y-58034691D01*
X70341193Y-58070655D01*
X70310600Y-58075500D01*
X70308600Y-58075500D01*
X70250409Y-58056593D01*
X70214445Y-58007093D01*
X70209600Y-57976500D01*
X70209600Y-57576001D01*
X70209599Y-57576000D01*
X69524276Y-57576000D01*
X69464729Y-57582401D01*
X69464718Y-57582403D01*
X69330011Y-57632646D01*
X69330009Y-57632647D01*
X69214915Y-57718807D01*
X69214907Y-57718815D01*
X69128747Y-57833909D01*
X69128746Y-57833911D01*
X69078503Y-57968618D01*
X69078501Y-57968629D01*
X69072099Y-58028175D01*
X69071958Y-58030823D01*
X69070717Y-58030756D01*
X69053193Y-58084691D01*
X69003693Y-58120655D01*
X68973100Y-58125500D01*
X61619850Y-58125500D01*
X61606928Y-58124653D01*
X61574001Y-58120318D01*
X61573999Y-58120318D01*
X61464826Y-58134691D01*
X61417241Y-58140955D01*
X61417233Y-58140957D01*
X61271161Y-58201462D01*
X61271160Y-58201462D01*
X61145723Y-58297713D01*
X61145718Y-58297718D01*
X61125498Y-58324068D01*
X61116962Y-58333801D01*
X60257801Y-59192962D01*
X60248068Y-59201498D01*
X60221718Y-59221718D01*
X60221713Y-59221723D01*
X60160819Y-59301083D01*
X60125465Y-59347157D01*
X60125463Y-59347160D01*
X60081872Y-59452400D01*
X60068634Y-59484360D01*
X60064957Y-59493236D01*
X60064955Y-59493241D01*
X60044318Y-59649999D01*
X60044318Y-59650000D01*
X60048653Y-59682927D01*
X60049500Y-59695849D01*
X60049500Y-61703100D01*
X60030593Y-61761291D01*
X59981093Y-61797255D01*
X59950500Y-61802100D01*
X59814941Y-61802100D01*
X59649776Y-61842809D01*
X59499146Y-61921867D01*
X59371818Y-62034669D01*
X59371816Y-62034672D01*
X59275182Y-62174669D01*
X59219478Y-62321550D01*
X59196915Y-62356448D01*
X52823863Y-68729500D01*
X52769346Y-68757277D01*
X52708914Y-68747706D01*
X52665649Y-68704441D01*
X52655236Y-68650868D01*
X52663276Y-68558983D01*
X52663659Y-68554602D01*
X52663659Y-68554595D01*
X52643064Y-68319199D01*
X52643063Y-68319196D01*
X52643063Y-68319192D01*
X52581903Y-68090937D01*
X52581901Y-68090932D01*
X52482040Y-67876781D01*
X52482036Y-67876773D01*
X52472840Y-67863640D01*
X52368728Y-67714951D01*
X52346498Y-67683203D01*
X52346497Y-67683202D01*
X52346495Y-67683199D01*
X52179401Y-67516105D01*
X52179397Y-67516102D01*
X52179396Y-67516101D01*
X51993356Y-67385835D01*
X51985830Y-67380565D01*
X51972447Y-67374324D01*
X51927700Y-67332597D01*
X51916025Y-67272536D01*
X51941883Y-67217083D01*
X51972448Y-67194875D01*
X51985830Y-67188635D01*
X52179401Y-67053095D01*
X52346495Y-66886001D01*
X52482035Y-66692430D01*
X52581903Y-66478263D01*
X52643063Y-66250008D01*
X52644503Y-66233549D01*
X52663659Y-66014604D01*
X52663659Y-66014595D01*
X52643064Y-65779199D01*
X52643063Y-65779196D01*
X52643063Y-65779192D01*
X52581903Y-65550937D01*
X52576572Y-65539504D01*
X52482040Y-65336781D01*
X52482036Y-65336773D01*
X52467723Y-65316332D01*
X52364220Y-65168513D01*
X52346498Y-65143203D01*
X52346497Y-65143202D01*
X52346495Y-65143199D01*
X52179401Y-64976105D01*
X52179397Y-64976102D01*
X52179396Y-64976101D01*
X52066105Y-64896774D01*
X51985830Y-64840565D01*
X51771663Y-64740697D01*
X51543408Y-64679537D01*
X51543407Y-64679536D01*
X51543400Y-64679535D01*
X51308004Y-64658941D01*
X51307996Y-64658941D01*
X51072599Y-64679535D01*
X50844332Y-64740698D01*
X50630181Y-64840559D01*
X50630173Y-64840563D01*
X50436603Y-64976101D01*
X50269501Y-65143203D01*
X50133963Y-65336773D01*
X50133959Y-65336781D01*
X50034098Y-65550932D01*
X49972935Y-65779199D01*
X49952341Y-66014595D01*
X49952341Y-66014604D01*
X49972935Y-66250000D01*
X49972936Y-66250007D01*
X49972937Y-66250008D01*
X50034097Y-66478263D01*
X50133965Y-66692430D01*
X50167553Y-66740399D01*
X50257612Y-66869017D01*
X50269505Y-66886001D01*
X50436599Y-67053095D01*
X50630170Y-67188635D01*
X50643552Y-67194875D01*
X50688300Y-67236603D01*
X50699975Y-67296664D01*
X50674117Y-67352117D01*
X50643554Y-67374324D01*
X50630173Y-67380563D01*
X50436603Y-67516101D01*
X50269501Y-67683203D01*
X50133963Y-67876773D01*
X50133959Y-67876781D01*
X50034098Y-68090932D01*
X49972935Y-68319199D01*
X49952341Y-68554595D01*
X49952341Y-68554604D01*
X49972935Y-68790000D01*
X49972936Y-68790007D01*
X49972937Y-68790008D01*
X50034097Y-69018263D01*
X50098320Y-69155989D01*
X50133964Y-69232428D01*
X50252854Y-69402222D01*
X50269505Y-69426001D01*
X50436599Y-69593095D01*
X50436602Y-69593097D01*
X50436603Y-69593098D01*
X50440865Y-69596082D01*
X50630170Y-69728635D01*
X50643552Y-69734875D01*
X50688300Y-69776603D01*
X50699975Y-69836664D01*
X50674117Y-69892117D01*
X50643554Y-69914324D01*
X50630173Y-69920563D01*
X50436603Y-70056101D01*
X50269501Y-70223203D01*
X50133963Y-70416773D01*
X50133959Y-70416781D01*
X50034098Y-70630932D01*
X49972935Y-70859199D01*
X49952341Y-71094595D01*
X49952341Y-71094604D01*
X49972935Y-71330000D01*
X49972936Y-71330007D01*
X49972937Y-71330008D01*
X50034097Y-71558263D01*
X50094122Y-71686987D01*
X50131819Y-71767829D01*
X50133965Y-71772430D01*
X50185622Y-71846204D01*
X50261898Y-71955138D01*
X50269505Y-71966001D01*
X50436599Y-72133095D01*
X50630170Y-72268635D01*
X50637198Y-72271912D01*
X50643552Y-72274875D01*
X50688300Y-72316603D01*
X50699975Y-72376664D01*
X50674117Y-72432117D01*
X50643554Y-72454324D01*
X50630173Y-72460563D01*
X50436603Y-72596101D01*
X50269501Y-72763203D01*
X50133963Y-72956773D01*
X50133959Y-72956781D01*
X50034098Y-73170932D01*
X49972935Y-73399199D01*
X49952341Y-73634595D01*
X49952341Y-73634604D01*
X49972935Y-73870000D01*
X49972936Y-73870007D01*
X49972937Y-73870008D01*
X50023335Y-74058100D01*
X50034097Y-74098262D01*
X50133964Y-74312428D01*
X50217745Y-74432081D01*
X50269505Y-74506001D01*
X50436599Y-74673095D01*
X50630170Y-74808635D01*
X50643552Y-74814875D01*
X50688300Y-74856603D01*
X50699975Y-74916664D01*
X50674117Y-74972117D01*
X50643554Y-74994324D01*
X50630173Y-75000563D01*
X50436603Y-75136101D01*
X50269501Y-75303203D01*
X50133963Y-75496773D01*
X50133959Y-75496781D01*
X50034098Y-75710932D01*
X49972935Y-75939199D01*
X49952341Y-76174595D01*
X49952341Y-76174604D01*
X49972935Y-76410000D01*
X49972936Y-76410007D01*
X49972937Y-76410008D01*
X50034097Y-76638263D01*
X50133965Y-76852430D01*
X50152715Y-76879208D01*
X50255097Y-77025425D01*
X50269505Y-77046001D01*
X50436599Y-77213095D01*
X50436602Y-77213097D01*
X50436603Y-77213098D01*
X50476993Y-77241379D01*
X50630170Y-77348635D01*
X50643552Y-77354875D01*
X50688300Y-77396603D01*
X50699975Y-77456664D01*
X50674117Y-77512117D01*
X50643554Y-77534324D01*
X50630173Y-77540563D01*
X50436603Y-77676101D01*
X50269501Y-77843203D01*
X50133963Y-78036773D01*
X50133959Y-78036781D01*
X50034098Y-78250932D01*
X49972935Y-78479199D01*
X49952341Y-78714595D01*
X49952341Y-78714604D01*
X49972935Y-78950000D01*
X49972936Y-78950007D01*
X49972937Y-78950008D01*
X50034097Y-79178263D01*
X50133965Y-79392430D01*
X50269505Y-79586001D01*
X50436599Y-79753095D01*
X50630170Y-79888635D01*
X50630171Y-79888635D01*
X50630172Y-79888636D01*
X50630174Y-79888637D01*
X50644143Y-79895151D01*
X50688892Y-79936879D01*
X50700567Y-79996940D01*
X50674710Y-80052393D01*
X50644146Y-80074600D01*
X50630424Y-80080998D01*
X50436926Y-80216486D01*
X50269886Y-80383526D01*
X50134398Y-80577024D01*
X50134394Y-80577032D01*
X50034570Y-80791105D01*
X49973429Y-81019286D01*
X49961591Y-81154599D01*
X49961592Y-81154600D01*
X50816254Y-81154600D01*
X50808000Y-81182711D01*
X50808000Y-81326489D01*
X50816254Y-81354600D01*
X49961591Y-81354600D01*
X49973429Y-81489913D01*
X50034569Y-81718089D01*
X50134399Y-81932177D01*
X50269886Y-82125673D01*
X50436926Y-82292713D01*
X50630422Y-82428200D01*
X50644144Y-82434599D01*
X50688892Y-82476327D01*
X50700567Y-82536388D01*
X50674709Y-82591841D01*
X50644145Y-82614048D01*
X50630177Y-82620561D01*
X50630173Y-82620563D01*
X50436603Y-82756101D01*
X50269501Y-82923203D01*
X50133963Y-83116773D01*
X50133959Y-83116781D01*
X50034098Y-83330932D01*
X49972935Y-83559199D01*
X49952341Y-83794595D01*
X49952341Y-83794604D01*
X49972935Y-84030000D01*
X49972936Y-84030007D01*
X49972937Y-84030008D01*
X50034097Y-84258263D01*
X50133965Y-84472430D01*
X50269505Y-84666001D01*
X50436599Y-84833095D01*
X50630170Y-84968635D01*
X50643552Y-84974875D01*
X50688300Y-85016603D01*
X50699975Y-85076664D01*
X50674117Y-85132117D01*
X50643554Y-85154324D01*
X50630173Y-85160563D01*
X50436603Y-85296101D01*
X50269501Y-85463203D01*
X50133963Y-85656773D01*
X50133959Y-85656781D01*
X50034098Y-85870932D01*
X49972935Y-86099199D01*
X49952341Y-86334595D01*
X49952341Y-86334604D01*
X49972935Y-86570000D01*
X49972936Y-86570007D01*
X49972937Y-86570008D01*
X50034097Y-86798263D01*
X50133965Y-87012430D01*
X50149647Y-87034826D01*
X50251060Y-87179660D01*
X50269505Y-87206001D01*
X50424060Y-87360556D01*
X50451836Y-87415071D01*
X50442265Y-87475503D01*
X50399000Y-87518768D01*
X50364637Y-87528991D01*
X50350517Y-87530509D01*
X50350514Y-87530509D01*
X50215670Y-87580802D01*
X50100458Y-87667050D01*
X50100450Y-87667058D01*
X50014202Y-87782270D01*
X49963910Y-87917111D01*
X49963908Y-87917122D01*
X49957500Y-87976729D01*
X49957500Y-89772466D01*
X49957501Y-89772470D01*
X49963908Y-89832080D01*
X49963909Y-89832085D01*
X50014202Y-89966929D01*
X50100450Y-90082141D01*
X50100454Y-90082146D01*
X50100457Y-90082148D01*
X50100458Y-90082149D01*
X50215670Y-90168397D01*
X50350511Y-90218689D01*
X50350512Y-90218689D01*
X50350517Y-90218691D01*
X50410127Y-90225100D01*
X52205872Y-90225099D01*
X52265483Y-90218691D01*
X52332907Y-90193543D01*
X52400329Y-90168397D01*
X52400329Y-90168396D01*
X52400331Y-90168396D01*
X52515546Y-90082146D01*
X52601796Y-89966931D01*
X52652091Y-89832083D01*
X52658500Y-89772473D01*
X52658499Y-88286654D01*
X59600001Y-88286654D01*
X59610317Y-88387642D01*
X59610320Y-88387654D01*
X59664548Y-88551306D01*
X59755053Y-88698035D01*
X59876964Y-88819946D01*
X60023693Y-88910451D01*
X60187351Y-88964681D01*
X60288345Y-88974999D01*
X60524998Y-88974999D01*
X60525000Y-88974998D01*
X60525000Y-88100001D01*
X60524999Y-88100000D01*
X59600002Y-88100000D01*
X59600001Y-88100001D01*
X59600001Y-88286654D01*
X52658499Y-88286654D01*
X52658499Y-87976728D01*
X52652091Y-87917117D01*
X52645707Y-87900000D01*
X52645707Y-87899999D01*
X59600000Y-87899999D01*
X59600001Y-87900000D01*
X60524999Y-87900000D01*
X60525000Y-87899999D01*
X60525000Y-87025001D01*
X60524999Y-87025000D01*
X60288345Y-87025000D01*
X60187357Y-87035317D01*
X60187345Y-87035320D01*
X60023693Y-87089548D01*
X59876964Y-87180053D01*
X59755053Y-87301964D01*
X59664548Y-87448693D01*
X59610318Y-87612351D01*
X59600000Y-87713344D01*
X59600000Y-87899999D01*
X52645707Y-87899999D01*
X52601797Y-87782270D01*
X52515549Y-87667058D01*
X52515548Y-87667057D01*
X52515546Y-87667054D01*
X52515541Y-87667050D01*
X52400329Y-87580802D01*
X52265488Y-87530510D01*
X52265471Y-87530506D01*
X52251358Y-87528989D01*
X52195523Y-87503968D01*
X52165059Y-87450906D01*
X52171602Y-87390071D01*
X52191939Y-87360556D01*
X52346495Y-87206001D01*
X52482035Y-87012430D01*
X52581903Y-86798263D01*
X52643063Y-86570008D01*
X52663659Y-86334600D01*
X52643063Y-86099192D01*
X52581903Y-85870937D01*
X52482035Y-85656771D01*
X52346495Y-85463199D01*
X52179401Y-85296105D01*
X52179397Y-85296102D01*
X52179396Y-85296101D01*
X52072007Y-85220907D01*
X51985830Y-85160565D01*
X51972447Y-85154324D01*
X51927700Y-85112597D01*
X51916025Y-85052536D01*
X51941883Y-84997083D01*
X51972448Y-84974875D01*
X51985830Y-84968635D01*
X52179401Y-84833095D01*
X52346495Y-84666001D01*
X52482035Y-84472430D01*
X52581903Y-84258263D01*
X52643063Y-84030008D01*
X52643369Y-84026516D01*
X52663659Y-83794604D01*
X52663659Y-83794595D01*
X52643064Y-83559199D01*
X52643063Y-83559196D01*
X52643063Y-83559192D01*
X52581903Y-83330937D01*
X52482035Y-83116771D01*
X52346495Y-82923199D01*
X52179401Y-82756105D01*
X52179397Y-82756102D01*
X52179396Y-82756101D01*
X51985827Y-82620563D01*
X51971853Y-82614047D01*
X51927106Y-82572318D01*
X51915432Y-82512256D01*
X51941291Y-82456804D01*
X51971860Y-82434596D01*
X51985577Y-82428200D01*
X51985579Y-82428199D01*
X52179073Y-82292713D01*
X52346113Y-82125673D01*
X52481600Y-81932177D01*
X52581430Y-81718089D01*
X52642570Y-81489913D01*
X52654408Y-81354600D01*
X51799746Y-81354600D01*
X51808000Y-81326489D01*
X51808000Y-81182711D01*
X51799746Y-81154600D01*
X52654408Y-81154600D01*
X52654408Y-81154599D01*
X52642570Y-81019286D01*
X52581429Y-80791105D01*
X52481605Y-80577032D01*
X52481601Y-80577024D01*
X52346113Y-80383526D01*
X52179073Y-80216486D01*
X51985577Y-80080999D01*
X51971856Y-80074601D01*
X51927108Y-80032873D01*
X51915433Y-79972812D01*
X51941291Y-79917359D01*
X51971857Y-79895151D01*
X51978053Y-79892261D01*
X51985830Y-79888635D01*
X52179401Y-79753095D01*
X52346495Y-79586001D01*
X52482035Y-79392430D01*
X52484728Y-79386654D01*
X67050001Y-79386654D01*
X67060317Y-79487642D01*
X67060320Y-79487654D01*
X67114548Y-79651306D01*
X67205053Y-79798035D01*
X67326964Y-79919946D01*
X67473693Y-80010451D01*
X67637351Y-80064681D01*
X67738345Y-80074999D01*
X67974998Y-80074999D01*
X67975000Y-80074998D01*
X67975000Y-79200001D01*
X67974999Y-79200000D01*
X67050002Y-79200000D01*
X67050001Y-79200001D01*
X67050001Y-79386654D01*
X52484728Y-79386654D01*
X52581903Y-79178263D01*
X52629668Y-78999999D01*
X67050000Y-78999999D01*
X67050001Y-79000000D01*
X67974999Y-79000000D01*
X67975000Y-78999999D01*
X67975000Y-78125001D01*
X67974999Y-78125000D01*
X67738345Y-78125000D01*
X67637357Y-78135317D01*
X67637345Y-78135320D01*
X67473693Y-78189548D01*
X67326964Y-78280053D01*
X67205053Y-78401964D01*
X67114548Y-78548693D01*
X67060318Y-78712351D01*
X67050000Y-78813344D01*
X67050000Y-78999999D01*
X52629668Y-78999999D01*
X52643063Y-78950008D01*
X52643064Y-78950000D01*
X52663659Y-78714604D01*
X52663659Y-78714595D01*
X52643064Y-78479199D01*
X52643063Y-78479196D01*
X52643063Y-78479192D01*
X52581903Y-78250937D01*
X52581901Y-78250932D01*
X52482040Y-78036781D01*
X52482036Y-78036773D01*
X52474010Y-78025311D01*
X52346495Y-77843199D01*
X52179401Y-77676105D01*
X52179397Y-77676102D01*
X52179396Y-77676101D01*
X52024023Y-77567308D01*
X51985830Y-77540565D01*
X51972447Y-77534324D01*
X51927700Y-77492597D01*
X51916025Y-77432536D01*
X51941883Y-77377083D01*
X51972448Y-77354875D01*
X51985830Y-77348635D01*
X52179401Y-77213095D01*
X52346495Y-77046001D01*
X52482035Y-76852430D01*
X52581903Y-76638263D01*
X52643063Y-76410008D01*
X52643064Y-76410000D01*
X52663659Y-76174604D01*
X52663659Y-76174595D01*
X52643064Y-75939200D01*
X52643063Y-75939198D01*
X52643063Y-75939192D01*
X52608613Y-75810622D01*
X52611816Y-75749522D01*
X52634234Y-75714999D01*
X60097102Y-68252131D01*
X60151617Y-68224356D01*
X60212049Y-68233927D01*
X60255314Y-68277192D01*
X60259670Y-68287030D01*
X60275180Y-68327927D01*
X60275181Y-68327928D01*
X60275182Y-68327930D01*
X60371817Y-68467929D01*
X60499148Y-68580734D01*
X60649775Y-68659790D01*
X60814944Y-68700500D01*
X60814947Y-68700500D01*
X60985053Y-68700500D01*
X60985056Y-68700500D01*
X61150225Y-68659790D01*
X61241585Y-68611840D01*
X61287593Y-68600500D01*
X65954150Y-68600500D01*
X65967072Y-68601347D01*
X65999999Y-68605682D01*
X66000000Y-68605682D01*
X66000001Y-68605682D01*
X66039361Y-68600500D01*
X66156762Y-68585044D01*
X66302841Y-68524536D01*
X66348308Y-68489648D01*
X66428282Y-68428282D01*
X66448498Y-68401933D01*
X66457028Y-68392205D01*
X68911913Y-65937321D01*
X68966429Y-65909545D01*
X69026861Y-65919116D01*
X69070126Y-65962381D01*
X69075753Y-65977715D01*
X69075845Y-65977681D01*
X69128302Y-66118329D01*
X69214550Y-66233541D01*
X69214554Y-66233546D01*
X69214557Y-66233548D01*
X69214558Y-66233549D01*
X69329770Y-66319797D01*
X69464611Y-66370089D01*
X69464612Y-66370089D01*
X69464617Y-66370091D01*
X69524227Y-66376500D01*
X69585257Y-66376499D01*
X69643446Y-66395405D01*
X69679411Y-66444905D01*
X69679412Y-66506090D01*
X69655261Y-66545503D01*
X68920301Y-67280462D01*
X68910568Y-67288998D01*
X68884218Y-67309218D01*
X68884213Y-67309223D01*
X68787962Y-67434660D01*
X68787962Y-67434661D01*
X68727457Y-67580733D01*
X68727455Y-67580741D01*
X68706818Y-67737499D01*
X68706818Y-67737500D01*
X68711153Y-67770427D01*
X68712000Y-67783349D01*
X68712000Y-69155989D01*
X68694477Y-69212225D01*
X68687682Y-69222070D01*
X68627690Y-69380260D01*
X68627360Y-69381129D01*
X68607385Y-69545638D01*
X68606855Y-69550000D01*
X68627360Y-69718872D01*
X68687682Y-69877930D01*
X68784317Y-70017929D01*
X68911648Y-70130734D01*
X68939037Y-70145109D01*
X68450000Y-70150000D01*
X68466709Y-72146659D01*
X68515901Y-78025311D01*
X68497481Y-78083658D01*
X68448283Y-78120034D01*
X68414167Y-78124699D01*
X68414167Y-78125000D01*
X68411971Y-78125000D01*
X68411883Y-78125012D01*
X68411647Y-78125000D01*
X68175001Y-78125000D01*
X68175000Y-78125001D01*
X68175000Y-80074998D01*
X68175001Y-80074999D01*
X68411651Y-80074999D01*
X68417156Y-80074436D01*
X68476968Y-80087325D01*
X68517782Y-80132909D01*
X68526027Y-80179225D01*
X68515123Y-80350134D01*
X68513193Y-80364264D01*
X68456685Y-80632163D01*
X68452744Y-80645867D01*
X68358340Y-80902853D01*
X68352472Y-80915850D01*
X68222120Y-81156619D01*
X68214445Y-81168638D01*
X68050856Y-81388180D01*
X68041534Y-81398971D01*
X67848106Y-81592729D01*
X67837330Y-81602069D01*
X67618064Y-81766032D01*
X67606059Y-81773727D01*
X67365521Y-81904484D01*
X67352534Y-81910375D01*
X67095702Y-82005219D01*
X67082004Y-82009183D01*
X66814203Y-82066146D01*
X66800078Y-82068100D01*
X66684611Y-82075664D01*
X66523295Y-82086231D01*
X66516205Y-82086440D01*
X66280794Y-82084871D01*
X64982609Y-82076216D01*
X63054926Y-82063365D01*
X63054911Y-82063365D01*
X61050000Y-82050000D01*
X61041611Y-84054953D01*
X61041610Y-84054971D01*
X61029596Y-86926414D01*
X61010446Y-86984525D01*
X60960795Y-87020282D01*
X60930597Y-87025000D01*
X60725001Y-87025000D01*
X60725000Y-87025001D01*
X60725000Y-88974998D01*
X60725001Y-88974999D01*
X60921610Y-88974999D01*
X60979801Y-88993906D01*
X61015765Y-89043406D01*
X61020609Y-89074413D01*
X61008347Y-92004836D01*
X61008067Y-92011879D01*
X60987428Y-92285116D01*
X60985370Y-92299052D01*
X60926922Y-92563134D01*
X60922907Y-92576638D01*
X60827566Y-92829754D01*
X60821675Y-92842550D01*
X60691374Y-93079570D01*
X60683726Y-93091401D01*
X60521103Y-93307524D01*
X60511853Y-93318150D01*
X60320198Y-93509003D01*
X60309534Y-93518208D01*
X60092729Y-93679929D01*
X60080866Y-93687527D01*
X59843309Y-93816833D01*
X59830488Y-93822671D01*
X59576977Y-93916951D01*
X59563457Y-93920910D01*
X59299124Y-93978254D01*
X59285179Y-93980253D01*
X59011870Y-93999749D01*
X59004826Y-94000000D01*
X48003540Y-94000000D01*
X47996477Y-93999748D01*
X47722433Y-93980148D01*
X47708452Y-93978138D01*
X47443450Y-93920490D01*
X47429897Y-93916510D01*
X47203280Y-93831986D01*
X47175802Y-93821737D01*
X47162954Y-93815870D01*
X46924931Y-93685899D01*
X46913052Y-93678266D01*
X46695942Y-93515738D01*
X46685276Y-93506496D01*
X46493503Y-93314723D01*
X46484262Y-93304058D01*
X46321731Y-93086943D01*
X46314100Y-93075068D01*
X46297028Y-93043804D01*
X46184125Y-92837037D01*
X46178264Y-92824203D01*
X46083487Y-92570096D01*
X46079510Y-92556555D01*
X46021859Y-92291537D01*
X46019852Y-92277574D01*
X46000850Y-92011879D01*
X46000252Y-92003522D01*
X46000000Y-91996460D01*
X46000000Y-56996282D01*
X46000251Y-56989236D01*
X46019760Y-56715823D01*
X46021761Y-56701873D01*
X46078662Y-56439681D01*
X46079145Y-56437453D01*
X46083103Y-56423942D01*
X46177455Y-56170332D01*
X46183287Y-56157529D01*
X46312692Y-55919890D01*
X46320281Y-55908046D01*
X46482124Y-55691180D01*
X46491330Y-55680522D01*
X46682305Y-55488853D01*
X46692928Y-55479610D01*
X46909199Y-55316986D01*
X46921013Y-55309355D01*
X47158181Y-55179088D01*
X47170969Y-55173206D01*
X47424230Y-55077935D01*
X47437739Y-55073926D01*
X47701951Y-55015582D01*
X47715870Y-55013533D01*
X47989236Y-54993029D01*
X47996273Y-54992754D01*
X50083577Y-54985177D01*
X50141831Y-55003872D01*
X50165027Y-55027391D01*
X50267127Y-55173206D01*
X50269505Y-55176601D01*
X50436599Y-55343695D01*
X50630170Y-55479235D01*
X50643552Y-55485475D01*
X50688300Y-55527203D01*
X50699975Y-55587264D01*
X50674117Y-55642717D01*
X50643554Y-55664924D01*
X50630173Y-55671163D01*
X50436603Y-55806701D01*
X50269501Y-55973803D01*
X50133963Y-56167373D01*
X50133959Y-56167381D01*
X50034098Y-56381532D01*
X49972935Y-56609799D01*
X49952341Y-56845195D01*
X49952341Y-56845204D01*
X49972935Y-57080600D01*
X49972936Y-57080607D01*
X49972937Y-57080608D01*
X50034097Y-57308863D01*
X50133965Y-57523030D01*
X50181495Y-57590910D01*
X50210311Y-57632064D01*
X50269505Y-57716601D01*
X50436599Y-57883695D01*
X50630170Y-58019235D01*
X50641862Y-58024687D01*
X50643552Y-58025475D01*
X50688300Y-58067203D01*
X50699975Y-58127264D01*
X50674117Y-58182717D01*
X50643554Y-58204924D01*
X50630173Y-58211163D01*
X50436603Y-58346701D01*
X50269501Y-58513803D01*
X50133963Y-58707373D01*
X50133959Y-58707381D01*
X50034098Y-58921532D01*
X49972935Y-59149799D01*
X49952341Y-59385195D01*
X49952341Y-59385204D01*
X49972935Y-59620600D01*
X49972936Y-59620607D01*
X49972937Y-59620608D01*
X50034097Y-59848863D01*
X50133965Y-60063030D01*
X50269505Y-60256601D01*
X50424060Y-60411156D01*
X50451836Y-60465671D01*
X50442265Y-60526103D01*
X50399000Y-60569368D01*
X50364637Y-60579591D01*
X50350517Y-60581109D01*
X50350514Y-60581109D01*
X50215670Y-60631402D01*
X50100458Y-60717650D01*
X50100450Y-60717658D01*
X50014202Y-60832870D01*
X49963910Y-60967711D01*
X49963909Y-60967717D01*
X49958641Y-61016720D01*
X49957500Y-61027329D01*
X49957500Y-62823066D01*
X49957500Y-62823069D01*
X49957501Y-62823072D01*
X49958303Y-62830529D01*
X49963908Y-62882680D01*
X49963909Y-62882685D01*
X50014202Y-63017529D01*
X50069420Y-63091290D01*
X50100454Y-63132746D01*
X50100457Y-63132748D01*
X50100458Y-63132749D01*
X50215670Y-63218997D01*
X50350511Y-63269289D01*
X50350512Y-63269289D01*
X50350517Y-63269291D01*
X50410127Y-63275700D01*
X52205872Y-63275699D01*
X52265483Y-63269291D01*
X52333536Y-63243909D01*
X52400329Y-63218997D01*
X52400329Y-63218996D01*
X52400331Y-63218996D01*
X52515546Y-63132746D01*
X52601796Y-63017531D01*
X52605975Y-63006328D01*
X52652089Y-62882688D01*
X52652090Y-62882685D01*
X52652091Y-62882683D01*
X52658500Y-62823073D01*
X52658499Y-61027328D01*
X52652091Y-60967717D01*
X52623308Y-60890545D01*
X52601797Y-60832870D01*
X52515549Y-60717658D01*
X52515548Y-60717657D01*
X52515546Y-60717654D01*
X52477622Y-60689264D01*
X52400329Y-60631402D01*
X52265488Y-60581110D01*
X52265471Y-60581106D01*
X52251358Y-60579589D01*
X52195523Y-60554568D01*
X52165059Y-60501506D01*
X52171602Y-60440671D01*
X52191939Y-60411156D01*
X52346495Y-60256601D01*
X52482035Y-60063030D01*
X52581903Y-59848863D01*
X52643063Y-59620608D01*
X52643216Y-59618861D01*
X52663659Y-59385204D01*
X52663659Y-59385195D01*
X52643064Y-59149799D01*
X52643063Y-59149796D01*
X52643063Y-59149792D01*
X52581903Y-58921537D01*
X52581382Y-58920419D01*
X52482040Y-58707381D01*
X52482036Y-58707373D01*
X52475192Y-58697599D01*
X52361569Y-58535327D01*
X52346498Y-58513803D01*
X52346497Y-58513802D01*
X52346495Y-58513799D01*
X52179401Y-58346705D01*
X52179397Y-58346702D01*
X52179396Y-58346701D01*
X52045559Y-58252988D01*
X51985830Y-58211165D01*
X51972447Y-58204924D01*
X51927700Y-58163197D01*
X51916025Y-58103136D01*
X51941883Y-58047683D01*
X51972448Y-58025475D01*
X51974138Y-58024687D01*
X51985830Y-58019235D01*
X52179401Y-57883695D01*
X52346495Y-57716601D01*
X52482035Y-57523030D01*
X52581903Y-57308863D01*
X52643063Y-57080608D01*
X52650441Y-56996282D01*
X52663659Y-56845204D01*
X52663659Y-56845195D01*
X52643064Y-56609799D01*
X52643063Y-56609796D01*
X52643063Y-56609792D01*
X52581903Y-56381537D01*
X52541525Y-56294946D01*
X52482040Y-56167381D01*
X52482036Y-56167373D01*
X52475143Y-56157529D01*
X52346495Y-55973799D01*
X52179401Y-55806705D01*
X52179397Y-55806702D01*
X52179396Y-55806701D01*
X52115062Y-55761654D01*
X58825001Y-55761654D01*
X58835317Y-55862642D01*
X58835320Y-55862654D01*
X58889548Y-56026306D01*
X58980053Y-56173035D01*
X59101964Y-56294946D01*
X59248693Y-56385451D01*
X59412351Y-56439681D01*
X59513345Y-56449999D01*
X59700000Y-56449999D01*
X59700000Y-56449998D01*
X59900000Y-56449998D01*
X59900001Y-56449999D01*
X60086654Y-56449999D01*
X60187642Y-56439682D01*
X60187654Y-56439679D01*
X60351306Y-56385451D01*
X60498035Y-56294946D01*
X60619946Y-56173035D01*
X60710451Y-56026306D01*
X60764681Y-55862648D01*
X60775000Y-55761655D01*
X60775000Y-55525001D01*
X60774999Y-55525000D01*
X59900001Y-55525000D01*
X59900000Y-55525001D01*
X59900000Y-56449998D01*
X59700000Y-56449998D01*
X59700000Y-55525001D01*
X59699999Y-55525000D01*
X58825002Y-55525000D01*
X58825001Y-55525001D01*
X58825001Y-55761654D01*
X52115062Y-55761654D01*
X51999193Y-55680522D01*
X51985830Y-55671165D01*
X51972447Y-55664924D01*
X51927700Y-55623197D01*
X51916025Y-55563136D01*
X51941883Y-55507683D01*
X51972448Y-55485475D01*
X51985830Y-55479235D01*
X52179401Y-55343695D01*
X52346495Y-55176601D01*
X52457211Y-55018482D01*
X52506074Y-54981661D01*
X52537941Y-54976268D01*
X58728758Y-54953797D01*
X58787016Y-54972493D01*
X58823159Y-55021862D01*
X58827604Y-55062855D01*
X58825000Y-55088350D01*
X58825000Y-55324999D01*
X58825001Y-55325000D01*
X60774998Y-55325000D01*
X60774999Y-55324999D01*
X60774999Y-55088346D01*
X60771601Y-55055086D01*
X60784496Y-54995275D01*
X60830084Y-54954466D01*
X60869722Y-54946026D01*
X69212739Y-54915743D01*
X71808353Y-54906321D01*
X71866610Y-54925017D01*
G37*
%TD.AperFunction*%
%TA.AperFunction,Conductor*%
G36*
X73401188Y-60366790D02*
G01*
X73441762Y-60412587D01*
X73450000Y-60452125D01*
X73450000Y-61016720D01*
X73444793Y-61048404D01*
X73435167Y-61076898D01*
X73430749Y-61090619D01*
X73430749Y-61090620D01*
X73408618Y-61232787D01*
X73355378Y-65811471D01*
X73355378Y-65811492D01*
X73364493Y-65913092D01*
X73364496Y-65913112D01*
X73372022Y-65952128D01*
X73385455Y-65996877D01*
X73388788Y-66012418D01*
X73392905Y-66043692D01*
X73393699Y-66059850D01*
X73393591Y-66063160D01*
X73392600Y-66093449D01*
X73392600Y-66377000D01*
X73397295Y-66436671D01*
X73397600Y-66444424D01*
X73397600Y-66488889D01*
X73378693Y-66547080D01*
X73357949Y-66568127D01*
X73356949Y-66568876D01*
X73299040Y-66588628D01*
X73240580Y-66570568D01*
X73238251Y-66568876D01*
X73237251Y-66568127D01*
X73202010Y-66518109D01*
X73197600Y-66488889D01*
X73197600Y-66476501D01*
X73197599Y-66476500D01*
X73099768Y-66476500D01*
X73060525Y-66480718D01*
X73039366Y-66480718D01*
X73002243Y-66476727D01*
X72995473Y-66476000D01*
X72995471Y-66476000D01*
X72599734Y-66476000D01*
X72599720Y-66476001D01*
X72555831Y-66480718D01*
X72534675Y-66480718D01*
X72495431Y-66476500D01*
X72429510Y-66476500D01*
X72371319Y-66457593D01*
X72335355Y-66408093D01*
X72335355Y-66346907D01*
X72371319Y-66297407D01*
X72383494Y-66289843D01*
X72400852Y-66280734D01*
X72528183Y-66167929D01*
X72624818Y-66027930D01*
X72685140Y-65868872D01*
X72705645Y-65700000D01*
X72685140Y-65531128D01*
X72624818Y-65372070D01*
X72528183Y-65232071D01*
X72524654Y-65228945D01*
X72400853Y-65119267D01*
X72400852Y-65119266D01*
X72250225Y-65040210D01*
X72250224Y-65040209D01*
X72250223Y-65040209D01*
X72085058Y-64999500D01*
X72085056Y-64999500D01*
X71914944Y-64999500D01*
X71914941Y-64999500D01*
X71749775Y-65040209D01*
X71749773Y-65040210D01*
X71688508Y-65072365D01*
X71628196Y-65082666D01*
X71573348Y-65055549D01*
X71544914Y-65001372D01*
X71544067Y-64995278D01*
X71543132Y-64986573D01*
X71543133Y-64965417D01*
X71543295Y-64963907D01*
X71547600Y-64923873D01*
X71547599Y-64528128D01*
X71545069Y-64504600D01*
X71543133Y-64486580D01*
X71543133Y-64465417D01*
X71545643Y-64442070D01*
X71547600Y-64423873D01*
X71547599Y-64028128D01*
X71543497Y-63989969D01*
X71543133Y-63986580D01*
X71543133Y-63965417D01*
X71543893Y-63958351D01*
X71547600Y-63923873D01*
X71547599Y-63528128D01*
X71544350Y-63497906D01*
X71543133Y-63486580D01*
X71543133Y-63465417D01*
X71543295Y-63463907D01*
X71547600Y-63423873D01*
X71547599Y-63028128D01*
X71544575Y-63000000D01*
X71543133Y-62986580D01*
X71543133Y-62965417D01*
X71544469Y-62952989D01*
X71547600Y-62923873D01*
X71547599Y-62528128D01*
X71542880Y-62484229D01*
X71542880Y-62463070D01*
X71547100Y-62423822D01*
X71547100Y-62326001D01*
X71547099Y-62326000D01*
X71534710Y-62326000D01*
X71476519Y-62307093D01*
X71455472Y-62286349D01*
X71454723Y-62285349D01*
X71434971Y-62227440D01*
X71453031Y-62168980D01*
X71454723Y-62166651D01*
X71455472Y-62165651D01*
X71505490Y-62130410D01*
X71534710Y-62126000D01*
X71547099Y-62126000D01*
X71547100Y-62125999D01*
X71547100Y-62028180D01*
X71547020Y-62027437D01*
X71547052Y-62027283D01*
X71546958Y-62025526D01*
X71547426Y-62025500D01*
X71559592Y-61967557D01*
X71604959Y-61926503D01*
X71665793Y-61919955D01*
X71691456Y-61929181D01*
X71749775Y-61959790D01*
X71914944Y-62000500D01*
X71914947Y-62000500D01*
X72085053Y-62000500D01*
X72085056Y-62000500D01*
X72250225Y-61959790D01*
X72400852Y-61880734D01*
X72528183Y-61767929D01*
X72624818Y-61627930D01*
X72685140Y-61468872D01*
X72705645Y-61300000D01*
X72685140Y-61131128D01*
X72624818Y-60972070D01*
X72618023Y-60962225D01*
X72600500Y-60905989D01*
X72600500Y-60642493D01*
X72619407Y-60584302D01*
X72668907Y-60548338D01*
X72723192Y-60546371D01*
X72739944Y-60550500D01*
X72739947Y-60550500D01*
X72910053Y-60550500D01*
X72910056Y-60550500D01*
X73075225Y-60509790D01*
X73225852Y-60430734D01*
X73285351Y-60378022D01*
X73341444Y-60353587D01*
X73401188Y-60366790D01*
G37*
%TD.AperFunction*%
%TD*%
%TA.AperFunction,Conductor*%
%TO.N,AGND*%
G36*
X73825182Y-70977931D02*
G01*
X73877942Y-71054366D01*
X73909749Y-71100446D01*
X73921816Y-71117927D01*
X73921818Y-71117930D01*
X73956149Y-71148344D01*
X74049148Y-71230734D01*
X74131531Y-71273972D01*
X74174269Y-71317756D01*
X74183110Y-71378300D01*
X74155527Y-71431636D01*
X74067759Y-71519404D01*
X74013242Y-71547181D01*
X73997755Y-71548400D01*
X73563315Y-71548400D01*
X73462255Y-71558724D01*
X73462243Y-71558727D01*
X73298485Y-71612991D01*
X73298479Y-71612994D01*
X73151653Y-71703557D01*
X73029657Y-71825553D01*
X72939094Y-71972379D01*
X72939091Y-71972385D01*
X72884827Y-72136143D01*
X72884824Y-72136153D01*
X72874500Y-72237215D01*
X72874500Y-72935584D01*
X72884824Y-73036644D01*
X72884827Y-73036656D01*
X72939091Y-73200414D01*
X72939094Y-73200420D01*
X73029657Y-73347246D01*
X73029658Y-73347247D01*
X73029660Y-73347250D01*
X73061306Y-73378896D01*
X73061307Y-73378897D01*
X73089083Y-73433414D01*
X73079511Y-73493846D01*
X73061307Y-73518903D01*
X73029657Y-73550553D01*
X72939094Y-73697379D01*
X72939091Y-73697385D01*
X72884827Y-73861143D01*
X72884824Y-73861153D01*
X72874500Y-73962215D01*
X72874500Y-74660584D01*
X72884824Y-74761644D01*
X72884827Y-74761656D01*
X72939091Y-74925414D01*
X72939094Y-74925420D01*
X73029657Y-75072246D01*
X73029658Y-75072247D01*
X73029660Y-75072250D01*
X73151650Y-75194240D01*
X73298484Y-75284808D01*
X73462247Y-75339074D01*
X73462251Y-75339074D01*
X73462253Y-75339075D01*
X73530905Y-75346088D01*
X73563323Y-75349400D01*
X74136676Y-75349399D01*
X74136684Y-75349399D01*
X74237744Y-75339075D01*
X74237744Y-75339074D01*
X74237753Y-75339074D01*
X74401516Y-75284808D01*
X74548350Y-75194240D01*
X74670340Y-75072250D01*
X74760908Y-74925416D01*
X74815174Y-74761653D01*
X74825500Y-74660577D01*
X74825499Y-73962224D01*
X74825499Y-73962223D01*
X74825499Y-73962215D01*
X74815175Y-73861155D01*
X74815174Y-73861153D01*
X74815174Y-73861147D01*
X74760908Y-73697384D01*
X74733331Y-73652674D01*
X74670342Y-73550553D01*
X74670341Y-73550552D01*
X74670340Y-73550550D01*
X74638691Y-73518901D01*
X74610916Y-73464387D01*
X74620487Y-73403955D01*
X74638690Y-73378899D01*
X74670340Y-73347250D01*
X74760908Y-73200416D01*
X74815174Y-73036653D01*
X74825500Y-72935577D01*
X74825499Y-72501140D01*
X74844406Y-72442950D01*
X74854489Y-72431144D01*
X75028098Y-72257536D01*
X75082613Y-72229760D01*
X75143045Y-72239331D01*
X75186310Y-72282596D01*
X75197100Y-72327541D01*
X75197100Y-76758872D01*
X75178193Y-76817063D01*
X75155666Y-76837950D01*
X75156170Y-76838587D01*
X75151651Y-76842159D01*
X75029657Y-76964153D01*
X74939094Y-77110979D01*
X74939091Y-77110985D01*
X74884827Y-77274743D01*
X74884824Y-77274753D01*
X74874500Y-77375815D01*
X74874500Y-78074184D01*
X74884824Y-78175244D01*
X74884827Y-78175256D01*
X74939091Y-78339014D01*
X74939094Y-78339020D01*
X75029657Y-78485846D01*
X75029658Y-78485847D01*
X75029660Y-78485850D01*
X75061661Y-78517851D01*
X75089437Y-78572366D01*
X75079866Y-78632798D01*
X75061661Y-78657856D01*
X75030053Y-78689464D01*
X74939548Y-78836193D01*
X74885318Y-78999851D01*
X74875000Y-79100844D01*
X74875000Y-79349999D01*
X74875001Y-79350000D01*
X76824998Y-79350000D01*
X76824999Y-79349999D01*
X76824999Y-79100845D01*
X76814682Y-78999857D01*
X76814679Y-78999845D01*
X76760451Y-78836193D01*
X76677353Y-78701473D01*
X76662896Y-78642021D01*
X76686146Y-78585425D01*
X76738221Y-78553303D01*
X76761613Y-78550500D01*
X77164052Y-78550500D01*
X77222243Y-78569407D01*
X77248313Y-78597528D01*
X77279657Y-78648346D01*
X77279658Y-78648347D01*
X77279660Y-78648350D01*
X77401650Y-78770340D01*
X77401652Y-78770341D01*
X77401653Y-78770342D01*
X77548479Y-78860905D01*
X77548484Y-78860908D01*
X77712247Y-78915174D01*
X77712251Y-78915174D01*
X77712253Y-78915175D01*
X77780905Y-78922188D01*
X77813323Y-78925500D01*
X78486676Y-78925499D01*
X78486684Y-78925499D01*
X78587744Y-78915175D01*
X78587744Y-78915174D01*
X78587753Y-78915174D01*
X78751516Y-78860908D01*
X78898350Y-78770340D01*
X78954998Y-78713691D01*
X79009513Y-78685916D01*
X79069945Y-78695487D01*
X79095000Y-78713690D01*
X79151650Y-78770340D01*
X79252472Y-78832528D01*
X79292074Y-78879168D01*
X79299500Y-78916788D01*
X79299500Y-79081649D01*
X79298653Y-79094571D01*
X79294318Y-79127499D01*
X79294318Y-79127500D01*
X79299500Y-79166861D01*
X79314955Y-79284258D01*
X79314957Y-79284266D01*
X79375462Y-79430338D01*
X79375462Y-79430339D01*
X79452800Y-79531128D01*
X79471718Y-79555782D01*
X79471722Y-79555785D01*
X79498063Y-79575997D01*
X79507800Y-79584535D01*
X80419415Y-80496150D01*
X80441978Y-80531048D01*
X80497682Y-80677931D01*
X80559975Y-80768177D01*
X80594317Y-80817929D01*
X80721648Y-80930734D01*
X80872275Y-81009790D01*
X81037444Y-81050500D01*
X81037447Y-81050500D01*
X81207553Y-81050500D01*
X81207556Y-81050500D01*
X81372725Y-81009790D01*
X81523352Y-80930734D01*
X81548332Y-80908603D01*
X81604425Y-80884167D01*
X81664169Y-80897369D01*
X81704744Y-80943166D01*
X81710650Y-81004066D01*
X81701296Y-81029366D01*
X81676454Y-81075851D01*
X81668916Y-81087814D01*
X81508160Y-81306573D01*
X81498995Y-81317340D01*
X81308714Y-81510967D01*
X81298108Y-81520318D01*
X81082184Y-81684862D01*
X81070354Y-81692608D01*
X80833187Y-81824715D01*
X80820375Y-81830696D01*
X80566809Y-81927668D01*
X80553276Y-81931762D01*
X80288487Y-81991622D01*
X80274507Y-81993747D01*
X80000356Y-82015553D01*
X79993289Y-82015862D01*
X73374783Y-82068182D01*
X73316444Y-82049735D01*
X73280090Y-82000521D01*
X73275000Y-81969185D01*
X73275000Y-81775001D01*
X73274999Y-81775000D01*
X71325002Y-81775000D01*
X71325001Y-81775001D01*
X71325001Y-81975922D01*
X71306094Y-82034113D01*
X71256594Y-82070077D01*
X71219684Y-82074720D01*
X71086708Y-82066218D01*
X71072642Y-82064299D01*
X70805924Y-82008182D01*
X70792278Y-82004271D01*
X70536326Y-81910584D01*
X70523378Y-81904761D01*
X70283455Y-81775426D01*
X70271475Y-81767811D01*
X70052530Y-81605502D01*
X70041761Y-81596252D01*
X70020339Y-81574999D01*
X71325000Y-81574999D01*
X71325001Y-81575000D01*
X72199999Y-81575000D01*
X72200000Y-81574999D01*
X72400000Y-81574999D01*
X72400001Y-81575000D01*
X73274998Y-81575000D01*
X73274999Y-81574999D01*
X73274999Y-81338345D01*
X73264682Y-81237357D01*
X73264679Y-81237345D01*
X73210451Y-81073693D01*
X73119946Y-80926964D01*
X72998035Y-80805053D01*
X72851306Y-80714548D01*
X72687648Y-80660318D01*
X72586655Y-80650000D01*
X72400001Y-80650000D01*
X72400000Y-80650001D01*
X72400000Y-81574999D01*
X72200000Y-81574999D01*
X72200000Y-80650001D01*
X72199999Y-80650000D01*
X72013345Y-80650000D01*
X71912357Y-80660317D01*
X71912345Y-80660320D01*
X71748693Y-80714548D01*
X71601964Y-80805053D01*
X71480053Y-80926964D01*
X71389548Y-81073693D01*
X71335318Y-81237351D01*
X71325000Y-81338344D01*
X71325000Y-81574999D01*
X70020339Y-81574999D01*
X69848266Y-81404280D01*
X69838931Y-81393584D01*
X69674892Y-81175924D01*
X69667182Y-81164004D01*
X69535956Y-80925112D01*
X69530031Y-80912212D01*
X69528678Y-80908604D01*
X69434319Y-80656999D01*
X69430308Y-80643408D01*
X69372080Y-80377121D01*
X69370052Y-80363085D01*
X69356766Y-80178256D01*
X69371452Y-80118861D01*
X69418247Y-80079441D01*
X69465575Y-80072673D01*
X69488347Y-80074999D01*
X69724998Y-80074999D01*
X69725000Y-80074998D01*
X69925000Y-80074998D01*
X69925001Y-80074999D01*
X70161654Y-80074999D01*
X70262642Y-80064682D01*
X70262654Y-80064679D01*
X70426306Y-80010451D01*
X70573035Y-79919946D01*
X70693827Y-79799154D01*
X74875001Y-79799154D01*
X74885317Y-79900142D01*
X74885320Y-79900154D01*
X74939548Y-80063806D01*
X75030053Y-80210535D01*
X75151964Y-80332446D01*
X75298693Y-80422951D01*
X75462351Y-80477181D01*
X75563345Y-80487499D01*
X75750000Y-80487499D01*
X75750000Y-80487498D01*
X75950000Y-80487498D01*
X75950001Y-80487499D01*
X76136654Y-80487499D01*
X76237642Y-80477182D01*
X76237654Y-80477179D01*
X76401306Y-80422951D01*
X76548035Y-80332446D01*
X76669946Y-80210535D01*
X76760451Y-80063806D01*
X76814681Y-79900148D01*
X76825000Y-79799155D01*
X76825000Y-79550001D01*
X76824999Y-79550000D01*
X75950001Y-79550000D01*
X75950000Y-79550001D01*
X75950000Y-80487498D01*
X75750000Y-80487498D01*
X75750000Y-79550001D01*
X75749999Y-79550000D01*
X74875002Y-79550000D01*
X74875001Y-79550001D01*
X74875001Y-79799154D01*
X70693827Y-79799154D01*
X70694946Y-79798035D01*
X70785451Y-79651306D01*
X70839681Y-79487648D01*
X70850000Y-79386655D01*
X70850000Y-79200001D01*
X70849999Y-79200000D01*
X69925001Y-79200000D01*
X69925000Y-79200001D01*
X69925000Y-80074998D01*
X69725000Y-80074998D01*
X69725000Y-78999999D01*
X69925000Y-78999999D01*
X69925001Y-79000000D01*
X70849998Y-79000000D01*
X70849999Y-78999999D01*
X70849999Y-78813345D01*
X70839682Y-78712357D01*
X70839679Y-78712345D01*
X70785451Y-78548693D01*
X70694946Y-78401964D01*
X70573035Y-78280053D01*
X70426306Y-78189548D01*
X70262648Y-78135318D01*
X70161655Y-78125000D01*
X69925001Y-78125000D01*
X69925000Y-78125001D01*
X69925000Y-78999999D01*
X69725000Y-78999999D01*
X69725000Y-78125001D01*
X69724999Y-78125000D01*
X69488352Y-78125000D01*
X69459059Y-78127993D01*
X69399249Y-78115096D01*
X69358441Y-78069506D01*
X69350000Y-78029505D01*
X69350000Y-73081159D01*
X69350249Y-73074147D01*
X69360088Y-72935584D01*
X69369569Y-72802053D01*
X69371547Y-72788191D01*
X69428386Y-72524966D01*
X69432303Y-72511527D01*
X69525761Y-72258989D01*
X69531543Y-72246225D01*
X69659745Y-72009431D01*
X69667271Y-71997614D01*
X69827651Y-71781306D01*
X69836765Y-71770679D01*
X70026104Y-71579201D01*
X70036634Y-71569964D01*
X70251119Y-71407168D01*
X70262855Y-71399507D01*
X70498195Y-71268651D01*
X70510888Y-71262729D01*
X70762361Y-71166439D01*
X70775757Y-71162371D01*
X71038329Y-71102578D01*
X71052160Y-71100446D01*
X71324041Y-71078068D01*
X71331013Y-71077741D01*
X71845334Y-71071963D01*
X71845340Y-71071962D01*
X73800000Y-71050000D01*
X73801562Y-70915649D01*
X73825182Y-70977931D01*
G37*
%TD.AperFunction*%
%TA.AperFunction,Conductor*%
G36*
X109003522Y-30000252D02*
G01*
X109038561Y-30002757D01*
X109277574Y-30019852D01*
X109291537Y-30021859D01*
X109556555Y-30079510D01*
X109570096Y-30083487D01*
X109824203Y-30178264D01*
X109837037Y-30184125D01*
X110043804Y-30297028D01*
X110075068Y-30314100D01*
X110086943Y-30321731D01*
X110304058Y-30484262D01*
X110314723Y-30493503D01*
X110506496Y-30685276D01*
X110515738Y-30695942D01*
X110678266Y-30913052D01*
X110685899Y-30924931D01*
X110815870Y-31162954D01*
X110821738Y-31175803D01*
X110916510Y-31429897D01*
X110920490Y-31443450D01*
X110978138Y-31708452D01*
X110980148Y-31722433D01*
X110999748Y-31996476D01*
X111000000Y-32003539D01*
X111000000Y-56996460D01*
X110999748Y-57003523D01*
X110980148Y-57277566D01*
X110978138Y-57291547D01*
X110920490Y-57556549D01*
X110916510Y-57570102D01*
X110821738Y-57824196D01*
X110815870Y-57837045D01*
X110685899Y-58075068D01*
X110678263Y-58086951D01*
X110515746Y-58304048D01*
X110506496Y-58314723D01*
X110314723Y-58506496D01*
X110304048Y-58515746D01*
X110086951Y-58678263D01*
X110075068Y-58685899D01*
X109837045Y-58815870D01*
X109824196Y-58821738D01*
X109570102Y-58916510D01*
X109556549Y-58920490D01*
X109291547Y-58978138D01*
X109277566Y-58980148D01*
X109003523Y-58999748D01*
X108996460Y-59000000D01*
X106024000Y-59000000D01*
X105965809Y-58981093D01*
X105929845Y-58931593D01*
X105925000Y-58901000D01*
X105925000Y-58775001D01*
X105924999Y-58775000D01*
X103975002Y-58775000D01*
X103975001Y-58775001D01*
X103975001Y-58901000D01*
X103956094Y-58959191D01*
X103906594Y-58995155D01*
X103876001Y-59000000D01*
X94000000Y-59000000D01*
X93538240Y-60354750D01*
X93538239Y-60354753D01*
X93538229Y-60354780D01*
X93248846Y-61203795D01*
X93212176Y-61252775D01*
X93153721Y-61270846D01*
X93103168Y-61256117D01*
X93076305Y-61239548D01*
X92912648Y-61185318D01*
X92811655Y-61175000D01*
X92575001Y-61175000D01*
X92575000Y-61175001D01*
X92575000Y-63164376D01*
X92569706Y-63196315D01*
X89993206Y-70755469D01*
X89956537Y-70804449D01*
X89898081Y-70822520D01*
X89840167Y-70802780D01*
X89804917Y-70752770D01*
X89800500Y-70723530D01*
X89800500Y-64644010D01*
X89818026Y-64587769D01*
X89824818Y-64577930D01*
X89885140Y-64418872D01*
X89905645Y-64250000D01*
X89885140Y-64081128D01*
X89824818Y-63922070D01*
X89728183Y-63782071D01*
X89600852Y-63669266D01*
X89450225Y-63590210D01*
X89450224Y-63590209D01*
X89450223Y-63590209D01*
X89285058Y-63549500D01*
X89285056Y-63549500D01*
X89114944Y-63549500D01*
X89114941Y-63549500D01*
X88949776Y-63590209D01*
X88799146Y-63669267D01*
X88671818Y-63782069D01*
X88671816Y-63782072D01*
X88605411Y-63878276D01*
X88575182Y-63922070D01*
X88553630Y-63978900D01*
X88514860Y-64081129D01*
X88497071Y-64227635D01*
X88494355Y-64250000D01*
X88514860Y-64418872D01*
X88556295Y-64528128D01*
X88575181Y-64577928D01*
X88575183Y-64577931D01*
X88581974Y-64587769D01*
X88599500Y-64644010D01*
X88599500Y-74828035D01*
X88594206Y-74859974D01*
X88412871Y-75391990D01*
X88410446Y-75398376D01*
X88307624Y-75643270D01*
X88301482Y-75655466D01*
X88167700Y-75880919D01*
X88159939Y-75892153D01*
X87996405Y-76097057D01*
X87987172Y-76107116D01*
X87797003Y-76287567D01*
X87786473Y-76296261D01*
X87573283Y-76448830D01*
X87561658Y-76455992D01*
X87329497Y-76577779D01*
X87316996Y-76583273D01*
X87070294Y-76671954D01*
X87057157Y-76675676D01*
X86800588Y-76729571D01*
X86787063Y-76731449D01*
X86522120Y-76749764D01*
X86515293Y-76750000D01*
X81950000Y-76750000D01*
X81955710Y-77349500D01*
X80885948Y-77349500D01*
X80827757Y-77330593D01*
X80801687Y-77302472D01*
X80770342Y-77251653D01*
X80770341Y-77251652D01*
X80770340Y-77251650D01*
X80648350Y-77129660D01*
X80648347Y-77129658D01*
X80648346Y-77129657D01*
X80501520Y-77039094D01*
X80501514Y-77039091D01*
X80337756Y-76984827D01*
X80337746Y-76984824D01*
X80236684Y-76974500D01*
X79563315Y-76974500D01*
X79462255Y-76984824D01*
X79462243Y-76984827D01*
X79298485Y-77039091D01*
X79298479Y-77039094D01*
X79151653Y-77129657D01*
X79151650Y-77129659D01*
X79151650Y-77129660D01*
X79095001Y-77186308D01*
X79040487Y-77214084D01*
X78980055Y-77204513D01*
X78954999Y-77186309D01*
X78898350Y-77129660D01*
X78898347Y-77129658D01*
X78898346Y-77129657D01*
X78751520Y-77039094D01*
X78751514Y-77039091D01*
X78587756Y-76984827D01*
X78587746Y-76984824D01*
X78486684Y-76974500D01*
X77813315Y-76974500D01*
X77712255Y-76984824D01*
X77712243Y-76984827D01*
X77548485Y-77039091D01*
X77548479Y-77039094D01*
X77401653Y-77129657D01*
X77279657Y-77251653D01*
X77248313Y-77302472D01*
X77201672Y-77342074D01*
X77164052Y-77349500D01*
X76911226Y-77349500D01*
X76853035Y-77330593D01*
X76817071Y-77281093D01*
X76816190Y-77277816D01*
X76815174Y-77274751D01*
X76815174Y-77274747D01*
X76760908Y-77110984D01*
X76670340Y-76964150D01*
X76548350Y-76842160D01*
X76548347Y-76842158D01*
X76548346Y-76842157D01*
X76445128Y-76778492D01*
X76405526Y-76731851D01*
X76398100Y-76694231D01*
X76398100Y-74699154D01*
X77025001Y-74699154D01*
X77035317Y-74800142D01*
X77035320Y-74800154D01*
X77089548Y-74963806D01*
X77180053Y-75110535D01*
X77301964Y-75232446D01*
X77448693Y-75322951D01*
X77612351Y-75377181D01*
X77713345Y-75387499D01*
X77900000Y-75387499D01*
X77900000Y-75387498D01*
X78100000Y-75387498D01*
X78100001Y-75387499D01*
X78286654Y-75387499D01*
X78387642Y-75377182D01*
X78387654Y-75377179D01*
X78551306Y-75322951D01*
X78698035Y-75232446D01*
X78819946Y-75110535D01*
X78910451Y-74963806D01*
X78964681Y-74800148D01*
X78975000Y-74699155D01*
X78975000Y-74450001D01*
X78974999Y-74450000D01*
X78100001Y-74450000D01*
X78100000Y-74450001D01*
X78100000Y-75387498D01*
X77900000Y-75387498D01*
X77900000Y-74450001D01*
X77899999Y-74450000D01*
X77025002Y-74450000D01*
X77025001Y-74450001D01*
X77025001Y-74699154D01*
X76398100Y-74699154D01*
X76398100Y-72111343D01*
X76417007Y-72053152D01*
X76466507Y-72017188D01*
X76527693Y-72017188D01*
X76567104Y-72041339D01*
X76995504Y-72469739D01*
X77023281Y-72524256D01*
X77024500Y-72539743D01*
X77024500Y-72974184D01*
X77034824Y-73075244D01*
X77034827Y-73075256D01*
X77089091Y-73239014D01*
X77089094Y-73239020D01*
X77179657Y-73385846D01*
X77179658Y-73385847D01*
X77179660Y-73385850D01*
X77211661Y-73417851D01*
X77239437Y-73472366D01*
X77229866Y-73532798D01*
X77211661Y-73557856D01*
X77180053Y-73589464D01*
X77089548Y-73736193D01*
X77035318Y-73899851D01*
X77025000Y-74000844D01*
X77025000Y-74249999D01*
X77025001Y-74250000D01*
X78974998Y-74250000D01*
X78974999Y-74249999D01*
X78974999Y-74000845D01*
X78964682Y-73899857D01*
X78964679Y-73899845D01*
X78910451Y-73736193D01*
X78819946Y-73589464D01*
X78788339Y-73557857D01*
X78760562Y-73503340D01*
X78770133Y-73442908D01*
X78788335Y-73417854D01*
X78820340Y-73385850D01*
X78910908Y-73239016D01*
X78965174Y-73075253D01*
X78975500Y-72974177D01*
X78975499Y-72663740D01*
X78994406Y-72605552D01*
X79043906Y-72569588D01*
X79105091Y-72569587D01*
X79144503Y-72593738D01*
X81842964Y-75292199D01*
X81851502Y-75301936D01*
X81871718Y-75328282D01*
X81871722Y-75328285D01*
X81871723Y-75328286D01*
X81980231Y-75411547D01*
X81980232Y-75411548D01*
X81997155Y-75424534D01*
X81997158Y-75424535D01*
X81997159Y-75424536D01*
X82143238Y-75485044D01*
X82260639Y-75500500D01*
X82299999Y-75505682D01*
X82300000Y-75505682D01*
X82300001Y-75505682D01*
X82332928Y-75501347D01*
X82345850Y-75500500D01*
X83053152Y-75500500D01*
X83111343Y-75519407D01*
X83137413Y-75547528D01*
X83168757Y-75598346D01*
X83168758Y-75598347D01*
X83168760Y-75598350D01*
X83290750Y-75720340D01*
X83437584Y-75810908D01*
X83601347Y-75865174D01*
X83601351Y-75865174D01*
X83601353Y-75865175D01*
X83670005Y-75872188D01*
X83702423Y-75875500D01*
X84300776Y-75875499D01*
X84300784Y-75875499D01*
X84401844Y-75865175D01*
X84401844Y-75865174D01*
X84401853Y-75865174D01*
X84565616Y-75810908D01*
X84712450Y-75720340D01*
X84834440Y-75598350D01*
X84834443Y-75598344D01*
X84836442Y-75595818D01*
X84838026Y-75594762D01*
X84838517Y-75594272D01*
X84838615Y-75594370D01*
X84887365Y-75561898D01*
X84948499Y-75564389D01*
X84989660Y-75594294D01*
X84989683Y-75594272D01*
X84989823Y-75594412D01*
X84991758Y-75595818D01*
X84993756Y-75598345D01*
X84993758Y-75598347D01*
X84993760Y-75598350D01*
X85115750Y-75720340D01*
X85262584Y-75810908D01*
X85426347Y-75865174D01*
X85426351Y-75865174D01*
X85426353Y-75865175D01*
X85495005Y-75872188D01*
X85527423Y-75875500D01*
X86125776Y-75875499D01*
X86125784Y-75875499D01*
X86226844Y-75865175D01*
X86226844Y-75865174D01*
X86226853Y-75865174D01*
X86390616Y-75810908D01*
X86537450Y-75720340D01*
X86659440Y-75598350D01*
X86750008Y-75451516D01*
X86804274Y-75287753D01*
X86814600Y-75186677D01*
X86814599Y-74613324D01*
X86814599Y-74613315D01*
X86804275Y-74512255D01*
X86804274Y-74512253D01*
X86804274Y-74512247D01*
X86750008Y-74348484D01*
X86727770Y-74312430D01*
X86659442Y-74201653D01*
X86659441Y-74201652D01*
X86659440Y-74201650D01*
X86537450Y-74079660D01*
X86537447Y-74079658D01*
X86537446Y-74079657D01*
X86390620Y-73989094D01*
X86390614Y-73989091D01*
X86226856Y-73934827D01*
X86226846Y-73934824D01*
X86125784Y-73924500D01*
X85527415Y-73924500D01*
X85426355Y-73934824D01*
X85426343Y-73934827D01*
X85262585Y-73989091D01*
X85262579Y-73989094D01*
X85115753Y-74079657D01*
X84993757Y-74201653D01*
X84991754Y-74204187D01*
X84990167Y-74205243D01*
X84989683Y-74205728D01*
X84989585Y-74205630D01*
X84940829Y-74238103D01*
X84879694Y-74235608D01*
X84838538Y-74205706D01*
X84838517Y-74205728D01*
X84838384Y-74205595D01*
X84836446Y-74204187D01*
X84834442Y-74201653D01*
X84834441Y-74201652D01*
X84834440Y-74201650D01*
X84712450Y-74079660D01*
X84712447Y-74079658D01*
X84712446Y-74079657D01*
X84565620Y-73989094D01*
X84565614Y-73989091D01*
X84401856Y-73934827D01*
X84401846Y-73934824D01*
X84300784Y-73924500D01*
X83702415Y-73924500D01*
X83601355Y-73934824D01*
X83601343Y-73934827D01*
X83437585Y-73989091D01*
X83437579Y-73989094D01*
X83290753Y-74079657D01*
X83168757Y-74201653D01*
X83137413Y-74252472D01*
X83090772Y-74292074D01*
X83053152Y-74299500D01*
X82589743Y-74299500D01*
X82531552Y-74280593D01*
X82519739Y-74270504D01*
X81752575Y-73503340D01*
X80982118Y-72732883D01*
X80954343Y-72678369D01*
X80963914Y-72617937D01*
X81007179Y-72574672D01*
X81052124Y-72563882D01*
X81058201Y-72563882D01*
X81091128Y-72559547D01*
X81104050Y-72558700D01*
X83053152Y-72558700D01*
X83111343Y-72577607D01*
X83137413Y-72605728D01*
X83168757Y-72656546D01*
X83168758Y-72656547D01*
X83168760Y-72656550D01*
X83290750Y-72778540D01*
X83290752Y-72778541D01*
X83290753Y-72778542D01*
X83386696Y-72837720D01*
X83437584Y-72869108D01*
X83601347Y-72923374D01*
X83601351Y-72923374D01*
X83601353Y-72923375D01*
X83670005Y-72930388D01*
X83702423Y-72933700D01*
X84400776Y-72933699D01*
X84400784Y-72933699D01*
X84501844Y-72923375D01*
X84501844Y-72923374D01*
X84501853Y-72923374D01*
X84665616Y-72869108D01*
X84812450Y-72778540D01*
X84844098Y-72746891D01*
X84898613Y-72719116D01*
X84959045Y-72728687D01*
X84984100Y-72746890D01*
X85015750Y-72778540D01*
X85015752Y-72778541D01*
X85015753Y-72778542D01*
X85111696Y-72837720D01*
X85162584Y-72869108D01*
X85326347Y-72923374D01*
X85326351Y-72923374D01*
X85326353Y-72923375D01*
X85395005Y-72930388D01*
X85427423Y-72933700D01*
X86125776Y-72933699D01*
X86125784Y-72933699D01*
X86226844Y-72923375D01*
X86226844Y-72923374D01*
X86226853Y-72923374D01*
X86390616Y-72869108D01*
X86537450Y-72778540D01*
X86659440Y-72656550D01*
X86750008Y-72509716D01*
X86804274Y-72345953D01*
X86814600Y-72244877D01*
X86814599Y-71671524D01*
X86814599Y-71671515D01*
X86804275Y-71570455D01*
X86804274Y-71570453D01*
X86804274Y-71570447D01*
X86750008Y-71406684D01*
X86732501Y-71378300D01*
X86659442Y-71259853D01*
X86659441Y-71259852D01*
X86659440Y-71259850D01*
X86537450Y-71137860D01*
X86537447Y-71137858D01*
X86537446Y-71137857D01*
X86390620Y-71047294D01*
X86390614Y-71047291D01*
X86226856Y-70993027D01*
X86226846Y-70993024D01*
X86125784Y-70982700D01*
X85427415Y-70982700D01*
X85326355Y-70993024D01*
X85326343Y-70993027D01*
X85162585Y-71047291D01*
X85162579Y-71047294D01*
X85015753Y-71137857D01*
X84984103Y-71169507D01*
X84929586Y-71197283D01*
X84869154Y-71187711D01*
X84844097Y-71169507D01*
X84836961Y-71162371D01*
X84812450Y-71137860D01*
X84812447Y-71137858D01*
X84812446Y-71137857D01*
X84665620Y-71047294D01*
X84665614Y-71047291D01*
X84501856Y-70993027D01*
X84501846Y-70993024D01*
X84400784Y-70982700D01*
X83702415Y-70982700D01*
X83601355Y-70993024D01*
X83601343Y-70993027D01*
X83437585Y-71047291D01*
X83437579Y-71047294D01*
X83290753Y-71137857D01*
X83168757Y-71259853D01*
X83137413Y-71310672D01*
X83090772Y-71350274D01*
X83053152Y-71357700D01*
X81347943Y-71357700D01*
X81289752Y-71338793D01*
X81277939Y-71328704D01*
X80218739Y-70269504D01*
X80190962Y-70214987D01*
X80200533Y-70154555D01*
X80243798Y-70111290D01*
X80288743Y-70100500D01*
X85671650Y-70100500D01*
X85684572Y-70101347D01*
X85717499Y-70105682D01*
X85717500Y-70105682D01*
X85717501Y-70105682D01*
X85756861Y-70100500D01*
X85874262Y-70085044D01*
X86020341Y-70024536D01*
X86046476Y-70004482D01*
X86141243Y-69931765D01*
X86145780Y-69928284D01*
X86145782Y-69928282D01*
X86165996Y-69901937D01*
X86174528Y-69892205D01*
X87373650Y-68693083D01*
X87419961Y-68666966D01*
X87449075Y-68659790D01*
X87473825Y-68653690D01*
X87624452Y-68574634D01*
X87751783Y-68461829D01*
X87848418Y-68321830D01*
X87908740Y-68162772D01*
X87929245Y-67993900D01*
X87908740Y-67825028D01*
X87848418Y-67665970D01*
X87751783Y-67525971D01*
X87624452Y-67413166D01*
X87473825Y-67334110D01*
X87473824Y-67334109D01*
X87473823Y-67334109D01*
X87308658Y-67293400D01*
X87308656Y-67293400D01*
X87138544Y-67293400D01*
X87138541Y-67293400D01*
X86973376Y-67334109D01*
X86822746Y-67413167D01*
X86695418Y-67525969D01*
X86695416Y-67525972D01*
X86598782Y-67665969D01*
X86543078Y-67812850D01*
X86520515Y-67847748D01*
X85497761Y-68870504D01*
X85443244Y-68898281D01*
X85427757Y-68899500D01*
X80435210Y-68899500D01*
X80377019Y-68880593D01*
X80341055Y-68831093D01*
X80341055Y-68769907D01*
X80355957Y-68741171D01*
X80391396Y-68693831D01*
X80404093Y-68659790D01*
X80433578Y-68580734D01*
X80441691Y-68558983D01*
X80448100Y-68499373D01*
X80448099Y-66928628D01*
X80441691Y-66869017D01*
X80398100Y-66752143D01*
X80391397Y-66734170D01*
X80305149Y-66618958D01*
X80305148Y-66618957D01*
X80305146Y-66618954D01*
X80238251Y-66568876D01*
X80189929Y-66532702D01*
X80055088Y-66482410D01*
X80055083Y-66482409D01*
X80055081Y-66482408D01*
X80055077Y-66482408D01*
X80023849Y-66479050D01*
X79995473Y-66476000D01*
X79995470Y-66476000D01*
X79599733Y-66476000D01*
X79599722Y-66476001D01*
X79558179Y-66480466D01*
X79537021Y-66480466D01*
X79505375Y-66477064D01*
X79495473Y-66476000D01*
X79495471Y-66476000D01*
X79099733Y-66476000D01*
X79099722Y-66476001D01*
X79058179Y-66480466D01*
X79037021Y-66480466D01*
X79005375Y-66477064D01*
X78995473Y-66476000D01*
X78995471Y-66476000D01*
X78599733Y-66476000D01*
X78599722Y-66476001D01*
X78558179Y-66480466D01*
X78537021Y-66480466D01*
X78505375Y-66477064D01*
X78495473Y-66476000D01*
X78495471Y-66476000D01*
X78099734Y-66476000D01*
X78099720Y-66476001D01*
X78055831Y-66480718D01*
X78034675Y-66480718D01*
X77995431Y-66476500D01*
X77992776Y-66476358D01*
X77992842Y-66475116D01*
X77938909Y-66457593D01*
X77902945Y-66408093D01*
X77898100Y-66377500D01*
X77898100Y-65843449D01*
X77898947Y-65830527D01*
X77903282Y-65797600D01*
X77903282Y-65797599D01*
X77882644Y-65640841D01*
X77882644Y-65640838D01*
X77822136Y-65494759D01*
X77781590Y-65441918D01*
X77725882Y-65369318D01*
X77711167Y-65358026D01*
X77678869Y-65314592D01*
X77624818Y-65172070D01*
X77528183Y-65032071D01*
X77523732Y-65028128D01*
X77422983Y-64938872D01*
X77400852Y-64919266D01*
X77250225Y-64840210D01*
X77250224Y-64840209D01*
X77250223Y-64840209D01*
X77085058Y-64799500D01*
X77085056Y-64799500D01*
X76914944Y-64799500D01*
X76914941Y-64799500D01*
X76749776Y-64840209D01*
X76658415Y-64888160D01*
X76612407Y-64899500D01*
X76495850Y-64899500D01*
X76482928Y-64898653D01*
X76450001Y-64894318D01*
X76450000Y-64894318D01*
X76410639Y-64899500D01*
X76293241Y-64914955D01*
X76293233Y-64914957D01*
X76147161Y-64975462D01*
X76147160Y-64975462D01*
X76021723Y-65071713D01*
X76021718Y-65071718D01*
X76001498Y-65098068D01*
X75992962Y-65107801D01*
X75405401Y-65695362D01*
X75395668Y-65703898D01*
X75369318Y-65724118D01*
X75369313Y-65724123D01*
X75280889Y-65839361D01*
X75280887Y-65839363D01*
X75273065Y-65849555D01*
X75255964Y-65890841D01*
X75214020Y-65992105D01*
X75212557Y-65995636D01*
X75212555Y-65995641D01*
X75191918Y-66152399D01*
X75191918Y-66152400D01*
X75196253Y-66185327D01*
X75197100Y-66198249D01*
X75197100Y-66377000D01*
X75178193Y-66435191D01*
X75128693Y-66471155D01*
X75102352Y-66475339D01*
X75102380Y-66475859D01*
X75099722Y-66476001D01*
X75058179Y-66480466D01*
X75037021Y-66480466D01*
X75005375Y-66477064D01*
X74995473Y-66476000D01*
X74995471Y-66476000D01*
X74599734Y-66476000D01*
X74599720Y-66476001D01*
X74555831Y-66480718D01*
X74534675Y-66480718D01*
X74495431Y-66476500D01*
X74397601Y-66476500D01*
X74397600Y-66476501D01*
X74397600Y-66488889D01*
X74378693Y-66547080D01*
X74357949Y-66568127D01*
X74356949Y-66568876D01*
X74299040Y-66588628D01*
X74240580Y-66570568D01*
X74238251Y-66568876D01*
X74237251Y-66568127D01*
X74202010Y-66518109D01*
X74197600Y-66488889D01*
X74197600Y-66476501D01*
X74197599Y-66476500D01*
X74099768Y-66476500D01*
X74060525Y-66480718D01*
X74039366Y-66480718D01*
X73995474Y-66476000D01*
X73992822Y-66475858D01*
X73992887Y-66474631D01*
X73938909Y-66457093D01*
X73902945Y-66407593D01*
X73898100Y-66377000D01*
X73898100Y-66093449D01*
X73898947Y-66080527D01*
X73899741Y-66074500D01*
X73903282Y-66047600D01*
X73898937Y-66014600D01*
X73897019Y-66000028D01*
X73882644Y-65890838D01*
X73868372Y-65856383D01*
X73860844Y-65817356D01*
X73914085Y-61238665D01*
X73933666Y-61180702D01*
X73983581Y-61145316D01*
X74044762Y-61146027D01*
X74083081Y-61169816D01*
X76059415Y-63146150D01*
X76081978Y-63181048D01*
X76137682Y-63327931D01*
X76194772Y-63410638D01*
X76234317Y-63467929D01*
X76361648Y-63580734D01*
X76512275Y-63659790D01*
X76677444Y-63700500D01*
X76677447Y-63700500D01*
X76847553Y-63700500D01*
X76847556Y-63700500D01*
X77012725Y-63659790D01*
X77163352Y-63580734D01*
X77290683Y-63467929D01*
X77387318Y-63327930D01*
X77447640Y-63168872D01*
X77468145Y-63000000D01*
X77447640Y-62831128D01*
X77387318Y-62672070D01*
X77290683Y-62532071D01*
X77163352Y-62419266D01*
X77012725Y-62340210D01*
X77012724Y-62340209D01*
X77012723Y-62340209D01*
X76958860Y-62326933D01*
X76912549Y-62300814D01*
X74929496Y-60317761D01*
X74901719Y-60263244D01*
X74900500Y-60247757D01*
X74900500Y-59688743D01*
X74919407Y-59630552D01*
X74968907Y-59594588D01*
X75030093Y-59594588D01*
X75069504Y-59618739D01*
X75642964Y-60192199D01*
X75651502Y-60201936D01*
X75671718Y-60228282D01*
X75671722Y-60228285D01*
X75671723Y-60228286D01*
X75768376Y-60302450D01*
X75768377Y-60302451D01*
X75788548Y-60317929D01*
X75797159Y-60324536D01*
X75943238Y-60385044D01*
X76060639Y-60400500D01*
X76099999Y-60405682D01*
X76100000Y-60405682D01*
X76100001Y-60405682D01*
X76132928Y-60401347D01*
X76145850Y-60400500D01*
X76762407Y-60400500D01*
X76808415Y-60411840D01*
X76899775Y-60459790D01*
X77064944Y-60500500D01*
X77064947Y-60500500D01*
X77235053Y-60500500D01*
X77235056Y-60500500D01*
X77400225Y-60459790D01*
X77550852Y-60380734D01*
X77678183Y-60267929D01*
X77774818Y-60127930D01*
X77835140Y-59968872D01*
X77855645Y-59800000D01*
X77835140Y-59631128D01*
X77774818Y-59472070D01*
X77678183Y-59332071D01*
X77550852Y-59219266D01*
X77400225Y-59140210D01*
X77400224Y-59140209D01*
X77394922Y-59137427D01*
X77396233Y-59134929D01*
X77357415Y-59103752D01*
X77341342Y-59044716D01*
X77363039Y-58987507D01*
X77414219Y-58953977D01*
X77440226Y-58950500D01*
X78004150Y-58950500D01*
X78017072Y-58951347D01*
X78049999Y-58955682D01*
X78050000Y-58955682D01*
X78050001Y-58955682D01*
X78082928Y-58951347D01*
X78095850Y-58950500D01*
X78254150Y-58950500D01*
X78267072Y-58951347D01*
X78299999Y-58955682D01*
X78300000Y-58955682D01*
X78300001Y-58955682D01*
X78332928Y-58951347D01*
X78345850Y-58950500D01*
X78504150Y-58950500D01*
X78517072Y-58951347D01*
X78549999Y-58955682D01*
X78550000Y-58955682D01*
X78550001Y-58955682D01*
X78582928Y-58951347D01*
X78595850Y-58950500D01*
X78662407Y-58950500D01*
X78708415Y-58961840D01*
X78799775Y-59009790D01*
X78964944Y-59050500D01*
X78964947Y-59050500D01*
X79135053Y-59050500D01*
X79135056Y-59050500D01*
X79300225Y-59009790D01*
X79450852Y-58930734D01*
X79482358Y-58902821D01*
X79538452Y-58878386D01*
X79598196Y-58891589D01*
X79638770Y-58937386D01*
X79646161Y-58963999D01*
X79648411Y-58981093D01*
X79648653Y-58982924D01*
X79649500Y-58995849D01*
X79649500Y-59354149D01*
X79648653Y-59367071D01*
X79644318Y-59399999D01*
X79644318Y-59400000D01*
X79649500Y-59439361D01*
X79664955Y-59556758D01*
X79664957Y-59556766D01*
X79725462Y-59702838D01*
X79725464Y-59702842D01*
X79748512Y-59732879D01*
X79768935Y-59790555D01*
X79761433Y-59831030D01*
X79714957Y-59943232D01*
X79714955Y-59943241D01*
X79694318Y-60099999D01*
X79694318Y-60100000D01*
X79698653Y-60132927D01*
X79699500Y-60145849D01*
X79699500Y-60454149D01*
X79698653Y-60467071D01*
X79694318Y-60499999D01*
X79694318Y-60500000D01*
X79710158Y-60620318D01*
X79714955Y-60656761D01*
X79775463Y-60802839D01*
X79778708Y-60808459D01*
X79775979Y-60810034D01*
X79792041Y-60855717D01*
X79784534Y-60895971D01*
X79764955Y-60943239D01*
X79744318Y-61099999D01*
X79744318Y-61100000D01*
X79748653Y-61132927D01*
X79749500Y-61145849D01*
X79749500Y-61454149D01*
X79748653Y-61467071D01*
X79744318Y-61499999D01*
X79744318Y-61500000D01*
X79760158Y-61620318D01*
X79764955Y-61656758D01*
X79764957Y-61656766D01*
X79808594Y-61762115D01*
X79813395Y-61823111D01*
X79808594Y-61837885D01*
X79764957Y-61943233D01*
X79764955Y-61943241D01*
X79744318Y-62099999D01*
X79744318Y-62100000D01*
X79748653Y-62132927D01*
X79749500Y-62145849D01*
X79749500Y-62454149D01*
X79748653Y-62467071D01*
X79744318Y-62499999D01*
X79744318Y-62500000D01*
X79760158Y-62620318D01*
X79764955Y-62656759D01*
X79798239Y-62737116D01*
X79803038Y-62798113D01*
X79798239Y-62812884D01*
X79764955Y-62893240D01*
X79744318Y-63049999D01*
X79744318Y-63050000D01*
X79748653Y-63082927D01*
X79749500Y-63095849D01*
X79749500Y-63404149D01*
X79748653Y-63417071D01*
X79744318Y-63449999D01*
X79744318Y-63450000D01*
X79749500Y-63489361D01*
X79764955Y-63606758D01*
X79764957Y-63606766D01*
X79825462Y-63752838D01*
X79825462Y-63752839D01*
X79878637Y-63822138D01*
X79921718Y-63878282D01*
X79921722Y-63878285D01*
X79948063Y-63898497D01*
X79957800Y-63907035D01*
X80168964Y-64118199D01*
X80177502Y-64127936D01*
X80197718Y-64154282D01*
X80197722Y-64154285D01*
X80197723Y-64154286D01*
X80224894Y-64175135D01*
X80259207Y-64201464D01*
X80323159Y-64250536D01*
X80323160Y-64250536D01*
X80323161Y-64250537D01*
X80469235Y-64311043D01*
X80469236Y-64311043D01*
X80469238Y-64311044D01*
X80469239Y-64311044D01*
X80474221Y-64312379D01*
X80525536Y-64345702D01*
X80547464Y-64402823D01*
X80547600Y-64408001D01*
X80547600Y-64423864D01*
X80547601Y-64423875D01*
X80552066Y-64465418D01*
X80552066Y-64486577D01*
X80547600Y-64528125D01*
X80547600Y-64923866D01*
X80547601Y-64923875D01*
X80552066Y-64965418D01*
X80552066Y-64986577D01*
X80547600Y-65028125D01*
X80547600Y-65423866D01*
X80547601Y-65423875D01*
X80552066Y-65465418D01*
X80552066Y-65486577D01*
X80547600Y-65528125D01*
X80547600Y-65923866D01*
X80547601Y-65923870D01*
X80554008Y-65983480D01*
X80554009Y-65983485D01*
X80604302Y-66118329D01*
X80690550Y-66233541D01*
X80690554Y-66233546D01*
X80690557Y-66233548D01*
X80690558Y-66233549D01*
X80805770Y-66319797D01*
X80940611Y-66370089D01*
X80940612Y-66370089D01*
X80940617Y-66370091D01*
X81000227Y-66376500D01*
X82570972Y-66376499D01*
X82630583Y-66370091D01*
X82747457Y-66326500D01*
X82765429Y-66319797D01*
X82765429Y-66319796D01*
X82765431Y-66319796D01*
X82880646Y-66233546D01*
X82966896Y-66118331D01*
X82976177Y-66093449D01*
X83017189Y-65983488D01*
X83017190Y-65983485D01*
X83017191Y-65983483D01*
X83023600Y-65923873D01*
X83023599Y-65528128D01*
X83020012Y-65494759D01*
X83019133Y-65486580D01*
X83019133Y-65465417D01*
X83019295Y-65463907D01*
X83023600Y-65423873D01*
X83023599Y-65028128D01*
X83021069Y-65004600D01*
X83019133Y-64986580D01*
X83019133Y-64965417D01*
X83020727Y-64950588D01*
X83023600Y-64923873D01*
X83023599Y-64528128D01*
X83019565Y-64490600D01*
X83019133Y-64486580D01*
X83019133Y-64465417D01*
X83023485Y-64424940D01*
X83023600Y-64423873D01*
X83023600Y-64423864D01*
X83023742Y-64421224D01*
X83024967Y-64421289D01*
X83042507Y-64367309D01*
X83092007Y-64331345D01*
X83122600Y-64326500D01*
X86428150Y-64326500D01*
X86441072Y-64327347D01*
X86443697Y-64327692D01*
X86474000Y-64331682D01*
X86511178Y-64326787D01*
X86571338Y-64337937D01*
X86613455Y-64382318D01*
X86623100Y-64424940D01*
X86623100Y-65774889D01*
X86605577Y-65831125D01*
X86599891Y-65839363D01*
X86598782Y-65840970D01*
X86548142Y-65974500D01*
X86538460Y-66000029D01*
X86519959Y-66152399D01*
X86517955Y-66168900D01*
X86538460Y-66337772D01*
X86598782Y-66496830D01*
X86695417Y-66636829D01*
X86822748Y-66749634D01*
X86973375Y-66828690D01*
X87138544Y-66869400D01*
X87138547Y-66869400D01*
X87308653Y-66869400D01*
X87308656Y-66869400D01*
X87473825Y-66828690D01*
X87624452Y-66749634D01*
X87751783Y-66636829D01*
X87848418Y-66496830D01*
X87908740Y-66337772D01*
X87929245Y-66168900D01*
X87927241Y-66152399D01*
X87923105Y-66118331D01*
X87908740Y-66000028D01*
X87848418Y-65840970D01*
X87841623Y-65831125D01*
X87824100Y-65774889D01*
X87824100Y-64216142D01*
X87843007Y-64157951D01*
X87853090Y-64146144D01*
X89562580Y-62436654D01*
X91450001Y-62436654D01*
X91460317Y-62537642D01*
X91460320Y-62537654D01*
X91514548Y-62701306D01*
X91605053Y-62848035D01*
X91726964Y-62969946D01*
X91873693Y-63060451D01*
X92037351Y-63114681D01*
X92138345Y-63124999D01*
X92374998Y-63124999D01*
X92375000Y-63124998D01*
X92375000Y-62250001D01*
X92374999Y-62250000D01*
X91450002Y-62250000D01*
X91450001Y-62250001D01*
X91450001Y-62436654D01*
X89562580Y-62436654D01*
X89949235Y-62049999D01*
X91450000Y-62049999D01*
X91450001Y-62050000D01*
X92374999Y-62050000D01*
X92375000Y-62049999D01*
X92375000Y-61175001D01*
X92374999Y-61175000D01*
X92138345Y-61175000D01*
X92037357Y-61185317D01*
X92037345Y-61185320D01*
X91873693Y-61239548D01*
X91726964Y-61330053D01*
X91605053Y-61451964D01*
X91514548Y-61598693D01*
X91460318Y-61762351D01*
X91450000Y-61863344D01*
X91450000Y-62049999D01*
X89949235Y-62049999D01*
X93424235Y-58574999D01*
X103975000Y-58574999D01*
X103975001Y-58575000D01*
X104849999Y-58575000D01*
X104850000Y-58574999D01*
X105050000Y-58574999D01*
X105050001Y-58575000D01*
X105924998Y-58575000D01*
X105924999Y-58574999D01*
X105924999Y-58338345D01*
X105914682Y-58237357D01*
X105914679Y-58237345D01*
X105860451Y-58073693D01*
X105769946Y-57926964D01*
X105648035Y-57805053D01*
X105501306Y-57714548D01*
X105337648Y-57660318D01*
X105236655Y-57650000D01*
X105050001Y-57650000D01*
X105050000Y-57650001D01*
X105050000Y-58574999D01*
X104850000Y-58574999D01*
X104850000Y-57650001D01*
X104849999Y-57650000D01*
X104663345Y-57650000D01*
X104562357Y-57660317D01*
X104562345Y-57660320D01*
X104398693Y-57714548D01*
X104251964Y-57805053D01*
X104130053Y-57926964D01*
X104039548Y-58073693D01*
X103985318Y-58237351D01*
X103975000Y-58338344D01*
X103975000Y-58574999D01*
X93424235Y-58574999D01*
X101517005Y-50482228D01*
X101526737Y-50473696D01*
X101532011Y-50469650D01*
X101553082Y-50453482D01*
X101559905Y-50444591D01*
X101628879Y-50354701D01*
X101649336Y-50328041D01*
X101709844Y-50181962D01*
X101714136Y-50149359D01*
X101730483Y-50025200D01*
X101726147Y-49992265D01*
X101725300Y-49979343D01*
X101725300Y-48150991D01*
X101744207Y-48092800D01*
X101745048Y-48091661D01*
X101798595Y-48020133D01*
X101798596Y-48020130D01*
X101822814Y-47955200D01*
X101848891Y-47885283D01*
X101855300Y-47825673D01*
X101855299Y-46839928D01*
X101848891Y-46780317D01*
X101848889Y-46780311D01*
X101798597Y-46645470D01*
X101739639Y-46566712D01*
X101719902Y-46508797D01*
X101737976Y-46450342D01*
X101739639Y-46448054D01*
X101798152Y-46369890D01*
X101798153Y-46369888D01*
X101848396Y-46235181D01*
X101848398Y-46235170D01*
X101854800Y-46175624D01*
X101854800Y-45782801D01*
X101854799Y-45782800D01*
X98114801Y-45782800D01*
X98114800Y-45782801D01*
X98114800Y-46175624D01*
X98114799Y-46175624D01*
X98121201Y-46235170D01*
X98121203Y-46235181D01*
X98171446Y-46369888D01*
X98171447Y-46369890D01*
X98229961Y-46448054D01*
X98249698Y-46505968D01*
X98231624Y-46564423D01*
X98229961Y-46566712D01*
X98171002Y-46645470D01*
X98120710Y-46780311D01*
X98120708Y-46780322D01*
X98114300Y-46839929D01*
X98114300Y-47825666D01*
X98114301Y-47825670D01*
X98120708Y-47885280D01*
X98120709Y-47885285D01*
X98171003Y-48020130D01*
X98171004Y-48020133D01*
X98224552Y-48091661D01*
X98244290Y-48149575D01*
X98244300Y-48150991D01*
X98244300Y-49065457D01*
X98225393Y-49123648D01*
X98215304Y-49135461D01*
X85754261Y-61596504D01*
X85699744Y-61624281D01*
X85684257Y-61625500D01*
X83461842Y-61625500D01*
X83403651Y-61606593D01*
X83367687Y-61557093D01*
X83367687Y-61495907D01*
X83391838Y-61456496D01*
X87916263Y-56932071D01*
X92582205Y-52266128D01*
X92591937Y-52257596D01*
X92618282Y-52237382D01*
X92618284Y-52237380D01*
X92663075Y-52179006D01*
X92714536Y-52111941D01*
X92775044Y-51965862D01*
X92790500Y-51848461D01*
X92795682Y-51809100D01*
X92794373Y-51799160D01*
X92791347Y-51776171D01*
X92790500Y-51763249D01*
X92790500Y-48593191D01*
X92809407Y-48535000D01*
X92810248Y-48533861D01*
X92863795Y-48462333D01*
X92863796Y-48462330D01*
X92914089Y-48327488D01*
X92914090Y-48327485D01*
X92914091Y-48327483D01*
X92920500Y-48267873D01*
X92920499Y-47282128D01*
X92914091Y-47222517D01*
X92886620Y-47148863D01*
X92863797Y-47087670D01*
X92804839Y-47008912D01*
X92785102Y-46950997D01*
X92803176Y-46892542D01*
X92804839Y-46890254D01*
X92863352Y-46812090D01*
X92863353Y-46812088D01*
X92913596Y-46677381D01*
X92913598Y-46677370D01*
X92920000Y-46617824D01*
X92920000Y-46225001D01*
X92919999Y-46225000D01*
X89180001Y-46225000D01*
X89180000Y-46225001D01*
X89180000Y-46617824D01*
X89179999Y-46617824D01*
X89186401Y-46677370D01*
X89186403Y-46677381D01*
X89236646Y-46812088D01*
X89236647Y-46812090D01*
X89295161Y-46890254D01*
X89314898Y-46948168D01*
X89296824Y-47006623D01*
X89295161Y-47008912D01*
X89236202Y-47087670D01*
X89185910Y-47222511D01*
X89185908Y-47222522D01*
X89179500Y-47282129D01*
X89179500Y-48267866D01*
X89179501Y-48267870D01*
X89185908Y-48327480D01*
X89185909Y-48327485D01*
X89236203Y-48462330D01*
X89236204Y-48462333D01*
X89289752Y-48533861D01*
X89309490Y-48591775D01*
X89309500Y-48593191D01*
X89309500Y-50650256D01*
X89290593Y-50708447D01*
X89280504Y-50720260D01*
X82454259Y-57546504D01*
X82399742Y-57574281D01*
X82384255Y-57575500D01*
X81000233Y-57575500D01*
X81000229Y-57575500D01*
X81000228Y-57575501D01*
X80993049Y-57576272D01*
X80940619Y-57581908D01*
X80940614Y-57581909D01*
X80805770Y-57632202D01*
X80690558Y-57718450D01*
X80685548Y-57723461D01*
X80683244Y-57721157D01*
X80644349Y-57748501D01*
X80583171Y-57747549D01*
X80545221Y-57723886D01*
X80427096Y-57605761D01*
X80399319Y-57551244D01*
X80398100Y-57535757D01*
X80398100Y-57217717D01*
X80404342Y-57183120D01*
X80441691Y-57082983D01*
X80448100Y-57023373D01*
X80448099Y-55452628D01*
X80441691Y-55393017D01*
X80423295Y-55343695D01*
X80391397Y-55258170D01*
X80305149Y-55142958D01*
X80305148Y-55142957D01*
X80305146Y-55142954D01*
X80232170Y-55088324D01*
X80189929Y-55056702D01*
X80055088Y-55006410D01*
X80055083Y-55006409D01*
X80055081Y-55006408D01*
X80055077Y-55006408D01*
X80023849Y-55003050D01*
X79995473Y-55000000D01*
X79995470Y-55000000D01*
X79599733Y-55000000D01*
X79599722Y-55000001D01*
X79558179Y-55004466D01*
X79537021Y-55004466D01*
X79495474Y-55000000D01*
X79492822Y-54999858D01*
X79492887Y-54998631D01*
X79438909Y-54981093D01*
X79402945Y-54931593D01*
X79398100Y-54901000D01*
X79398100Y-54443449D01*
X79398947Y-54430527D01*
X79403282Y-54397600D01*
X79403282Y-54397599D01*
X79396693Y-54347550D01*
X79382644Y-54240838D01*
X79322136Y-54094759D01*
X79322135Y-54094757D01*
X79250050Y-54000814D01*
X79225886Y-53969323D01*
X79225885Y-53969322D01*
X79225882Y-53969318D01*
X79225877Y-53969314D01*
X79225876Y-53969313D01*
X79199536Y-53949102D01*
X79189799Y-53940564D01*
X79053084Y-53803849D01*
X79030522Y-53768952D01*
X78974818Y-53622070D01*
X78878183Y-53482071D01*
X78823699Y-53433803D01*
X78750853Y-53369267D01*
X78750852Y-53369266D01*
X78600225Y-53290210D01*
X78600224Y-53290209D01*
X78600223Y-53290209D01*
X78435058Y-53249500D01*
X78435056Y-53249500D01*
X78264944Y-53249500D01*
X78264941Y-53249500D01*
X78099776Y-53290209D01*
X77949146Y-53369267D01*
X77821818Y-53482069D01*
X77821816Y-53482072D01*
X77725182Y-53622069D01*
X77669478Y-53768950D01*
X77646915Y-53803848D01*
X77405401Y-54045362D01*
X77395668Y-54053898D01*
X77369318Y-54074118D01*
X77369313Y-54074123D01*
X77277089Y-54194313D01*
X77277087Y-54194316D01*
X77273065Y-54199557D01*
X77273064Y-54199558D01*
X77273064Y-54199559D01*
X77255965Y-54240841D01*
X77212557Y-54345636D01*
X77212555Y-54345641D01*
X77191918Y-54502399D01*
X77191918Y-54502400D01*
X77196253Y-54535327D01*
X77197100Y-54548249D01*
X77197100Y-54901000D01*
X77178193Y-54959191D01*
X77128693Y-54995155D01*
X77102352Y-54999339D01*
X77102380Y-54999859D01*
X77099722Y-55000001D01*
X77058179Y-55004466D01*
X77037021Y-55004466D01*
X76995474Y-55000000D01*
X76992822Y-54999858D01*
X76992887Y-54998631D01*
X76938909Y-54981093D01*
X76902945Y-54931593D01*
X76898100Y-54901000D01*
X76898100Y-52130949D01*
X76898947Y-52118027D01*
X76903282Y-52085100D01*
X76903282Y-52085099D01*
X76896815Y-52035979D01*
X76882644Y-51928338D01*
X76822136Y-51782259D01*
X76803738Y-51758282D01*
X76768797Y-51712746D01*
X76725886Y-51656823D01*
X76725885Y-51656822D01*
X76725882Y-51656818D01*
X76725877Y-51656814D01*
X76725876Y-51656813D01*
X76699536Y-51636602D01*
X76689799Y-51628064D01*
X76673419Y-51611684D01*
X77053300Y-51611684D01*
X77063624Y-51712744D01*
X77063627Y-51712756D01*
X77117891Y-51876514D01*
X77117894Y-51876520D01*
X77208457Y-52023346D01*
X77208458Y-52023347D01*
X77208460Y-52023350D01*
X77330450Y-52145340D01*
X77330452Y-52145341D01*
X77330453Y-52145342D01*
X77465862Y-52228863D01*
X77477284Y-52235908D01*
X77641047Y-52290174D01*
X77641051Y-52290174D01*
X77641053Y-52290175D01*
X77709705Y-52297188D01*
X77742123Y-52300500D01*
X78315476Y-52300499D01*
X78315484Y-52300499D01*
X78416544Y-52290175D01*
X78416544Y-52290174D01*
X78416553Y-52290174D01*
X78580316Y-52235908D01*
X78727150Y-52145340D01*
X78849140Y-52023350D01*
X78939708Y-51876516D01*
X78993974Y-51712753D01*
X79004299Y-51611684D01*
X79674500Y-51611684D01*
X79684824Y-51712744D01*
X79684827Y-51712756D01*
X79739091Y-51876514D01*
X79739094Y-51876520D01*
X79829657Y-52023346D01*
X79829658Y-52023347D01*
X79829660Y-52023350D01*
X79951650Y-52145340D01*
X79951652Y-52145341D01*
X79951653Y-52145342D01*
X80087062Y-52228863D01*
X80098484Y-52235908D01*
X80262247Y-52290174D01*
X80262251Y-52290174D01*
X80262253Y-52290175D01*
X80330905Y-52297188D01*
X80363323Y-52300500D01*
X80936676Y-52300499D01*
X80936684Y-52300499D01*
X81037744Y-52290175D01*
X81037744Y-52290174D01*
X81037753Y-52290174D01*
X81201516Y-52235908D01*
X81348350Y-52145340D01*
X81470340Y-52023350D01*
X81532528Y-51922526D01*
X81579169Y-51882926D01*
X81616789Y-51875500D01*
X82083211Y-51875500D01*
X82141402Y-51894407D01*
X82167471Y-51922526D01*
X82229660Y-52023350D01*
X82351650Y-52145340D01*
X82351652Y-52145341D01*
X82351653Y-52145342D01*
X82487062Y-52228863D01*
X82498484Y-52235908D01*
X82662247Y-52290174D01*
X82662251Y-52290174D01*
X82662253Y-52290175D01*
X82730905Y-52297188D01*
X82763323Y-52300500D01*
X83336676Y-52300499D01*
X83336684Y-52300499D01*
X83437744Y-52290175D01*
X83437744Y-52290174D01*
X83437753Y-52290174D01*
X83601516Y-52235908D01*
X83748350Y-52145340D01*
X83870340Y-52023350D01*
X83960908Y-51876516D01*
X84015174Y-51712753D01*
X84025500Y-51611677D01*
X84025499Y-51588743D01*
X84044404Y-51530554D01*
X84093903Y-51494589D01*
X84155088Y-51494586D01*
X84194503Y-51518738D01*
X84320504Y-51644739D01*
X84348281Y-51699256D01*
X84349500Y-51714743D01*
X84349500Y-52855989D01*
X84331977Y-52912225D01*
X84325182Y-52922070D01*
X84305012Y-52975256D01*
X84264860Y-53081129D01*
X84244355Y-53249998D01*
X84244355Y-53250001D01*
X84248708Y-53285850D01*
X84264860Y-53418872D01*
X84325182Y-53577930D01*
X84421817Y-53717929D01*
X84549148Y-53830734D01*
X84699775Y-53909790D01*
X84864944Y-53950500D01*
X84864947Y-53950500D01*
X85035053Y-53950500D01*
X85035056Y-53950500D01*
X85200225Y-53909790D01*
X85350852Y-53830734D01*
X85478183Y-53717929D01*
X85574818Y-53577930D01*
X85635140Y-53418872D01*
X85655645Y-53250000D01*
X85655584Y-53249500D01*
X85642169Y-53139020D01*
X85635140Y-53081128D01*
X85574818Y-52922070D01*
X85568023Y-52912225D01*
X85550500Y-52855989D01*
X85550500Y-51470849D01*
X85551347Y-51457927D01*
X85555682Y-51425000D01*
X85555682Y-51424999D01*
X85545590Y-51348346D01*
X85535044Y-51268238D01*
X85474536Y-51122159D01*
X85459413Y-51102450D01*
X85459412Y-51102448D01*
X85378286Y-50996723D01*
X85378285Y-50996722D01*
X85378282Y-50996718D01*
X85378277Y-50996714D01*
X85378276Y-50996713D01*
X85351936Y-50976502D01*
X85342199Y-50967964D01*
X84054495Y-49680260D01*
X84026718Y-49625743D01*
X84025499Y-49610256D01*
X84025499Y-49188315D01*
X84015175Y-49087255D01*
X84015174Y-49087253D01*
X84015174Y-49087247D01*
X83960908Y-48923484D01*
X83870340Y-48776650D01*
X83748350Y-48654660D01*
X83748347Y-48654658D01*
X83748346Y-48654657D01*
X83601520Y-48564094D01*
X83601514Y-48564091D01*
X83437756Y-48509827D01*
X83437746Y-48509824D01*
X83336684Y-48499500D01*
X82763315Y-48499500D01*
X82662255Y-48509824D01*
X82662243Y-48509827D01*
X82498485Y-48564091D01*
X82498479Y-48564094D01*
X82351653Y-48654657D01*
X82229657Y-48776653D01*
X82139094Y-48923479D01*
X82139091Y-48923485D01*
X82084827Y-49087243D01*
X82084824Y-49087253D01*
X82074500Y-49188315D01*
X82074500Y-49861684D01*
X82084824Y-49962744D01*
X82084827Y-49962756D01*
X82139091Y-50126514D01*
X82139094Y-50126520D01*
X82229657Y-50273346D01*
X82229658Y-50273347D01*
X82229660Y-50273350D01*
X82286308Y-50329998D01*
X82314084Y-50384513D01*
X82304513Y-50444945D01*
X82286309Y-50470000D01*
X82254660Y-50501650D01*
X82229659Y-50526651D01*
X82193716Y-50584924D01*
X82167473Y-50627472D01*
X82167472Y-50627473D01*
X82120831Y-50667074D01*
X82083211Y-50674500D01*
X81632209Y-50674500D01*
X81574018Y-50655593D01*
X81547948Y-50627472D01*
X81470342Y-50501653D01*
X81470341Y-50501652D01*
X81470340Y-50501650D01*
X81438337Y-50469647D01*
X81410562Y-50415133D01*
X81420133Y-50354701D01*
X81438341Y-50329640D01*
X81469946Y-50298036D01*
X81560451Y-50151306D01*
X81614681Y-49987648D01*
X81625000Y-49886655D01*
X81625000Y-49637501D01*
X81624999Y-49637500D01*
X79675002Y-49637500D01*
X79675001Y-49637501D01*
X79675001Y-49886654D01*
X79685317Y-49987642D01*
X79685320Y-49987654D01*
X79739548Y-50151306D01*
X79830053Y-50298035D01*
X79861660Y-50329642D01*
X79889437Y-50384159D01*
X79879866Y-50444591D01*
X79861661Y-50469649D01*
X79829657Y-50501653D01*
X79739094Y-50648479D01*
X79739091Y-50648485D01*
X79684827Y-50812243D01*
X79684824Y-50812253D01*
X79674500Y-50913315D01*
X79674500Y-51611684D01*
X79004299Y-51611684D01*
X79004300Y-51611677D01*
X79004299Y-50913324D01*
X79004299Y-50913323D01*
X79004299Y-50913315D01*
X78993975Y-50812255D01*
X78993974Y-50812253D01*
X78993974Y-50812247D01*
X78939708Y-50648484D01*
X78904352Y-50591163D01*
X78849142Y-50501653D01*
X78849141Y-50501652D01*
X78849140Y-50501650D01*
X78817137Y-50469647D01*
X78789362Y-50415133D01*
X78798933Y-50354701D01*
X78817141Y-50329640D01*
X78848746Y-50298036D01*
X78939251Y-50151306D01*
X78993481Y-49987648D01*
X79003800Y-49886655D01*
X79003800Y-49637501D01*
X79003799Y-49637500D01*
X77053802Y-49637500D01*
X77053801Y-49637501D01*
X77053801Y-49886654D01*
X77064117Y-49987642D01*
X77064120Y-49987654D01*
X77118348Y-50151306D01*
X77208853Y-50298035D01*
X77240460Y-50329642D01*
X77268237Y-50384159D01*
X77258666Y-50444591D01*
X77240461Y-50469649D01*
X77208457Y-50501653D01*
X77117894Y-50648479D01*
X77117891Y-50648485D01*
X77063627Y-50812243D01*
X77063624Y-50812253D01*
X77053300Y-50913315D01*
X77053300Y-51611684D01*
X76673419Y-51611684D01*
X75929495Y-50867760D01*
X75901718Y-50813243D01*
X75900499Y-50797756D01*
X75900499Y-50363315D01*
X75890175Y-50262255D01*
X75890174Y-50262253D01*
X75890174Y-50262247D01*
X75835908Y-50098484D01*
X75834747Y-50096601D01*
X75745342Y-49951653D01*
X75745341Y-49951652D01*
X75745340Y-49951650D01*
X75623350Y-49829660D01*
X75623347Y-49829658D01*
X75623346Y-49829657D01*
X75476520Y-49739094D01*
X75476514Y-49739091D01*
X75312756Y-49684827D01*
X75312746Y-49684824D01*
X75211684Y-49674500D01*
X74513315Y-49674500D01*
X74412255Y-49684824D01*
X74412243Y-49684827D01*
X74248485Y-49739091D01*
X74248479Y-49739094D01*
X74101653Y-49829657D01*
X74070003Y-49861307D01*
X74015486Y-49889083D01*
X73955054Y-49879511D01*
X73929997Y-49861307D01*
X73921162Y-49852472D01*
X73898350Y-49829660D01*
X73898347Y-49829658D01*
X73898346Y-49829657D01*
X73751520Y-49739094D01*
X73751514Y-49739091D01*
X73587756Y-49684827D01*
X73587746Y-49684824D01*
X73486684Y-49674500D01*
X72788315Y-49674500D01*
X72687255Y-49684824D01*
X72687243Y-49684827D01*
X72523485Y-49739091D01*
X72523479Y-49739094D01*
X72376652Y-49829658D01*
X72376649Y-49829660D01*
X72335805Y-49870504D01*
X72281288Y-49898281D01*
X72265802Y-49899500D01*
X70010948Y-49899500D01*
X69952757Y-49880593D01*
X69926687Y-49852472D01*
X69895342Y-49801653D01*
X69895341Y-49801652D01*
X69895340Y-49801650D01*
X69773350Y-49679660D01*
X69773347Y-49679658D01*
X69773346Y-49679657D01*
X69626520Y-49589094D01*
X69626514Y-49589091D01*
X69462756Y-49534827D01*
X69462746Y-49534824D01*
X69361684Y-49524500D01*
X68688315Y-49524500D01*
X68587255Y-49534824D01*
X68587243Y-49534827D01*
X68423485Y-49589091D01*
X68423479Y-49589094D01*
X68276653Y-49679657D01*
X68276650Y-49679659D01*
X68276650Y-49679660D01*
X68220001Y-49736308D01*
X68165487Y-49764084D01*
X68105055Y-49754513D01*
X68079999Y-49736309D01*
X68023350Y-49679660D01*
X68023347Y-49679658D01*
X68023346Y-49679657D01*
X67876520Y-49589094D01*
X67876514Y-49589091D01*
X67712756Y-49534827D01*
X67712746Y-49534824D01*
X67611684Y-49524500D01*
X66938315Y-49524500D01*
X66837255Y-49534824D01*
X66837243Y-49534827D01*
X66673485Y-49589091D01*
X66673479Y-49589094D01*
X66526653Y-49679657D01*
X66404657Y-49801653D01*
X66314094Y-49948479D01*
X66314091Y-49948485D01*
X66259827Y-50112243D01*
X66259824Y-50112253D01*
X66249500Y-50213315D01*
X66249500Y-50786684D01*
X66259824Y-50887744D01*
X66259827Y-50887756D01*
X66314091Y-51051514D01*
X66314094Y-51051520D01*
X66404657Y-51198346D01*
X66404658Y-51198347D01*
X66404660Y-51198350D01*
X66526650Y-51320340D01*
X66673484Y-51410908D01*
X66779071Y-51445896D01*
X66828361Y-51482147D01*
X66846929Y-51540447D01*
X66827684Y-51598527D01*
X66779071Y-51633846D01*
X66648693Y-51677048D01*
X66501964Y-51767553D01*
X66380053Y-51889464D01*
X66289548Y-52036193D01*
X66235318Y-52199851D01*
X66225000Y-52300844D01*
X66225000Y-52487499D01*
X66225001Y-52487500D01*
X67263500Y-52487500D01*
X67321691Y-52506407D01*
X67357655Y-52555907D01*
X67362500Y-52586500D01*
X67362500Y-53562498D01*
X67362501Y-53562499D01*
X67611654Y-53562499D01*
X67712642Y-53552182D01*
X67712654Y-53552179D01*
X67876306Y-53497951D01*
X68023036Y-53407446D01*
X68054640Y-53375841D01*
X68109156Y-53348062D01*
X68169589Y-53357632D01*
X68194646Y-53375836D01*
X68226650Y-53407840D01*
X68226652Y-53407841D01*
X68226653Y-53407842D01*
X68346999Y-53482072D01*
X68373484Y-53498408D01*
X68537247Y-53552674D01*
X68537251Y-53552674D01*
X68537253Y-53552675D01*
X68605905Y-53559688D01*
X68638323Y-53563000D01*
X69336676Y-53562999D01*
X69336684Y-53562999D01*
X69437744Y-53552675D01*
X69437744Y-53552674D01*
X69437753Y-53552674D01*
X69601516Y-53498408D01*
X69748350Y-53407840D01*
X69870340Y-53285850D01*
X69960908Y-53139016D01*
X70015174Y-52975253D01*
X70015186Y-52975142D01*
X70025499Y-52874184D01*
X70025500Y-52874177D01*
X70025499Y-52300824D01*
X70025499Y-52300823D01*
X70025499Y-52300815D01*
X70015175Y-52199755D01*
X70015174Y-52199753D01*
X70015174Y-52199747D01*
X69960908Y-52035984D01*
X69894513Y-51928341D01*
X69870342Y-51889153D01*
X69870341Y-51889152D01*
X69870340Y-51889150D01*
X69748350Y-51767160D01*
X69745179Y-51765204D01*
X69672527Y-51720391D01*
X69632926Y-51673750D01*
X69625500Y-51636131D01*
X69625500Y-51466788D01*
X69644407Y-51408597D01*
X69672526Y-51382528D01*
X69773350Y-51320340D01*
X69895340Y-51198350D01*
X69926687Y-51147527D01*
X69973328Y-51107926D01*
X70010948Y-51100500D01*
X72059130Y-51100500D01*
X72117321Y-51119407D01*
X72153105Y-51168359D01*
X72164092Y-51201516D01*
X72164094Y-51201520D01*
X72254657Y-51348346D01*
X72254658Y-51348347D01*
X72254660Y-51348350D01*
X72376650Y-51470340D01*
X72376652Y-51470341D01*
X72376653Y-51470342D01*
X72473037Y-51529792D01*
X72523484Y-51560908D01*
X72687247Y-51615174D01*
X72687251Y-51615174D01*
X72687253Y-51615175D01*
X72755905Y-51622188D01*
X72788323Y-51625500D01*
X73486676Y-51625499D01*
X73486684Y-51625499D01*
X73587744Y-51615175D01*
X73587744Y-51615174D01*
X73587753Y-51615174D01*
X73751516Y-51560908D01*
X73898350Y-51470340D01*
X73929998Y-51438691D01*
X73984513Y-51410916D01*
X74044945Y-51420487D01*
X74070000Y-51438690D01*
X74101650Y-51470340D01*
X74101652Y-51470341D01*
X74101653Y-51470342D01*
X74198037Y-51529792D01*
X74248484Y-51560908D01*
X74412247Y-51615174D01*
X74412251Y-51615174D01*
X74412253Y-51615175D01*
X74480905Y-51622188D01*
X74513323Y-51625500D01*
X74947756Y-51625499D01*
X75005947Y-51644406D01*
X75017760Y-51654495D01*
X75668104Y-52304839D01*
X75695881Y-52359356D01*
X75697100Y-52374843D01*
X75697100Y-53518301D01*
X75678193Y-53576492D01*
X75628693Y-53612456D01*
X75567507Y-53612456D01*
X75518007Y-53576492D01*
X75516625Y-53574540D01*
X75501532Y-53552675D01*
X75483583Y-53526671D01*
X75356252Y-53413866D01*
X75205625Y-53334810D01*
X75205624Y-53334809D01*
X75205623Y-53334809D01*
X75040458Y-53294100D01*
X75040456Y-53294100D01*
X74870344Y-53294100D01*
X74870341Y-53294100D01*
X74705176Y-53334809D01*
X74554546Y-53413867D01*
X74427218Y-53526669D01*
X74427216Y-53526672D01*
X74392828Y-53576492D01*
X74330582Y-53666670D01*
X74270260Y-53825728D01*
X74267313Y-53850000D01*
X74249755Y-53994598D01*
X74249755Y-53994601D01*
X74250510Y-54000815D01*
X74270260Y-54163472D01*
X74330582Y-54322530D01*
X74427217Y-54462529D01*
X74554548Y-54575334D01*
X74705175Y-54654390D01*
X74759038Y-54667665D01*
X74805349Y-54693784D01*
X74942561Y-54830996D01*
X74970338Y-54885513D01*
X74960767Y-54945945D01*
X74917502Y-54989210D01*
X74872557Y-55000000D01*
X74599733Y-55000000D01*
X74599722Y-55000001D01*
X74558179Y-55004466D01*
X74537021Y-55004466D01*
X74505375Y-55001064D01*
X74495473Y-55000000D01*
X74495471Y-55000000D01*
X74099733Y-55000000D01*
X74099722Y-55000001D01*
X74058179Y-55004466D01*
X74037021Y-55004466D01*
X73995474Y-55000000D01*
X73986628Y-55000000D01*
X74000000Y-53850000D01*
X67401790Y-53885347D01*
X60874529Y-53920314D01*
X60816238Y-53901718D01*
X60780010Y-53852412D01*
X60774999Y-53821315D01*
X60774999Y-53775001D01*
X60774998Y-53775000D01*
X58825001Y-53775000D01*
X58825000Y-53775001D01*
X58825000Y-53832822D01*
X58806093Y-53891013D01*
X58756593Y-53926977D01*
X58726530Y-53931821D01*
X52691253Y-53964152D01*
X52632962Y-53945556D01*
X52596734Y-53896250D01*
X52595096Y-53890776D01*
X52594102Y-53887065D01*
X52581903Y-53841537D01*
X52577839Y-53832822D01*
X52482040Y-53627381D01*
X52482036Y-53627373D01*
X52478322Y-53622069D01*
X52445363Y-53574999D01*
X58825000Y-53574999D01*
X58825001Y-53575000D01*
X59699999Y-53575000D01*
X59700000Y-53574999D01*
X59900000Y-53574999D01*
X59900001Y-53575000D01*
X60774998Y-53575000D01*
X60774999Y-53574999D01*
X60774999Y-53338345D01*
X60764682Y-53237357D01*
X60764679Y-53237345D01*
X60710451Y-53073693D01*
X60619946Y-52926964D01*
X60567136Y-52874154D01*
X66225001Y-52874154D01*
X66235317Y-52975142D01*
X66235320Y-52975154D01*
X66289548Y-53138806D01*
X66380053Y-53285535D01*
X66501964Y-53407446D01*
X66648693Y-53497951D01*
X66812351Y-53552181D01*
X66913345Y-53562499D01*
X67162498Y-53562499D01*
X67162500Y-53562498D01*
X67162500Y-52687501D01*
X67162499Y-52687500D01*
X66225002Y-52687500D01*
X66225001Y-52687501D01*
X66225001Y-52874154D01*
X60567136Y-52874154D01*
X60498035Y-52805053D01*
X60351306Y-52714548D01*
X60187648Y-52660318D01*
X60086655Y-52650000D01*
X59900001Y-52650000D01*
X59900000Y-52650001D01*
X59900000Y-53574999D01*
X59700000Y-53574999D01*
X59700000Y-52650001D01*
X59699999Y-52650000D01*
X59513345Y-52650000D01*
X59412357Y-52660317D01*
X59412345Y-52660320D01*
X59248693Y-52714548D01*
X59101964Y-52805053D01*
X58980053Y-52926964D01*
X58889548Y-53073693D01*
X58835318Y-53237351D01*
X58825000Y-53338344D01*
X58825000Y-53574999D01*
X52445363Y-53574999D01*
X52346495Y-53433799D01*
X52179401Y-53266705D01*
X52179397Y-53266702D01*
X52179396Y-53266701D01*
X51997042Y-53139016D01*
X51985830Y-53131165D01*
X51972447Y-53124924D01*
X51927700Y-53083197D01*
X51916025Y-53023136D01*
X51941883Y-52967683D01*
X51972448Y-52945475D01*
X51985830Y-52939235D01*
X52179401Y-52803695D01*
X52346495Y-52636601D01*
X52482035Y-52443030D01*
X52581903Y-52228863D01*
X52643063Y-52000608D01*
X52646103Y-51965862D01*
X52663659Y-51765204D01*
X52663659Y-51765195D01*
X52643064Y-51529799D01*
X52643063Y-51529796D01*
X52643063Y-51529792D01*
X52581903Y-51301537D01*
X52566377Y-51268241D01*
X52482040Y-51087381D01*
X52482036Y-51087373D01*
X52456927Y-51051514D01*
X52391523Y-50958106D01*
X52346498Y-50893803D01*
X52346497Y-50893802D01*
X52346495Y-50893799D01*
X52179401Y-50726705D01*
X52179397Y-50726702D01*
X52179396Y-50726701D01*
X52037683Y-50627473D01*
X51985830Y-50591165D01*
X51972447Y-50584924D01*
X51927700Y-50543197D01*
X51916025Y-50483136D01*
X51941883Y-50427683D01*
X51972448Y-50405475D01*
X51974196Y-50404660D01*
X51985830Y-50399235D01*
X52179401Y-50263695D01*
X52346495Y-50096601D01*
X52482035Y-49903030D01*
X52581903Y-49688863D01*
X52643063Y-49460608D01*
X52645085Y-49437499D01*
X77053800Y-49437499D01*
X77053801Y-49437500D01*
X77928799Y-49437500D01*
X77928800Y-49437499D01*
X78128800Y-49437499D01*
X78128801Y-49437500D01*
X79003798Y-49437500D01*
X79003799Y-49437499D01*
X79675000Y-49437499D01*
X79675001Y-49437500D01*
X80549999Y-49437500D01*
X80550000Y-49437499D01*
X80750000Y-49437499D01*
X80750001Y-49437500D01*
X81624998Y-49437500D01*
X81624999Y-49437499D01*
X81624999Y-49188345D01*
X81614682Y-49087357D01*
X81614679Y-49087345D01*
X81560451Y-48923693D01*
X81469946Y-48776964D01*
X81348035Y-48655053D01*
X81201306Y-48564548D01*
X81037648Y-48510318D01*
X80936655Y-48500000D01*
X80750001Y-48500000D01*
X80750000Y-48500001D01*
X80750000Y-49437499D01*
X80550000Y-49437499D01*
X80550000Y-48500001D01*
X80549999Y-48500000D01*
X80363345Y-48500000D01*
X80262357Y-48510317D01*
X80262345Y-48510320D01*
X80098693Y-48564548D01*
X79951964Y-48655053D01*
X79830053Y-48776964D01*
X79739548Y-48923693D01*
X79685318Y-49087351D01*
X79675000Y-49188344D01*
X79675000Y-49437499D01*
X79003799Y-49437499D01*
X79003799Y-49188345D01*
X78993482Y-49087357D01*
X78993479Y-49087345D01*
X78939251Y-48923693D01*
X78848746Y-48776964D01*
X78726835Y-48655053D01*
X78580106Y-48564548D01*
X78416448Y-48510318D01*
X78315455Y-48500000D01*
X78128801Y-48500000D01*
X78128800Y-48500001D01*
X78128800Y-49437499D01*
X77928800Y-49437499D01*
X77928800Y-48500001D01*
X77928799Y-48500000D01*
X77742145Y-48500000D01*
X77641157Y-48510317D01*
X77641145Y-48510320D01*
X77477493Y-48564548D01*
X77330764Y-48655053D01*
X77208853Y-48776964D01*
X77118348Y-48923693D01*
X77064118Y-49087351D01*
X77053800Y-49188344D01*
X77053800Y-49437499D01*
X52645085Y-49437499D01*
X52663659Y-49225200D01*
X52660434Y-49188344D01*
X52643064Y-48989799D01*
X52643063Y-48989796D01*
X52643063Y-48989792D01*
X52581903Y-48761537D01*
X52581901Y-48761532D01*
X52482040Y-48547381D01*
X52482036Y-48547373D01*
X52473372Y-48535000D01*
X52346495Y-48353799D01*
X52179401Y-48186705D01*
X52179397Y-48186702D01*
X52179396Y-48186701D01*
X52043664Y-48091661D01*
X51985830Y-48051165D01*
X51972447Y-48044924D01*
X51927700Y-48003197D01*
X51916025Y-47943136D01*
X51941883Y-47887683D01*
X51972448Y-47865475D01*
X51985830Y-47859235D01*
X52179401Y-47723695D01*
X52346495Y-47556601D01*
X52482035Y-47363030D01*
X52581903Y-47148863D01*
X52643063Y-46920608D01*
X52649086Y-46851766D01*
X52663659Y-46685204D01*
X52663659Y-46685195D01*
X52643064Y-46449799D01*
X52643063Y-46449796D01*
X52643063Y-46449792D01*
X52581903Y-46221537D01*
X52581901Y-46221532D01*
X52490255Y-46024999D01*
X89180000Y-46024999D01*
X89180001Y-46025000D01*
X89809999Y-46025000D01*
X89810000Y-46024999D01*
X90010000Y-46024999D01*
X90010001Y-46025000D01*
X90569999Y-46025000D01*
X90570000Y-46024999D01*
X90770000Y-46024999D01*
X90770001Y-46025000D01*
X91329999Y-46025000D01*
X91330000Y-46024999D01*
X91530000Y-46024999D01*
X91530001Y-46025000D01*
X92089999Y-46025000D01*
X92090000Y-46024999D01*
X92290000Y-46024999D01*
X92290001Y-46025000D01*
X92919999Y-46025000D01*
X92920000Y-46024999D01*
X92920000Y-45632175D01*
X92914691Y-45582799D01*
X98114800Y-45582799D01*
X98114801Y-45582800D01*
X98744799Y-45582800D01*
X98744800Y-45582799D01*
X98944800Y-45582799D01*
X98944801Y-45582800D01*
X99504799Y-45582800D01*
X99504800Y-45582799D01*
X99704800Y-45582799D01*
X99704801Y-45582800D01*
X100264799Y-45582800D01*
X100264800Y-45582799D01*
X100464800Y-45582799D01*
X100464801Y-45582800D01*
X101024799Y-45582800D01*
X101024800Y-45582799D01*
X101224800Y-45582799D01*
X101224801Y-45582800D01*
X101854799Y-45582800D01*
X101854800Y-45582799D01*
X101854800Y-45189975D01*
X101848398Y-45130429D01*
X101848396Y-45130418D01*
X101798153Y-44995711D01*
X101798152Y-44995709D01*
X101711992Y-44880615D01*
X101711984Y-44880607D01*
X101596890Y-44794447D01*
X101596888Y-44794446D01*
X101462181Y-44744203D01*
X101462170Y-44744201D01*
X101402624Y-44737800D01*
X101224801Y-44737800D01*
X101224800Y-44737801D01*
X101224800Y-45582799D01*
X101024800Y-45582799D01*
X101024800Y-44737801D01*
X101024799Y-44737800D01*
X100846976Y-44737800D01*
X100787424Y-44744201D01*
X100779393Y-44747197D01*
X100718264Y-44749814D01*
X100710207Y-44747197D01*
X100702175Y-44744201D01*
X100642624Y-44737800D01*
X100464801Y-44737800D01*
X100464800Y-44737801D01*
X100464800Y-45582799D01*
X100264800Y-45582799D01*
X100264800Y-44737801D01*
X100264799Y-44737800D01*
X100086976Y-44737800D01*
X100027424Y-44744201D01*
X100019393Y-44747197D01*
X99958264Y-44749814D01*
X99950207Y-44747197D01*
X99942175Y-44744201D01*
X99882624Y-44737800D01*
X99704801Y-44737800D01*
X99704800Y-44737801D01*
X99704800Y-45582799D01*
X99504800Y-45582799D01*
X99504800Y-44737801D01*
X99504799Y-44737800D01*
X99326976Y-44737800D01*
X99267424Y-44744201D01*
X99259393Y-44747197D01*
X99198264Y-44749814D01*
X99190207Y-44747197D01*
X99182175Y-44744201D01*
X99122624Y-44737800D01*
X98944801Y-44737800D01*
X98944800Y-44737801D01*
X98944800Y-45582799D01*
X98744800Y-45582799D01*
X98744800Y-44737801D01*
X98744799Y-44737800D01*
X98566976Y-44737800D01*
X98507429Y-44744201D01*
X98507418Y-44744203D01*
X98372711Y-44794446D01*
X98372709Y-44794447D01*
X98257615Y-44880607D01*
X98257607Y-44880615D01*
X98171447Y-44995709D01*
X98171446Y-44995711D01*
X98121203Y-45130418D01*
X98121201Y-45130429D01*
X98114800Y-45189975D01*
X98114800Y-45582799D01*
X92914691Y-45582799D01*
X92913598Y-45572629D01*
X92913596Y-45572618D01*
X92863353Y-45437911D01*
X92863352Y-45437909D01*
X92777192Y-45322815D01*
X92777184Y-45322807D01*
X92662090Y-45236647D01*
X92662088Y-45236646D01*
X92527381Y-45186403D01*
X92527370Y-45186401D01*
X92467824Y-45180000D01*
X92290001Y-45180000D01*
X92290000Y-45180001D01*
X92290000Y-46024999D01*
X92090000Y-46024999D01*
X92090000Y-45180001D01*
X92089999Y-45180000D01*
X91912176Y-45180000D01*
X91852624Y-45186401D01*
X91844593Y-45189397D01*
X91783464Y-45192014D01*
X91775407Y-45189397D01*
X91767375Y-45186401D01*
X91707824Y-45180000D01*
X91530001Y-45180000D01*
X91530000Y-45180001D01*
X91530000Y-46024999D01*
X91330000Y-46024999D01*
X91330000Y-45180001D01*
X91329999Y-45180000D01*
X91152176Y-45180000D01*
X91092624Y-45186401D01*
X91084593Y-45189397D01*
X91023464Y-45192014D01*
X91015407Y-45189397D01*
X91007375Y-45186401D01*
X90947824Y-45180000D01*
X90770001Y-45180000D01*
X90770000Y-45180001D01*
X90770000Y-46024999D01*
X90570000Y-46024999D01*
X90570000Y-45180001D01*
X90569999Y-45180000D01*
X90392176Y-45180000D01*
X90332624Y-45186401D01*
X90324593Y-45189397D01*
X90263464Y-45192014D01*
X90255407Y-45189397D01*
X90247375Y-45186401D01*
X90187824Y-45180000D01*
X90010001Y-45180000D01*
X90010000Y-45180001D01*
X90010000Y-46024999D01*
X89810000Y-46024999D01*
X89810000Y-45180001D01*
X89809999Y-45180000D01*
X89632176Y-45180000D01*
X89572629Y-45186401D01*
X89572618Y-45186403D01*
X89437911Y-45236646D01*
X89437909Y-45236647D01*
X89322815Y-45322807D01*
X89322807Y-45322815D01*
X89236647Y-45437909D01*
X89236646Y-45437911D01*
X89186403Y-45572618D01*
X89186401Y-45572629D01*
X89180000Y-45632175D01*
X89180000Y-46024999D01*
X52490255Y-46024999D01*
X52482040Y-46007381D01*
X52482036Y-46007373D01*
X52346498Y-45813803D01*
X52346497Y-45813802D01*
X52346495Y-45813799D01*
X52179401Y-45646705D01*
X52179397Y-45646702D01*
X52179396Y-45646701D01*
X52072007Y-45571507D01*
X51985830Y-45511165D01*
X51972447Y-45504924D01*
X51927700Y-45463197D01*
X51916025Y-45403136D01*
X51941883Y-45347683D01*
X51972448Y-45325475D01*
X51985830Y-45319235D01*
X52179401Y-45183695D01*
X52346495Y-45016601D01*
X52482035Y-44823030D01*
X52581903Y-44608863D01*
X52643063Y-44380608D01*
X52663659Y-44145200D01*
X52650999Y-44000500D01*
X52643064Y-43909799D01*
X52643063Y-43909796D01*
X52643063Y-43909792D01*
X52581903Y-43681537D01*
X52581901Y-43681532D01*
X52482040Y-43467381D01*
X52482036Y-43467373D01*
X52467174Y-43446148D01*
X52346495Y-43273799D01*
X52179401Y-43106705D01*
X52179397Y-43106702D01*
X52179396Y-43106701D01*
X52038753Y-43008222D01*
X51985830Y-42971165D01*
X51973786Y-42965549D01*
X51958788Y-42958555D01*
X51771663Y-42871297D01*
X51543408Y-42810137D01*
X51543407Y-42810136D01*
X51543400Y-42810135D01*
X51308004Y-42789541D01*
X51307996Y-42789541D01*
X51072599Y-42810135D01*
X50844332Y-42871298D01*
X50630181Y-42971159D01*
X50630173Y-42971163D01*
X50436603Y-43106701D01*
X50269501Y-43273803D01*
X50133963Y-43467373D01*
X50133959Y-43467381D01*
X50034098Y-43681532D01*
X49972935Y-43909799D01*
X49952341Y-44145195D01*
X49952341Y-44145204D01*
X49972935Y-44380600D01*
X49972936Y-44380607D01*
X49972937Y-44380608D01*
X50034097Y-44608863D01*
X50133965Y-44823030D01*
X50194307Y-44909207D01*
X50254877Y-44995711D01*
X50269505Y-45016601D01*
X50436599Y-45183695D01*
X50436602Y-45183697D01*
X50436603Y-45183698D01*
X50440466Y-45186403D01*
X50630170Y-45319235D01*
X50643552Y-45325475D01*
X50688300Y-45367203D01*
X50699975Y-45427264D01*
X50674117Y-45482717D01*
X50643554Y-45504924D01*
X50630173Y-45511163D01*
X50436603Y-45646701D01*
X50269501Y-45813803D01*
X50133963Y-46007373D01*
X50133959Y-46007381D01*
X50034098Y-46221532D01*
X49972935Y-46449799D01*
X49952341Y-46685195D01*
X49952341Y-46685204D01*
X49972935Y-46920600D01*
X49972936Y-46920607D01*
X49972937Y-46920608D01*
X50034097Y-47148863D01*
X50133965Y-47363030D01*
X50269505Y-47556601D01*
X50436599Y-47723695D01*
X50630170Y-47859235D01*
X50643552Y-47865475D01*
X50688300Y-47907203D01*
X50699975Y-47967264D01*
X50674117Y-48022717D01*
X50643554Y-48044924D01*
X50630173Y-48051163D01*
X50436603Y-48186701D01*
X50269501Y-48353803D01*
X50133963Y-48547373D01*
X50133959Y-48547381D01*
X50034098Y-48761532D01*
X49972935Y-48989799D01*
X49952341Y-49225195D01*
X49952341Y-49225204D01*
X49972935Y-49460600D01*
X49972936Y-49460607D01*
X49972937Y-49460608D01*
X50034097Y-49688863D01*
X50133965Y-49903030D01*
X50269505Y-50096601D01*
X50436599Y-50263695D01*
X50630170Y-50399235D01*
X50631811Y-50400000D01*
X50643552Y-50405475D01*
X50688300Y-50447203D01*
X50699975Y-50507264D01*
X50674117Y-50562717D01*
X50643554Y-50584924D01*
X50630173Y-50591163D01*
X50436603Y-50726701D01*
X50269501Y-50893803D01*
X50133963Y-51087373D01*
X50133959Y-51087381D01*
X50034098Y-51301532D01*
X49972935Y-51529799D01*
X49952341Y-51765195D01*
X49952341Y-51765204D01*
X49972935Y-52000600D01*
X49972936Y-52000607D01*
X49972937Y-52000608D01*
X50034097Y-52228863D01*
X50133965Y-52443030D01*
X50269505Y-52636601D01*
X50436599Y-52803695D01*
X50630170Y-52939235D01*
X50643552Y-52945475D01*
X50688300Y-52987203D01*
X50699975Y-53047264D01*
X50674117Y-53102717D01*
X50643554Y-53124924D01*
X50630173Y-53131163D01*
X50436603Y-53266701D01*
X50269501Y-53433803D01*
X50133963Y-53627373D01*
X50133959Y-53627381D01*
X50034098Y-53841533D01*
X50034096Y-53841537D01*
X50016926Y-53905615D01*
X49983601Y-53956928D01*
X49926480Y-53978854D01*
X49921830Y-53978989D01*
X48014260Y-53989208D01*
X48007173Y-53988992D01*
X47732102Y-53970733D01*
X47718063Y-53968784D01*
X47451897Y-53912171D01*
X47438280Y-53908237D01*
X47182933Y-53814200D01*
X47170018Y-53808363D01*
X46930706Y-53678821D01*
X46918757Y-53671199D01*
X46852693Y-53622070D01*
X46700404Y-53508818D01*
X46689665Y-53499568D01*
X46496729Y-53307662D01*
X46487422Y-53296973D01*
X46451721Y-53249500D01*
X46323870Y-53079489D01*
X46316187Y-53067585D01*
X46185368Y-52828974D01*
X46179461Y-52816091D01*
X46174821Y-52803698D01*
X46084052Y-52561239D01*
X46080048Y-52547648D01*
X46071045Y-52506407D01*
X46022010Y-52281786D01*
X46019987Y-52267764D01*
X46019870Y-52266136D01*
X46003368Y-52036193D01*
X46000254Y-51992795D01*
X46000000Y-51985709D01*
X46000000Y-37372266D01*
X85060300Y-37372266D01*
X85060301Y-37372270D01*
X85066708Y-37431880D01*
X85066709Y-37431885D01*
X85117002Y-37566729D01*
X85178168Y-37648436D01*
X85203254Y-37681946D01*
X85203257Y-37681948D01*
X85203258Y-37681949D01*
X85318470Y-37768197D01*
X85453311Y-37818489D01*
X85453312Y-37818489D01*
X85453317Y-37818491D01*
X85512927Y-37824900D01*
X87308672Y-37824899D01*
X87368283Y-37818491D01*
X87435707Y-37793343D01*
X87503129Y-37768197D01*
X87503129Y-37768196D01*
X87503131Y-37768196D01*
X87618346Y-37681946D01*
X87704596Y-37566731D01*
X87754891Y-37431883D01*
X87756409Y-37417762D01*
X87781428Y-37361927D01*
X87834489Y-37331460D01*
X87895324Y-37338000D01*
X87924842Y-37358338D01*
X88079399Y-37512895D01*
X88272970Y-37648435D01*
X88293138Y-37657839D01*
X88337887Y-37699566D01*
X88350300Y-37747564D01*
X88350300Y-40012057D01*
X88331393Y-40070248D01*
X88281893Y-40106212D01*
X88220707Y-40106212D01*
X88181296Y-40082061D01*
X88028084Y-39928849D01*
X88005522Y-39893952D01*
X87949818Y-39747070D01*
X87853183Y-39607071D01*
X87725852Y-39494266D01*
X87575225Y-39415210D01*
X87575224Y-39415209D01*
X87575223Y-39415209D01*
X87410058Y-39374500D01*
X87410056Y-39374500D01*
X87239944Y-39374500D01*
X87239941Y-39374500D01*
X87074776Y-39415209D01*
X86924146Y-39494267D01*
X86796818Y-39607069D01*
X86796816Y-39607072D01*
X86710535Y-39732071D01*
X86700182Y-39747070D01*
X86639860Y-39906128D01*
X86619355Y-40075000D01*
X86639860Y-40243872D01*
X86700182Y-40402930D01*
X86786464Y-40527930D01*
X86796816Y-40542927D01*
X86796818Y-40542930D01*
X86817046Y-40560850D01*
X86924148Y-40655734D01*
X87074775Y-40734790D01*
X87128638Y-40748065D01*
X87174949Y-40774184D01*
X88561364Y-42160599D01*
X88569902Y-42170336D01*
X88574444Y-42176256D01*
X88590118Y-42196682D01*
X88715559Y-42292936D01*
X88715560Y-42292936D01*
X88715561Y-42292937D01*
X88861633Y-42353442D01*
X88861638Y-42353444D01*
X88979039Y-42368900D01*
X89018399Y-42374082D01*
X89018400Y-42374082D01*
X89018401Y-42374082D01*
X89051328Y-42369747D01*
X89064250Y-42368900D01*
X89064693Y-42368900D01*
X89122884Y-42387807D01*
X89158848Y-42437307D01*
X89158848Y-42498493D01*
X89154200Y-42506077D01*
X89154200Y-42666224D01*
X89154199Y-42666224D01*
X89160601Y-42725770D01*
X89160603Y-42725781D01*
X89210846Y-42860488D01*
X89210847Y-42860490D01*
X89297007Y-42975584D01*
X89297015Y-42975592D01*
X89412109Y-43061752D01*
X89412111Y-43061753D01*
X89546818Y-43111996D01*
X89546829Y-43111998D01*
X89606376Y-43118400D01*
X90004199Y-43118400D01*
X90004200Y-43118399D01*
X90004200Y-42567899D01*
X90023107Y-42509708D01*
X90072607Y-42473744D01*
X90103196Y-42468899D01*
X90105201Y-42468899D01*
X90163391Y-42487806D01*
X90199355Y-42537306D01*
X90204200Y-42567899D01*
X90204200Y-43118399D01*
X90204201Y-43118400D01*
X90602024Y-43118400D01*
X90661570Y-43111998D01*
X90661581Y-43111996D01*
X90796288Y-43061753D01*
X90796291Y-43061752D01*
X90865574Y-43009886D01*
X90923489Y-42990148D01*
X90981944Y-43008222D01*
X91018612Y-43057202D01*
X91019486Y-43118381D01*
X91017472Y-43124240D01*
X91014860Y-43131127D01*
X91014141Y-43137053D01*
X90994355Y-43300000D01*
X91014860Y-43468872D01*
X91075182Y-43627930D01*
X91171817Y-43767929D01*
X91299148Y-43880734D01*
X91449775Y-43959790D01*
X91614944Y-44000500D01*
X91614947Y-44000500D01*
X91785053Y-44000500D01*
X91785056Y-44000500D01*
X91950225Y-43959790D01*
X92100852Y-43880734D01*
X92228183Y-43767929D01*
X92324818Y-43627930D01*
X92380523Y-43481044D01*
X92403083Y-43446150D01*
X92696405Y-43152828D01*
X92706134Y-43144297D01*
X92712585Y-43139349D01*
X92770264Y-43118933D01*
X92772842Y-43118899D01*
X92802067Y-43118899D01*
X92802072Y-43118899D01*
X92861683Y-43112491D01*
X92929107Y-43087343D01*
X92996529Y-43062197D01*
X92996529Y-43062196D01*
X92996531Y-43062196D01*
X93111746Y-42975946D01*
X93197996Y-42860731D01*
X93208686Y-42832071D01*
X93248289Y-42725888D01*
X93248288Y-42725888D01*
X93248291Y-42725883D01*
X93254700Y-42666273D01*
X93254699Y-42549499D01*
X93273606Y-42491310D01*
X93323106Y-42455346D01*
X93353699Y-42450500D01*
X93485053Y-42450500D01*
X93485056Y-42450500D01*
X93650225Y-42409790D01*
X93800852Y-42330734D01*
X93928183Y-42217929D01*
X94024818Y-42077930D01*
X94085140Y-41918872D01*
X94105645Y-41750000D01*
X94085140Y-41581128D01*
X94024818Y-41422070D01*
X93928183Y-41282071D01*
X93800852Y-41169266D01*
X93650225Y-41090210D01*
X93650224Y-41090209D01*
X93650223Y-41090209D01*
X93485058Y-41049500D01*
X93485056Y-41049500D01*
X93353699Y-41049500D01*
X93295508Y-41030593D01*
X93259544Y-40981093D01*
X93254699Y-40950500D01*
X93254699Y-40870533D01*
X93254699Y-40870528D01*
X93248291Y-40810917D01*
X93244410Y-40800511D01*
X93197997Y-40676070D01*
X93111749Y-40560858D01*
X93111748Y-40560857D01*
X93111746Y-40560854D01*
X93097859Y-40550458D01*
X92996529Y-40474602D01*
X92861688Y-40424310D01*
X92861683Y-40424309D01*
X92861681Y-40424308D01*
X92861677Y-40424308D01*
X92830449Y-40420950D01*
X92802073Y-40417900D01*
X92802070Y-40417900D01*
X91806333Y-40417900D01*
X91806329Y-40417900D01*
X91806328Y-40417901D01*
X91799149Y-40418672D01*
X91746719Y-40424308D01*
X91746714Y-40424309D01*
X91611870Y-40474602D01*
X91496658Y-40560850D01*
X91496650Y-40560858D01*
X91410402Y-40676070D01*
X91360110Y-40810911D01*
X91360108Y-40810922D01*
X91353700Y-40870529D01*
X91353700Y-41366266D01*
X91353701Y-41366270D01*
X91360771Y-41432041D01*
X91358885Y-41432243D01*
X91358889Y-41454556D01*
X91360771Y-41454759D01*
X91353700Y-41520529D01*
X91353700Y-42016266D01*
X91353701Y-42016270D01*
X91360771Y-42082041D01*
X91358885Y-42082243D01*
X91358889Y-42104556D01*
X91360771Y-42104759D01*
X91360109Y-42110917D01*
X91354768Y-42160599D01*
X91353700Y-42170529D01*
X91353700Y-42630786D01*
X91334793Y-42688977D01*
X91303937Y-42715658D01*
X91304078Y-42715863D01*
X91302208Y-42717153D01*
X91300723Y-42718438D01*
X91299155Y-42719260D01*
X91299145Y-42719267D01*
X91213528Y-42795117D01*
X91157434Y-42819552D01*
X91097690Y-42806349D01*
X91057117Y-42760550D01*
X91049447Y-42710431D01*
X91054200Y-42666223D01*
X91054200Y-42518401D01*
X91054199Y-42518400D01*
X90952105Y-42518400D01*
X90893914Y-42499493D01*
X90857950Y-42449993D01*
X90857950Y-42388807D01*
X90892781Y-42340143D01*
X90895453Y-42338143D01*
X90953369Y-42318410D01*
X90954777Y-42318400D01*
X91054199Y-42318400D01*
X91054200Y-42318399D01*
X91054200Y-42170575D01*
X91047167Y-42105158D01*
X91048611Y-42082147D01*
X91047629Y-42082042D01*
X91049409Y-42065483D01*
X91054700Y-42016273D01*
X91054699Y-41520528D01*
X91048291Y-41460917D01*
X91048290Y-41460916D01*
X91047629Y-41454758D01*
X91049543Y-41454552D01*
X91049547Y-41432248D01*
X91047629Y-41432042D01*
X91049409Y-41415483D01*
X91054700Y-41366273D01*
X91054699Y-40870528D01*
X91048291Y-40810917D01*
X91044410Y-40800511D01*
X90997997Y-40676070D01*
X90911749Y-40560858D01*
X90911748Y-40560857D01*
X90911746Y-40560854D01*
X90897859Y-40550458D01*
X90796533Y-40474604D01*
X90769102Y-40464373D01*
X90721188Y-40426321D01*
X90704700Y-40371615D01*
X90704700Y-40337926D01*
X90722225Y-40281686D01*
X90724818Y-40277930D01*
X90754373Y-40200000D01*
X95865155Y-40200000D01*
X95885660Y-40368872D01*
X95945982Y-40527930D01*
X96042617Y-40667929D01*
X96169948Y-40780734D01*
X96320575Y-40859790D01*
X96374438Y-40873065D01*
X96420749Y-40899184D01*
X97643304Y-42121739D01*
X97671081Y-42176256D01*
X97672300Y-42191743D01*
X97672300Y-42307999D01*
X97672301Y-42308000D01*
X97771723Y-42308000D01*
X97829914Y-42326907D01*
X97831047Y-42327743D01*
X97833719Y-42329743D01*
X97868975Y-42379750D01*
X97868105Y-42440929D01*
X97831441Y-42489912D01*
X97774395Y-42508000D01*
X97672301Y-42508000D01*
X97672300Y-42508001D01*
X97672300Y-42655824D01*
X97672299Y-42655824D01*
X97678701Y-42715370D01*
X97678703Y-42715381D01*
X97728946Y-42850088D01*
X97728947Y-42850090D01*
X97815107Y-42965184D01*
X97815115Y-42965192D01*
X97930209Y-43051352D01*
X97930211Y-43051353D01*
X98064918Y-43101596D01*
X98064929Y-43101598D01*
X98124476Y-43108000D01*
X98522299Y-43108000D01*
X98522300Y-43107999D01*
X98522300Y-42557499D01*
X98541207Y-42499308D01*
X98590707Y-42463344D01*
X98621296Y-42458499D01*
X98623301Y-42458499D01*
X98681491Y-42477406D01*
X98717455Y-42526906D01*
X98722300Y-42557499D01*
X98722300Y-43107999D01*
X98722301Y-43108000D01*
X99120124Y-43108000D01*
X99179670Y-43101598D01*
X99179681Y-43101596D01*
X99314388Y-43051353D01*
X99314390Y-43051352D01*
X99429484Y-42965192D01*
X99429492Y-42965184D01*
X99515652Y-42850090D01*
X99515653Y-42850088D01*
X99565896Y-42715381D01*
X99565898Y-42715370D01*
X99572295Y-42655866D01*
X99871800Y-42655866D01*
X99871801Y-42655870D01*
X99878208Y-42715480D01*
X99878209Y-42715485D01*
X99928502Y-42850329D01*
X100014483Y-42965184D01*
X100014754Y-42965546D01*
X100014757Y-42965548D01*
X100014758Y-42965549D01*
X100129970Y-43051797D01*
X100264811Y-43102089D01*
X100264812Y-43102089D01*
X100264817Y-43102091D01*
X100324427Y-43108500D01*
X100887072Y-43108499D01*
X100910764Y-43111376D01*
X100913288Y-43111998D01*
X101014944Y-43137054D01*
X101014947Y-43137054D01*
X101185053Y-43137054D01*
X101185056Y-43137054D01*
X101289236Y-43111375D01*
X101312928Y-43108499D01*
X101320167Y-43108499D01*
X101320172Y-43108499D01*
X101379783Y-43102091D01*
X101447207Y-43076943D01*
X101514629Y-43051797D01*
X101514629Y-43051796D01*
X101514631Y-43051796D01*
X101629846Y-42965546D01*
X101716096Y-42850331D01*
X101731088Y-42810137D01*
X101766389Y-42715488D01*
X101766390Y-42715485D01*
X101766391Y-42715483D01*
X101772800Y-42655873D01*
X101772800Y-42655866D01*
X101772942Y-42653221D01*
X101773330Y-42653241D01*
X101779234Y-42620996D01*
X101785140Y-42605426D01*
X101805645Y-42436554D01*
X101805535Y-42435651D01*
X101798748Y-42379750D01*
X101785140Y-42267682D01*
X101779232Y-42252103D01*
X101772799Y-42216999D01*
X101772799Y-42160133D01*
X101772799Y-42160128D01*
X101766391Y-42100517D01*
X101766390Y-42100516D01*
X101765729Y-42094358D01*
X101767643Y-42094152D01*
X101767647Y-42071848D01*
X101765729Y-42071642D01*
X101766609Y-42063453D01*
X101772800Y-42005873D01*
X101772799Y-41510128D01*
X101766391Y-41450517D01*
X101766390Y-41450516D01*
X101765729Y-41444358D01*
X101767643Y-41444152D01*
X101767647Y-41421848D01*
X101765729Y-41421642D01*
X101766609Y-41413453D01*
X101772800Y-41355873D01*
X101772799Y-40860128D01*
X101766391Y-40800517D01*
X101766389Y-40800511D01*
X101716097Y-40665670D01*
X101629849Y-40550458D01*
X101629848Y-40550457D01*
X101629846Y-40550454D01*
X101629841Y-40550450D01*
X101514629Y-40464202D01*
X101379788Y-40413910D01*
X101379783Y-40413909D01*
X101379781Y-40413908D01*
X101379777Y-40413908D01*
X101348549Y-40410550D01*
X101320173Y-40407500D01*
X101320170Y-40407500D01*
X100324433Y-40407500D01*
X100324429Y-40407500D01*
X100324428Y-40407501D01*
X100317249Y-40408272D01*
X100264819Y-40413908D01*
X100264814Y-40413909D01*
X100129970Y-40464202D01*
X100014758Y-40550450D01*
X100014750Y-40550458D01*
X99928502Y-40665670D01*
X99878210Y-40800511D01*
X99878208Y-40800522D01*
X99877090Y-40810922D01*
X99871837Y-40859788D01*
X99871800Y-40860129D01*
X99871800Y-41355866D01*
X99871800Y-41355869D01*
X99871801Y-41355872D01*
X99872919Y-41366270D01*
X99878871Y-41421641D01*
X99876985Y-41421843D01*
X99876989Y-41444156D01*
X99878871Y-41444359D01*
X99871800Y-41510129D01*
X99871800Y-42005866D01*
X99871800Y-42005869D01*
X99871801Y-42005872D01*
X99872919Y-42016270D01*
X99878871Y-42071641D01*
X99876985Y-42071843D01*
X99876989Y-42094156D01*
X99878871Y-42094359D01*
X99871800Y-42160129D01*
X99871800Y-42655866D01*
X99572295Y-42655866D01*
X99572300Y-42655824D01*
X99572300Y-42508001D01*
X99572299Y-42508000D01*
X99470205Y-42508000D01*
X99412014Y-42489093D01*
X99376050Y-42439593D01*
X99376050Y-42378407D01*
X99410881Y-42329743D01*
X99413553Y-42327743D01*
X99471469Y-42308010D01*
X99472877Y-42308000D01*
X99572299Y-42308000D01*
X99572300Y-42307999D01*
X99572300Y-42160175D01*
X99565267Y-42094758D01*
X99566711Y-42071747D01*
X99565729Y-42071642D01*
X99566609Y-42063453D01*
X99572800Y-42005873D01*
X99572799Y-41510128D01*
X99566391Y-41450517D01*
X99566390Y-41450516D01*
X99565729Y-41444358D01*
X99567643Y-41444152D01*
X99567647Y-41421848D01*
X99565729Y-41421642D01*
X99566609Y-41413453D01*
X99572800Y-41355873D01*
X99572799Y-40860128D01*
X99566391Y-40800517D01*
X99566389Y-40800511D01*
X99516097Y-40665670D01*
X99429849Y-40550458D01*
X99429848Y-40550457D01*
X99429846Y-40550454D01*
X99429841Y-40550450D01*
X99314631Y-40464203D01*
X99313563Y-40463620D01*
X99312865Y-40462881D01*
X99308963Y-40459960D01*
X99309468Y-40459284D01*
X99271553Y-40419136D01*
X99263713Y-40358455D01*
X99273355Y-40330716D01*
X99274813Y-40327936D01*
X99274818Y-40327930D01*
X99335140Y-40168872D01*
X99355645Y-40000000D01*
X99335140Y-39831128D01*
X99274818Y-39672070D01*
X99178183Y-39532071D01*
X99121744Y-39482071D01*
X99050853Y-39419267D01*
X99050852Y-39419266D01*
X98900225Y-39340210D01*
X98900224Y-39340209D01*
X98900223Y-39340209D01*
X98735058Y-39299500D01*
X98735056Y-39299500D01*
X98564944Y-39299500D01*
X98564941Y-39299500D01*
X98399776Y-39340209D01*
X98249146Y-39419267D01*
X98121818Y-39532069D01*
X98121816Y-39532072D01*
X98059695Y-39622070D01*
X98025182Y-39672070D01*
X97983823Y-39781128D01*
X97964860Y-39831129D01*
X97944355Y-39999998D01*
X97944355Y-40000001D01*
X97953462Y-40075000D01*
X97964860Y-40168872D01*
X97976665Y-40200000D01*
X98015367Y-40302050D01*
X98021800Y-40337155D01*
X98021800Y-40361215D01*
X98002893Y-40419406D01*
X97957398Y-40453973D01*
X97929966Y-40464204D01*
X97858113Y-40517994D01*
X97800198Y-40537731D01*
X97741743Y-40519657D01*
X97728780Y-40508745D01*
X97273884Y-40053849D01*
X97251322Y-40018952D01*
X97195618Y-39872070D01*
X97098983Y-39732071D01*
X96971652Y-39619266D01*
X96821025Y-39540210D01*
X96821024Y-39540209D01*
X96821023Y-39540209D01*
X96655858Y-39499500D01*
X96655856Y-39499500D01*
X96485744Y-39499500D01*
X96485741Y-39499500D01*
X96320576Y-39540209D01*
X96169946Y-39619267D01*
X96042618Y-39732069D01*
X96042617Y-39732071D01*
X95945982Y-39872070D01*
X95890279Y-40018950D01*
X95885660Y-40031129D01*
X95868935Y-40168872D01*
X95865155Y-40200000D01*
X90754373Y-40200000D01*
X90785140Y-40118872D01*
X90805645Y-39950000D01*
X90785140Y-39781128D01*
X90724818Y-39622070D01*
X90628183Y-39482071D01*
X90500852Y-39369266D01*
X90350225Y-39290210D01*
X90350224Y-39290209D01*
X90350223Y-39290209D01*
X90185058Y-39249500D01*
X90185056Y-39249500D01*
X90014944Y-39249500D01*
X90014941Y-39249500D01*
X89849776Y-39290209D01*
X89696308Y-39370756D01*
X89635996Y-39381057D01*
X89581147Y-39353940D01*
X89552713Y-39299763D01*
X89551300Y-39283096D01*
X89551300Y-37747564D01*
X89570207Y-37689373D01*
X89608461Y-37657839D01*
X89628630Y-37648435D01*
X89822201Y-37512895D01*
X89989295Y-37345801D01*
X90124835Y-37152230D01*
X90131075Y-37138847D01*
X90172803Y-37094100D01*
X90232864Y-37082425D01*
X90288317Y-37108283D01*
X90310525Y-37138848D01*
X90316764Y-37152228D01*
X90446842Y-37338000D01*
X90452305Y-37345801D01*
X90619399Y-37512895D01*
X90812970Y-37648435D01*
X91027137Y-37748303D01*
X91255392Y-37809463D01*
X91255396Y-37809463D01*
X91255399Y-37809464D01*
X91490796Y-37830059D01*
X91490800Y-37830059D01*
X91490804Y-37830059D01*
X91726200Y-37809464D01*
X91726201Y-37809463D01*
X91726208Y-37809463D01*
X91954463Y-37748303D01*
X92168630Y-37648435D01*
X92362201Y-37512895D01*
X92529295Y-37345801D01*
X92664835Y-37152230D01*
X92671075Y-37138847D01*
X92712803Y-37094100D01*
X92772864Y-37082425D01*
X92828317Y-37108283D01*
X92850525Y-37138848D01*
X92856764Y-37152228D01*
X92986842Y-37338000D01*
X92992305Y-37345801D01*
X93159399Y-37512895D01*
X93352970Y-37648435D01*
X93567137Y-37748303D01*
X93795392Y-37809463D01*
X93795396Y-37809463D01*
X93795399Y-37809464D01*
X94030796Y-37830059D01*
X94030800Y-37830059D01*
X94030804Y-37830059D01*
X94266200Y-37809464D01*
X94266201Y-37809463D01*
X94266208Y-37809463D01*
X94494463Y-37748303D01*
X94708630Y-37648435D01*
X94902201Y-37512895D01*
X95069295Y-37345801D01*
X95204835Y-37152230D01*
X95211075Y-37138847D01*
X95252803Y-37094100D01*
X95312864Y-37082425D01*
X95368317Y-37108283D01*
X95390525Y-37138848D01*
X95396764Y-37152228D01*
X95526842Y-37338000D01*
X95532305Y-37345801D01*
X95699399Y-37512895D01*
X95892970Y-37648435D01*
X96107137Y-37748303D01*
X96335392Y-37809463D01*
X96335396Y-37809463D01*
X96335399Y-37809464D01*
X96570796Y-37830059D01*
X96570800Y-37830059D01*
X96570804Y-37830059D01*
X96806200Y-37809464D01*
X96806201Y-37809463D01*
X96806208Y-37809463D01*
X97034463Y-37748303D01*
X97248630Y-37648435D01*
X97442201Y-37512895D01*
X97609295Y-37345801D01*
X97744835Y-37152230D01*
X97751075Y-37138847D01*
X97792803Y-37094100D01*
X97852864Y-37082425D01*
X97908317Y-37108283D01*
X97930525Y-37138848D01*
X97936764Y-37152228D01*
X98066842Y-37338000D01*
X98072305Y-37345801D01*
X98239399Y-37512895D01*
X98432970Y-37648435D01*
X98647137Y-37748303D01*
X98875392Y-37809463D01*
X98875396Y-37809463D01*
X98875399Y-37809464D01*
X99110796Y-37830059D01*
X99110800Y-37830059D01*
X99110804Y-37830059D01*
X99346200Y-37809464D01*
X99346201Y-37809463D01*
X99346208Y-37809463D01*
X99574463Y-37748303D01*
X99788630Y-37648435D01*
X99982201Y-37512895D01*
X100149295Y-37345801D01*
X100284835Y-37152230D01*
X100291075Y-37138847D01*
X100332803Y-37094100D01*
X100392864Y-37082425D01*
X100448317Y-37108283D01*
X100470525Y-37138848D01*
X100476764Y-37152228D01*
X100606842Y-37338000D01*
X100612305Y-37345801D01*
X100779399Y-37512895D01*
X100972970Y-37648435D01*
X101187137Y-37748303D01*
X101415392Y-37809463D01*
X101415396Y-37809463D01*
X101415399Y-37809464D01*
X101650796Y-37830059D01*
X101650800Y-37830059D01*
X101650804Y-37830059D01*
X101886200Y-37809464D01*
X101886201Y-37809463D01*
X101886208Y-37809463D01*
X102114463Y-37748303D01*
X102328630Y-37648435D01*
X102522201Y-37512895D01*
X102689295Y-37345801D01*
X102824835Y-37152230D01*
X102831075Y-37138847D01*
X102872803Y-37094100D01*
X102932864Y-37082425D01*
X102988317Y-37108283D01*
X103010525Y-37138848D01*
X103016764Y-37152228D01*
X103146842Y-37338000D01*
X103152305Y-37345801D01*
X103319399Y-37512895D01*
X103512970Y-37648435D01*
X103727137Y-37748303D01*
X103955392Y-37809463D01*
X103955396Y-37809463D01*
X103955399Y-37809464D01*
X104190796Y-37830059D01*
X104190800Y-37830059D01*
X104190804Y-37830059D01*
X104426200Y-37809464D01*
X104426201Y-37809463D01*
X104426208Y-37809463D01*
X104654463Y-37748303D01*
X104868630Y-37648435D01*
X105062201Y-37512895D01*
X105229295Y-37345801D01*
X105364835Y-37152230D01*
X105464703Y-36938063D01*
X105525863Y-36709808D01*
X105546459Y-36474400D01*
X105525863Y-36238992D01*
X105464703Y-36010737D01*
X105401598Y-35875408D01*
X105364840Y-35796581D01*
X105364836Y-35796573D01*
X105324700Y-35739253D01*
X105239964Y-35618236D01*
X105229298Y-35603003D01*
X105229297Y-35603002D01*
X105229295Y-35602999D01*
X105062201Y-35435905D01*
X105062197Y-35435902D01*
X105062196Y-35435901D01*
X104954807Y-35360707D01*
X104868630Y-35300365D01*
X104654463Y-35200497D01*
X104426208Y-35139337D01*
X104426207Y-35139336D01*
X104426200Y-35139335D01*
X104190804Y-35118741D01*
X104190796Y-35118741D01*
X103955399Y-35139335D01*
X103727132Y-35200498D01*
X103512981Y-35300359D01*
X103512973Y-35300363D01*
X103319403Y-35435901D01*
X103152301Y-35603003D01*
X103016763Y-35796573D01*
X103010524Y-35809954D01*
X102968795Y-35854701D01*
X102908733Y-35866375D01*
X102853281Y-35840516D01*
X102831076Y-35809954D01*
X102824836Y-35796573D01*
X102784700Y-35739253D01*
X102699964Y-35618236D01*
X102689298Y-35603003D01*
X102689297Y-35603002D01*
X102689295Y-35602999D01*
X102522201Y-35435905D01*
X102522197Y-35435902D01*
X102522196Y-35435901D01*
X102414807Y-35360707D01*
X102328630Y-35300365D01*
X102114463Y-35200497D01*
X101886208Y-35139337D01*
X101886207Y-35139336D01*
X101886200Y-35139335D01*
X101650804Y-35118741D01*
X101650796Y-35118741D01*
X101415399Y-35139335D01*
X101187132Y-35200498D01*
X100972981Y-35300359D01*
X100972973Y-35300363D01*
X100779403Y-35435901D01*
X100612301Y-35603003D01*
X100476763Y-35796573D01*
X100470524Y-35809954D01*
X100428795Y-35854701D01*
X100368733Y-35866375D01*
X100313281Y-35840516D01*
X100291076Y-35809954D01*
X100284836Y-35796573D01*
X100244700Y-35739253D01*
X100159964Y-35618236D01*
X100149298Y-35603003D01*
X100149297Y-35603002D01*
X100149295Y-35602999D01*
X99982201Y-35435905D01*
X99982197Y-35435902D01*
X99982196Y-35435901D01*
X99874807Y-35360707D01*
X99788630Y-35300365D01*
X99574463Y-35200497D01*
X99346208Y-35139337D01*
X99346207Y-35139336D01*
X99346200Y-35139335D01*
X99110804Y-35118741D01*
X99110796Y-35118741D01*
X98875399Y-35139335D01*
X98647132Y-35200498D01*
X98432981Y-35300359D01*
X98432973Y-35300363D01*
X98239403Y-35435901D01*
X98072301Y-35603003D01*
X97936763Y-35796573D01*
X97930524Y-35809954D01*
X97888795Y-35854701D01*
X97828733Y-35866375D01*
X97773281Y-35840516D01*
X97751076Y-35809954D01*
X97744836Y-35796573D01*
X97704700Y-35739253D01*
X97619964Y-35618236D01*
X97609298Y-35603003D01*
X97609297Y-35603002D01*
X97609295Y-35602999D01*
X97442201Y-35435905D01*
X97442197Y-35435902D01*
X97442196Y-35435901D01*
X97334807Y-35360707D01*
X97248630Y-35300365D01*
X97034463Y-35200497D01*
X96806208Y-35139337D01*
X96806207Y-35139336D01*
X96806200Y-35139335D01*
X96570804Y-35118741D01*
X96570796Y-35118741D01*
X96335399Y-35139335D01*
X96107132Y-35200498D01*
X95892981Y-35300359D01*
X95892973Y-35300363D01*
X95699403Y-35435901D01*
X95532301Y-35603003D01*
X95396763Y-35796573D01*
X95390524Y-35809954D01*
X95348795Y-35854701D01*
X95288733Y-35866375D01*
X95233281Y-35840516D01*
X95211076Y-35809954D01*
X95204836Y-35796573D01*
X95164700Y-35739253D01*
X95079964Y-35618236D01*
X95069298Y-35603003D01*
X95069297Y-35603002D01*
X95069295Y-35602999D01*
X94902201Y-35435905D01*
X94902197Y-35435902D01*
X94902196Y-35435901D01*
X94794807Y-35360707D01*
X94708630Y-35300365D01*
X94494463Y-35200497D01*
X94266208Y-35139337D01*
X94266207Y-35139336D01*
X94266200Y-35139335D01*
X94030804Y-35118741D01*
X94030796Y-35118741D01*
X93795399Y-35139335D01*
X93567132Y-35200498D01*
X93352981Y-35300359D01*
X93352973Y-35300363D01*
X93159403Y-35435901D01*
X92992301Y-35603003D01*
X92856763Y-35796573D01*
X92850524Y-35809954D01*
X92808795Y-35854701D01*
X92748733Y-35866375D01*
X92693281Y-35840516D01*
X92671076Y-35809954D01*
X92664836Y-35796573D01*
X92624700Y-35739253D01*
X92539964Y-35618236D01*
X92529298Y-35603003D01*
X92529297Y-35603002D01*
X92529295Y-35602999D01*
X92362201Y-35435905D01*
X92362197Y-35435902D01*
X92362196Y-35435901D01*
X92254807Y-35360707D01*
X92168630Y-35300365D01*
X91954463Y-35200497D01*
X91726208Y-35139337D01*
X91726207Y-35139336D01*
X91726200Y-35139335D01*
X91490804Y-35118741D01*
X91490796Y-35118741D01*
X91255399Y-35139335D01*
X91027132Y-35200498D01*
X90812981Y-35300359D01*
X90812973Y-35300363D01*
X90619403Y-35435901D01*
X90452301Y-35603003D01*
X90316763Y-35796573D01*
X90310524Y-35809954D01*
X90268795Y-35854701D01*
X90208733Y-35866375D01*
X90153281Y-35840516D01*
X90131076Y-35809954D01*
X90124836Y-35796573D01*
X90084700Y-35739253D01*
X89999964Y-35618236D01*
X89989298Y-35603003D01*
X89989297Y-35603002D01*
X89989295Y-35602999D01*
X89822201Y-35435905D01*
X89822197Y-35435902D01*
X89822196Y-35435901D01*
X89714807Y-35360707D01*
X89628630Y-35300365D01*
X89414463Y-35200497D01*
X89186208Y-35139337D01*
X89186207Y-35139336D01*
X89186200Y-35139335D01*
X88950804Y-35118741D01*
X88950796Y-35118741D01*
X88715399Y-35139335D01*
X88487132Y-35200498D01*
X88272981Y-35300359D01*
X88272973Y-35300363D01*
X88079402Y-35435902D01*
X88079398Y-35435905D01*
X87924844Y-35590459D01*
X87870328Y-35618236D01*
X87809896Y-35608665D01*
X87766631Y-35565400D01*
X87756408Y-35531033D01*
X87754891Y-35516922D01*
X87754891Y-35516917D01*
X87724676Y-35435905D01*
X87704597Y-35382070D01*
X87618349Y-35266858D01*
X87618348Y-35266857D01*
X87618346Y-35266854D01*
X87618341Y-35266850D01*
X87503129Y-35180602D01*
X87368288Y-35130310D01*
X87368283Y-35130309D01*
X87368281Y-35130308D01*
X87368277Y-35130308D01*
X87337049Y-35126950D01*
X87308673Y-35123900D01*
X87308670Y-35123900D01*
X85512933Y-35123900D01*
X85512929Y-35123900D01*
X85512928Y-35123901D01*
X85505749Y-35124672D01*
X85453319Y-35130308D01*
X85453314Y-35130309D01*
X85318470Y-35180602D01*
X85203258Y-35266850D01*
X85203250Y-35266858D01*
X85117002Y-35382070D01*
X85066710Y-35516911D01*
X85066708Y-35516922D01*
X85060300Y-35576529D01*
X85060300Y-37372266D01*
X46000000Y-37372266D01*
X46000000Y-32919596D01*
X46745687Y-32919596D01*
X46776114Y-33196125D01*
X46846479Y-33465273D01*
X46955284Y-33721315D01*
X47100209Y-33958782D01*
X47100213Y-33958788D01*
X47278155Y-34172609D01*
X47278160Y-34172614D01*
X47485355Y-34358262D01*
X47485588Y-34358416D01*
X47717373Y-34511763D01*
X47717376Y-34511764D01*
X47717380Y-34511767D01*
X47853134Y-34575405D01*
X47969267Y-34629846D01*
X48118643Y-34674787D01*
X48235655Y-34709991D01*
X48235657Y-34709991D01*
X48235669Y-34709995D01*
X48407461Y-34735277D01*
X48510899Y-34750500D01*
X48510901Y-34750500D01*
X48719464Y-34750500D01*
X48745462Y-34748597D01*
X48927455Y-34735277D01*
X49198997Y-34674788D01*
X49458838Y-34575408D01*
X49701440Y-34439253D01*
X49921632Y-34269226D01*
X49969481Y-34219596D01*
X76295687Y-34219596D01*
X76326114Y-34496125D01*
X76396479Y-34765273D01*
X76505284Y-35021315D01*
X76564743Y-35118741D01*
X76614638Y-35200498D01*
X76650209Y-35258782D01*
X76650213Y-35258788D01*
X76828155Y-35472609D01*
X76828160Y-35472614D01*
X76828161Y-35472615D01*
X76828163Y-35472617D01*
X76886714Y-35525079D01*
X77035355Y-35658262D01*
X77035357Y-35658263D01*
X77267373Y-35811763D01*
X77267376Y-35811764D01*
X77267380Y-35811767D01*
X77383871Y-35866375D01*
X77519267Y-35929846D01*
X77668643Y-35974787D01*
X77785655Y-36009991D01*
X77785657Y-36009991D01*
X77785669Y-36009995D01*
X77957461Y-36035277D01*
X78060899Y-36050500D01*
X78060901Y-36050500D01*
X78269464Y-36050500D01*
X78295462Y-36048597D01*
X78477455Y-36035277D01*
X78748997Y-35974788D01*
X79008838Y-35875408D01*
X79251440Y-35739253D01*
X79471632Y-35569226D01*
X79664722Y-35368951D01*
X79826593Y-35142696D01*
X79836257Y-35123901D01*
X79889000Y-35021314D01*
X79953797Y-34895283D01*
X80043621Y-34631986D01*
X80094152Y-34358416D01*
X80104313Y-34080404D01*
X80073886Y-33803876D01*
X80003520Y-33534724D01*
X79894716Y-33278686D01*
X79749792Y-33041219D01*
X79749788Y-33041214D01*
X79749786Y-33041211D01*
X79571844Y-32827390D01*
X79571839Y-32827385D01*
X79364644Y-32641737D01*
X79132619Y-32488232D01*
X78880731Y-32370153D01*
X78614344Y-32290008D01*
X78614332Y-32290005D01*
X78614331Y-32290005D01*
X78614329Y-32290004D01*
X78614326Y-32290004D01*
X78339101Y-32249500D01*
X78339099Y-32249500D01*
X78130537Y-32249500D01*
X78130536Y-32249500D01*
X77922551Y-32264722D01*
X77922547Y-32264722D01*
X77922545Y-32264723D01*
X77651003Y-32325212D01*
X77533497Y-32370154D01*
X77391156Y-32424594D01*
X77148563Y-32560744D01*
X77148556Y-32560749D01*
X76928371Y-32730770D01*
X76735277Y-32931049D01*
X76573403Y-33157308D01*
X76446204Y-33404714D01*
X76356379Y-33668014D01*
X76356378Y-33668017D01*
X76305847Y-33941586D01*
X76295687Y-34219596D01*
X49969481Y-34219596D01*
X50114722Y-34068951D01*
X50276593Y-33842696D01*
X50403797Y-33595283D01*
X50493621Y-33331986D01*
X50544152Y-33058416D01*
X50554313Y-32780404D01*
X50523886Y-32503876D01*
X50453520Y-32234724D01*
X50344716Y-31978686D01*
X50199792Y-31741219D01*
X50199788Y-31741214D01*
X50199786Y-31741211D01*
X50021844Y-31527390D01*
X50021839Y-31527385D01*
X49814644Y-31341737D01*
X49582619Y-31188232D01*
X49330731Y-31070153D01*
X49064344Y-30990008D01*
X49064332Y-30990005D01*
X49064331Y-30990005D01*
X49064329Y-30990004D01*
X49064326Y-30990004D01*
X48789101Y-30949500D01*
X48789099Y-30949500D01*
X48580537Y-30949500D01*
X48580536Y-30949500D01*
X48372551Y-30964722D01*
X48372547Y-30964722D01*
X48372545Y-30964723D01*
X48101003Y-31025212D01*
X47983497Y-31070154D01*
X47841156Y-31124594D01*
X47598563Y-31260744D01*
X47598556Y-31260749D01*
X47378371Y-31430770D01*
X47185277Y-31631049D01*
X47023403Y-31857308D01*
X46896204Y-32104714D01*
X46806379Y-32368014D01*
X46806378Y-32368017D01*
X46755847Y-32641586D01*
X46745687Y-32919596D01*
X46000000Y-32919596D01*
X46000000Y-32003539D01*
X46000252Y-31996477D01*
X46018508Y-31741217D01*
X46019852Y-31722423D01*
X46021859Y-31708464D01*
X46079511Y-31443440D01*
X46083485Y-31429907D01*
X46178266Y-31175790D01*
X46184122Y-31162967D01*
X46314102Y-30924926D01*
X46321726Y-30913062D01*
X46484267Y-30695934D01*
X46493496Y-30685283D01*
X46685283Y-30493496D01*
X46695934Y-30484267D01*
X46913062Y-30321726D01*
X46924926Y-30314102D01*
X47162967Y-30184122D01*
X47175790Y-30178266D01*
X47429907Y-30083485D01*
X47443440Y-30079511D01*
X47708464Y-30021859D01*
X47722423Y-30019852D01*
X47964287Y-30002554D01*
X47996478Y-30000252D01*
X48003540Y-30000000D01*
X108996460Y-30000000D01*
X109003522Y-30000252D01*
G37*
%TD.AperFunction*%
%TA.AperFunction,Conductor*%
G36*
X74143045Y-69702932D02*
G01*
X74186310Y-69746197D01*
X74197100Y-69791142D01*
X74197100Y-69931765D01*
X74178193Y-69989956D01*
X74144109Y-70019424D01*
X74049151Y-70069263D01*
X74049147Y-70069266D01*
X73921818Y-70182069D01*
X73921816Y-70182072D01*
X73825182Y-70322070D01*
X73825179Y-70322074D01*
X73807935Y-70367542D01*
X73812949Y-69936284D01*
X73958092Y-69791142D01*
X74028097Y-69721138D01*
X74082613Y-69693361D01*
X74143045Y-69702932D01*
G37*
%TD.AperFunction*%
%TD*%
%TA.AperFunction,Conductor*%
%TO.N,PGND*%
G36*
X99718400Y-66543430D02*
G01*
X99629163Y-66530600D01*
X99557637Y-66530600D01*
X99468400Y-66543430D01*
X99468400Y-64977769D01*
X99557637Y-64990600D01*
X99629163Y-64990600D01*
X99718400Y-64977769D01*
X99718400Y-66543430D01*
G37*
%TD.AperFunction*%
%TA.AperFunction,Conductor*%
G36*
X103918039Y-60019685D02*
G01*
X103963794Y-60072489D01*
X103975000Y-60124000D01*
X103975000Y-60300000D01*
X105924999Y-60300000D01*
X105924999Y-60124000D01*
X105944684Y-60056961D01*
X105997488Y-60011206D01*
X106048999Y-60000000D01*
X108995572Y-60000000D01*
X109004418Y-60000316D01*
X109275790Y-60019724D01*
X109293291Y-60022241D01*
X109554803Y-60079129D01*
X109571762Y-60084108D01*
X109822524Y-60177638D01*
X109838616Y-60184987D01*
X110073501Y-60313244D01*
X110088375Y-60322802D01*
X110302624Y-60483188D01*
X110315994Y-60494774D01*
X110505225Y-60684005D01*
X110516811Y-60697375D01*
X110640536Y-60862652D01*
X110677193Y-60911619D01*
X110686758Y-60926503D01*
X110815011Y-61161382D01*
X110822361Y-61177475D01*
X110915888Y-61428229D01*
X110920872Y-61445205D01*
X110977757Y-61706702D01*
X110980275Y-61724214D01*
X110999684Y-61995581D01*
X111000000Y-62004427D01*
X111000000Y-91995572D01*
X110999684Y-92004418D01*
X110980275Y-92275785D01*
X110977757Y-92293297D01*
X110920872Y-92554794D01*
X110915888Y-92571770D01*
X110822361Y-92822524D01*
X110815011Y-92838617D01*
X110686758Y-93073496D01*
X110677193Y-93088380D01*
X110516811Y-93302624D01*
X110505225Y-93315994D01*
X110315994Y-93505225D01*
X110302624Y-93516811D01*
X110088380Y-93677193D01*
X110073496Y-93686758D01*
X109838617Y-93815011D01*
X109822524Y-93822361D01*
X109571770Y-93915888D01*
X109554794Y-93920872D01*
X109293297Y-93977757D01*
X109275785Y-93980275D01*
X109004418Y-93999684D01*
X108995572Y-94000000D01*
X64004428Y-94000000D01*
X63995582Y-93999684D01*
X63724214Y-93980275D01*
X63706702Y-93977757D01*
X63445205Y-93920872D01*
X63428229Y-93915888D01*
X63177475Y-93822361D01*
X63161382Y-93815011D01*
X62926503Y-93686758D01*
X62911619Y-93677193D01*
X62697375Y-93516811D01*
X62684005Y-93505225D01*
X62494774Y-93315994D01*
X62483188Y-93302624D01*
X62322802Y-93088375D01*
X62313244Y-93073501D01*
X62184987Y-92838616D01*
X62177638Y-92822524D01*
X62084108Y-92571762D01*
X62079129Y-92554803D01*
X62022241Y-92293291D01*
X62019724Y-92275785D01*
X62000316Y-92004418D01*
X62000000Y-91995572D01*
X62000000Y-90519594D01*
X67645686Y-90519594D01*
X67676114Y-90796125D01*
X67746478Y-91065272D01*
X67828712Y-91258786D01*
X67855284Y-91321314D01*
X68000205Y-91558776D01*
X68000212Y-91558786D01*
X68178161Y-91772616D01*
X68178167Y-91772621D01*
X68292884Y-91875407D01*
X68385357Y-91958263D01*
X68617373Y-92111763D01*
X68869267Y-92229846D01*
X68869274Y-92229848D01*
X68869276Y-92229849D01*
X69135657Y-92309992D01*
X69135664Y-92309993D01*
X69135669Y-92309995D01*
X69410901Y-92350500D01*
X69410906Y-92350500D01*
X69619461Y-92350500D01*
X69619463Y-92350500D01*
X69619467Y-92350499D01*
X69619481Y-92350499D01*
X69666953Y-92347024D01*
X69827455Y-92335277D01*
X70098997Y-92274788D01*
X70358838Y-92175408D01*
X70601440Y-92039253D01*
X70821632Y-91869226D01*
X71014722Y-91668951D01*
X71176593Y-91442696D01*
X71271148Y-91258786D01*
X71303790Y-91195298D01*
X71303794Y-91195288D01*
X71303797Y-91195283D01*
X71393621Y-90931986D01*
X71444152Y-90658416D01*
X71454313Y-90380404D01*
X71436619Y-90219594D01*
X105095686Y-90219594D01*
X105126114Y-90496125D01*
X105196478Y-90765272D01*
X105267323Y-90931986D01*
X105305284Y-91021314D01*
X105411456Y-91195283D01*
X105450205Y-91258776D01*
X105450212Y-91258786D01*
X105628161Y-91472616D01*
X105628167Y-91472621D01*
X105793918Y-91621133D01*
X105835357Y-91658263D01*
X106067373Y-91811763D01*
X106319267Y-91929846D01*
X106319274Y-91929848D01*
X106319276Y-91929849D01*
X106585657Y-92009992D01*
X106585664Y-92009993D01*
X106585669Y-92009995D01*
X106860901Y-92050500D01*
X106860906Y-92050500D01*
X107069461Y-92050500D01*
X107069463Y-92050500D01*
X107069467Y-92050499D01*
X107069481Y-92050499D01*
X107116953Y-92047024D01*
X107277455Y-92035277D01*
X107548997Y-91974788D01*
X107808838Y-91875408D01*
X108051440Y-91739253D01*
X108271632Y-91569226D01*
X108281698Y-91558786D01*
X108364776Y-91472616D01*
X108464722Y-91368951D01*
X108626593Y-91142696D01*
X108702580Y-90994900D01*
X108753790Y-90895298D01*
X108753794Y-90895288D01*
X108753797Y-90895283D01*
X108843621Y-90631986D01*
X108894152Y-90358416D01*
X108904313Y-90080404D01*
X108873886Y-89803876D01*
X108803520Y-89534724D01*
X108694716Y-89278686D01*
X108549792Y-89041219D01*
X108542087Y-89031960D01*
X108371838Y-88827383D01*
X108371832Y-88827378D01*
X108164643Y-88641737D01*
X107932629Y-88488238D01*
X107932627Y-88488237D01*
X107680733Y-88370154D01*
X107680728Y-88370152D01*
X107680723Y-88370150D01*
X107414342Y-88290007D01*
X107414328Y-88290004D01*
X107295565Y-88272526D01*
X107139099Y-88249500D01*
X106930537Y-88249500D01*
X106930518Y-88249500D01*
X106722545Y-88264723D01*
X106722535Y-88264724D01*
X106451007Y-88325210D01*
X106450997Y-88325213D01*
X106191161Y-88424592D01*
X105948561Y-88560746D01*
X105948556Y-88560749D01*
X105728369Y-88730772D01*
X105728359Y-88730781D01*
X105535281Y-88931045D01*
X105535274Y-88931053D01*
X105373412Y-89157295D01*
X105373405Y-89157307D01*
X105246209Y-89404701D01*
X105246205Y-89404711D01*
X105156379Y-89668012D01*
X105156378Y-89668018D01*
X105105848Y-89941584D01*
X105105847Y-89941591D01*
X105095686Y-90219594D01*
X71436619Y-90219594D01*
X71423886Y-90103876D01*
X71353520Y-89834724D01*
X71244716Y-89578686D01*
X71099792Y-89341219D01*
X71008112Y-89231053D01*
X70921838Y-89127383D01*
X70921832Y-89127378D01*
X70714643Y-88941737D01*
X70482629Y-88788238D01*
X70482627Y-88788237D01*
X70230733Y-88670154D01*
X70230728Y-88670152D01*
X70230723Y-88670150D01*
X69964342Y-88590007D01*
X69964328Y-88590004D01*
X69845565Y-88572526D01*
X69689099Y-88549500D01*
X69480537Y-88549500D01*
X69480518Y-88549500D01*
X69272545Y-88564723D01*
X69272535Y-88564724D01*
X69001007Y-88625210D01*
X69000997Y-88625213D01*
X68741161Y-88724592D01*
X68498561Y-88860746D01*
X68498556Y-88860749D01*
X68278369Y-89030772D01*
X68278359Y-89030781D01*
X68085281Y-89231045D01*
X68085274Y-89231053D01*
X67923412Y-89457295D01*
X67923405Y-89457307D01*
X67796209Y-89704701D01*
X67796205Y-89704711D01*
X67706379Y-89968012D01*
X67706378Y-89968018D01*
X67655848Y-90241584D01*
X67655847Y-90241591D01*
X67645686Y-90519594D01*
X62000000Y-90519594D01*
X62000000Y-89098999D01*
X62019685Y-89031960D01*
X62072489Y-88986205D01*
X62124000Y-88974999D01*
X62249999Y-88974999D01*
X62250000Y-88974998D01*
X62250000Y-88125000D01*
X62500000Y-88125000D01*
X62500000Y-88974999D01*
X62711640Y-88974999D01*
X62711654Y-88974998D01*
X62812652Y-88964680D01*
X62976300Y-88910453D01*
X62976311Y-88910448D01*
X63123034Y-88819947D01*
X63123038Y-88819944D01*
X63244944Y-88698038D01*
X63244947Y-88698034D01*
X63335448Y-88551311D01*
X63335453Y-88551300D01*
X63389680Y-88387652D01*
X63399999Y-88286654D01*
X63400000Y-88286641D01*
X63400000Y-88125000D01*
X62500000Y-88125000D01*
X62250000Y-88125000D01*
X62250000Y-87025000D01*
X62500000Y-87025000D01*
X62500000Y-87875000D01*
X63399999Y-87875000D01*
X63399999Y-87713360D01*
X63399998Y-87713345D01*
X63389680Y-87612347D01*
X63335453Y-87448699D01*
X63335448Y-87448688D01*
X63244947Y-87301965D01*
X63244944Y-87301961D01*
X63123038Y-87180055D01*
X63123034Y-87180052D01*
X62976311Y-87089551D01*
X62976300Y-87089546D01*
X62812652Y-87035319D01*
X62711654Y-87025000D01*
X62500000Y-87025000D01*
X62250000Y-87025000D01*
X62124000Y-87025000D01*
X62056961Y-87005315D01*
X62011206Y-86952511D01*
X62000000Y-86901000D01*
X62000000Y-86598000D01*
X80167401Y-86598000D01*
X80167401Y-86759654D01*
X80177719Y-86860652D01*
X80231946Y-87024300D01*
X80231951Y-87024311D01*
X80322452Y-87171034D01*
X80322455Y-87171038D01*
X80444361Y-87292944D01*
X80444365Y-87292947D01*
X80591088Y-87383448D01*
X80591099Y-87383453D01*
X80754747Y-87437680D01*
X80855751Y-87447999D01*
X81079899Y-87447999D01*
X81079900Y-87447998D01*
X81079900Y-86598000D01*
X80167401Y-86598000D01*
X62000000Y-86598000D01*
X62000000Y-86348000D01*
X80167400Y-86348000D01*
X81079900Y-86348000D01*
X81079900Y-84693000D01*
X80167401Y-84693000D01*
X80167401Y-84854654D01*
X80177719Y-84955652D01*
X80231946Y-85119300D01*
X80231951Y-85119311D01*
X80322452Y-85266034D01*
X80322455Y-85266038D01*
X80444361Y-85387944D01*
X80444365Y-85387947D01*
X80488162Y-85414962D01*
X80534887Y-85466910D01*
X80546108Y-85535873D01*
X80518265Y-85599955D01*
X80488162Y-85626038D01*
X80444365Y-85653052D01*
X80444361Y-85653055D01*
X80322455Y-85774961D01*
X80322452Y-85774965D01*
X80231951Y-85921688D01*
X80231946Y-85921699D01*
X80177719Y-86085347D01*
X80167400Y-86186345D01*
X80167400Y-86348000D01*
X62000000Y-86348000D01*
X62000000Y-85004427D01*
X62000316Y-84995581D01*
X62003172Y-84955652D01*
X62019724Y-84724207D01*
X62022240Y-84706710D01*
X62079130Y-84445192D01*
X62084107Y-84428241D01*
X62177640Y-84177470D01*
X62184985Y-84161388D01*
X62313248Y-83926491D01*
X62322798Y-83911630D01*
X62483195Y-83697366D01*
X62494767Y-83684012D01*
X62628779Y-83550000D01*
X71325001Y-83550000D01*
X71325001Y-83761654D01*
X71335319Y-83862652D01*
X71389546Y-84026300D01*
X71389551Y-84026311D01*
X71480052Y-84173034D01*
X71480055Y-84173038D01*
X71601961Y-84294944D01*
X71601965Y-84294947D01*
X71748688Y-84385448D01*
X71748699Y-84385453D01*
X71912347Y-84439680D01*
X72013351Y-84449999D01*
X72174999Y-84449999D01*
X72175000Y-84449998D01*
X72175000Y-83550000D01*
X72425000Y-83550000D01*
X72425000Y-84449999D01*
X72586640Y-84449999D01*
X72586654Y-84449998D01*
X72655154Y-84443000D01*
X80167400Y-84443000D01*
X81079900Y-84443000D01*
X81079900Y-83593000D01*
X80855761Y-83593000D01*
X80855744Y-83593001D01*
X80754747Y-83603319D01*
X80591099Y-83657546D01*
X80591088Y-83657551D01*
X80444365Y-83748052D01*
X80444361Y-83748055D01*
X80322455Y-83869961D01*
X80322452Y-83869965D01*
X80231951Y-84016688D01*
X80231946Y-84016699D01*
X80177719Y-84180347D01*
X80167400Y-84281345D01*
X80167400Y-84443000D01*
X72655154Y-84443000D01*
X72687652Y-84439680D01*
X72851300Y-84385453D01*
X72851311Y-84385448D01*
X72998034Y-84294947D01*
X72998038Y-84294944D01*
X73119944Y-84173038D01*
X73119947Y-84173034D01*
X73210448Y-84026311D01*
X73210453Y-84026300D01*
X73264680Y-83862652D01*
X73274999Y-83761654D01*
X73275000Y-83761641D01*
X73275000Y-83550000D01*
X72425000Y-83550000D01*
X72175000Y-83550000D01*
X71325001Y-83550000D01*
X62628779Y-83550000D01*
X62684012Y-83494767D01*
X62697366Y-83483195D01*
X62911630Y-83322798D01*
X62926491Y-83313248D01*
X63161388Y-83184985D01*
X63177470Y-83177640D01*
X63428241Y-83084107D01*
X63445192Y-83079130D01*
X63706710Y-83022240D01*
X63724207Y-83019724D01*
X63995582Y-83000316D01*
X64004428Y-83000000D01*
X71201000Y-83000000D01*
X71268039Y-83019685D01*
X71313794Y-83072489D01*
X71325000Y-83124000D01*
X71325000Y-83300000D01*
X73274999Y-83300000D01*
X73274999Y-83124000D01*
X73294684Y-83056961D01*
X73347488Y-83011206D01*
X73398999Y-83000000D01*
X81000000Y-83000000D01*
X82722000Y-83000000D01*
X82722000Y-83468500D01*
X82702315Y-83535539D01*
X82649511Y-83581294D01*
X82598006Y-83592500D01*
X82580733Y-83592500D01*
X82580712Y-83592501D01*
X82479647Y-83602825D01*
X82315884Y-83657092D01*
X82315881Y-83657093D01*
X82169048Y-83747661D01*
X82154725Y-83761984D01*
X82093401Y-83795468D01*
X82023709Y-83790482D01*
X81979365Y-83761982D01*
X81965438Y-83748055D01*
X81965434Y-83748052D01*
X81818711Y-83657551D01*
X81818700Y-83657546D01*
X81655052Y-83603319D01*
X81554054Y-83593000D01*
X81329900Y-83593000D01*
X81329900Y-87447999D01*
X81554040Y-87447999D01*
X81554054Y-87447998D01*
X81655052Y-87437680D01*
X81818700Y-87383453D01*
X81818711Y-87383448D01*
X81965435Y-87292947D01*
X81979360Y-87279021D01*
X82040682Y-87245533D01*
X82110373Y-87250514D01*
X82154727Y-87279017D01*
X82169050Y-87293340D01*
X82315884Y-87383908D01*
X82479647Y-87438174D01*
X82580723Y-87448500D01*
X83279076Y-87448499D01*
X83279084Y-87448498D01*
X83279087Y-87448498D01*
X83334430Y-87442844D01*
X83380153Y-87438174D01*
X83543916Y-87383908D01*
X83690750Y-87293340D01*
X83812740Y-87171350D01*
X83903308Y-87024516D01*
X83957574Y-86860753D01*
X83967900Y-86759677D01*
X83967899Y-86210369D01*
X87619700Y-86210369D01*
X87619701Y-86210387D01*
X87630025Y-86311452D01*
X87662444Y-86409283D01*
X87684292Y-86475216D01*
X87774860Y-86622050D01*
X87896850Y-86744040D01*
X88043684Y-86834608D01*
X88207447Y-86888874D01*
X88308523Y-86899200D01*
X88881876Y-86899199D01*
X88881884Y-86899198D01*
X88881887Y-86899198D01*
X88937230Y-86893544D01*
X88982953Y-86888874D01*
X89146716Y-86834608D01*
X89293550Y-86744040D01*
X89415540Y-86622050D01*
X89492424Y-86497401D01*
X89544370Y-86450679D01*
X89597961Y-86438500D01*
X90454100Y-86438500D01*
X90521139Y-86458185D01*
X90566894Y-86510989D01*
X90578100Y-86562500D01*
X90578100Y-87079751D01*
X90588542Y-87166716D01*
X90643110Y-87305092D01*
X90643111Y-87305094D01*
X90732986Y-87423613D01*
X90851505Y-87513488D01*
X90851508Y-87513490D01*
X90989882Y-87568057D01*
X91076841Y-87578500D01*
X92290358Y-87578499D01*
X92377318Y-87568057D01*
X92515692Y-87513490D01*
X92634213Y-87423613D01*
X92724090Y-87305092D01*
X92778657Y-87166718D01*
X92789100Y-87079759D01*
X92789099Y-86878702D01*
X92808783Y-86811665D01*
X92861587Y-86765910D01*
X92930745Y-86755966D01*
X92994301Y-86784991D01*
X93000780Y-86791023D01*
X93051781Y-86842024D01*
X93085266Y-86903347D01*
X93088100Y-86929704D01*
X93088100Y-87079751D01*
X93098542Y-87166716D01*
X93153110Y-87305092D01*
X93153111Y-87305094D01*
X93242986Y-87423613D01*
X93361505Y-87513488D01*
X93361508Y-87513490D01*
X93499882Y-87568057D01*
X93586841Y-87578500D01*
X94800358Y-87578499D01*
X94887318Y-87568057D01*
X95025692Y-87513490D01*
X95144213Y-87423613D01*
X95234090Y-87305092D01*
X95288657Y-87166718D01*
X95299100Y-87079759D01*
X95299099Y-86496242D01*
X95288657Y-86409282D01*
X95268357Y-86357806D01*
X95262077Y-86288220D01*
X95268359Y-86266826D01*
X95288168Y-86216596D01*
X95298600Y-86129721D01*
X95298600Y-85963000D01*
X94192600Y-85963000D01*
X94125561Y-85943315D01*
X94079806Y-85890511D01*
X94068600Y-85839000D01*
X94068600Y-85837000D01*
X94088285Y-85769961D01*
X94141089Y-85724206D01*
X94192600Y-85713000D01*
X95298600Y-85713000D01*
X95298600Y-85546278D01*
X95288167Y-85459401D01*
X95268359Y-85409171D01*
X95262077Y-85339584D01*
X95268356Y-85318195D01*
X95288657Y-85266718D01*
X95299100Y-85179759D01*
X95299099Y-84596242D01*
X95288657Y-84509282D01*
X95234090Y-84370908D01*
X95234088Y-84370905D01*
X95144213Y-84252386D01*
X95025694Y-84162511D01*
X95025692Y-84162510D01*
X94887318Y-84107943D01*
X94887317Y-84107942D01*
X94887316Y-84107942D01*
X94800359Y-84097500D01*
X93622695Y-84097500D01*
X93555656Y-84077815D01*
X93509901Y-84025011D01*
X93499957Y-83955853D01*
X93528982Y-83892297D01*
X93534991Y-83885842D01*
X94577744Y-82843089D01*
X94589922Y-82832410D01*
X94614982Y-82813182D01*
X94711236Y-82687741D01*
X94771744Y-82541662D01*
X94779989Y-82479035D01*
X94779998Y-82478970D01*
X94792382Y-82384901D01*
X94792382Y-82384898D01*
X94788261Y-82353597D01*
X94787200Y-82337412D01*
X94787200Y-81691900D01*
X94806885Y-81624861D01*
X94846101Y-81586363D01*
X94885050Y-81562340D01*
X95007040Y-81440350D01*
X95097608Y-81293516D01*
X95151874Y-81129753D01*
X95162200Y-81028677D01*
X95162199Y-80330324D01*
X95151874Y-80229247D01*
X95097608Y-80065484D01*
X95007040Y-79918650D01*
X94992717Y-79904327D01*
X94959232Y-79843004D01*
X94964216Y-79773312D01*
X94992721Y-79728960D01*
X95006647Y-79715035D01*
X95097148Y-79568311D01*
X95097153Y-79568300D01*
X95151380Y-79404652D01*
X95161699Y-79303654D01*
X95161700Y-79303641D01*
X95161700Y-79079500D01*
X93211701Y-79079500D01*
X93211701Y-79303654D01*
X93222019Y-79404652D01*
X93276246Y-79568300D01*
X93276251Y-79568311D01*
X93366752Y-79715034D01*
X93366755Y-79715038D01*
X93380682Y-79728965D01*
X93414167Y-79790288D01*
X93409183Y-79859980D01*
X93380684Y-79904325D01*
X93366361Y-79918648D01*
X93275793Y-80065481D01*
X93275791Y-80065486D01*
X93263758Y-80101800D01*
X93221526Y-80229247D01*
X93221526Y-80229248D01*
X93221525Y-80229248D01*
X93211200Y-80330315D01*
X93211200Y-81028669D01*
X93211201Y-81028687D01*
X93221525Y-81129752D01*
X93246349Y-81204664D01*
X93273844Y-81287638D01*
X93275792Y-81293515D01*
X93275793Y-81293518D01*
X93307754Y-81345335D01*
X93366360Y-81440350D01*
X93488350Y-81562340D01*
X93527297Y-81586362D01*
X93574020Y-81638307D01*
X93586200Y-81691900D01*
X93586200Y-82084802D01*
X93566515Y-82151841D01*
X93549881Y-82172483D01*
X91661182Y-84061181D01*
X91599859Y-84094666D01*
X91573501Y-84097500D01*
X91076848Y-84097500D01*
X90989883Y-84107942D01*
X90851507Y-84162510D01*
X90851505Y-84162511D01*
X90732986Y-84252386D01*
X90643111Y-84370905D01*
X90588542Y-84509283D01*
X90578100Y-84596240D01*
X90578100Y-84596241D01*
X90578100Y-84887792D01*
X90578101Y-85113500D01*
X90558417Y-85180539D01*
X90505613Y-85226294D01*
X90454101Y-85237500D01*
X89569342Y-85237500D01*
X89502303Y-85217815D01*
X89463804Y-85178597D01*
X89415542Y-85100353D01*
X89415539Y-85100349D01*
X89401217Y-85086027D01*
X89367732Y-85024704D01*
X89372716Y-84955012D01*
X89401221Y-84910660D01*
X89415147Y-84896735D01*
X89505648Y-84750011D01*
X89505653Y-84750000D01*
X89559880Y-84586352D01*
X89570199Y-84485354D01*
X89570200Y-84485341D01*
X89570200Y-84261200D01*
X87620201Y-84261200D01*
X87620201Y-84485354D01*
X87630519Y-84586352D01*
X87684746Y-84750000D01*
X87684751Y-84750011D01*
X87775252Y-84896734D01*
X87775255Y-84896738D01*
X87789182Y-84910665D01*
X87822667Y-84971988D01*
X87817683Y-85041680D01*
X87789184Y-85086025D01*
X87774861Y-85100348D01*
X87684293Y-85247181D01*
X87684291Y-85247186D01*
X87677820Y-85266715D01*
X87630026Y-85410947D01*
X87630026Y-85410948D01*
X87630025Y-85410948D01*
X87619700Y-85512015D01*
X87619700Y-86210369D01*
X83967899Y-86210369D01*
X83967899Y-86186324D01*
X83957574Y-86085247D01*
X83903308Y-85921484D01*
X83812740Y-85774650D01*
X83690750Y-85652660D01*
X83690749Y-85652659D01*
X83667225Y-85638149D01*
X83647589Y-85626038D01*
X83600865Y-85574091D01*
X83589642Y-85505129D01*
X83617485Y-85441047D01*
X83647588Y-85414962D01*
X83690750Y-85388340D01*
X83812740Y-85266350D01*
X83903308Y-85119516D01*
X83957574Y-84955753D01*
X83967900Y-84854677D01*
X83967899Y-84281324D01*
X83965843Y-84261200D01*
X83957574Y-84180247D01*
X83957573Y-84180244D01*
X83929294Y-84094903D01*
X83923000Y-84055899D01*
X83923000Y-84011200D01*
X87620200Y-84011200D01*
X88470200Y-84011200D01*
X88470200Y-83098700D01*
X88720200Y-83098700D01*
X88720200Y-84011200D01*
X89570199Y-84011200D01*
X89570199Y-83787060D01*
X89570198Y-83787045D01*
X89559880Y-83686047D01*
X89505653Y-83522399D01*
X89505648Y-83522388D01*
X89415147Y-83375665D01*
X89415144Y-83375661D01*
X89293238Y-83253755D01*
X89293234Y-83253752D01*
X89146511Y-83163251D01*
X89146500Y-83163246D01*
X88982852Y-83109019D01*
X88881854Y-83098700D01*
X88720200Y-83098700D01*
X88470200Y-83098700D01*
X88308561Y-83098700D01*
X88308544Y-83098701D01*
X88207547Y-83109019D01*
X88043899Y-83163246D01*
X88043888Y-83163251D01*
X87897165Y-83253752D01*
X87897161Y-83253755D01*
X87775255Y-83375661D01*
X87775252Y-83375665D01*
X87684751Y-83522388D01*
X87684746Y-83522399D01*
X87630519Y-83686047D01*
X87620200Y-83787045D01*
X87620200Y-84011200D01*
X83923000Y-84011200D01*
X83923000Y-80652100D01*
X90722501Y-80652100D01*
X90722501Y-80876254D01*
X90732819Y-80977252D01*
X90787046Y-81140900D01*
X90787051Y-81140911D01*
X90877552Y-81287634D01*
X90877555Y-81287638D01*
X90999461Y-81409544D01*
X90999465Y-81409547D01*
X91146188Y-81500048D01*
X91146199Y-81500053D01*
X91309847Y-81554280D01*
X91410851Y-81564599D01*
X91572499Y-81564599D01*
X91572500Y-81564598D01*
X91572500Y-80652100D01*
X91822500Y-80652100D01*
X91822500Y-81564599D01*
X91984140Y-81564599D01*
X91984154Y-81564598D01*
X92085152Y-81554280D01*
X92248800Y-81500053D01*
X92248811Y-81500048D01*
X92395534Y-81409547D01*
X92395538Y-81409544D01*
X92517444Y-81287638D01*
X92517447Y-81287634D01*
X92607948Y-81140911D01*
X92607953Y-81140900D01*
X92662180Y-80977252D01*
X92672499Y-80876254D01*
X92672500Y-80876241D01*
X92672500Y-80652100D01*
X91822500Y-80652100D01*
X91572500Y-80652100D01*
X90722501Y-80652100D01*
X83923000Y-80652100D01*
X83923000Y-80101800D01*
X83942685Y-80034761D01*
X83944929Y-80031389D01*
X83947318Y-80027930D01*
X84007640Y-79868872D01*
X84028145Y-79700000D01*
X84007640Y-79531128D01*
X83947318Y-79372070D01*
X83850683Y-79232071D01*
X83723352Y-79119266D01*
X83723349Y-79119263D01*
X83572726Y-79040210D01*
X83407556Y-78999500D01*
X83237444Y-78999500D01*
X83237442Y-78999500D01*
X83161294Y-79018268D01*
X83091491Y-79015198D01*
X83034430Y-78974878D01*
X83008225Y-78910108D01*
X83007936Y-78889037D01*
X83019724Y-78724207D01*
X83022240Y-78706710D01*
X83034981Y-78648140D01*
X83068466Y-78586819D01*
X83129789Y-78553334D01*
X83156147Y-78550500D01*
X88899903Y-78550500D01*
X88966942Y-78570185D01*
X88987584Y-78586819D01*
X89593899Y-79193134D01*
X89604593Y-79205328D01*
X89623818Y-79230382D01*
X89652452Y-79252353D01*
X89705733Y-79293237D01*
X89705734Y-79293239D01*
X89719291Y-79303641D01*
X89749259Y-79326636D01*
X89749261Y-79326636D01*
X89749263Y-79326638D01*
X89822298Y-79356890D01*
X89895338Y-79387144D01*
X89973719Y-79397463D01*
X90052099Y-79407782D01*
X90052100Y-79407782D01*
X90083402Y-79403660D01*
X90099587Y-79402600D01*
X90709048Y-79402600D01*
X90776087Y-79422285D01*
X90814586Y-79461503D01*
X90877157Y-79562946D01*
X90877160Y-79562950D01*
X90891482Y-79577272D01*
X90924967Y-79638595D01*
X90919983Y-79708287D01*
X90891485Y-79752632D01*
X90877552Y-79766565D01*
X90787051Y-79913288D01*
X90787046Y-79913299D01*
X90732819Y-80076947D01*
X90722500Y-80177945D01*
X90722500Y-80402100D01*
X92672499Y-80402100D01*
X92672499Y-80177960D01*
X92672498Y-80177945D01*
X92662180Y-80076947D01*
X92607953Y-79913299D01*
X92607948Y-79913288D01*
X92517447Y-79766565D01*
X92517444Y-79766561D01*
X92503517Y-79752634D01*
X92470032Y-79691311D01*
X92475016Y-79621619D01*
X92503517Y-79577272D01*
X92517840Y-79562950D01*
X92608408Y-79416116D01*
X92662674Y-79252353D01*
X92673000Y-79151277D01*
X92673000Y-78829500D01*
X93211700Y-78829500D01*
X94061700Y-78829500D01*
X94061700Y-77917000D01*
X94311700Y-77917000D01*
X94311700Y-78829500D01*
X95161699Y-78829500D01*
X95161699Y-78605360D01*
X95161698Y-78605345D01*
X95151380Y-78504347D01*
X95097153Y-78340699D01*
X95097148Y-78340688D01*
X95006647Y-78193965D01*
X95006644Y-78193961D01*
X94884738Y-78072055D01*
X94884734Y-78072052D01*
X94738011Y-77981551D01*
X94738000Y-77981546D01*
X94574352Y-77927319D01*
X94473354Y-77917000D01*
X94311700Y-77917000D01*
X94061700Y-77917000D01*
X93900061Y-77917000D01*
X93900044Y-77917001D01*
X93799047Y-77927319D01*
X93635399Y-77981546D01*
X93635388Y-77981551D01*
X93488665Y-78072052D01*
X93488661Y-78072055D01*
X93366755Y-78193961D01*
X93366752Y-78193965D01*
X93276251Y-78340688D01*
X93276246Y-78340699D01*
X93222019Y-78504347D01*
X93211700Y-78605345D01*
X93211700Y-78829500D01*
X92673000Y-78829500D01*
X92672999Y-78452924D01*
X92671352Y-78436804D01*
X92662674Y-78351847D01*
X92638753Y-78279660D01*
X92608408Y-78188084D01*
X92517840Y-78041250D01*
X92395850Y-77919260D01*
X92249016Y-77828692D01*
X92085253Y-77774426D01*
X92085251Y-77774425D01*
X91984178Y-77764100D01*
X91410830Y-77764100D01*
X91410812Y-77764101D01*
X91309747Y-77774425D01*
X91145984Y-77828692D01*
X91145981Y-77828693D01*
X90999148Y-77919261D01*
X90877160Y-78041249D01*
X90877157Y-78041253D01*
X90814586Y-78142697D01*
X90762638Y-78189422D01*
X90709048Y-78201600D01*
X90352197Y-78201600D01*
X90285158Y-78181915D01*
X90264516Y-78165281D01*
X89842001Y-77742766D01*
X89808516Y-77681443D01*
X89805682Y-77655085D01*
X89805682Y-77649998D01*
X89801561Y-77618697D01*
X89800500Y-77602512D01*
X89800500Y-77190600D01*
X98237741Y-77190600D01*
X98258336Y-77426003D01*
X98258338Y-77426013D01*
X98319494Y-77654255D01*
X98319496Y-77654259D01*
X98319497Y-77654263D01*
X98375530Y-77774425D01*
X98419365Y-77868430D01*
X98419367Y-77868434D01*
X98498570Y-77981546D01*
X98554901Y-78061996D01*
X98554906Y-78062002D01*
X98676830Y-78183926D01*
X98710315Y-78245249D01*
X98705331Y-78314941D01*
X98663459Y-78370874D01*
X98632483Y-78387789D01*
X98501069Y-78436803D01*
X98501064Y-78436806D01*
X98385855Y-78523052D01*
X98385852Y-78523055D01*
X98299606Y-78638264D01*
X98299602Y-78638271D01*
X98249308Y-78773117D01*
X98244986Y-78813323D01*
X98242901Y-78832723D01*
X98242900Y-78832735D01*
X98242900Y-80628470D01*
X98242901Y-80628476D01*
X98249308Y-80688083D01*
X98299602Y-80822928D01*
X98299606Y-80822935D01*
X98385852Y-80938144D01*
X98385855Y-80938147D01*
X98501064Y-81024393D01*
X98501071Y-81024397D01*
X98635917Y-81074691D01*
X98635916Y-81074691D01*
X98642844Y-81075435D01*
X98695527Y-81081100D01*
X100491272Y-81081099D01*
X100550883Y-81074691D01*
X100685731Y-81024396D01*
X100800946Y-80938146D01*
X100887196Y-80822931D01*
X100937491Y-80688083D01*
X100943900Y-80628473D01*
X100943899Y-78832728D01*
X100937491Y-78773117D01*
X100887196Y-78638269D01*
X100887195Y-78638268D01*
X100887193Y-78638264D01*
X100800947Y-78523055D01*
X100800944Y-78523052D01*
X100685735Y-78436806D01*
X100685728Y-78436802D01*
X100554317Y-78387789D01*
X100498383Y-78345918D01*
X100473966Y-78280453D01*
X100488818Y-78212180D01*
X100509963Y-78183932D01*
X100631895Y-78062001D01*
X100767435Y-77868430D01*
X100867303Y-77654263D01*
X100928463Y-77426008D01*
X100949059Y-77190600D01*
X100928463Y-76955192D01*
X100867303Y-76726937D01*
X100767435Y-76512771D01*
X100631895Y-76319199D01*
X100631894Y-76319197D01*
X100464802Y-76152106D01*
X100464796Y-76152101D01*
X100279242Y-76022175D01*
X100235617Y-75967598D01*
X100228423Y-75898100D01*
X100259946Y-75835745D01*
X100279242Y-75819025D01*
X100338096Y-75777815D01*
X100464801Y-75689095D01*
X100631895Y-75522001D01*
X100767435Y-75328430D01*
X100867303Y-75114263D01*
X100928463Y-74886008D01*
X100949059Y-74650600D01*
X100928463Y-74415192D01*
X100867303Y-74186937D01*
X100767435Y-73972771D01*
X100631895Y-73779199D01*
X100631894Y-73779197D01*
X100464802Y-73612106D01*
X100464796Y-73612101D01*
X100279242Y-73482175D01*
X100235617Y-73427598D01*
X100228423Y-73358100D01*
X100259946Y-73295745D01*
X100279242Y-73279025D01*
X100338584Y-73237473D01*
X100464801Y-73149095D01*
X100631895Y-72982001D01*
X100767435Y-72788430D01*
X100795548Y-72728142D01*
X103430900Y-72728142D01*
X103445324Y-72837711D01*
X103445326Y-72837720D01*
X103501803Y-72974068D01*
X103501804Y-72974069D01*
X103591646Y-73091154D01*
X103708731Y-73180996D01*
X103845080Y-73237474D01*
X103954659Y-73251900D01*
X104508140Y-73251899D01*
X104508142Y-73251899D01*
X104572528Y-73243422D01*
X104617720Y-73237474D01*
X104754069Y-73180996D01*
X104871154Y-73091154D01*
X104960996Y-72974069D01*
X105017474Y-72837720D01*
X105031900Y-72728141D01*
X105031899Y-71624499D01*
X105051584Y-71557461D01*
X105104387Y-71511706D01*
X105155899Y-71500500D01*
X105206900Y-71500500D01*
X105273939Y-71520185D01*
X105319694Y-71572989D01*
X105330900Y-71624500D01*
X105330900Y-72728142D01*
X105345324Y-72837711D01*
X105345326Y-72837720D01*
X105401803Y-72974068D01*
X105401804Y-72974069D01*
X105491646Y-73091154D01*
X105608731Y-73180996D01*
X105745080Y-73237474D01*
X105854659Y-73251900D01*
X106408140Y-73251899D01*
X106408142Y-73251899D01*
X106472528Y-73243422D01*
X106517720Y-73237474D01*
X106654069Y-73180996D01*
X106771154Y-73091154D01*
X106860996Y-72974069D01*
X106917474Y-72837720D01*
X106931900Y-72728141D01*
X106931899Y-71424660D01*
X106930660Y-71415250D01*
X106917475Y-71315088D01*
X106917474Y-71315080D01*
X106860996Y-71178731D01*
X106771154Y-71061646D01*
X106677489Y-70989774D01*
X106636287Y-70933348D01*
X106632132Y-70863602D01*
X106666344Y-70802682D01*
X106677484Y-70793028D01*
X106771154Y-70721154D01*
X106860996Y-70604069D01*
X106917474Y-70467720D01*
X106931900Y-70358141D01*
X106931899Y-69054660D01*
X106917474Y-68945080D01*
X106860996Y-68808731D01*
X106771154Y-68691646D01*
X106654069Y-68601804D01*
X106654068Y-68601803D01*
X106517720Y-68545326D01*
X106517718Y-68545325D01*
X106408141Y-68530900D01*
X105854657Y-68530900D01*
X105745083Y-68545324D01*
X105745077Y-68545326D01*
X105702657Y-68562897D01*
X105633187Y-68570366D01*
X105609716Y-68563691D01*
X105555234Y-68542207D01*
X105465237Y-68531400D01*
X105306400Y-68531400D01*
X105306400Y-69707400D01*
X105286715Y-69774439D01*
X105233911Y-69820194D01*
X105182400Y-69831400D01*
X105180400Y-69831400D01*
X105113361Y-69811715D01*
X105067606Y-69758911D01*
X105056400Y-69707400D01*
X105056400Y-68531400D01*
X104897563Y-68531400D01*
X104807563Y-68542207D01*
X104753081Y-68563691D01*
X104683495Y-68569972D01*
X104660143Y-68562898D01*
X104642157Y-68555448D01*
X104617720Y-68545326D01*
X104617718Y-68545325D01*
X104508141Y-68530900D01*
X103954657Y-68530900D01*
X103845088Y-68545324D01*
X103845079Y-68545326D01*
X103708731Y-68601803D01*
X103591646Y-68691646D01*
X103501803Y-68808731D01*
X103445326Y-68945079D01*
X103445325Y-68945081D01*
X103430900Y-69054658D01*
X103430900Y-70358142D01*
X103445324Y-70467711D01*
X103445326Y-70467720D01*
X103501803Y-70604068D01*
X103591646Y-70721154D01*
X103635159Y-70754543D01*
X103674233Y-70805464D01*
X103698424Y-70863865D01*
X103705893Y-70933335D01*
X103674619Y-70995814D01*
X103659350Y-71009694D01*
X103591646Y-71061645D01*
X103501803Y-71178731D01*
X103445326Y-71315079D01*
X103445325Y-71315081D01*
X103430900Y-71424658D01*
X103430900Y-72728142D01*
X100795548Y-72728142D01*
X100867303Y-72574263D01*
X100928463Y-72346008D01*
X100949059Y-72110600D01*
X100928463Y-71875192D01*
X100867303Y-71646937D01*
X100767435Y-71432771D01*
X100761755Y-71424658D01*
X100631894Y-71239197D01*
X100464802Y-71072106D01*
X100464796Y-71072101D01*
X100279242Y-70942175D01*
X100235617Y-70887598D01*
X100228423Y-70818100D01*
X100259946Y-70755745D01*
X100279242Y-70739025D01*
X100365422Y-70678681D01*
X100464801Y-70609095D01*
X100631895Y-70442001D01*
X100767435Y-70248430D01*
X100867303Y-70034263D01*
X100928463Y-69806008D01*
X100949059Y-69570600D01*
X100928463Y-69335192D01*
X100867303Y-69106937D01*
X100767435Y-68892771D01*
X100708811Y-68809046D01*
X100631894Y-68699197D01*
X100464802Y-68532106D01*
X100464801Y-68532105D01*
X100278805Y-68401869D01*
X100235181Y-68347292D01*
X100227988Y-68277793D01*
X100259510Y-68215439D01*
X100278805Y-68198719D01*
X100464482Y-68068705D01*
X100631505Y-67901682D01*
X100767000Y-67708178D01*
X100866829Y-67494092D01*
X100866833Y-67494083D01*
X100927967Y-67265926D01*
X100927969Y-67265916D01*
X100937621Y-67155600D01*
X100077805Y-67155600D01*
X100093400Y-67102489D01*
X100093400Y-66958711D01*
X100077805Y-66905600D01*
X100937621Y-66905600D01*
X100927969Y-66795283D01*
X100927967Y-66795273D01*
X100866833Y-66567116D01*
X100866829Y-66567107D01*
X100767000Y-66353022D01*
X100766999Y-66353020D01*
X100631513Y-66159526D01*
X100631508Y-66159520D01*
X100464482Y-65992494D01*
X100278368Y-65862175D01*
X100234744Y-65807598D01*
X100227551Y-65738099D01*
X100259073Y-65675745D01*
X100278368Y-65659025D01*
X100464482Y-65528705D01*
X100631505Y-65361682D01*
X100767000Y-65168178D01*
X100866829Y-64954092D01*
X100866833Y-64954083D01*
X100927967Y-64725926D01*
X100927969Y-64725916D01*
X100937621Y-64615600D01*
X100077805Y-64615600D01*
X100093400Y-64562489D01*
X100093400Y-64418711D01*
X100077805Y-64365600D01*
X100937621Y-64365600D01*
X100927969Y-64255283D01*
X100927967Y-64255273D01*
X100866833Y-64027116D01*
X100866829Y-64027107D01*
X100767000Y-63813022D01*
X100766999Y-63813020D01*
X100631513Y-63619526D01*
X100631508Y-63619520D01*
X100464478Y-63452490D01*
X100278805Y-63322479D01*
X100235180Y-63267902D01*
X100227988Y-63198404D01*
X100259510Y-63136049D01*
X100278806Y-63119330D01*
X100285447Y-63114680D01*
X100464801Y-62989095D01*
X100631895Y-62822001D01*
X100767435Y-62628430D01*
X100867303Y-62414263D01*
X100928463Y-62186008D01*
X100949059Y-61950600D01*
X100928463Y-61715192D01*
X100867303Y-61486937D01*
X100767435Y-61272771D01*
X100744175Y-61239551D01*
X100631894Y-61079197D01*
X100464802Y-60912106D01*
X100464795Y-60912101D01*
X100271234Y-60776567D01*
X100271230Y-60776565D01*
X100239225Y-60761641D01*
X100057063Y-60676697D01*
X100057059Y-60676696D01*
X100057055Y-60676694D01*
X99828813Y-60615538D01*
X99828803Y-60615536D01*
X99593401Y-60594941D01*
X99593399Y-60594941D01*
X99357996Y-60615536D01*
X99357986Y-60615538D01*
X99129744Y-60676694D01*
X99129735Y-60676698D01*
X98915571Y-60776564D01*
X98915569Y-60776565D01*
X98721997Y-60912105D01*
X98554905Y-61079197D01*
X98419365Y-61272769D01*
X98419364Y-61272771D01*
X98319498Y-61486935D01*
X98319494Y-61486944D01*
X98258338Y-61715186D01*
X98258336Y-61715196D01*
X98237741Y-61950599D01*
X98237741Y-61950600D01*
X98258336Y-62186003D01*
X98258338Y-62186013D01*
X98319494Y-62414255D01*
X98319496Y-62414259D01*
X98319497Y-62414263D01*
X98414468Y-62617929D01*
X98419365Y-62628430D01*
X98419367Y-62628434D01*
X98554901Y-62821995D01*
X98554906Y-62822002D01*
X98721997Y-62989093D01*
X98722003Y-62989098D01*
X98907994Y-63119330D01*
X98951619Y-63173907D01*
X98958813Y-63243405D01*
X98927290Y-63305760D01*
X98907995Y-63322480D01*
X98722322Y-63452490D01*
X98722320Y-63452491D01*
X98555291Y-63619520D01*
X98555286Y-63619526D01*
X98419800Y-63813020D01*
X98419799Y-63813022D01*
X98319970Y-64027107D01*
X98319966Y-64027116D01*
X98258832Y-64255273D01*
X98258830Y-64255283D01*
X98249179Y-64365600D01*
X99108995Y-64365600D01*
X99093400Y-64418711D01*
X99093400Y-64562489D01*
X99108995Y-64615600D01*
X98249179Y-64615600D01*
X98258830Y-64725916D01*
X98258832Y-64725926D01*
X98319966Y-64954083D01*
X98319970Y-64954092D01*
X98419799Y-65168178D01*
X98555294Y-65361682D01*
X98722317Y-65528705D01*
X98908431Y-65659025D01*
X98952056Y-65713603D01*
X98959248Y-65783101D01*
X98927726Y-65845456D01*
X98908431Y-65862175D01*
X98722322Y-65992490D01*
X98722320Y-65992491D01*
X98555291Y-66159520D01*
X98555286Y-66159526D01*
X98419800Y-66353020D01*
X98419799Y-66353022D01*
X98319970Y-66567107D01*
X98319966Y-66567116D01*
X98258832Y-66795273D01*
X98258830Y-66795283D01*
X98249179Y-66905600D01*
X99108995Y-66905600D01*
X99093400Y-66958711D01*
X99093400Y-67102489D01*
X99108995Y-67155600D01*
X98249179Y-67155600D01*
X98258830Y-67265916D01*
X98258832Y-67265926D01*
X98319966Y-67494083D01*
X98319970Y-67494092D01*
X98419799Y-67708178D01*
X98555294Y-67901682D01*
X98722317Y-68068705D01*
X98907995Y-68198719D01*
X98951619Y-68253296D01*
X98958812Y-68322795D01*
X98927290Y-68385149D01*
X98907995Y-68401869D01*
X98721994Y-68532108D01*
X98554905Y-68699197D01*
X98419365Y-68892769D01*
X98419364Y-68892771D01*
X98319498Y-69106935D01*
X98319494Y-69106944D01*
X98258338Y-69335186D01*
X98258336Y-69335196D01*
X98237741Y-69570599D01*
X98237741Y-69570600D01*
X98258336Y-69806003D01*
X98258338Y-69806013D01*
X98319494Y-70034255D01*
X98319496Y-70034259D01*
X98319497Y-70034263D01*
X98376116Y-70155682D01*
X98419365Y-70248430D01*
X98419367Y-70248434D01*
X98554901Y-70441995D01*
X98554906Y-70442002D01*
X98721997Y-70609093D01*
X98722003Y-70609098D01*
X98907558Y-70739025D01*
X98951183Y-70793602D01*
X98958377Y-70863100D01*
X98926854Y-70925455D01*
X98907558Y-70942175D01*
X98721997Y-71072105D01*
X98554905Y-71239197D01*
X98419365Y-71432769D01*
X98419364Y-71432771D01*
X98319498Y-71646935D01*
X98319494Y-71646944D01*
X98258338Y-71875186D01*
X98258336Y-71875196D01*
X98237741Y-72110599D01*
X98237741Y-72110600D01*
X98258336Y-72346003D01*
X98258338Y-72346013D01*
X98319494Y-72574255D01*
X98319496Y-72574259D01*
X98319497Y-72574263D01*
X98391251Y-72728140D01*
X98419365Y-72788430D01*
X98419367Y-72788434D01*
X98554901Y-72981995D01*
X98554906Y-72982002D01*
X98721997Y-73149093D01*
X98722003Y-73149098D01*
X98907558Y-73279025D01*
X98951183Y-73333602D01*
X98958377Y-73403100D01*
X98926854Y-73465455D01*
X98907558Y-73482175D01*
X98721997Y-73612105D01*
X98554905Y-73779197D01*
X98419365Y-73972769D01*
X98419364Y-73972771D01*
X98319498Y-74186935D01*
X98319494Y-74186944D01*
X98258338Y-74415186D01*
X98258336Y-74415196D01*
X98237741Y-74650599D01*
X98237741Y-74650600D01*
X98258336Y-74886003D01*
X98258338Y-74886013D01*
X98319494Y-75114255D01*
X98319496Y-75114259D01*
X98319497Y-75114263D01*
X98419365Y-75328430D01*
X98419367Y-75328434D01*
X98554901Y-75521995D01*
X98554906Y-75522002D01*
X98721997Y-75689093D01*
X98722003Y-75689098D01*
X98907558Y-75819025D01*
X98951183Y-75873602D01*
X98958377Y-75943100D01*
X98926854Y-76005455D01*
X98907558Y-76022175D01*
X98721997Y-76152105D01*
X98554905Y-76319197D01*
X98419365Y-76512769D01*
X98419364Y-76512771D01*
X98319498Y-76726935D01*
X98319494Y-76726944D01*
X98258338Y-76955186D01*
X98258336Y-76955196D01*
X98237741Y-77190599D01*
X98237741Y-77190600D01*
X89800500Y-77190600D01*
X89800500Y-74753158D01*
X89807569Y-74711888D01*
X90964905Y-71432769D01*
X93867860Y-63207726D01*
X93908734Y-63151063D01*
X93973755Y-63125491D01*
X93984790Y-63124999D01*
X94100000Y-63124999D01*
X94100000Y-62549998D01*
X94197058Y-62275000D01*
X94350000Y-62275000D01*
X94350000Y-63124999D01*
X94561640Y-63124999D01*
X94561654Y-63124998D01*
X94662652Y-63114680D01*
X94826300Y-63060453D01*
X94826311Y-63060448D01*
X94973034Y-62969947D01*
X94973038Y-62969944D01*
X95094944Y-62848038D01*
X95094947Y-62848034D01*
X95185448Y-62701311D01*
X95185453Y-62701300D01*
X95239680Y-62537652D01*
X95249999Y-62436654D01*
X95250000Y-62436641D01*
X95250000Y-62275000D01*
X94350000Y-62275000D01*
X94197058Y-62275000D01*
X94285294Y-62025000D01*
X95249999Y-62025000D01*
X95249999Y-61863360D01*
X95249998Y-61863345D01*
X95239680Y-61762347D01*
X95185453Y-61598699D01*
X95185448Y-61598688D01*
X95094947Y-61451965D01*
X95094944Y-61451961D01*
X94973038Y-61330055D01*
X94973034Y-61330052D01*
X94826311Y-61239551D01*
X94826300Y-61239546D01*
X94737859Y-61210240D01*
X94680414Y-61170467D01*
X94653591Y-61105952D01*
X94665906Y-61037176D01*
X94670790Y-61028311D01*
X94774733Y-60856682D01*
X94784484Y-60842820D01*
X94902430Y-60697375D01*
X94946023Y-60643618D01*
X94957565Y-60631223D01*
X95044301Y-60550000D01*
X103975001Y-60550000D01*
X103975001Y-60761654D01*
X103985319Y-60862652D01*
X104039546Y-61026300D01*
X104039551Y-61026311D01*
X104130052Y-61173034D01*
X104130055Y-61173038D01*
X104251961Y-61294944D01*
X104251965Y-61294947D01*
X104398688Y-61385448D01*
X104398699Y-61385453D01*
X104562347Y-61439680D01*
X104663351Y-61449999D01*
X104824999Y-61449999D01*
X104825000Y-61449998D01*
X104825000Y-60550000D01*
X105075000Y-60550000D01*
X105075000Y-61449999D01*
X105236640Y-61449999D01*
X105236654Y-61449998D01*
X105337652Y-61439680D01*
X105501300Y-61385453D01*
X105501311Y-61385448D01*
X105648034Y-61294947D01*
X105648038Y-61294944D01*
X105769944Y-61173038D01*
X105769947Y-61173034D01*
X105860448Y-61026311D01*
X105860453Y-61026300D01*
X105914680Y-60862652D01*
X105924999Y-60761654D01*
X105925000Y-60761641D01*
X105925000Y-60550000D01*
X105075000Y-60550000D01*
X104825000Y-60550000D01*
X103975001Y-60550000D01*
X95044301Y-60550000D01*
X95144776Y-60455912D01*
X95157901Y-60445207D01*
X95367276Y-60297071D01*
X95381732Y-60288261D01*
X95609362Y-60170067D01*
X95624889Y-60163310D01*
X95866498Y-60077277D01*
X95882815Y-60072697D01*
X96133899Y-60020425D01*
X96150687Y-60018113D01*
X96400398Y-60001002D01*
X96410798Y-60000290D01*
X96419275Y-60000000D01*
X103851000Y-60000000D01*
X103918039Y-60019685D01*
G37*
%TD.AperFunction*%
%TD*%
D28*
X44642800Y-29311600D02*
X111507000Y-29311600D01*
X111507000Y-94973400D01*
X44642800Y-94973400D01*
X44642800Y-29311600D01*
M02*
