%TF.GenerationSoftware,KiCad,Pcbnew,7.0.10*%
%TF.CreationDate,2024-03-16T23:25:41+05:30*%
%TF.ProjectId,breakout,62726561-6b6f-4757-942e-6b696361645f,rev?*%
%TF.SameCoordinates,Original*%
%TF.FileFunction,Soldermask,Top*%
%TF.FilePolarity,Negative*%
%FSLAX46Y46*%
G04 Gerber Fmt 4.6, Leading zero omitted, Abs format (unit mm)*
G04 Created by KiCad (PCBNEW 7.0.10) date 2024-03-16 23:25:41*
%MOMM*%
%LPD*%
G01*
G04 APERTURE LIST*
G04 Aperture macros list*
%AMRoundRect*
0 Rectangle with rounded corners*
0 $1 Rounding radius*
0 $2 $3 $4 $5 $6 $7 $8 $9 X,Y pos of 4 corners*
0 Add a 4 corners polygon primitive as box body*
4,1,4,$2,$3,$4,$5,$6,$7,$8,$9,$2,$3,0*
0 Add four circle primitives for the rounded corners*
1,1,$1+$1,$2,$3*
1,1,$1+$1,$4,$5*
1,1,$1+$1,$6,$7*
1,1,$1+$1,$8,$9*
0 Add four rect primitives between the rounded corners*
20,1,$1+$1,$2,$3,$4,$5,0*
20,1,$1+$1,$4,$5,$6,$7,0*
20,1,$1+$1,$6,$7,$8,$9,0*
20,1,$1+$1,$8,$9,$2,$3,0*%
G04 Aperture macros list end*
%ADD10C,3.200000*%
%ADD11RoundRect,0.237500X0.237500X-0.287500X0.237500X0.287500X-0.237500X0.287500X-0.237500X-0.287500X0*%
%ADD12RoundRect,0.237500X0.287500X0.237500X-0.287500X0.237500X-0.287500X-0.237500X0.287500X-0.237500X0*%
%ADD13RoundRect,0.237500X0.300000X0.237500X-0.300000X0.237500X-0.300000X-0.237500X0.300000X-0.237500X0*%
%ADD14RoundRect,0.102000X-0.450000X-0.200000X0.450000X-0.200000X0.450000X0.200000X-0.450000X0.200000X0*%
%ADD15R,0.460000X0.890000*%
%ADD16RoundRect,0.237500X0.250000X0.237500X-0.250000X0.237500X-0.250000X-0.237500X0.250000X-0.237500X0*%
%ADD17O,1.700000X1.700000*%
%ADD18R,1.700000X1.700000*%
%ADD19RoundRect,0.237500X0.237500X-0.300000X0.237500X0.300000X-0.237500X0.300000X-0.237500X-0.300000X0*%
%ADD20R,1.475000X0.300000*%
%ADD21R,0.300000X1.475000*%
%ADD22RoundRect,0.054880X0.652120X0.337120X-0.652120X0.337120X-0.652120X-0.337120X0.652120X-0.337120X0*%
%ADD23RoundRect,0.080400X0.321600X0.696600X-0.321600X0.696600X-0.321600X-0.696600X0.321600X-0.696600X0*%
%ADD24RoundRect,0.237500X-0.237500X0.287500X-0.237500X-0.287500X0.237500X-0.287500X0.237500X0.287500X0*%
%ADD25RoundRect,0.237500X-0.237500X0.300000X-0.237500X-0.300000X0.237500X-0.300000X0.237500X0.300000X0*%
%ADD26RoundRect,0.237500X-0.300000X-0.237500X0.300000X-0.237500X0.300000X0.237500X-0.300000X0.237500X0*%
%TA.AperFunction,Profile*%
%ADD27C,0.050000*%
%TD*%
G04 APERTURE END LIST*
D10*
%TO.C,H4*%
X69550000Y-90450000D03*
%TD*%
%TO.C,H3*%
X107000000Y-90150000D03*
%TD*%
%TO.C,H2*%
X48650000Y-32850000D03*
%TD*%
%TO.C,H1*%
X78200000Y-34150000D03*
%TD*%
D11*
%TO.C,FB11*%
X72300000Y-83425000D03*
X72300000Y-81675000D03*
%TD*%
%TO.C,FB10*%
X104950000Y-60425000D03*
X104950000Y-58675000D03*
%TD*%
D12*
%TO.C,FB9*%
X69825000Y-79100000D03*
X68075000Y-79100000D03*
%TD*%
D13*
%TO.C,C41*%
X74862500Y-50650000D03*
X73137500Y-50650000D03*
%TD*%
D12*
%TO.C,FB4*%
X69025000Y-50500000D03*
X67275000Y-50500000D03*
%TD*%
D14*
%TO.C,D2*%
X90104200Y-41118400D03*
X90104200Y-41768400D03*
X90104200Y-42418400D03*
X92304200Y-42418400D03*
X92304200Y-41768400D03*
X92304200Y-41118400D03*
%TD*%
D15*
%TO.C,C2*%
X92190000Y-46125000D03*
X91430000Y-46125000D03*
X90670000Y-46125000D03*
X89910000Y-46125000D03*
X89910000Y-47775000D03*
X90670000Y-47775000D03*
X91430000Y-47775000D03*
X92190000Y-47775000D03*
%TD*%
%TO.C,C1*%
X101124800Y-45682800D03*
X100364800Y-45682800D03*
X99604800Y-45682800D03*
X98844800Y-45682800D03*
X98844800Y-47332800D03*
X99604800Y-47332800D03*
X100364800Y-47332800D03*
X101124800Y-47332800D03*
%TD*%
D12*
%TO.C,FB3*%
X79900000Y-77950000D03*
X78150000Y-77950000D03*
%TD*%
D16*
%TO.C,R7*%
X85826600Y-74900000D03*
X84001600Y-74900000D03*
%TD*%
D17*
%TO.C,J2*%
X51308000Y-44145200D03*
X51308000Y-46685200D03*
X51308000Y-49225200D03*
X51308000Y-51765200D03*
X51308000Y-54305200D03*
X51308000Y-56845200D03*
X51308000Y-59385200D03*
D18*
X51308000Y-61925200D03*
%TD*%
D19*
%TO.C,C39*%
X78028800Y-51262500D03*
X78028800Y-49537500D03*
%TD*%
D20*
%TO.C,U5*%
X81785600Y-65726000D03*
X81785600Y-65226000D03*
X81785600Y-64726000D03*
X81785600Y-64226000D03*
X81785600Y-63726000D03*
X81785600Y-63226000D03*
X81785600Y-62726000D03*
X81785600Y-62226000D03*
X81785600Y-61726000D03*
X81785600Y-61226000D03*
X81785600Y-60726000D03*
X81785600Y-60226000D03*
X81785600Y-59726000D03*
X81785600Y-59226000D03*
X81785600Y-58726000D03*
X81785600Y-58226000D03*
D21*
X79797600Y-56238000D03*
X79297600Y-56238000D03*
X78797600Y-56238000D03*
X78297600Y-56238000D03*
X77797600Y-56238000D03*
X77297600Y-56238000D03*
X76797600Y-56238000D03*
X76297600Y-56238000D03*
X75797600Y-56238000D03*
X75297600Y-56238000D03*
X74797600Y-56238000D03*
X74297600Y-56238000D03*
X73797600Y-56238000D03*
X73297600Y-56238000D03*
X72797600Y-56238000D03*
X72297600Y-56238000D03*
D20*
X70309600Y-58226000D03*
X70309600Y-58726000D03*
X70309600Y-59226000D03*
X70309600Y-59726000D03*
X70309600Y-60226000D03*
X70309600Y-60726000D03*
X70309600Y-61226000D03*
X70309600Y-61726000D03*
X70309600Y-62226000D03*
X70309600Y-62726000D03*
X70309600Y-63226000D03*
X70309600Y-63726000D03*
X70309600Y-64226000D03*
X70309600Y-64726000D03*
X70309600Y-65226000D03*
X70309600Y-65726000D03*
D21*
X72297600Y-67714000D03*
X72797600Y-67714000D03*
X73297600Y-67714000D03*
X73797600Y-67714000D03*
X74297600Y-67714000D03*
X74797600Y-67714000D03*
X75297600Y-67714000D03*
X75797600Y-67714000D03*
X76297600Y-67714000D03*
X76797600Y-67714000D03*
X77297600Y-67714000D03*
X77797600Y-67714000D03*
X78297600Y-67714000D03*
X78797600Y-67714000D03*
X79297600Y-67714000D03*
X79797600Y-67714000D03*
%TD*%
D17*
%TO.C,J1*%
X51308000Y-66014600D03*
X51308000Y-68554600D03*
X51308000Y-71094600D03*
X51308000Y-73634600D03*
X51308000Y-76174600D03*
X51308000Y-78714600D03*
X51308000Y-81254600D03*
X51308000Y-83794600D03*
X51308000Y-86334600D03*
D18*
X51308000Y-88874600D03*
%TD*%
D12*
%TO.C,FB5*%
X94225000Y-62150000D03*
X92475000Y-62150000D03*
%TD*%
D22*
%TO.C,U4*%
X94193600Y-86788000D03*
X94193600Y-85838000D03*
X94193600Y-84888000D03*
X91683600Y-84888000D03*
X91683600Y-85838000D03*
X91683600Y-86788000D03*
%TD*%
D19*
%TO.C,C31*%
X94186700Y-80679500D03*
X94186700Y-78954500D03*
%TD*%
%TO.C,C10*%
X88595200Y-85861200D03*
X88595200Y-84136200D03*
%TD*%
%TO.C,C23*%
X73850000Y-74311400D03*
X73850000Y-72586400D03*
%TD*%
D12*
%TO.C,FB6*%
X62375000Y-88000000D03*
X60625000Y-88000000D03*
%TD*%
D19*
%TO.C,C43*%
X78000000Y-74350000D03*
X78000000Y-72625000D03*
%TD*%
D23*
%TO.C,U1*%
X106131400Y-69706400D03*
X105181400Y-69706400D03*
X104231400Y-69706400D03*
X104231400Y-72076400D03*
X106131400Y-72076400D03*
%TD*%
D13*
%TO.C,C11*%
X82929900Y-86473000D03*
X81204900Y-86473000D03*
%TD*%
D24*
%TO.C,FB7*%
X59800000Y-53675000D03*
X59800000Y-55425000D03*
%TD*%
D25*
%TO.C,C30*%
X75850000Y-77725000D03*
X75850000Y-79450000D03*
%TD*%
D11*
%TO.C,FB1*%
X83050000Y-51275000D03*
X83050000Y-49525000D03*
%TD*%
D13*
%TO.C,C12*%
X82929900Y-84568000D03*
X81204900Y-84568000D03*
%TD*%
D17*
%TO.C,J3*%
X99593400Y-61950600D03*
X99593400Y-64490600D03*
X99593400Y-67030600D03*
X99593400Y-69570600D03*
X99593400Y-72110600D03*
X99593400Y-74650600D03*
X99593400Y-77190600D03*
D18*
X99593400Y-79730600D03*
%TD*%
D13*
%TO.C,C27*%
X68987500Y-52587500D03*
X67262500Y-52587500D03*
%TD*%
D25*
%TO.C,C45*%
X80650000Y-49537500D03*
X80650000Y-51262500D03*
%TD*%
%TO.C,C32*%
X91697500Y-78802100D03*
X91697500Y-80527100D03*
%TD*%
D26*
%TO.C,C46*%
X84051600Y-71958200D03*
X85776600Y-71958200D03*
%TD*%
D14*
%TO.C,D1*%
X98622300Y-41108000D03*
X98622300Y-41758000D03*
X98622300Y-42408000D03*
X100822300Y-42408000D03*
X100822300Y-41758000D03*
X100822300Y-41108000D03*
%TD*%
D18*
%TO.C,J4*%
X86410800Y-36474400D03*
D17*
X88950800Y-36474400D03*
X91490800Y-36474400D03*
X94030800Y-36474400D03*
X96570800Y-36474400D03*
X99110800Y-36474400D03*
X101650800Y-36474400D03*
X104190800Y-36474400D03*
%TD*%
D27*
X44642800Y-29311600D02*
X111507000Y-29311600D01*
X111507000Y-94973400D01*
X44642800Y-94973400D01*
X44642800Y-29311600D01*
M02*
