%TF.GenerationSoftware,KiCad,Pcbnew,7.0.10*%
%TF.CreationDate,2024-03-16T23:25:40+05:30*%
%TF.ProjectId,breakout,62726561-6b6f-4757-942e-6b696361645f,rev?*%
%TF.SameCoordinates,Original*%
%TF.FileFunction,Copper,L2,Bot*%
%TF.FilePolarity,Positive*%
%FSLAX46Y46*%
G04 Gerber Fmt 4.6, Leading zero omitted, Abs format (unit mm)*
G04 Created by KiCad (PCBNEW 7.0.10) date 2024-03-16 23:25:40*
%MOMM*%
%LPD*%
G01*
G04 APERTURE LIST*
G04 Aperture macros list*
%AMRoundRect*
0 Rectangle with rounded corners*
0 $1 Rounding radius*
0 $2 $3 $4 $5 $6 $7 $8 $9 X,Y pos of 4 corners*
0 Add a 4 corners polygon primitive as box body*
4,1,4,$2,$3,$4,$5,$6,$7,$8,$9,$2,$3,0*
0 Add four circle primitives for the rounded corners*
1,1,$1+$1,$2,$3*
1,1,$1+$1,$4,$5*
1,1,$1+$1,$6,$7*
1,1,$1+$1,$8,$9*
0 Add four rect primitives between the rounded corners*
20,1,$1+$1,$2,$3,$4,$5,0*
20,1,$1+$1,$4,$5,$6,$7,0*
20,1,$1+$1,$6,$7,$8,$9,0*
20,1,$1+$1,$8,$9,$2,$3,0*%
G04 Aperture macros list end*
%TA.AperFunction,SMDPad,CuDef*%
%ADD10RoundRect,0.237500X-0.237500X0.300000X-0.237500X-0.300000X0.237500X-0.300000X0.237500X0.300000X0*%
%TD*%
%TA.AperFunction,ComponentPad*%
%ADD11O,1.700000X1.700000*%
%TD*%
%TA.AperFunction,ComponentPad*%
%ADD12R,1.700000X1.700000*%
%TD*%
%TA.AperFunction,SMDPad,CuDef*%
%ADD13R,1.193800X0.889000*%
%TD*%
%TA.AperFunction,SMDPad,CuDef*%
%ADD14R,0.558800X0.889000*%
%TD*%
%TA.AperFunction,SMDPad,CuDef*%
%ADD15RoundRect,0.237500X0.237500X-0.300000X0.237500X0.300000X-0.237500X0.300000X-0.237500X-0.300000X0*%
%TD*%
%TA.AperFunction,SMDPad,CuDef*%
%ADD16RoundRect,0.237500X0.300000X0.237500X-0.300000X0.237500X-0.300000X-0.237500X0.300000X-0.237500X0*%
%TD*%
%TA.AperFunction,SMDPad,CuDef*%
%ADD17R,0.900000X0.400000*%
%TD*%
%TA.AperFunction,SMDPad,CuDef*%
%ADD18RoundRect,0.041300X0.583700X0.253700X-0.583700X0.253700X-0.583700X-0.253700X0.583700X-0.253700X0*%
%TD*%
%TA.AperFunction,SMDPad,CuDef*%
%ADD19RoundRect,0.237500X0.237500X-0.250000X0.237500X0.250000X-0.237500X0.250000X-0.237500X-0.250000X0*%
%TD*%
%TA.AperFunction,SMDPad,CuDef*%
%ADD20RoundRect,0.237500X-0.250000X-0.237500X0.250000X-0.237500X0.250000X0.237500X-0.250000X0.237500X0*%
%TD*%
%TA.AperFunction,SMDPad,CuDef*%
%ADD21RoundRect,0.237500X0.250000X0.237500X-0.250000X0.237500X-0.250000X-0.237500X0.250000X-0.237500X0*%
%TD*%
%TA.AperFunction,SMDPad,CuDef*%
%ADD22RoundRect,0.250000X-0.537500X-0.425000X0.537500X-0.425000X0.537500X0.425000X-0.537500X0.425000X0*%
%TD*%
%TA.AperFunction,SMDPad,CuDef*%
%ADD23RoundRect,0.237500X-0.300000X-0.237500X0.300000X-0.237500X0.300000X0.237500X-0.300000X0.237500X0*%
%TD*%
%TA.AperFunction,SMDPad,CuDef*%
%ADD24RoundRect,0.237500X0.237500X-0.287500X0.237500X0.287500X-0.237500X0.287500X-0.237500X-0.287500X0*%
%TD*%
%TA.AperFunction,SMDPad,CuDef*%
%ADD25RoundRect,0.250000X-0.425000X0.537500X-0.425000X-0.537500X0.425000X-0.537500X0.425000X0.537500X0*%
%TD*%
%TA.AperFunction,SMDPad,CuDef*%
%ADD26RoundRect,0.088500X0.516500X0.206500X-0.516500X0.206500X-0.516500X-0.206500X0.516500X-0.206500X0*%
%TD*%
%TA.AperFunction,SMDPad,CuDef*%
%ADD27RoundRect,0.250000X0.537500X0.425000X-0.537500X0.425000X-0.537500X-0.425000X0.537500X-0.425000X0*%
%TD*%
%TA.AperFunction,SMDPad,CuDef*%
%ADD28RoundRect,0.250000X-0.412500X-0.650000X0.412500X-0.650000X0.412500X0.650000X-0.412500X0.650000X0*%
%TD*%
%TA.AperFunction,ViaPad*%
%ADD29C,0.400000*%
%TD*%
%TA.AperFunction,Conductor*%
%ADD30C,0.200000*%
%TD*%
%TA.AperFunction,Profile*%
%ADD31C,0.050000*%
%TD*%
G04 APERTURE END LIST*
D10*
%TO.P,C29,1*%
%TO.N,Net-(C21-Pad2)*%
X75850000Y-77725000D03*
%TO.P,C29,2*%
%TO.N,AGND*%
X75850000Y-79450000D03*
%TD*%
D11*
%TO.P,J2,8,Pin_8*%
%TO.N,unconnected-(J2-Pin_8-Pad8)*%
X51308000Y-44145200D03*
%TO.P,J2,7,Pin_7*%
%TO.N,unconnected-(J2-Pin_7-Pad7)*%
X51308000Y-46685200D03*
%TO.P,J2,6,Pin_6*%
%TO.N,unconnected-(J2-Pin_6-Pad6)*%
X51308000Y-49225200D03*
%TO.P,J2,5,Pin_5*%
%TO.N,unconnected-(J2-Pin_5-Pad5)*%
X51308000Y-51765200D03*
%TO.P,J2,4,Pin_4*%
%TO.N,unconnected-(J2-Pin_4-Pad4)*%
X51308000Y-54305200D03*
%TO.P,J2,3,Pin_3*%
%TO.N,DRDY*%
X51308000Y-56845200D03*
%TO.P,J2,2,Pin_2*%
%TO.N,RESET*%
X51308000Y-59385200D03*
D12*
%TO.P,J2,1,Pin_1*%
%TO.N,START*%
X51308000Y-61925200D03*
%TD*%
D11*
%TO.P,J1,10,Pin_10*%
%TO.N,unconnected-(J1-Pin_10-Pad10)*%
X51308000Y-66014600D03*
%TO.P,J1,9,Pin_9*%
%TO.N,unconnected-(J1-Pin_9-Pad9)*%
X51308000Y-68554600D03*
%TO.P,J1,8,Pin_8*%
%TO.N,CS*%
X51308000Y-71094600D03*
%TO.P,J1,7,Pin_7*%
%TO.N,DIN*%
X51308000Y-73634600D03*
%TO.P,J1,6,Pin_6*%
%TO.N,DOUT*%
X51308000Y-76174600D03*
%TO.P,J1,5,Pin_5*%
%TO.N,SCLK*%
X51308000Y-78714600D03*
%TO.P,J1,4,Pin_4*%
%TO.N,DGND*%
X51308000Y-81254600D03*
%TO.P,J1,3,Pin_3*%
%TO.N,unconnected-(J1-Pin_3-Pad3)*%
X51308000Y-83794600D03*
%TO.P,J1,2,Pin_2*%
%TO.N,unconnected-(J1-Pin_2-Pad2)*%
X51308000Y-86334600D03*
D12*
%TO.P,J1,1,Pin_1*%
%TO.N,unconnected-(J1-Pin_1-Pad1)*%
X51308000Y-88874600D03*
%TD*%
D11*
%TO.P,J3,8,Pin_8*%
%TO.N,unconnected-(J3-Pin_8-Pad8)*%
X99593400Y-61950600D03*
%TO.P,J3,7,Pin_7*%
%TO.N,PGND*%
X99593400Y-64490600D03*
%TO.P,J3,6,Pin_6*%
X99593400Y-67030600D03*
%TO.P,J3,5,Pin_5*%
%TO.N,VDD*%
X99593400Y-69570600D03*
%TO.P,J3,4,Pin_4*%
%TO.N,unconnected-(J3-Pin_4-Pad4)*%
X99593400Y-72110600D03*
%TO.P,J3,3,Pin_3*%
%TO.N,unconnected-(J3-Pin_3-Pad3)*%
X99593400Y-74650600D03*
%TO.P,J3,2,Pin_2*%
%TO.N,unconnected-(J3-Pin_2-Pad2)*%
X99593400Y-77190600D03*
D12*
%TO.P,J3,1,Pin_1*%
%TO.N,unconnected-(J3-Pin_1-Pad1)*%
X99593400Y-79730600D03*
%TD*%
D13*
%TO.P,R1,1,1*%
%TO.N,5P*%
X98422700Y-45593400D03*
D14*
%TO.P,R1,2,2*%
%TO.N,6P*%
X99570018Y-45593400D03*
%TO.P,R1,3,3*%
%TO.N,SRB_IN*%
X100399582Y-45593400D03*
D13*
%TO.P,R1,4,4*%
%TO.N,BIAS_E*%
X101546900Y-45593400D03*
%TO.P,R1,5,5*%
%TO.N,BIAS_DRV*%
X101546900Y-47422200D03*
D14*
%TO.P,R1,6,6*%
%TO.N,SRB1*%
X100399582Y-47422200D03*
%TO.P,R1,7,7*%
%TO.N,IN6P*%
X99570018Y-47422200D03*
D13*
%TO.P,R1,8,8*%
%TO.N,IN5P*%
X98422700Y-47422200D03*
%TD*%
D15*
%TO.P,C40,1*%
%TO.N,Net-(U5-VREFN)*%
X78028800Y-51262500D03*
%TO.P,C40,2*%
%TO.N,AGND*%
X78028800Y-49537500D03*
%TD*%
D16*
%TO.P,C25,1*%
%TO.N,Net-(U5-BIASOUT)*%
X85775500Y-74900000D03*
%TO.P,C25,2*%
%TO.N,Net-(U5-BIASINV)*%
X84050500Y-74900000D03*
%TD*%
D17*
%TO.P,D3,1*%
%TO.N,AGND*%
X81122500Y-81000000D03*
%TO.P,D3,2*%
%TO.N,AVDD*%
X81122500Y-80350000D03*
%TO.P,D3,3*%
%TO.N,AGND*%
X81122500Y-79700000D03*
%TO.P,D3,4*%
%TO.N,AVSS*%
X83322500Y-79700000D03*
%TO.P,D3,5*%
%TO.N,unconnected-(D3-Pad5)*%
X83322500Y-80350000D03*
%TO.P,D3,6,NC*%
%TO.N,unconnected-(D3-NC-Pad6)*%
X83322500Y-81000000D03*
%TD*%
D10*
%TO.P,C7,1*%
%TO.N,DVDD*%
X106161600Y-72076100D03*
%TO.P,C7,2*%
%TO.N,PGND*%
X106161600Y-73801100D03*
%TD*%
D15*
%TO.P,C22,1*%
%TO.N,Net-(U5-AVDD1)*%
X74599800Y-68680500D03*
%TO.P,C22,2*%
%TO.N,AGND*%
X74599800Y-66955500D03*
%TD*%
D16*
%TO.P,C16,1*%
%TO.N,Net-(U5-VREFN)*%
X78875000Y-59800000D03*
%TO.P,C16,2*%
%TO.N,Net-(U5-VCAP4)*%
X77150000Y-59800000D03*
%TD*%
D10*
%TO.P,C44,1*%
%TO.N,AGND*%
X80650000Y-49537500D03*
%TO.P,C44,2*%
%TO.N,Net-(C17-Pad1)*%
X80650000Y-51262500D03*
%TD*%
D18*
%TO.P,IC1,1,IN*%
%TO.N,DVDD*%
X94219000Y-78806000D03*
%TO.P,IC1,2,GND*%
%TO.N,PGND*%
X94219000Y-79756000D03*
%TO.P,IC1,3,EN*%
%TO.N,DVDD*%
X94219000Y-80706000D03*
%TO.P,IC1,4*%
%TO.N,N/C*%
X91709000Y-80706000D03*
%TO.P,IC1,5,OUT*%
%TO.N,AVDD*%
X91709000Y-78806000D03*
%TD*%
D15*
%TO.P,C3,1*%
%TO.N,Net-(C17-Pad1)*%
X74955400Y-56996500D03*
%TO.P,C3,2*%
%TO.N,Net-(U5-VREFN)*%
X74955400Y-55271500D03*
%TD*%
D19*
%TO.P,R3,1*%
%TO.N,Net-(U5-BIASOUT)*%
X87223600Y-67993900D03*
%TO.P,R3,2*%
%TO.N,BIAS_DRV*%
X87223600Y-66168900D03*
%TD*%
D15*
%TO.P,C26,1*%
%TO.N,Net-(C21-Pad1)*%
X73850000Y-74312500D03*
%TO.P,C26,2*%
%TO.N,Net-(U5-VCAP3)*%
X73850000Y-72587500D03*
%TD*%
D20*
%TO.P,R8,1*%
%TO.N,DGND*%
X63387500Y-61200000D03*
%TO.P,R8,2*%
%TO.N,Net-(U5-GPIO1)*%
X65212500Y-61200000D03*
%TD*%
D13*
%TO.P,R2,1,1*%
%TO.N,1P*%
X89487900Y-46025200D03*
D14*
%TO.P,R2,2,2*%
%TO.N,2P*%
X90635218Y-46025200D03*
%TO.P,R2,3,3*%
%TO.N,3P*%
X91464782Y-46025200D03*
D13*
%TO.P,R2,4,4*%
%TO.N,4P*%
X92612100Y-46025200D03*
%TO.P,R2,5,5*%
%TO.N,IN4P*%
X92612100Y-47854000D03*
D14*
%TO.P,R2,6,6*%
%TO.N,IN3P*%
X91464782Y-47854000D03*
%TO.P,R2,7,7*%
%TO.N,IN2P*%
X90635218Y-47854000D03*
D13*
%TO.P,R2,8,8*%
%TO.N,IN1P*%
X89487900Y-47854000D03*
%TD*%
D21*
%TO.P,R10,1*%
%TO.N,Net-(U5-GPIO2)*%
X65212500Y-62992000D03*
%TO.P,R10,2*%
%TO.N,DGND*%
X63387500Y-62992000D03*
%TD*%
D22*
%TO.P,C13,1*%
%TO.N,Net-(U4-CAP+)*%
X91678900Y-86854000D03*
%TO.P,C13,2*%
%TO.N,Net-(U4-CAP-)*%
X94553900Y-86854000D03*
%TD*%
D15*
%TO.P,C21,1*%
%TO.N,Net-(C21-Pad1)*%
X77063600Y-68578900D03*
%TO.P,C21,2*%
%TO.N,Net-(C21-Pad2)*%
X77063600Y-66853900D03*
%TD*%
D21*
%TO.P,R17,1*%
%TO.N,Net-(U5-BIASOUT)*%
X85826600Y-71958200D03*
%TO.P,R17,2*%
%TO.N,Net-(U5-BIASIN)*%
X84001600Y-71958200D03*
%TD*%
D15*
%TO.P,C42,1*%
%TO.N,AGND*%
X78000000Y-74350000D03*
%TO.P,C42,2*%
%TO.N,Net-(C21-Pad1)*%
X78000000Y-72625000D03*
%TD*%
D21*
%TO.P,R9,1*%
%TO.N,Net-(U5-GPIO4)*%
X65212500Y-66675000D03*
%TO.P,R9,2*%
%TO.N,DGND*%
X63387500Y-66675000D03*
%TD*%
D10*
%TO.P,C17,1*%
%TO.N,Net-(C17-Pad1)*%
X79019400Y-55246100D03*
%TO.P,C17,2*%
%TO.N,Net-(U5-VREFN)*%
X79019400Y-56971100D03*
%TD*%
D23*
%TO.P,C18,1*%
%TO.N,Net-(U5-VREFN)*%
X71100000Y-59850000D03*
%TO.P,C18,2*%
%TO.N,Net-(U5-VCAP2)*%
X72825000Y-59850000D03*
%TD*%
D24*
%TO.P,FB2,1*%
%TO.N,AVSS*%
X71551800Y-75678000D03*
%TO.P,FB2,2*%
%TO.N,Net-(C21-Pad1)*%
X71551800Y-73928000D03*
%TD*%
D25*
%TO.P,C14,1*%
%TO.N,PGND*%
X88595200Y-83561200D03*
%TO.P,C14,2*%
%TO.N,DVSS*%
X88595200Y-86436200D03*
%TD*%
D21*
%TO.P,R6,1*%
%TO.N,Net-(U5-GPIO3)*%
X65212500Y-64770000D03*
%TO.P,R6,2*%
%TO.N,DGND*%
X63387500Y-64770000D03*
%TD*%
D15*
%TO.P,C5,1*%
%TO.N,Net-(U5-VREFN)*%
X76835000Y-56971100D03*
%TO.P,C5,2*%
%TO.N,Net-(C17-Pad1)*%
X76835000Y-55246100D03*
%TD*%
D16*
%TO.P,C28,1*%
%TO.N,Net-(U5-VREFN)*%
X68986400Y-52587500D03*
%TO.P,C28,2*%
%TO.N,AGND*%
X67261400Y-52587500D03*
%TD*%
D26*
%TO.P,U3,5,OUT*%
%TO.N,AVSS*%
X82946000Y-84557800D03*
%TO.P,U3,4,NR*%
%TO.N,Net-(U3-NR)*%
X82946000Y-86457800D03*
%TO.P,U3,3,EN*%
%TO.N,DVSS*%
X85456000Y-86457800D03*
%TO.P,U3,2,IN*%
X85456000Y-85507800D03*
%TO.P,U3,1,GND*%
%TO.N,PGND*%
X85456000Y-84557800D03*
%TD*%
D12*
%TO.P,J4,1,Pin_1*%
%TO.N,1P*%
X86410800Y-36474400D03*
D11*
%TO.P,J4,2,Pin_2*%
%TO.N,2P*%
X88950800Y-36474400D03*
%TO.P,J4,3,Pin_3*%
%TO.N,3P*%
X91490800Y-36474400D03*
%TO.P,J4,4,Pin_4*%
%TO.N,4P*%
X94030800Y-36474400D03*
%TO.P,J4,5,Pin_5*%
%TO.N,5P*%
X96570800Y-36474400D03*
%TO.P,J4,6,Pin_6*%
%TO.N,6P*%
X99110800Y-36474400D03*
%TO.P,J4,7,Pin_7*%
%TO.N,SRB_IN*%
X101650800Y-36474400D03*
%TO.P,J4,8,Pin_8*%
%TO.N,BIAS_E*%
X104190800Y-36474400D03*
%TD*%
D23*
%TO.P,C24,2*%
%TO.N,DVDD*%
X69312500Y-69550000D03*
%TO.P,C24,1*%
%TO.N,DGND*%
X67587500Y-69550000D03*
%TD*%
D15*
%TO.P,C6,1*%
%TO.N,VDD*%
X106161600Y-69711700D03*
%TO.P,C6,2*%
%TO.N,PGND*%
X106161600Y-67986700D03*
%TD*%
D27*
%TO.P,C20,1*%
%TO.N,Net-(U5-VREFP)*%
X75437500Y-50650000D03*
%TO.P,C20,2*%
%TO.N,Net-(U5-VREFN)*%
X72562500Y-50650000D03*
%TD*%
D28*
%TO.P,C19,1*%
%TO.N,Net-(U5-VREFN)*%
X73637500Y-63000000D03*
%TO.P,C19,2*%
%TO.N,Net-(U5-VCAP1)*%
X76762500Y-63000000D03*
%TD*%
D29*
%TO.N,AGND*%
X72400000Y-71600000D03*
%TO.N,AVSS*%
X67275000Y-50500000D03*
%TO.N,AGND*%
X78150000Y-65400000D03*
%TO.N,AVSS*%
X83322500Y-79700000D03*
%TO.N,DVDD*%
X94200000Y-80700000D03*
%TO.N,BIAS_DRV*%
X87223600Y-66168900D03*
%TO.N,Net-(C21-Pad1)*%
X76800000Y-69700000D03*
%TO.N,AGND*%
X75850000Y-79450000D03*
X78000000Y-74350000D03*
%TO.N,Net-(U5-VREFN)*%
X68975000Y-52555500D03*
%TO.N,DVDD*%
X72000000Y-65700000D03*
%TO.N,DGND*%
X59550000Y-57400000D03*
X73050000Y-65800000D03*
%TO.N,DRDY*%
X60900000Y-68000000D03*
%TO.N,DGND*%
X70500000Y-55100000D03*
X70300000Y-58050000D03*
%TO.N,IN3P*%
X91430000Y-47775000D03*
%TO.N,AGND*%
X78028800Y-49537500D03*
X87800000Y-50400000D03*
X95750000Y-45400000D03*
X103050000Y-38950000D03*
X100450000Y-39000000D03*
X95800000Y-42650000D03*
X74600000Y-65650000D03*
X88950000Y-42750000D03*
X92750000Y-38850000D03*
X97800000Y-38900000D03*
X96100000Y-47750000D03*
%TO.N,BIAS_DRV*%
X101124800Y-47332800D03*
%TO.N,IN1P*%
X89910000Y-47775000D03*
%TO.N,IN2P*%
X90670000Y-47775000D03*
%TO.N,SRB1*%
X100364800Y-47332800D03*
%TO.N,Net-(C17-Pad1)*%
X80650000Y-51262500D03*
X78350000Y-53950000D03*
%TO.N,Net-(U5-VREFN)*%
X74955400Y-53994600D03*
X76800000Y-58350000D03*
X73137500Y-50650000D03*
X78028800Y-51262500D03*
X72100000Y-58100000D03*
X79050000Y-58350000D03*
%TO.N,VDD*%
X106131400Y-69706400D03*
%TO.N,PGND*%
X106161600Y-67986700D03*
%TO.N,DVDD*%
X72000000Y-61300000D03*
X69312500Y-69550000D03*
X106131400Y-72076400D03*
%TO.N,DVSS*%
X88595200Y-85861200D03*
%TO.N,Net-(U3-NR)*%
X82929900Y-86473000D03*
%TO.N,AVSS*%
X82929900Y-84568000D03*
%TO.N,Net-(U4-CAP+)*%
X91683600Y-86788000D03*
%TO.N,Net-(U4-CAP-)*%
X94193600Y-84888000D03*
%TO.N,Net-(U5-VCAP4)*%
X77150000Y-59800000D03*
%TO.N,Net-(U5-VCAP2)*%
X72825000Y-59850000D03*
%TO.N,Net-(U5-VCAP1)*%
X76762500Y-63000000D03*
%TO.N,Net-(U5-VREFP)*%
X74862500Y-50650000D03*
%TO.N,Net-(C21-Pad1)*%
X78000000Y-72625000D03*
X73850000Y-74312500D03*
%TO.N,Net-(C21-Pad2)*%
X75850000Y-77725000D03*
X77000000Y-65500000D03*
%TO.N,Net-(U5-AVDD1)*%
X74450000Y-70650000D03*
%TO.N,Net-(U5-VCAP3)*%
X73850000Y-72587500D03*
%TO.N,Net-(U5-BIASOUT)*%
X85775500Y-74900000D03*
X85826600Y-71958200D03*
X87223600Y-67993900D03*
%TO.N,Net-(U5-BIASINV)*%
X84050500Y-74900000D03*
%TO.N,AVDD*%
X89200000Y-64250000D03*
X91697500Y-78802100D03*
X84950000Y-53250000D03*
X81122500Y-80350000D03*
%TO.N,3P*%
X91700000Y-43300000D03*
%TO.N,5P*%
X96570800Y-40200000D03*
%TO.N,6P*%
X98650000Y-40000000D03*
%TO.N,4P*%
X93400000Y-41750000D03*
%TO.N,1P*%
X87325000Y-40075000D03*
%TO.N,2P*%
X90100000Y-39950000D03*
%TO.N,SRB_IN*%
X100822300Y-41758000D03*
%TO.N,SCLK*%
X67900000Y-61950000D03*
%TO.N,CS*%
X59900000Y-62502600D03*
X61352600Y-62502600D03*
%TO.N,START*%
X61400000Y-60650000D03*
%TO.N,RESET*%
X61750000Y-59750000D03*
%TO.N,Net-(U5-GPIO3)*%
X65200000Y-64770000D03*
%TO.N,Net-(U5-GPIO1)*%
X66700000Y-62150000D03*
%TO.N,Net-(U5-GPIO4)*%
X65212500Y-66675000D03*
%TO.N,Net-(U5-GPIO2)*%
X66725000Y-63975000D03*
%TO.N,Net-(U5-BIASIN)*%
X84001600Y-71958200D03*
%TO.N,BIAS_E*%
X101100000Y-42436554D03*
%TO.N,IN6P*%
X99604800Y-47332800D03*
%TO.N,IN5P*%
X98844800Y-47332800D03*
%TO.N,IN4P*%
X92190000Y-47775000D03*
%TD*%
D30*
%TO.N,DVDD*%
X72000000Y-61300000D02*
X72000000Y-65700000D01*
%TO.N,Net-(U5-VREFN)*%
X74955400Y-53994600D02*
X74955400Y-55271500D01*
X74955400Y-53994600D02*
X73137500Y-52176700D01*
X73137500Y-52176700D02*
X73137500Y-50650000D01*
X74955400Y-53994600D02*
X75955400Y-53994600D01*
X75955400Y-53994600D02*
X78028800Y-51921200D01*
X78028800Y-51921200D02*
X78028800Y-51262500D01*
%TO.N,AGND*%
X81122500Y-79700000D02*
X79800000Y-79700000D01*
%TO.N,Net-(U5-GPIO1)*%
X66700000Y-62150000D02*
X65750000Y-61200000D01*
X65750000Y-61200000D02*
X65212500Y-61200000D01*
%TO.N,Net-(U5-GPIO2)*%
X66725000Y-63975000D02*
X65742000Y-62992000D01*
X65742000Y-62992000D02*
X65212500Y-62992000D01*
%TO.N,AGND*%
X81122500Y-81000000D02*
X79900000Y-81000000D01*
%TO.N,AVSS*%
X81850000Y-76500000D02*
X82100000Y-76500000D01*
X72373800Y-76500000D02*
X81850000Y-76500000D01*
X82100000Y-76500000D02*
X82100000Y-76250000D01*
X82100000Y-76250000D02*
X82100000Y-48350000D01*
X81850000Y-76500000D02*
X82100000Y-76250000D01*
X71551800Y-75678000D02*
X72373800Y-76500000D01*
X83322500Y-79700000D02*
X83322500Y-77722500D01*
X83322500Y-77722500D02*
X82100000Y-76500000D01*
X67275000Y-49225000D02*
X67275000Y-50500000D01*
X82100000Y-48350000D02*
X81300000Y-47550000D01*
X81300000Y-47550000D02*
X68950000Y-47550000D01*
X68950000Y-47550000D02*
X67275000Y-49225000D01*
%TO.N,AGND*%
X74600000Y-65650000D02*
X74599800Y-65650200D01*
X74599800Y-65650200D02*
X74599800Y-66955500D01*
%TO.N,DVDD*%
X93100000Y-81000000D02*
X92600000Y-81500000D01*
X84300000Y-83450000D02*
X66650000Y-83450000D01*
X86250000Y-81500000D02*
X84300000Y-83450000D01*
X65550000Y-82350000D02*
X65550000Y-73350000D01*
X66650000Y-83450000D02*
X65550000Y-82350000D01*
X92600000Y-81500000D02*
X86250000Y-81500000D01*
X65550000Y-73350000D02*
X69312500Y-69587500D01*
X69312500Y-69587500D02*
X69312500Y-69550000D01*
%TO.N,Net-(U5-BIASOUT)*%
X85826600Y-71958200D02*
X87223600Y-70561200D01*
X87223600Y-70561200D02*
X87223600Y-67993900D01*
%TO.N,DVDD*%
X106161600Y-72076100D02*
X102337700Y-75900000D01*
X98400000Y-75900000D02*
X95494000Y-78806000D01*
X102337700Y-75900000D02*
X98400000Y-75900000D01*
X95494000Y-78806000D02*
X94219000Y-78806000D01*
X93100000Y-80700000D02*
X93100000Y-81000000D01*
X93350000Y-80700000D02*
X93100000Y-80950000D01*
X93100000Y-80950000D02*
X93100000Y-81000000D01*
X93350000Y-80706000D02*
X93106000Y-80706000D01*
X94219000Y-80706000D02*
X93350000Y-80706000D01*
X93100000Y-78950000D02*
X93100000Y-80450000D01*
X93100000Y-80450000D02*
X93100000Y-80700000D01*
X93350000Y-80706000D02*
X93350000Y-80700000D01*
X93350000Y-80700000D02*
X93100000Y-80450000D01*
X93106000Y-80706000D02*
X93100000Y-80700000D01*
X94219000Y-78806000D02*
X93244000Y-78806000D01*
X93244000Y-78806000D02*
X93100000Y-78950000D01*
%TO.N,Net-(U4-CAP-)*%
X94193600Y-84888000D02*
X94553900Y-85248300D01*
X94553900Y-85248300D02*
X94553900Y-86854000D01*
%TO.N,Net-(U4-CAP+)*%
X91683600Y-86788000D02*
X91683600Y-86849300D01*
X91683600Y-86849300D02*
X91678900Y-86854000D01*
%TO.N,DVSS*%
X88595200Y-85861200D02*
X88595200Y-86436200D01*
%TO.N,Net-(U3-NR)*%
X82930800Y-86473000D02*
X82946000Y-86457800D01*
X82929900Y-86473000D02*
X82930800Y-86473000D01*
%TO.N,VDD*%
X106131400Y-69706400D02*
X106156300Y-69706400D01*
X106156300Y-69706400D02*
X106161600Y-69711700D01*
%TO.N,AVDD*%
X84950000Y-60000000D02*
X84950000Y-53250000D01*
X89200000Y-64250000D02*
X84950000Y-60000000D01*
%TO.N,IN1P*%
X89910000Y-47775000D02*
X89566900Y-47775000D01*
X89566900Y-47775000D02*
X89487900Y-47854000D01*
%TO.N,IN2P*%
X90670000Y-47775000D02*
X90635218Y-47809782D01*
X90635218Y-47809782D02*
X90635218Y-47854000D01*
%TO.N,IN4P*%
X92190000Y-47775000D02*
X92533100Y-47775000D01*
X92533100Y-47775000D02*
X92612100Y-47854000D01*
%TO.N,IN3P*%
X91430000Y-47819218D02*
X91464782Y-47854000D01*
X91430000Y-47775000D02*
X91430000Y-47819218D01*
%TO.N,3P*%
X91700000Y-43300000D02*
X91464782Y-43535218D01*
%TO.N,4P*%
X92733100Y-45904200D02*
X92612100Y-46025200D01*
%TO.N,1P*%
X87325000Y-40075000D02*
X87325000Y-42875000D01*
X87325000Y-42875000D02*
X89487900Y-45037900D01*
%TO.N,2P*%
X90100000Y-39950000D02*
X90756218Y-40606218D01*
%TO.N,4P*%
X93400000Y-41750000D02*
X92733100Y-42416900D01*
%TO.N,2P*%
X90756218Y-40606218D02*
X90756218Y-45904200D01*
%TO.N,1P*%
X89487900Y-45037900D02*
X89487900Y-46025200D01*
%TO.N,2P*%
X90756218Y-45904200D02*
X90635218Y-46025200D01*
%TO.N,3P*%
X91464782Y-43535218D02*
X91464782Y-46025200D01*
%TO.N,4P*%
X92733100Y-42416900D02*
X92733100Y-45904200D01*
%TO.N,DVDD*%
X69312500Y-69550000D02*
X69312500Y-69548950D01*
%TO.N,SCLK*%
X67900000Y-61950000D02*
X67900000Y-66300000D01*
X51385400Y-78714600D02*
X51308000Y-78714600D01*
X67900000Y-66300000D02*
X65100000Y-69100000D01*
X65100000Y-69100000D02*
X61000000Y-69100000D01*
X61000000Y-69100000D02*
X51385400Y-78714600D01*
%TO.N,Net-(C21-Pad1)*%
X77063600Y-68578900D02*
X77063600Y-69436400D01*
X77063600Y-69436400D02*
X76800000Y-69700000D01*
%TO.N,Net-(U5-AVDD1)*%
X74450000Y-70650000D02*
X74599800Y-70500200D01*
X74599800Y-70500200D02*
X74599800Y-68680500D01*
%TO.N,Net-(C21-Pad1)*%
X71551800Y-73928000D02*
X72528000Y-73928000D01*
X72912500Y-74312500D02*
X73850000Y-74312500D01*
X72528000Y-73928000D02*
X72912500Y-74312500D01*
%TO.N,Net-(C17-Pad1)*%
X78800000Y-53950000D02*
X79050000Y-53950000D01*
X78800000Y-53950000D02*
X78850000Y-53950000D01*
X79050000Y-55215500D02*
X79050000Y-54150000D01*
X78350000Y-53950000D02*
X78800000Y-53950000D01*
X79050000Y-54150000D02*
X79050000Y-53950000D01*
X78850000Y-53950000D02*
X79050000Y-54150000D01*
X79019400Y-55246100D02*
X79050000Y-55215500D01*
X76835000Y-54415000D02*
X76835000Y-55246100D01*
X78350000Y-53950000D02*
X77300000Y-53950000D01*
X77300000Y-53950000D02*
X76835000Y-54415000D01*
X79050000Y-53950000D02*
X80650000Y-52350000D01*
X80650000Y-52350000D02*
X80650000Y-51262500D01*
%TO.N,Net-(U5-VREFN)*%
X76800000Y-58350000D02*
X76800000Y-57006100D01*
X76800000Y-57006100D02*
X76835000Y-56971100D01*
X79050000Y-58350000D02*
X79050000Y-59625000D01*
X79050000Y-59625000D02*
X78875000Y-59800000D01*
X79050000Y-58350000D02*
X79050000Y-57001700D01*
X73637500Y-63000000D02*
X75287500Y-61350000D01*
X75287500Y-61350000D02*
X77325000Y-61350000D01*
X77325000Y-61350000D02*
X78875000Y-59800000D01*
%TO.N,Net-(U5-VREFP)*%
X74862500Y-50650000D02*
X75437500Y-50650000D01*
%TO.N,BIAS_E*%
X101100000Y-42436554D02*
X101100000Y-43850000D01*
X101100000Y-43850000D02*
X101546900Y-44296900D01*
X101546900Y-44296900D02*
X101546900Y-45593400D01*
X101100000Y-42436554D02*
X102063446Y-42436554D01*
X102063446Y-42436554D02*
X104190800Y-40309200D01*
X104190800Y-40309200D02*
X104190800Y-36474400D01*
%TO.N,SRB_IN*%
X100822300Y-41758000D02*
X101650800Y-40929500D01*
X100822300Y-41758000D02*
X100399582Y-42180718D01*
X100399582Y-42180718D02*
X100399582Y-45593400D01*
X101650800Y-40929500D02*
X101650800Y-36474400D01*
%TO.N,IN5P*%
X98844800Y-47332800D02*
X98512100Y-47332800D01*
X98512100Y-47332800D02*
X98422700Y-47422200D01*
%TO.N,BIAS_DRV*%
X101457500Y-47332800D02*
X101546900Y-47422200D01*
X101124800Y-47332800D02*
X101457500Y-47332800D01*
%TO.N,IN6P*%
X99604800Y-47332800D02*
X99604800Y-47387418D01*
X99604800Y-47387418D02*
X99570018Y-47422200D01*
%TO.N,SRB1*%
X100364800Y-47332800D02*
X100364800Y-47387418D01*
X100364800Y-47387418D02*
X100399582Y-47422200D01*
%TO.N,AVDD*%
X91697500Y-78802100D02*
X91705100Y-78802100D01*
X91705100Y-78802100D02*
X91709000Y-78806000D01*
%TO.N,START*%
X61400000Y-60650000D02*
X55650000Y-60650000D01*
X54374800Y-61925200D02*
X51308000Y-61925200D01*
X55650000Y-60650000D02*
X54374800Y-61925200D01*
%TO.N,CS*%
X61352600Y-62502600D02*
X59900000Y-62502600D01*
%TO.N,RESET*%
X55500000Y-59750000D02*
X55135200Y-59385200D01*
X55135200Y-59385200D02*
X51308000Y-59385200D01*
%TO.N,DRDY*%
X54250000Y-64150000D02*
X49700000Y-64150000D01*
X48300000Y-62750000D02*
X48300000Y-58550000D01*
X58100000Y-68000000D02*
X54250000Y-64150000D01*
X60900000Y-68000000D02*
X58100000Y-68000000D01*
X49700000Y-64150000D02*
X48300000Y-62750000D01*
X48300000Y-58550000D02*
X50004800Y-56845200D01*
X50004800Y-56845200D02*
X51308000Y-56845200D01*
%TO.N,Net-(U5-VREFN)*%
X71100000Y-59100000D02*
X71100000Y-59850000D01*
X72100000Y-58100000D02*
X72126900Y-58100000D01*
X72100000Y-58100000D02*
X71100000Y-59100000D01*
X72126900Y-58100000D02*
X74955400Y-55271500D01*
%TO.N,RESET*%
X61750000Y-59750000D02*
X55500000Y-59750000D01*
%TO.N,AGND*%
X81122500Y-81000000D02*
X81772500Y-81000000D01*
X81772500Y-81000000D02*
X82150000Y-80622500D01*
X82150000Y-80622500D02*
X82150000Y-80077500D01*
X82150000Y-80077500D02*
X81772500Y-79700000D01*
X81772500Y-79700000D02*
X81122500Y-79700000D01*
X95800000Y-45350000D02*
X95750000Y-45400000D01*
X95800000Y-42650000D02*
X95800000Y-45350000D01*
%TO.N,Net-(C17-Pad1)*%
X76705800Y-55246100D02*
X76835000Y-55246100D01*
X74955400Y-56996500D02*
X76705800Y-55246100D01*
%TO.N,VDD*%
X99734500Y-69711700D02*
X99593400Y-69570600D01*
X106161600Y-69711700D02*
X99734500Y-69711700D01*
%TO.N,DVSS*%
X85456000Y-86457800D02*
X85456000Y-85507800D01*
X85477600Y-86436200D02*
X85456000Y-86457800D01*
X88595200Y-86436200D02*
X85477600Y-86436200D01*
%TO.N,Net-(C21-Pad1)*%
X78000000Y-72625000D02*
X75537500Y-72625000D01*
X75537500Y-72625000D02*
X73850000Y-74312500D01*
%TO.N,Net-(C21-Pad2)*%
X77000000Y-66790300D02*
X77063600Y-66853900D01*
X77000000Y-65500000D02*
X77000000Y-66790300D01*
%TO.N,Net-(U5-BIASOUT)*%
X85775500Y-72009300D02*
X85826600Y-71958200D01*
X85826600Y-74848900D02*
X85775500Y-74900000D01*
X85826600Y-71958200D02*
X85826600Y-74848900D01*
%TO.N,3P*%
X91490800Y-43090800D02*
X91490800Y-36474400D01*
X91700000Y-43300000D02*
X91490800Y-43090800D01*
%TO.N,5P*%
X96570800Y-40200000D02*
X96570800Y-36474400D01*
X96570800Y-40200000D02*
X98422700Y-42051900D01*
X98422700Y-42051900D02*
X98422700Y-45593400D01*
%TO.N,6P*%
X98650000Y-40000000D02*
X99110800Y-39539200D01*
X98650000Y-40000000D02*
X99570018Y-40920018D01*
X99110800Y-39539200D02*
X99110800Y-36474400D01*
X99570018Y-40920018D02*
X99570018Y-45593400D01*
%TO.N,4P*%
X93400000Y-41750000D02*
X94030800Y-41119200D01*
X94030800Y-41119200D02*
X94030800Y-36474400D01*
%TO.N,1P*%
X87325000Y-40075000D02*
X86410800Y-39160800D01*
X86410800Y-39160800D02*
X86410800Y-36474400D01*
%TD*%
%TA.AperFunction,Conductor*%
%TO.N,DGND*%
G36*
X72003154Y-54905932D02*
G01*
X72230675Y-54923418D01*
X72246366Y-54925902D01*
X72464267Y-54978620D01*
X72479355Y-54983583D01*
X72686015Y-55070480D01*
X72700120Y-55077793D01*
X72890217Y-55196632D01*
X72902961Y-55206102D01*
X73020827Y-55309348D01*
X73071598Y-55353821D01*
X73082672Y-55365216D01*
X73225506Y-55538011D01*
X73234613Y-55551030D01*
X73310500Y-55680522D01*
X73347962Y-55744445D01*
X73354870Y-55758755D01*
X73405280Y-55888949D01*
X73408659Y-55950041D01*
X73382963Y-55994699D01*
X71985647Y-57392016D01*
X71939335Y-57418135D01*
X71849776Y-57440209D01*
X71699146Y-57519267D01*
X71571818Y-57632069D01*
X71571816Y-57632072D01*
X71475182Y-57772069D01*
X71419478Y-57918950D01*
X71396915Y-57953848D01*
X70707801Y-58642962D01*
X70698068Y-58651498D01*
X70671718Y-58671718D01*
X70671713Y-58671723D01*
X70589000Y-58779518D01*
X70588999Y-58779519D01*
X70575463Y-58797158D01*
X70538750Y-58885788D01*
X70499013Y-58932313D01*
X70489143Y-58937618D01*
X70485989Y-58939089D01*
X70339153Y-59029657D01*
X70217157Y-59151653D01*
X70126594Y-59298479D01*
X70126591Y-59298485D01*
X70072327Y-59462243D01*
X70072324Y-59462253D01*
X70062000Y-59563315D01*
X70062000Y-60136684D01*
X70072324Y-60237744D01*
X70072327Y-60237756D01*
X70126591Y-60401514D01*
X70126594Y-60401520D01*
X70217157Y-60548346D01*
X70217158Y-60548347D01*
X70217160Y-60548350D01*
X70339150Y-60670340D01*
X70339152Y-60670341D01*
X70339153Y-60670342D01*
X70485979Y-60760905D01*
X70485984Y-60760908D01*
X70649747Y-60815174D01*
X70649751Y-60815174D01*
X70649753Y-60815175D01*
X70716837Y-60822028D01*
X70750823Y-60825500D01*
X71288342Y-60825499D01*
X71346533Y-60844406D01*
X71382497Y-60893906D01*
X71382497Y-60955092D01*
X71376005Y-60970501D01*
X71375183Y-60972066D01*
X71340386Y-61063820D01*
X71319866Y-61117930D01*
X71314860Y-61131129D01*
X71296845Y-61279496D01*
X71294355Y-61300000D01*
X71314860Y-61468872D01*
X71329230Y-61506762D01*
X71372959Y-61622070D01*
X71375182Y-61627930D01*
X71381881Y-61637635D01*
X71381974Y-61637769D01*
X71399500Y-61694010D01*
X71399500Y-65305989D01*
X71381977Y-65362225D01*
X71375183Y-65372068D01*
X71375182Y-65372070D01*
X71338788Y-65468036D01*
X71314860Y-65531129D01*
X71295754Y-65688481D01*
X71294355Y-65700000D01*
X71314860Y-65868872D01*
X71375182Y-66027930D01*
X71471817Y-66167929D01*
X71599148Y-66280734D01*
X71749775Y-66359790D01*
X71914944Y-66400500D01*
X71914947Y-66400500D01*
X72085053Y-66400500D01*
X72085056Y-66400500D01*
X72250225Y-66359790D01*
X72400852Y-66280734D01*
X72528183Y-66167929D01*
X72624818Y-66027930D01*
X72685140Y-65868872D01*
X72705645Y-65700000D01*
X72685140Y-65531128D01*
X72624818Y-65372070D01*
X72618023Y-65362225D01*
X72600500Y-65305989D01*
X72600500Y-64323968D01*
X72619407Y-64265777D01*
X72668907Y-64229813D01*
X72730093Y-64229813D01*
X72751472Y-64239707D01*
X72756344Y-64242712D01*
X72905666Y-64334814D01*
X73072203Y-64389999D01*
X73174991Y-64400500D01*
X73271627Y-64400499D01*
X73329817Y-64419406D01*
X73365781Y-64468905D01*
X73370620Y-64500650D01*
X73354178Y-65914628D01*
X73357394Y-65977737D01*
X73360189Y-66002266D01*
X73360190Y-66002270D01*
X73374863Y-66078449D01*
X73374864Y-66078454D01*
X73427168Y-66198838D01*
X73432198Y-66210414D01*
X73435261Y-66215380D01*
X73450000Y-66267351D01*
X73450000Y-68116385D01*
X73449751Y-68123403D01*
X73430399Y-68395714D01*
X73428414Y-68409608D01*
X73371492Y-68673000D01*
X73367562Y-68686474D01*
X73273968Y-68939163D01*
X73268173Y-68951946D01*
X73139780Y-69188869D01*
X73132235Y-69200704D01*
X72971630Y-69417088D01*
X72962487Y-69427737D01*
X72772896Y-69619233D01*
X72762339Y-69628482D01*
X72547572Y-69791243D01*
X72535813Y-69798906D01*
X72300190Y-69929660D01*
X72287466Y-69935583D01*
X72035716Y-70031703D01*
X72022282Y-70035767D01*
X71759477Y-70095318D01*
X71745603Y-70097442D01*
X71473497Y-70119516D01*
X71466482Y-70119835D01*
X71463006Y-70119869D01*
X71445039Y-70120049D01*
X70413310Y-70130366D01*
X70361254Y-70118020D01*
X70321390Y-70071603D01*
X70316422Y-70010620D01*
X70318771Y-70002342D01*
X70340174Y-69937753D01*
X70340186Y-69937642D01*
X70350499Y-69836684D01*
X70350500Y-69836677D01*
X70350499Y-69263324D01*
X70350499Y-69263323D01*
X70350499Y-69263315D01*
X70340175Y-69162255D01*
X70340174Y-69162253D01*
X70340174Y-69162247D01*
X70285908Y-68998484D01*
X70251283Y-68942348D01*
X70195342Y-68851653D01*
X70195341Y-68851652D01*
X70195340Y-68851650D01*
X70073350Y-68729660D01*
X70073347Y-68729658D01*
X70073346Y-68729657D01*
X69926520Y-68639094D01*
X69926514Y-68639091D01*
X69762756Y-68584827D01*
X69762746Y-68584824D01*
X69661684Y-68574500D01*
X68963315Y-68574500D01*
X68862255Y-68584824D01*
X68862243Y-68584827D01*
X68698485Y-68639091D01*
X68698479Y-68639094D01*
X68551653Y-68729657D01*
X68519649Y-68761661D01*
X68465132Y-68789437D01*
X68404700Y-68779865D01*
X68379642Y-68761660D01*
X68348035Y-68730053D01*
X68201306Y-68639548D01*
X68037648Y-68585318D01*
X67936655Y-68575000D01*
X67687501Y-68575000D01*
X67687500Y-68575001D01*
X67687500Y-69551000D01*
X67668593Y-69609191D01*
X67619093Y-69645155D01*
X67588500Y-69650000D01*
X66550002Y-69650000D01*
X66550001Y-69650001D01*
X66550001Y-69836654D01*
X66560317Y-69937642D01*
X66560320Y-69937654D01*
X66614548Y-70101306D01*
X66705053Y-70248035D01*
X66826964Y-70369946D01*
X66973693Y-70460451D01*
X67137351Y-70514681D01*
X67238345Y-70524999D01*
X67286753Y-70524999D01*
X67344944Y-70543905D01*
X67380909Y-70593404D01*
X67380910Y-70654590D01*
X67356759Y-70694003D01*
X65157801Y-72892962D01*
X65148068Y-72901498D01*
X65121718Y-72921718D01*
X65121713Y-72921723D01*
X65032228Y-73038344D01*
X65032226Y-73038346D01*
X65025465Y-73047155D01*
X65025462Y-73047161D01*
X64964957Y-73193233D01*
X64964955Y-73193241D01*
X64944318Y-73349999D01*
X64944318Y-73350000D01*
X64948653Y-73382927D01*
X64949500Y-73395849D01*
X64949500Y-81976333D01*
X64930593Y-82034524D01*
X64881093Y-82070488D01*
X64849840Y-82075331D01*
X63054926Y-82063365D01*
X63054911Y-82063365D01*
X61050000Y-82050000D01*
X61041611Y-84054953D01*
X61041610Y-84054971D01*
X61008347Y-92004836D01*
X61008067Y-92011879D01*
X60987428Y-92285116D01*
X60985370Y-92299052D01*
X60926922Y-92563134D01*
X60922907Y-92576638D01*
X60827566Y-92829754D01*
X60821675Y-92842550D01*
X60691374Y-93079570D01*
X60683726Y-93091401D01*
X60521103Y-93307524D01*
X60511853Y-93318150D01*
X60320198Y-93509003D01*
X60309534Y-93518208D01*
X60092729Y-93679929D01*
X60080866Y-93687527D01*
X59843309Y-93816833D01*
X59830488Y-93822671D01*
X59576977Y-93916951D01*
X59563457Y-93920910D01*
X59299124Y-93978254D01*
X59285179Y-93980253D01*
X59011870Y-93999749D01*
X59004826Y-94000000D01*
X48003540Y-94000000D01*
X47996477Y-93999748D01*
X47722433Y-93980148D01*
X47708452Y-93978138D01*
X47443450Y-93920490D01*
X47429897Y-93916510D01*
X47203280Y-93831986D01*
X47175802Y-93821737D01*
X47162954Y-93815870D01*
X46924931Y-93685899D01*
X46913052Y-93678266D01*
X46695942Y-93515738D01*
X46685276Y-93506496D01*
X46493503Y-93314723D01*
X46484262Y-93304058D01*
X46321731Y-93086943D01*
X46314100Y-93075068D01*
X46297028Y-93043804D01*
X46184125Y-92837037D01*
X46178264Y-92824203D01*
X46083487Y-92570096D01*
X46079510Y-92556555D01*
X46021859Y-92291537D01*
X46019852Y-92277574D01*
X46000850Y-92011879D01*
X46000252Y-92003522D01*
X46000000Y-91996460D01*
X46000000Y-56996282D01*
X46000251Y-56989236D01*
X46019760Y-56715823D01*
X46021761Y-56701873D01*
X46041743Y-56609799D01*
X46079145Y-56437453D01*
X46083103Y-56423942D01*
X46177455Y-56170332D01*
X46183287Y-56157529D01*
X46312692Y-55919890D01*
X46320281Y-55908046D01*
X46482124Y-55691180D01*
X46491330Y-55680522D01*
X46682305Y-55488853D01*
X46692928Y-55479610D01*
X46909199Y-55316986D01*
X46921013Y-55309355D01*
X47158181Y-55179088D01*
X47170969Y-55173206D01*
X47424230Y-55077935D01*
X47437739Y-55073926D01*
X47701951Y-55015582D01*
X47715870Y-55013533D01*
X47989236Y-54993029D01*
X47996273Y-54992754D01*
X50083577Y-54985177D01*
X50141831Y-55003872D01*
X50165027Y-55027391D01*
X50267127Y-55173206D01*
X50269505Y-55176601D01*
X50436599Y-55343695D01*
X50630170Y-55479235D01*
X50643552Y-55485475D01*
X50688300Y-55527203D01*
X50699975Y-55587264D01*
X50674117Y-55642717D01*
X50643554Y-55664924D01*
X50630173Y-55671163D01*
X50436603Y-55806701D01*
X50269501Y-55973803D01*
X50133963Y-56167373D01*
X50125474Y-56185579D01*
X50083745Y-56230326D01*
X50023683Y-56242000D01*
X50022829Y-56241891D01*
X50004802Y-56239518D01*
X50004800Y-56239518D01*
X49965439Y-56244700D01*
X49848041Y-56260155D01*
X49848033Y-56260157D01*
X49701961Y-56320662D01*
X49701960Y-56320662D01*
X49576523Y-56416913D01*
X49576518Y-56416918D01*
X49556298Y-56443268D01*
X49547762Y-56453001D01*
X47907801Y-58092962D01*
X47898068Y-58101498D01*
X47871718Y-58121718D01*
X47871713Y-58121723D01*
X47810637Y-58201320D01*
X47775464Y-58247157D01*
X47775462Y-58247161D01*
X47714957Y-58393233D01*
X47714955Y-58393241D01*
X47694318Y-58549999D01*
X47694318Y-58550000D01*
X47698653Y-58582927D01*
X47699500Y-58595849D01*
X47699500Y-62704149D01*
X47698653Y-62717071D01*
X47694318Y-62749999D01*
X47694318Y-62750000D01*
X47703938Y-62823072D01*
X47714955Y-62906758D01*
X47714957Y-62906766D01*
X47775462Y-63052838D01*
X47775462Y-63052839D01*
X47871713Y-63178276D01*
X47871718Y-63178282D01*
X47871722Y-63178285D01*
X47898063Y-63198497D01*
X47907800Y-63207035D01*
X49242964Y-64542199D01*
X49251502Y-64551936D01*
X49271718Y-64578282D01*
X49317274Y-64613238D01*
X49397159Y-64674536D01*
X49397160Y-64674536D01*
X49397161Y-64674537D01*
X49399486Y-64675500D01*
X49543238Y-64735044D01*
X49660639Y-64750500D01*
X49699999Y-64755682D01*
X49700000Y-64755682D01*
X49700001Y-64755682D01*
X49732928Y-64751347D01*
X49745850Y-64750500D01*
X50444809Y-64750500D01*
X50503000Y-64769407D01*
X50538964Y-64818907D01*
X50538964Y-64880093D01*
X50503000Y-64929593D01*
X50501592Y-64930596D01*
X50436607Y-64976098D01*
X50436605Y-64976099D01*
X50269501Y-65143203D01*
X50133963Y-65336773D01*
X50133959Y-65336781D01*
X50034098Y-65550932D01*
X49972935Y-65779199D01*
X49952341Y-66014595D01*
X49952341Y-66014604D01*
X49972935Y-66250000D01*
X49972936Y-66250007D01*
X49972937Y-66250008D01*
X50034097Y-66478263D01*
X50133965Y-66692430D01*
X50159069Y-66728282D01*
X50268773Y-66884957D01*
X50269505Y-66886001D01*
X50436599Y-67053095D01*
X50436602Y-67053097D01*
X50436603Y-67053098D01*
X50450392Y-67062753D01*
X50630170Y-67188635D01*
X50643552Y-67194875D01*
X50688300Y-67236603D01*
X50699975Y-67296664D01*
X50674117Y-67352117D01*
X50643554Y-67374324D01*
X50630173Y-67380563D01*
X50436603Y-67516101D01*
X50269501Y-67683203D01*
X50133963Y-67876773D01*
X50133959Y-67876781D01*
X50034098Y-68090932D01*
X49972935Y-68319199D01*
X49952341Y-68554595D01*
X49952341Y-68554604D01*
X49972935Y-68790000D01*
X49972936Y-68790007D01*
X49972937Y-68790008D01*
X50034097Y-69018263D01*
X50133965Y-69232430D01*
X50155591Y-69263315D01*
X50258450Y-69410214D01*
X50269505Y-69426001D01*
X50436599Y-69593095D01*
X50630170Y-69728635D01*
X50643552Y-69734875D01*
X50688300Y-69776603D01*
X50699975Y-69836664D01*
X50674117Y-69892117D01*
X50643554Y-69914324D01*
X50630173Y-69920563D01*
X50436603Y-70056101D01*
X50269501Y-70223203D01*
X50133963Y-70416773D01*
X50133959Y-70416781D01*
X50034098Y-70630932D01*
X49972935Y-70859199D01*
X49952341Y-71094595D01*
X49952341Y-71094604D01*
X49972935Y-71330000D01*
X49972936Y-71330007D01*
X49972937Y-71330008D01*
X50034097Y-71558263D01*
X50133965Y-71772430D01*
X50269505Y-71966001D01*
X50436599Y-72133095D01*
X50436602Y-72133097D01*
X50436603Y-72133098D01*
X50448430Y-72141379D01*
X50630170Y-72268635D01*
X50634751Y-72270771D01*
X50643552Y-72274875D01*
X50688300Y-72316603D01*
X50699975Y-72376664D01*
X50674117Y-72432117D01*
X50643554Y-72454324D01*
X50630173Y-72460563D01*
X50436603Y-72596101D01*
X50269501Y-72763203D01*
X50133963Y-72956773D01*
X50133959Y-72956781D01*
X50034098Y-73170932D01*
X49972935Y-73399199D01*
X49952341Y-73634595D01*
X49952341Y-73634604D01*
X49972935Y-73870000D01*
X49972936Y-73870007D01*
X49972937Y-73870008D01*
X50034097Y-74098263D01*
X50081541Y-74200006D01*
X50133964Y-74312428D01*
X50258859Y-74490798D01*
X50269505Y-74506001D01*
X50436599Y-74673095D01*
X50630170Y-74808635D01*
X50643552Y-74814875D01*
X50688300Y-74856603D01*
X50699975Y-74916664D01*
X50674117Y-74972117D01*
X50643554Y-74994324D01*
X50630173Y-75000563D01*
X50436603Y-75136101D01*
X50269501Y-75303203D01*
X50133963Y-75496773D01*
X50133959Y-75496781D01*
X50034098Y-75710932D01*
X49972935Y-75939199D01*
X49952341Y-76174595D01*
X49952341Y-76174604D01*
X49972935Y-76410000D01*
X49972936Y-76410007D01*
X49972937Y-76410008D01*
X50034097Y-76638263D01*
X50133965Y-76852430D01*
X50143200Y-76865619D01*
X50255097Y-77025425D01*
X50269505Y-77046001D01*
X50436599Y-77213095D01*
X50436602Y-77213097D01*
X50436603Y-77213098D01*
X50479468Y-77243112D01*
X50630170Y-77348635D01*
X50643552Y-77354875D01*
X50688300Y-77396603D01*
X50699975Y-77456664D01*
X50674117Y-77512117D01*
X50643554Y-77534324D01*
X50630173Y-77540563D01*
X50436603Y-77676101D01*
X50269501Y-77843203D01*
X50133963Y-78036773D01*
X50133959Y-78036781D01*
X50034098Y-78250932D01*
X49972935Y-78479199D01*
X49952341Y-78714595D01*
X49952341Y-78714604D01*
X49972935Y-78950000D01*
X49972936Y-78950007D01*
X49972937Y-78950008D01*
X50034097Y-79178263D01*
X50133965Y-79392430D01*
X50167025Y-79439644D01*
X50262516Y-79576021D01*
X50269505Y-79586001D01*
X50436599Y-79753095D01*
X50436602Y-79753097D01*
X50436603Y-79753098D01*
X50500901Y-79798120D01*
X50630170Y-79888635D01*
X50630171Y-79888635D01*
X50630172Y-79888636D01*
X50630174Y-79888637D01*
X50644143Y-79895151D01*
X50688892Y-79936879D01*
X50700567Y-79996940D01*
X50674710Y-80052393D01*
X50644146Y-80074600D01*
X50630424Y-80080998D01*
X50436926Y-80216486D01*
X50269886Y-80383526D01*
X50134398Y-80577024D01*
X50134394Y-80577032D01*
X50034570Y-80791105D01*
X49973429Y-81019286D01*
X49961591Y-81154599D01*
X49961592Y-81154600D01*
X50816254Y-81154600D01*
X50808000Y-81182711D01*
X50808000Y-81326489D01*
X50816254Y-81354600D01*
X49961591Y-81354600D01*
X49973429Y-81489913D01*
X50034569Y-81718089D01*
X50134399Y-81932177D01*
X50269886Y-82125673D01*
X50436926Y-82292713D01*
X50630422Y-82428200D01*
X50644144Y-82434599D01*
X50688892Y-82476327D01*
X50700567Y-82536388D01*
X50674709Y-82591841D01*
X50644145Y-82614048D01*
X50630177Y-82620561D01*
X50630173Y-82620563D01*
X50436603Y-82756101D01*
X50269501Y-82923203D01*
X50133963Y-83116773D01*
X50133959Y-83116781D01*
X50034098Y-83330932D01*
X49972935Y-83559199D01*
X49952341Y-83794595D01*
X49952341Y-83794604D01*
X49972935Y-84030000D01*
X49972936Y-84030007D01*
X49972937Y-84030008D01*
X50034097Y-84258263D01*
X50133965Y-84472430D01*
X50269505Y-84666001D01*
X50436599Y-84833095D01*
X50630170Y-84968635D01*
X50643552Y-84974875D01*
X50688300Y-85016603D01*
X50699975Y-85076664D01*
X50674117Y-85132117D01*
X50643554Y-85154324D01*
X50630173Y-85160563D01*
X50436603Y-85296101D01*
X50269501Y-85463203D01*
X50133963Y-85656773D01*
X50133959Y-85656781D01*
X50034098Y-85870932D01*
X49972935Y-86099199D01*
X49952341Y-86334595D01*
X49952341Y-86334604D01*
X49972935Y-86570000D01*
X49972936Y-86570007D01*
X49972937Y-86570008D01*
X50034097Y-86798263D01*
X50133965Y-87012430D01*
X50269505Y-87206001D01*
X50424060Y-87360556D01*
X50451836Y-87415071D01*
X50442265Y-87475503D01*
X50399000Y-87518768D01*
X50364637Y-87528991D01*
X50350517Y-87530509D01*
X50350514Y-87530509D01*
X50215670Y-87580802D01*
X50100458Y-87667050D01*
X50100450Y-87667058D01*
X50014202Y-87782270D01*
X49963910Y-87917111D01*
X49963908Y-87917122D01*
X49957500Y-87976729D01*
X49957500Y-89772466D01*
X49957501Y-89772470D01*
X49963908Y-89832080D01*
X49963909Y-89832085D01*
X50014202Y-89966929D01*
X50100450Y-90082141D01*
X50100454Y-90082146D01*
X50100457Y-90082148D01*
X50100458Y-90082149D01*
X50215670Y-90168397D01*
X50350511Y-90218689D01*
X50350512Y-90218689D01*
X50350517Y-90218691D01*
X50410127Y-90225100D01*
X52205872Y-90225099D01*
X52265483Y-90218691D01*
X52332907Y-90193543D01*
X52400329Y-90168397D01*
X52400329Y-90168396D01*
X52400331Y-90168396D01*
X52515546Y-90082146D01*
X52601796Y-89966931D01*
X52652091Y-89832083D01*
X52658500Y-89772473D01*
X52658499Y-87976728D01*
X52652091Y-87917117D01*
X52652089Y-87917111D01*
X52601797Y-87782270D01*
X52515549Y-87667058D01*
X52515548Y-87667057D01*
X52515546Y-87667054D01*
X52515541Y-87667050D01*
X52400329Y-87580802D01*
X52265488Y-87530510D01*
X52265471Y-87530506D01*
X52251358Y-87528989D01*
X52195523Y-87503968D01*
X52165059Y-87450906D01*
X52171602Y-87390071D01*
X52191939Y-87360556D01*
X52346495Y-87206001D01*
X52482035Y-87012430D01*
X52581903Y-86798263D01*
X52643063Y-86570008D01*
X52663659Y-86334600D01*
X52643063Y-86099192D01*
X52581903Y-85870937D01*
X52482035Y-85656771D01*
X52346495Y-85463199D01*
X52179401Y-85296105D01*
X52179397Y-85296102D01*
X52179396Y-85296101D01*
X52072007Y-85220907D01*
X51985830Y-85160565D01*
X51972447Y-85154324D01*
X51927700Y-85112597D01*
X51916025Y-85052536D01*
X51941883Y-84997083D01*
X51972448Y-84974875D01*
X51985830Y-84968635D01*
X52179401Y-84833095D01*
X52346495Y-84666001D01*
X52482035Y-84472430D01*
X52581903Y-84258263D01*
X52643063Y-84030008D01*
X52643064Y-84030000D01*
X52663659Y-83794604D01*
X52663659Y-83794595D01*
X52643064Y-83559199D01*
X52643063Y-83559196D01*
X52643063Y-83559192D01*
X52581903Y-83330937D01*
X52564324Y-83293238D01*
X52482040Y-83116781D01*
X52482036Y-83116773D01*
X52346498Y-82923203D01*
X52346497Y-82923202D01*
X52346495Y-82923199D01*
X52179401Y-82756105D01*
X52179397Y-82756102D01*
X52179396Y-82756101D01*
X51985827Y-82620563D01*
X51971853Y-82614047D01*
X51927106Y-82572318D01*
X51915432Y-82512256D01*
X51941291Y-82456804D01*
X51971860Y-82434596D01*
X51985577Y-82428200D01*
X51985579Y-82428199D01*
X52179073Y-82292713D01*
X52346113Y-82125673D01*
X52481600Y-81932177D01*
X52581430Y-81718089D01*
X52642570Y-81489913D01*
X52654408Y-81354600D01*
X51799746Y-81354600D01*
X51808000Y-81326489D01*
X51808000Y-81182711D01*
X51799746Y-81154600D01*
X52654408Y-81154600D01*
X52654408Y-81154599D01*
X52642570Y-81019286D01*
X52581429Y-80791105D01*
X52481605Y-80577032D01*
X52481601Y-80577024D01*
X52346113Y-80383526D01*
X52179073Y-80216486D01*
X51985577Y-80080999D01*
X51971856Y-80074601D01*
X51927108Y-80032873D01*
X51915433Y-79972812D01*
X51941291Y-79917359D01*
X51971857Y-79895151D01*
X51978053Y-79892261D01*
X51985830Y-79888635D01*
X52179401Y-79753095D01*
X52346495Y-79586001D01*
X52482035Y-79392430D01*
X52581903Y-79178263D01*
X52643063Y-78950008D01*
X52652294Y-78844499D01*
X52663659Y-78714604D01*
X52663659Y-78714595D01*
X52643064Y-78479200D01*
X52643063Y-78479198D01*
X52643063Y-78479192D01*
X52621292Y-78397942D01*
X52624494Y-78336844D01*
X52646913Y-78302320D01*
X61219739Y-69729496D01*
X61274256Y-69701719D01*
X61289743Y-69700500D01*
X65054150Y-69700500D01*
X65067072Y-69701347D01*
X65099999Y-69705682D01*
X65100000Y-69705682D01*
X65100001Y-69705682D01*
X65143159Y-69700000D01*
X65256762Y-69685044D01*
X65402841Y-69624536D01*
X65488369Y-69558908D01*
X65528282Y-69528282D01*
X65548498Y-69501933D01*
X65557028Y-69492205D01*
X65599234Y-69449999D01*
X66550000Y-69449999D01*
X66550001Y-69450000D01*
X67487499Y-69450000D01*
X67487500Y-69449999D01*
X67487500Y-68575001D01*
X67487499Y-68575000D01*
X67238345Y-68575000D01*
X67137357Y-68585317D01*
X67137345Y-68585320D01*
X66973693Y-68639548D01*
X66826964Y-68730053D01*
X66705053Y-68851964D01*
X66614548Y-68998693D01*
X66560318Y-69162351D01*
X66550000Y-69263344D01*
X66550000Y-69449999D01*
X65599234Y-69449999D01*
X68292205Y-66757028D01*
X68301937Y-66748496D01*
X68328282Y-66728282D01*
X68328284Y-66728280D01*
X68388727Y-66649508D01*
X68424536Y-66602841D01*
X68485044Y-66456762D01*
X68497273Y-66363871D01*
X68505682Y-66300000D01*
X68501347Y-66267071D01*
X68500500Y-66254149D01*
X68500500Y-62344010D01*
X68518026Y-62287769D01*
X68524818Y-62277930D01*
X68585140Y-62118872D01*
X68605645Y-61950000D01*
X68585140Y-61781128D01*
X68524818Y-61622070D01*
X68428183Y-61482071D01*
X68422383Y-61476933D01*
X68300853Y-61369267D01*
X68300852Y-61369266D01*
X68150225Y-61290210D01*
X68150224Y-61290209D01*
X68150223Y-61290209D01*
X67985058Y-61249500D01*
X67985056Y-61249500D01*
X67814944Y-61249500D01*
X67814941Y-61249500D01*
X67649776Y-61290209D01*
X67499146Y-61369267D01*
X67371818Y-61482069D01*
X67371816Y-61482072D01*
X67295127Y-61593174D01*
X67246510Y-61630323D01*
X67185343Y-61631801D01*
X67148003Y-61611037D01*
X67100856Y-61569268D01*
X66981762Y-61506762D01*
X66950225Y-61490210D01*
X66950224Y-61490209D01*
X66950223Y-61490209D01*
X66896360Y-61476933D01*
X66850049Y-61450814D01*
X66207035Y-60807800D01*
X66198502Y-60798069D01*
X66185747Y-60781447D01*
X66170317Y-60752326D01*
X66135908Y-60648484D01*
X66045534Y-60501964D01*
X66045342Y-60501653D01*
X66045341Y-60501652D01*
X66045340Y-60501650D01*
X65923350Y-60379660D01*
X65923347Y-60379658D01*
X65923346Y-60379657D01*
X65776520Y-60289094D01*
X65776514Y-60289091D01*
X65612756Y-60234827D01*
X65612746Y-60234824D01*
X65511684Y-60224500D01*
X64913315Y-60224500D01*
X64812255Y-60234824D01*
X64812243Y-60234827D01*
X64648485Y-60289091D01*
X64648479Y-60289094D01*
X64501653Y-60379657D01*
X64379653Y-60501657D01*
X64377327Y-60504599D01*
X64326399Y-60538511D01*
X64265265Y-60536011D01*
X64222017Y-60504584D01*
X64219944Y-60501962D01*
X64098035Y-60380053D01*
X63951306Y-60289548D01*
X63787648Y-60235318D01*
X63686655Y-60225000D01*
X63487501Y-60225000D01*
X63487500Y-60225001D01*
X63487500Y-67649998D01*
X63487501Y-67649999D01*
X63686654Y-67649999D01*
X63787642Y-67639682D01*
X63787654Y-67639679D01*
X63951306Y-67585451D01*
X64098035Y-67494946D01*
X64219945Y-67373036D01*
X64222019Y-67370414D01*
X64223663Y-67369318D01*
X64224022Y-67368960D01*
X64224093Y-67369031D01*
X64272941Y-67336493D01*
X64334076Y-67338982D01*
X64377337Y-67370412D01*
X64379656Y-67373345D01*
X64379658Y-67373347D01*
X64379660Y-67373350D01*
X64501650Y-67495340D01*
X64501652Y-67495341D01*
X64501653Y-67495342D01*
X64539198Y-67518500D01*
X64648484Y-67585908D01*
X64812247Y-67640174D01*
X64812251Y-67640174D01*
X64812253Y-67640175D01*
X64880905Y-67647188D01*
X64913323Y-67650500D01*
X65461257Y-67650499D01*
X65519448Y-67669406D01*
X65555412Y-67718906D01*
X65555412Y-67780092D01*
X65531261Y-67819503D01*
X64880261Y-68470504D01*
X64825744Y-68498281D01*
X64810257Y-68499500D01*
X61595020Y-68499500D01*
X61536829Y-68480593D01*
X61500865Y-68431093D01*
X61500865Y-68369907D01*
X61513545Y-68344261D01*
X61514533Y-68342830D01*
X61524818Y-68327930D01*
X61585140Y-68168872D01*
X61605645Y-68000000D01*
X61585140Y-67831128D01*
X61524818Y-67672070D01*
X61428183Y-67532071D01*
X61412864Y-67518500D01*
X61300853Y-67419267D01*
X61300852Y-67419266D01*
X61150225Y-67340210D01*
X61150224Y-67340209D01*
X61150223Y-67340209D01*
X60985058Y-67299500D01*
X60985056Y-67299500D01*
X60814944Y-67299500D01*
X60814941Y-67299500D01*
X60649776Y-67340209D01*
X60558415Y-67388160D01*
X60512407Y-67399500D01*
X58389743Y-67399500D01*
X58331552Y-67380593D01*
X58319739Y-67370504D01*
X57910889Y-66961654D01*
X62400001Y-66961654D01*
X62410317Y-67062642D01*
X62410320Y-67062654D01*
X62464548Y-67226306D01*
X62555053Y-67373035D01*
X62676964Y-67494946D01*
X62823693Y-67585451D01*
X62987351Y-67639681D01*
X63088345Y-67649999D01*
X63287498Y-67649999D01*
X63287500Y-67649998D01*
X63287500Y-66775001D01*
X63287499Y-66775000D01*
X62400002Y-66775000D01*
X62400001Y-66775001D01*
X62400001Y-66961654D01*
X57910889Y-66961654D01*
X57524234Y-66574999D01*
X62400000Y-66574999D01*
X62400001Y-66575000D01*
X63287499Y-66575000D01*
X63287500Y-66574999D01*
X63287500Y-64870001D01*
X63287499Y-64870000D01*
X62400002Y-64870000D01*
X62400001Y-64870001D01*
X62400001Y-65056654D01*
X62410317Y-65157642D01*
X62410320Y-65157654D01*
X62464548Y-65321306D01*
X62555053Y-65468035D01*
X62676964Y-65589946D01*
X62755259Y-65638240D01*
X62794860Y-65684881D01*
X62799483Y-65745892D01*
X62767361Y-65797967D01*
X62755259Y-65806760D01*
X62676964Y-65855053D01*
X62555053Y-65976964D01*
X62464548Y-66123693D01*
X62410318Y-66287351D01*
X62400000Y-66388344D01*
X62400000Y-66574999D01*
X57524234Y-66574999D01*
X55619234Y-64669999D01*
X62400000Y-64669999D01*
X62400001Y-64670000D01*
X63287499Y-64670000D01*
X63287500Y-64669999D01*
X63287500Y-63092001D01*
X63287499Y-63092000D01*
X62400002Y-63092000D01*
X62400001Y-63092001D01*
X62400001Y-63278654D01*
X62410317Y-63379642D01*
X62410320Y-63379654D01*
X62464548Y-63543306D01*
X62555053Y-63690035D01*
X62676014Y-63810996D01*
X62703791Y-63865513D01*
X62694220Y-63925945D01*
X62676014Y-63951004D01*
X62555054Y-64071963D01*
X62555053Y-64071964D01*
X62464548Y-64218693D01*
X62410318Y-64382351D01*
X62400000Y-64483344D01*
X62400000Y-64669999D01*
X55619234Y-64669999D01*
X54707037Y-63757802D01*
X54698499Y-63748065D01*
X54678286Y-63721723D01*
X54678285Y-63721722D01*
X54678282Y-63721718D01*
X54678277Y-63721714D01*
X54678276Y-63721713D01*
X54552838Y-63625462D01*
X54406766Y-63564957D01*
X54406758Y-63564955D01*
X54289361Y-63549500D01*
X54250000Y-63544318D01*
X54249999Y-63544318D01*
X54217072Y-63548653D01*
X54204150Y-63549500D01*
X49989743Y-63549500D01*
X49931552Y-63530593D01*
X49919739Y-63520504D01*
X48929496Y-62530261D01*
X48901719Y-62475744D01*
X48900500Y-62460257D01*
X48900500Y-58839742D01*
X48919407Y-58781551D01*
X48929490Y-58769744D01*
X50067935Y-57631298D01*
X50122450Y-57603523D01*
X50182882Y-57613094D01*
X50219032Y-57644519D01*
X50269505Y-57716601D01*
X50436599Y-57883695D01*
X50630170Y-58019235D01*
X50643552Y-58025475D01*
X50688300Y-58067203D01*
X50699975Y-58127264D01*
X50674117Y-58182717D01*
X50643554Y-58204924D01*
X50630173Y-58211163D01*
X50436603Y-58346701D01*
X50269501Y-58513803D01*
X50133963Y-58707373D01*
X50133959Y-58707381D01*
X50034098Y-58921532D01*
X49972935Y-59149799D01*
X49952341Y-59385195D01*
X49952341Y-59385204D01*
X49972935Y-59620600D01*
X49972936Y-59620607D01*
X49972937Y-59620608D01*
X50034097Y-59848863D01*
X50133965Y-60063030D01*
X50144398Y-60077930D01*
X50264637Y-60249650D01*
X50269505Y-60256601D01*
X50424060Y-60411156D01*
X50451836Y-60465671D01*
X50442265Y-60526103D01*
X50399000Y-60569368D01*
X50364637Y-60579591D01*
X50350517Y-60581109D01*
X50350514Y-60581109D01*
X50215670Y-60631402D01*
X50100458Y-60717650D01*
X50100450Y-60717658D01*
X50014202Y-60832870D01*
X49963910Y-60967711D01*
X49963908Y-60967722D01*
X49957500Y-61027329D01*
X49957500Y-62823066D01*
X49957501Y-62823070D01*
X49963908Y-62882680D01*
X49963909Y-62882685D01*
X50014202Y-63017529D01*
X50069952Y-63092001D01*
X50100454Y-63132746D01*
X50100457Y-63132748D01*
X50100458Y-63132749D01*
X50215670Y-63218997D01*
X50350511Y-63269289D01*
X50350512Y-63269289D01*
X50350517Y-63269291D01*
X50410127Y-63275700D01*
X52205872Y-63275699D01*
X52265483Y-63269291D01*
X52332907Y-63244143D01*
X52400329Y-63218997D01*
X52400329Y-63218996D01*
X52400331Y-63218996D01*
X52515546Y-63132746D01*
X52601796Y-63017531D01*
X52652091Y-62882683D01*
X52658500Y-62823073D01*
X52658500Y-62624700D01*
X52677407Y-62566509D01*
X52726907Y-62530545D01*
X52757500Y-62525700D01*
X54328950Y-62525700D01*
X54341872Y-62526547D01*
X54374799Y-62530882D01*
X54374800Y-62530882D01*
X54374801Y-62530882D01*
X54414161Y-62525700D01*
X54531562Y-62510244D01*
X54550016Y-62502600D01*
X59194355Y-62502600D01*
X59214860Y-62671472D01*
X59275182Y-62830530D01*
X59371817Y-62970529D01*
X59499148Y-63083334D01*
X59649775Y-63162390D01*
X59814944Y-63203100D01*
X59814947Y-63203100D01*
X59985053Y-63203100D01*
X59985056Y-63203100D01*
X60150225Y-63162390D01*
X60241585Y-63114440D01*
X60287593Y-63103100D01*
X60965007Y-63103100D01*
X61011015Y-63114440D01*
X61102375Y-63162390D01*
X61267544Y-63203100D01*
X61267547Y-63203100D01*
X61437653Y-63203100D01*
X61437656Y-63203100D01*
X61602825Y-63162390D01*
X61753452Y-63083334D01*
X61880783Y-62970529D01*
X61934989Y-62891999D01*
X62400000Y-62891999D01*
X62400001Y-62892000D01*
X63287499Y-62892000D01*
X63287500Y-62891999D01*
X63287500Y-61300001D01*
X63287499Y-61300000D01*
X62400002Y-61300000D01*
X62400001Y-61300001D01*
X62400001Y-61486654D01*
X62410317Y-61587642D01*
X62410320Y-61587654D01*
X62464548Y-61751306D01*
X62555053Y-61898035D01*
X62681040Y-62024022D01*
X62679647Y-62025414D01*
X62708857Y-62069276D01*
X62706359Y-62130410D01*
X62679895Y-62166833D01*
X62681040Y-62167978D01*
X62555054Y-62293963D01*
X62555053Y-62293964D01*
X62464548Y-62440693D01*
X62410318Y-62604351D01*
X62400000Y-62705344D01*
X62400000Y-62891999D01*
X61934989Y-62891999D01*
X61977418Y-62830530D01*
X62037740Y-62671472D01*
X62058245Y-62502600D01*
X62037740Y-62333728D01*
X61977418Y-62174670D01*
X61880783Y-62034671D01*
X61870057Y-62025169D01*
X61753453Y-61921867D01*
X61753452Y-61921866D01*
X61602825Y-61842810D01*
X61602824Y-61842809D01*
X61602823Y-61842809D01*
X61437658Y-61802100D01*
X61437656Y-61802100D01*
X61267544Y-61802100D01*
X61267541Y-61802100D01*
X61102376Y-61842809D01*
X61011015Y-61890760D01*
X60965007Y-61902100D01*
X60287593Y-61902100D01*
X60241585Y-61890760D01*
X60150223Y-61842809D01*
X59985058Y-61802100D01*
X59985056Y-61802100D01*
X59814944Y-61802100D01*
X59814941Y-61802100D01*
X59649776Y-61842809D01*
X59499146Y-61921867D01*
X59371818Y-62034669D01*
X59371816Y-62034672D01*
X59347922Y-62069289D01*
X59275182Y-62174670D01*
X59217029Y-62328011D01*
X59214860Y-62333729D01*
X59205969Y-62406955D01*
X59194355Y-62502600D01*
X54550016Y-62502600D01*
X54677641Y-62449736D01*
X54733393Y-62406956D01*
X54803082Y-62353482D01*
X54823298Y-62327133D01*
X54831828Y-62317405D01*
X55869739Y-61279496D01*
X55924256Y-61251719D01*
X55939743Y-61250500D01*
X61012407Y-61250500D01*
X61058415Y-61261840D01*
X61149775Y-61309790D01*
X61314944Y-61350500D01*
X61314947Y-61350500D01*
X61485053Y-61350500D01*
X61485056Y-61350500D01*
X61650225Y-61309790D01*
X61800852Y-61230734D01*
X61928183Y-61117929D01*
X61940559Y-61099999D01*
X62400000Y-61099999D01*
X62400001Y-61100000D01*
X63287499Y-61100000D01*
X63287500Y-61099999D01*
X63287500Y-60225001D01*
X63287499Y-60225000D01*
X63088345Y-60225000D01*
X62987357Y-60235317D01*
X62987345Y-60235320D01*
X62823693Y-60289548D01*
X62676964Y-60380053D01*
X62555053Y-60501964D01*
X62464548Y-60648693D01*
X62410318Y-60812351D01*
X62400000Y-60913344D01*
X62400000Y-61099999D01*
X61940559Y-61099999D01*
X62024818Y-60977930D01*
X62085140Y-60818872D01*
X62105645Y-60650000D01*
X62105486Y-60648693D01*
X62085140Y-60481130D01*
X62085140Y-60481128D01*
X62079581Y-60466469D01*
X62076624Y-60405356D01*
X62110154Y-60354176D01*
X62126135Y-60343706D01*
X62150852Y-60330734D01*
X62278183Y-60217929D01*
X62374818Y-60077930D01*
X62435140Y-59918872D01*
X62455645Y-59750000D01*
X62435140Y-59581128D01*
X62374818Y-59422070D01*
X62278183Y-59282071D01*
X62250110Y-59257201D01*
X62190796Y-59204653D01*
X62150852Y-59169266D01*
X62000225Y-59090210D01*
X62000224Y-59090209D01*
X62000223Y-59090209D01*
X61835058Y-59049500D01*
X61835056Y-59049500D01*
X61664944Y-59049500D01*
X61664941Y-59049500D01*
X61499776Y-59090209D01*
X61408415Y-59138160D01*
X61362407Y-59149500D01*
X55789743Y-59149500D01*
X55731552Y-59130593D01*
X55719739Y-59120504D01*
X55592235Y-58993000D01*
X55583697Y-58983263D01*
X55563485Y-58956922D01*
X55563482Y-58956918D01*
X55563477Y-58956914D01*
X55563476Y-58956913D01*
X55483129Y-58895261D01*
X55438041Y-58860664D01*
X55438040Y-58860663D01*
X55438038Y-58860662D01*
X55291966Y-58800157D01*
X55291958Y-58800155D01*
X55174561Y-58784700D01*
X55135200Y-58779518D01*
X55135199Y-58779518D01*
X55102272Y-58783853D01*
X55089350Y-58784700D01*
X52581164Y-58784700D01*
X52522973Y-58765793D01*
X52491439Y-58727538D01*
X52482037Y-58707375D01*
X52482036Y-58707373D01*
X52473865Y-58695704D01*
X52371842Y-58549999D01*
X52346498Y-58513803D01*
X52346497Y-58513802D01*
X52346495Y-58513799D01*
X52179401Y-58346705D01*
X52179397Y-58346702D01*
X52179396Y-58346701D01*
X52072007Y-58271507D01*
X51985830Y-58211165D01*
X51972447Y-58204924D01*
X51927700Y-58163197D01*
X51916025Y-58103136D01*
X51941883Y-58047683D01*
X51972448Y-58025475D01*
X51985830Y-58019235D01*
X52179401Y-57883695D01*
X52346495Y-57716601D01*
X52482035Y-57523030D01*
X52581903Y-57308863D01*
X52643063Y-57080608D01*
X52650441Y-56996282D01*
X52663659Y-56845204D01*
X52663659Y-56845195D01*
X52643064Y-56609799D01*
X52643063Y-56609796D01*
X52643063Y-56609792D01*
X52581903Y-56381537D01*
X52568862Y-56353571D01*
X52482040Y-56167381D01*
X52482036Y-56167373D01*
X52475143Y-56157529D01*
X52346495Y-55973799D01*
X52179401Y-55806705D01*
X52179397Y-55806702D01*
X52179396Y-55806701D01*
X51999193Y-55680522D01*
X51985830Y-55671165D01*
X51972447Y-55664924D01*
X51927700Y-55623197D01*
X51916025Y-55563136D01*
X51941883Y-55507683D01*
X51972448Y-55485475D01*
X51985830Y-55479235D01*
X52179401Y-55343695D01*
X52346495Y-55176601D01*
X52457211Y-55018482D01*
X52506074Y-54981661D01*
X52537941Y-54976268D01*
X69212739Y-54915743D01*
X71995231Y-54905643D01*
X72003154Y-54905932D01*
G37*
%TD.AperFunction*%
%TD*%
%TA.AperFunction,Conductor*%
%TO.N,AGND*%
G36*
X81464576Y-52154024D02*
G01*
X81496697Y-52206100D01*
X81499500Y-52229491D01*
X81499500Y-75800500D01*
X81480593Y-75858691D01*
X81431093Y-75894655D01*
X81400500Y-75899500D01*
X72663543Y-75899500D01*
X72605352Y-75880593D01*
X72593539Y-75870504D01*
X72556295Y-75833260D01*
X72528518Y-75778743D01*
X72527299Y-75763256D01*
X72527299Y-75341315D01*
X72527298Y-75341305D01*
X72516975Y-75240255D01*
X72516974Y-75240253D01*
X72516974Y-75240247D01*
X72462708Y-75076484D01*
X72460774Y-75073348D01*
X72372142Y-74929653D01*
X72372141Y-74929652D01*
X72372140Y-74929650D01*
X72315491Y-74873001D01*
X72287716Y-74818487D01*
X72297287Y-74758055D01*
X72315491Y-74732999D01*
X72318024Y-74730466D01*
X72327757Y-74720732D01*
X72382270Y-74692954D01*
X72442702Y-74702524D01*
X72476302Y-74730466D01*
X72478246Y-74732999D01*
X72484218Y-74740782D01*
X72572646Y-74808635D01*
X72609659Y-74837036D01*
X72609660Y-74837036D01*
X72609661Y-74837037D01*
X72755733Y-74897542D01*
X72755738Y-74897544D01*
X72889205Y-74915115D01*
X72944430Y-74941456D01*
X72960543Y-74961294D01*
X73029660Y-75073350D01*
X73151650Y-75195340D01*
X73151652Y-75195341D01*
X73151653Y-75195342D01*
X73224469Y-75240255D01*
X73298484Y-75285908D01*
X73462247Y-75340174D01*
X73462251Y-75340174D01*
X73462253Y-75340175D01*
X73530905Y-75347188D01*
X73563323Y-75350500D01*
X74136676Y-75350499D01*
X74136684Y-75350499D01*
X74237744Y-75340175D01*
X74237744Y-75340174D01*
X74237753Y-75340174D01*
X74401516Y-75285908D01*
X74548350Y-75195340D01*
X74670340Y-75073350D01*
X74760908Y-74926516D01*
X74815174Y-74762753D01*
X74818473Y-74730466D01*
X74821672Y-74699154D01*
X77025001Y-74699154D01*
X77035317Y-74800142D01*
X77035320Y-74800154D01*
X77089548Y-74963806D01*
X77180053Y-75110535D01*
X77301964Y-75232446D01*
X77448693Y-75322951D01*
X77612351Y-75377181D01*
X77713345Y-75387499D01*
X77900000Y-75387499D01*
X77900000Y-75387498D01*
X78100000Y-75387498D01*
X78100001Y-75387499D01*
X78286654Y-75387499D01*
X78387642Y-75377182D01*
X78387654Y-75377179D01*
X78551306Y-75322951D01*
X78698035Y-75232446D01*
X78819946Y-75110535D01*
X78910451Y-74963806D01*
X78964681Y-74800148D01*
X78975000Y-74699155D01*
X78975000Y-74450001D01*
X78974999Y-74450000D01*
X78100001Y-74450000D01*
X78100000Y-74450001D01*
X78100000Y-75387498D01*
X77900000Y-75387498D01*
X77900000Y-74450001D01*
X77899999Y-74450000D01*
X77025002Y-74450000D01*
X77025001Y-74450001D01*
X77025001Y-74699154D01*
X74821672Y-74699154D01*
X74822305Y-74692954D01*
X74825500Y-74661677D01*
X74825499Y-74227241D01*
X74844406Y-74169051D01*
X74854496Y-74157238D01*
X75757240Y-73254496D01*
X75811756Y-73226719D01*
X75827243Y-73225500D01*
X77025502Y-73225500D01*
X77083693Y-73244407D01*
X77109761Y-73272526D01*
X77133532Y-73311065D01*
X77179657Y-73385846D01*
X77179658Y-73385847D01*
X77179660Y-73385850D01*
X77211661Y-73417851D01*
X77239437Y-73472366D01*
X77229866Y-73532798D01*
X77211661Y-73557856D01*
X77180053Y-73589464D01*
X77089548Y-73736193D01*
X77035318Y-73899851D01*
X77025000Y-74000844D01*
X77025000Y-74249999D01*
X77025001Y-74250000D01*
X78974998Y-74250000D01*
X78974999Y-74249999D01*
X78974999Y-74000845D01*
X78964682Y-73899857D01*
X78964679Y-73899845D01*
X78910451Y-73736193D01*
X78819946Y-73589464D01*
X78788339Y-73557857D01*
X78760562Y-73503340D01*
X78770133Y-73442908D01*
X78788335Y-73417854D01*
X78820340Y-73385850D01*
X78910908Y-73239016D01*
X78965174Y-73075253D01*
X78975500Y-72974177D01*
X78975499Y-72275824D01*
X78975499Y-72275815D01*
X78965175Y-72174755D01*
X78965174Y-72174753D01*
X78965174Y-72174747D01*
X78910908Y-72010984D01*
X78890238Y-71977472D01*
X78820342Y-71864153D01*
X78820341Y-71864152D01*
X78820340Y-71864150D01*
X78698350Y-71742160D01*
X78698347Y-71742158D01*
X78698346Y-71742157D01*
X78551520Y-71651594D01*
X78551514Y-71651591D01*
X78387756Y-71597327D01*
X78387746Y-71597324D01*
X78286684Y-71587000D01*
X77713315Y-71587000D01*
X77612255Y-71597324D01*
X77612243Y-71597327D01*
X77448485Y-71651591D01*
X77448479Y-71651594D01*
X77301653Y-71742157D01*
X77179657Y-71864153D01*
X77134209Y-71937836D01*
X77109761Y-71977473D01*
X77063122Y-72017074D01*
X77025502Y-72024500D01*
X75583350Y-72024500D01*
X75570428Y-72023653D01*
X75537501Y-72019318D01*
X75537500Y-72019318D01*
X75498139Y-72024500D01*
X75380741Y-72039955D01*
X75380733Y-72039957D01*
X75234661Y-72100462D01*
X75234660Y-72100462D01*
X75109223Y-72196713D01*
X75109218Y-72196718D01*
X75088998Y-72223068D01*
X75080462Y-72232800D01*
X74994503Y-72318760D01*
X74939987Y-72346538D01*
X74879554Y-72336967D01*
X74836290Y-72293703D01*
X74825499Y-72248757D01*
X74825499Y-72238315D01*
X74815175Y-72137255D01*
X74815174Y-72137253D01*
X74815174Y-72137247D01*
X74760908Y-71973484D01*
X74760905Y-71973479D01*
X74670342Y-71826653D01*
X74670341Y-71826652D01*
X74670340Y-71826650D01*
X74548350Y-71704660D01*
X74548347Y-71704658D01*
X74548346Y-71704657D01*
X74401520Y-71614094D01*
X74401514Y-71614091D01*
X74237756Y-71559827D01*
X74237746Y-71559824D01*
X74136684Y-71549500D01*
X73563315Y-71549500D01*
X73462255Y-71559824D01*
X73462243Y-71559827D01*
X73298485Y-71614091D01*
X73298479Y-71614094D01*
X73151653Y-71704657D01*
X73029657Y-71826653D01*
X72939094Y-71973479D01*
X72939091Y-71973485D01*
X72884827Y-72137243D01*
X72884824Y-72137253D01*
X72874500Y-72238315D01*
X72874500Y-72936684D01*
X72884824Y-73037744D01*
X72884827Y-73037756D01*
X72939091Y-73201514D01*
X72939094Y-73201520D01*
X72990146Y-73284289D01*
X73004602Y-73343742D01*
X72981351Y-73400338D01*
X72929275Y-73432458D01*
X72868265Y-73427835D01*
X72845618Y-73414803D01*
X72830838Y-73403462D01*
X72684766Y-73342957D01*
X72684758Y-73342955D01*
X72567361Y-73327500D01*
X72528000Y-73322318D01*
X72521511Y-73322318D01*
X72521511Y-73320870D01*
X72468610Y-73311065D01*
X72431591Y-73276036D01*
X72372140Y-73179650D01*
X72250150Y-73057660D01*
X72250147Y-73057658D01*
X72250146Y-73057657D01*
X72103320Y-72967094D01*
X72103314Y-72967091D01*
X71939556Y-72912827D01*
X71939546Y-72912824D01*
X71838484Y-72902500D01*
X71265115Y-72902500D01*
X71164055Y-72912824D01*
X71164043Y-72912827D01*
X71000285Y-72967091D01*
X71000279Y-72967094D01*
X70853453Y-73057657D01*
X70731457Y-73179653D01*
X70640894Y-73326479D01*
X70640891Y-73326485D01*
X70586627Y-73490243D01*
X70586624Y-73490253D01*
X70576300Y-73591315D01*
X70576300Y-74264684D01*
X70586624Y-74365744D01*
X70586627Y-74365756D01*
X70640891Y-74529514D01*
X70640894Y-74529520D01*
X70731457Y-74676346D01*
X70731458Y-74676347D01*
X70731460Y-74676350D01*
X70788108Y-74732998D01*
X70815884Y-74787513D01*
X70806313Y-74847945D01*
X70788109Y-74873000D01*
X70756510Y-74904600D01*
X70731457Y-74929653D01*
X70640894Y-75076479D01*
X70640891Y-75076485D01*
X70586627Y-75240243D01*
X70586624Y-75240253D01*
X70576300Y-75341315D01*
X70576300Y-76014684D01*
X70586624Y-76115744D01*
X70586627Y-76115756D01*
X70640891Y-76279514D01*
X70640894Y-76279520D01*
X70731457Y-76426346D01*
X70731458Y-76426347D01*
X70731460Y-76426350D01*
X70853450Y-76548340D01*
X71000284Y-76638908D01*
X71164047Y-76693174D01*
X71164051Y-76693174D01*
X71164053Y-76693175D01*
X71232705Y-76700188D01*
X71265123Y-76703500D01*
X71687056Y-76703499D01*
X71745247Y-76722406D01*
X71757060Y-76732495D01*
X71916764Y-76892199D01*
X71925302Y-76901936D01*
X71945518Y-76928282D01*
X71945522Y-76928285D01*
X72038994Y-77000008D01*
X72038995Y-77000010D01*
X72070957Y-77024535D01*
X72070959Y-77024536D01*
X72217038Y-77085044D01*
X72373800Y-77105683D01*
X72401888Y-77101984D01*
X72406735Y-77101347D01*
X72419657Y-77100500D01*
X74805467Y-77100500D01*
X74863658Y-77119407D01*
X74899622Y-77168907D01*
X74899622Y-77230093D01*
X74899513Y-77230422D01*
X74889843Y-77259605D01*
X74884826Y-77274746D01*
X74884824Y-77274753D01*
X74874500Y-77375815D01*
X74874500Y-78074184D01*
X74884824Y-78175244D01*
X74884827Y-78175256D01*
X74939091Y-78339014D01*
X74939094Y-78339020D01*
X75029657Y-78485846D01*
X75029658Y-78485847D01*
X75029660Y-78485850D01*
X75061661Y-78517851D01*
X75089437Y-78572366D01*
X75079866Y-78632798D01*
X75061661Y-78657856D01*
X75030053Y-78689464D01*
X74939548Y-78836193D01*
X74885318Y-78999851D01*
X74875000Y-79100844D01*
X74875000Y-79349999D01*
X74875001Y-79350000D01*
X76824998Y-79350000D01*
X76824999Y-79349999D01*
X76824999Y-79100845D01*
X76814682Y-78999857D01*
X76814679Y-78999845D01*
X76760451Y-78836193D01*
X76669946Y-78689464D01*
X76638339Y-78657857D01*
X76610562Y-78603340D01*
X76620133Y-78542908D01*
X76638335Y-78517854D01*
X76670340Y-78485850D01*
X76760908Y-78339016D01*
X76815174Y-78175253D01*
X76816162Y-78165588D01*
X76825499Y-78074184D01*
X76825500Y-78074177D01*
X76825499Y-77375824D01*
X76825499Y-77375823D01*
X76825499Y-77375815D01*
X76815175Y-77274755D01*
X76815174Y-77274753D01*
X76815174Y-77274747D01*
X76800557Y-77230639D01*
X76800202Y-77169456D01*
X76835877Y-77119748D01*
X76893956Y-77100502D01*
X76894533Y-77100500D01*
X81804150Y-77100500D01*
X81817061Y-77101346D01*
X81821749Y-77101962D01*
X81824093Y-77102271D01*
X81879321Y-77128606D01*
X81881186Y-77130421D01*
X81954319Y-77203554D01*
X81969229Y-78769030D01*
X81971191Y-78975161D01*
X81952838Y-79033529D01*
X81903682Y-79069962D01*
X81842500Y-79070544D01*
X81821068Y-79059560D01*
X81820806Y-79060041D01*
X81814588Y-79056646D01*
X81679881Y-79006403D01*
X81679870Y-79006401D01*
X81620324Y-79000000D01*
X81222501Y-79000000D01*
X81222500Y-79000001D01*
X81222500Y-79550500D01*
X81203593Y-79608691D01*
X81154093Y-79644655D01*
X81123500Y-79649500D01*
X81121500Y-79649500D01*
X81063309Y-79630593D01*
X81027345Y-79581093D01*
X81022500Y-79550500D01*
X81022500Y-79000001D01*
X81022499Y-79000000D01*
X80624676Y-79000000D01*
X80565129Y-79006401D01*
X80565118Y-79006403D01*
X80430411Y-79056646D01*
X80430409Y-79056647D01*
X80315315Y-79142807D01*
X80315307Y-79142815D01*
X80229147Y-79257909D01*
X80229146Y-79257911D01*
X80178903Y-79392618D01*
X80178901Y-79392629D01*
X80172500Y-79452175D01*
X80172500Y-79599999D01*
X80172501Y-79600000D01*
X80274595Y-79600000D01*
X80332786Y-79618907D01*
X80368750Y-79668407D01*
X80368750Y-79729593D01*
X80333919Y-79778257D01*
X80331247Y-79780257D01*
X80273331Y-79799990D01*
X80271923Y-79800000D01*
X80172501Y-79800000D01*
X80172500Y-79800001D01*
X80172500Y-79947826D01*
X80179532Y-80013243D01*
X80178096Y-80036256D01*
X80179071Y-80036361D01*
X80178409Y-80042516D01*
X80178409Y-80042517D01*
X80174319Y-80080565D01*
X80172000Y-80102130D01*
X80172000Y-80597866D01*
X80172000Y-80597869D01*
X80172001Y-80597872D01*
X80175291Y-80628473D01*
X80179071Y-80663640D01*
X80178096Y-80663744D01*
X80179532Y-80686756D01*
X80172500Y-80752173D01*
X80172500Y-80899999D01*
X80172501Y-80900000D01*
X80271923Y-80900000D01*
X80330114Y-80918907D01*
X80331247Y-80919743D01*
X80333919Y-80921743D01*
X80369175Y-80971750D01*
X80368305Y-81032929D01*
X80331641Y-81081912D01*
X80274595Y-81100000D01*
X80172501Y-81100000D01*
X80172500Y-81100001D01*
X80172500Y-81247824D01*
X80172499Y-81247824D01*
X80178901Y-81307370D01*
X80178903Y-81307381D01*
X80229146Y-81442088D01*
X80229147Y-81442090D01*
X80315307Y-81557184D01*
X80315315Y-81557192D01*
X80430409Y-81643352D01*
X80430411Y-81643353D01*
X80565118Y-81693596D01*
X80565129Y-81693598D01*
X80624676Y-81700000D01*
X80626103Y-81700000D01*
X80626385Y-81700091D01*
X80627323Y-81700142D01*
X80627309Y-81700392D01*
X80684294Y-81718907D01*
X80720258Y-81768407D01*
X80720258Y-81829593D01*
X80684294Y-81879093D01*
X80661465Y-81891469D01*
X80566808Y-81927668D01*
X80553276Y-81931762D01*
X80288487Y-81991622D01*
X80274507Y-81993747D01*
X80000356Y-82015553D01*
X79993289Y-82015862D01*
X72103988Y-82078228D01*
X71369356Y-82084035D01*
X71362259Y-82083837D01*
X71086708Y-82066218D01*
X71072642Y-82064299D01*
X70805924Y-82008182D01*
X70792278Y-82004271D01*
X70536326Y-81910584D01*
X70523378Y-81904761D01*
X70283455Y-81775426D01*
X70271475Y-81767811D01*
X70052528Y-81605500D01*
X70041761Y-81596252D01*
X69848266Y-81404280D01*
X69838931Y-81393584D01*
X69674892Y-81175924D01*
X69667182Y-81164004D01*
X69535956Y-80925112D01*
X69530031Y-80912212D01*
X69434319Y-80656999D01*
X69430308Y-80643408D01*
X69372080Y-80377121D01*
X69370052Y-80363085D01*
X69350255Y-80087674D01*
X69350000Y-80080576D01*
X69350000Y-79799154D01*
X74875001Y-79799154D01*
X74885317Y-79900142D01*
X74885320Y-79900154D01*
X74939548Y-80063806D01*
X75030053Y-80210535D01*
X75151964Y-80332446D01*
X75298693Y-80422951D01*
X75462351Y-80477181D01*
X75563345Y-80487499D01*
X75750000Y-80487499D01*
X75750000Y-80487498D01*
X75950000Y-80487498D01*
X75950001Y-80487499D01*
X76136654Y-80487499D01*
X76237642Y-80477182D01*
X76237654Y-80477179D01*
X76401306Y-80422951D01*
X76548035Y-80332446D01*
X76669946Y-80210535D01*
X76760451Y-80063806D01*
X76814681Y-79900148D01*
X76825000Y-79799155D01*
X76825000Y-79550001D01*
X76824999Y-79550000D01*
X75950001Y-79550000D01*
X75950000Y-79550001D01*
X75950000Y-80487498D01*
X75750000Y-80487498D01*
X75750000Y-79550001D01*
X75749999Y-79550000D01*
X74875002Y-79550000D01*
X74875001Y-79550001D01*
X74875001Y-79799154D01*
X69350000Y-79799154D01*
X69350000Y-73081159D01*
X69350249Y-73074147D01*
X69357347Y-72974184D01*
X69369569Y-72802053D01*
X69371547Y-72788191D01*
X69428386Y-72524966D01*
X69432303Y-72511527D01*
X69525761Y-72258989D01*
X69531543Y-72246225D01*
X69659745Y-72009431D01*
X69667271Y-71997614D01*
X69827651Y-71781306D01*
X69836765Y-71770679D01*
X70026104Y-71579201D01*
X70036634Y-71569964D01*
X70251119Y-71407168D01*
X70262855Y-71399507D01*
X70498195Y-71268651D01*
X70510888Y-71262729D01*
X70762361Y-71166439D01*
X70775757Y-71162371D01*
X71038329Y-71102578D01*
X71052160Y-71100446D01*
X71324041Y-71078068D01*
X71331013Y-71077741D01*
X71845334Y-71071963D01*
X71845340Y-71071962D01*
X73800000Y-71050000D01*
X73801562Y-70915649D01*
X73825182Y-70977931D01*
X73866715Y-71038101D01*
X73909749Y-71100446D01*
X73921816Y-71117927D01*
X73921818Y-71117930D01*
X73964260Y-71155530D01*
X74049148Y-71230734D01*
X74199775Y-71309790D01*
X74364944Y-71350500D01*
X74364947Y-71350500D01*
X74535053Y-71350500D01*
X74535056Y-71350500D01*
X74700225Y-71309790D01*
X74850852Y-71230734D01*
X74978183Y-71117929D01*
X75074818Y-70977930D01*
X75135140Y-70818872D01*
X75140707Y-70773013D01*
X75147521Y-70747065D01*
X75184842Y-70656968D01*
X75184842Y-70656965D01*
X75184844Y-70656962D01*
X75200300Y-70539561D01*
X75205482Y-70500200D01*
X75201147Y-70467271D01*
X75200300Y-70454349D01*
X75200300Y-69678948D01*
X75219207Y-69620757D01*
X75247328Y-69594687D01*
X75298150Y-69563340D01*
X75420140Y-69441350D01*
X75510708Y-69294516D01*
X75564974Y-69130753D01*
X75575300Y-69029677D01*
X75575300Y-68928084D01*
X76088100Y-68928084D01*
X76098424Y-69029144D01*
X76098427Y-69029156D01*
X76152691Y-69192914D01*
X76152694Y-69192920D01*
X76187728Y-69249719D01*
X76202184Y-69309172D01*
X76184943Y-69357928D01*
X76175183Y-69372066D01*
X76175182Y-69372070D01*
X76114860Y-69531128D01*
X76094355Y-69700000D01*
X76114860Y-69868872D01*
X76175182Y-70027930D01*
X76271817Y-70167929D01*
X76399148Y-70280734D01*
X76549775Y-70359790D01*
X76714944Y-70400500D01*
X76714947Y-70400500D01*
X76885053Y-70400500D01*
X76885056Y-70400500D01*
X77050225Y-70359790D01*
X77200852Y-70280734D01*
X77328183Y-70167929D01*
X77424818Y-70027930D01*
X77476532Y-69891568D01*
X77490554Y-69866412D01*
X77491880Y-69864683D01*
X77491882Y-69864682D01*
X77588136Y-69739241D01*
X77648644Y-69593162D01*
X77651320Y-69572831D01*
X77677659Y-69517607D01*
X77697493Y-69501496D01*
X77761950Y-69461740D01*
X77883940Y-69339750D01*
X77974508Y-69192916D01*
X78028774Y-69029153D01*
X78039100Y-68928077D01*
X78039099Y-68229724D01*
X78039099Y-68229723D01*
X78039099Y-68229715D01*
X78028775Y-68128655D01*
X78028774Y-68128653D01*
X78028774Y-68128647D01*
X77974508Y-67964884D01*
X77946609Y-67919653D01*
X77883942Y-67818053D01*
X77883941Y-67818052D01*
X77883940Y-67818050D01*
X77852291Y-67786401D01*
X77824516Y-67731887D01*
X77834087Y-67671455D01*
X77852290Y-67646399D01*
X77883940Y-67614750D01*
X77974508Y-67467916D01*
X78028774Y-67304153D01*
X78029250Y-67299500D01*
X78039099Y-67203084D01*
X78039100Y-67203077D01*
X78039099Y-66504724D01*
X78039099Y-66504723D01*
X78039099Y-66504715D01*
X78028775Y-66403655D01*
X78028774Y-66403653D01*
X78028774Y-66403647D01*
X77974508Y-66239884D01*
X77883940Y-66093050D01*
X77761950Y-65971060D01*
X77761947Y-65971058D01*
X77761946Y-65971057D01*
X77676409Y-65918298D01*
X77636807Y-65871657D01*
X77632184Y-65810647D01*
X77635806Y-65798955D01*
X77685140Y-65668872D01*
X77705645Y-65500000D01*
X77685140Y-65331128D01*
X77624818Y-65172070D01*
X77528183Y-65032071D01*
X77400852Y-64919266D01*
X77250225Y-64840210D01*
X77250224Y-64840209D01*
X77250223Y-64840209D01*
X77085058Y-64799500D01*
X77085056Y-64799500D01*
X76914944Y-64799500D01*
X76914941Y-64799500D01*
X76749776Y-64840209D01*
X76599146Y-64919267D01*
X76471818Y-65032069D01*
X76471816Y-65032072D01*
X76395110Y-65143199D01*
X76375182Y-65172070D01*
X76314860Y-65331128D01*
X76294355Y-65500000D01*
X76314860Y-65668872D01*
X76352702Y-65768655D01*
X76375181Y-65827928D01*
X76375183Y-65827931D01*
X76381974Y-65837769D01*
X76399500Y-65894010D01*
X76399500Y-65896049D01*
X76380593Y-65954240D01*
X76368833Y-65966488D01*
X76369328Y-65966983D01*
X76365252Y-65971058D01*
X76365250Y-65971060D01*
X76285045Y-66051265D01*
X76243257Y-66093053D01*
X76152694Y-66239879D01*
X76152691Y-66239885D01*
X76098427Y-66403643D01*
X76098424Y-66403653D01*
X76088100Y-66504715D01*
X76088100Y-67203084D01*
X76098424Y-67304144D01*
X76098427Y-67304156D01*
X76152691Y-67467914D01*
X76152694Y-67467920D01*
X76243257Y-67614746D01*
X76243258Y-67614747D01*
X76243260Y-67614750D01*
X76266033Y-67637523D01*
X76274907Y-67646397D01*
X76302683Y-67700914D01*
X76293111Y-67761346D01*
X76274907Y-67786403D01*
X76243257Y-67818053D01*
X76152694Y-67964879D01*
X76152691Y-67964885D01*
X76098427Y-68128643D01*
X76098424Y-68128653D01*
X76088100Y-68229715D01*
X76088100Y-68928084D01*
X75575300Y-68928084D01*
X75575299Y-68331324D01*
X75575299Y-68331323D01*
X75575299Y-68331315D01*
X75564975Y-68230255D01*
X75564974Y-68230253D01*
X75564974Y-68230247D01*
X75510708Y-68066484D01*
X75448041Y-67964884D01*
X75420142Y-67919653D01*
X75420141Y-67919652D01*
X75420140Y-67919650D01*
X75388137Y-67887647D01*
X75360362Y-67833133D01*
X75369933Y-67772701D01*
X75388141Y-67747640D01*
X75419746Y-67716036D01*
X75510251Y-67569306D01*
X75564481Y-67405648D01*
X75574800Y-67304655D01*
X75574800Y-67055501D01*
X75574799Y-67055500D01*
X74598800Y-67055500D01*
X74540609Y-67036593D01*
X74504645Y-66987093D01*
X74499800Y-66956500D01*
X74499800Y-66855499D01*
X74699800Y-66855499D01*
X74699801Y-66855500D01*
X75574798Y-66855500D01*
X75574799Y-66855499D01*
X75574799Y-66606345D01*
X75564482Y-66505357D01*
X75564479Y-66505345D01*
X75510251Y-66341693D01*
X75419746Y-66194964D01*
X75297835Y-66073053D01*
X75151106Y-65982548D01*
X74987448Y-65928318D01*
X74886455Y-65918000D01*
X74699801Y-65918000D01*
X74699800Y-65918001D01*
X74699800Y-66855499D01*
X74499800Y-66855499D01*
X74499800Y-65918001D01*
X74499799Y-65918000D01*
X74313145Y-65918000D01*
X74212157Y-65928317D01*
X74212145Y-65928320D01*
X74048494Y-65982548D01*
X74010610Y-66005915D01*
X73951156Y-66020371D01*
X73894561Y-65997120D01*
X73862441Y-65945044D01*
X73859645Y-65920503D01*
X73859674Y-65918000D01*
X73876182Y-64498344D01*
X73895763Y-64440381D01*
X73945678Y-64404995D01*
X73975173Y-64400499D01*
X74100008Y-64400499D01*
X74100016Y-64400499D01*
X74202788Y-64390000D01*
X74202788Y-64389999D01*
X74202797Y-64389999D01*
X74369334Y-64334814D01*
X74518656Y-64242712D01*
X74642712Y-64118656D01*
X74734814Y-63969334D01*
X74789999Y-63802797D01*
X74800500Y-63700009D01*
X74800499Y-62727241D01*
X74819406Y-62669051D01*
X74829488Y-62657245D01*
X75473452Y-62013282D01*
X75527968Y-61985506D01*
X75588400Y-61995077D01*
X75631665Y-62038342D01*
X75641236Y-62098774D01*
X75637430Y-62114427D01*
X75610000Y-62197205D01*
X75599500Y-62299983D01*
X75599500Y-63700016D01*
X75609999Y-63802788D01*
X75610002Y-63802800D01*
X75665187Y-63969336D01*
X75757285Y-64118652D01*
X75757286Y-64118653D01*
X75757288Y-64118656D01*
X75881344Y-64242712D01*
X75881346Y-64242713D01*
X75881347Y-64242714D01*
X75893160Y-64250000D01*
X76030666Y-64334814D01*
X76197203Y-64389999D01*
X76299991Y-64400500D01*
X77225008Y-64400499D01*
X77225016Y-64400499D01*
X77327788Y-64390000D01*
X77327788Y-64389999D01*
X77327797Y-64389999D01*
X77494334Y-64334814D01*
X77643656Y-64242712D01*
X77767712Y-64118656D01*
X77859814Y-63969334D01*
X77914999Y-63802797D01*
X77925500Y-63700009D01*
X77925499Y-62299992D01*
X77925499Y-62299991D01*
X77925499Y-62299983D01*
X77915000Y-62197211D01*
X77914999Y-62197209D01*
X77914999Y-62197203D01*
X77859814Y-62030666D01*
X77810059Y-61950000D01*
X77764685Y-61876436D01*
X77765830Y-61875729D01*
X77746823Y-61824446D01*
X77763343Y-61765533D01*
X77767196Y-61760148D01*
X77773499Y-61751932D01*
X77782028Y-61742205D01*
X78719739Y-60804495D01*
X78774256Y-60776718D01*
X78789743Y-60775499D01*
X79224184Y-60775499D01*
X79325244Y-60765175D01*
X79325244Y-60765174D01*
X79325253Y-60765174D01*
X79489016Y-60710908D01*
X79635850Y-60620340D01*
X79757840Y-60498350D01*
X79848408Y-60351516D01*
X79902674Y-60187753D01*
X79905841Y-60156758D01*
X79912999Y-60086684D01*
X79913000Y-60086677D01*
X79912999Y-59513324D01*
X79912999Y-59513323D01*
X79912999Y-59513315D01*
X79902675Y-59412255D01*
X79902674Y-59412253D01*
X79902674Y-59412247D01*
X79848408Y-59248484D01*
X79757840Y-59101650D01*
X79737500Y-59081310D01*
X79679496Y-59023305D01*
X79651719Y-58968788D01*
X79650500Y-58953302D01*
X79650500Y-58744010D01*
X79668026Y-58687769D01*
X79669317Y-58685899D01*
X79674818Y-58677930D01*
X79735140Y-58518872D01*
X79755645Y-58350000D01*
X79735140Y-58181128D01*
X79674818Y-58022070D01*
X79668023Y-58012225D01*
X79650500Y-57955989D01*
X79650500Y-57950674D01*
X79669407Y-57892483D01*
X79697528Y-57866413D01*
X79701928Y-57863699D01*
X79717750Y-57853940D01*
X79839740Y-57731950D01*
X79930308Y-57585116D01*
X79984574Y-57421353D01*
X79986756Y-57400000D01*
X79989737Y-57370815D01*
X79994900Y-57320277D01*
X79994899Y-56621924D01*
X79994899Y-56621923D01*
X79994899Y-56621915D01*
X79984575Y-56520855D01*
X79984574Y-56520853D01*
X79984574Y-56520847D01*
X79930308Y-56357084D01*
X79839740Y-56210250D01*
X79808091Y-56178601D01*
X79780316Y-56124087D01*
X79789887Y-56063655D01*
X79808090Y-56038599D01*
X79839740Y-56006950D01*
X79930308Y-55860116D01*
X79984574Y-55696353D01*
X79994900Y-55595277D01*
X79994899Y-54896924D01*
X79994899Y-54896923D01*
X79994899Y-54896915D01*
X79984575Y-54795855D01*
X79984574Y-54795853D01*
X79984574Y-54795847D01*
X79930308Y-54632084D01*
X79839740Y-54485250D01*
X79717750Y-54363260D01*
X79717747Y-54363258D01*
X79717746Y-54363257D01*
X79697525Y-54350784D01*
X79657925Y-54304142D01*
X79650500Y-54266525D01*
X79650500Y-54239742D01*
X79669407Y-54181551D01*
X79679490Y-54169744D01*
X81042205Y-52807028D01*
X81051937Y-52798496D01*
X81073343Y-52782072D01*
X81078282Y-52778282D01*
X81174536Y-52652841D01*
X81235044Y-52506762D01*
X81250500Y-52389361D01*
X81255682Y-52350000D01*
X81255614Y-52349487D01*
X81251347Y-52317071D01*
X81250500Y-52304149D01*
X81250500Y-52260948D01*
X81269407Y-52202757D01*
X81297528Y-52176687D01*
X81334271Y-52154024D01*
X81348350Y-52145340D01*
X81348350Y-52145339D01*
X81348528Y-52145230D01*
X81407981Y-52130774D01*
X81464576Y-52154024D01*
G37*
%TD.AperFunction*%
%TA.AperFunction,Conductor*%
G36*
X90288317Y-37108283D02*
G01*
X90310525Y-37138848D01*
X90316764Y-37152228D01*
X90446842Y-37338000D01*
X90452305Y-37345801D01*
X90619399Y-37512895D01*
X90812970Y-37648435D01*
X90833138Y-37657839D01*
X90877887Y-37699566D01*
X90890300Y-37747564D01*
X90890300Y-39544110D01*
X90871393Y-39602301D01*
X90821893Y-39638265D01*
X90760707Y-39638265D01*
X90711207Y-39602301D01*
X90709825Y-39600349D01*
X90694786Y-39578561D01*
X90628183Y-39482071D01*
X90607377Y-39463639D01*
X90500853Y-39369267D01*
X90500852Y-39369266D01*
X90350225Y-39290210D01*
X90350224Y-39290209D01*
X90350223Y-39290209D01*
X90185058Y-39249500D01*
X90185056Y-39249500D01*
X90014944Y-39249500D01*
X90014941Y-39249500D01*
X89849776Y-39290209D01*
X89699146Y-39369267D01*
X89571818Y-39482069D01*
X89571816Y-39482072D01*
X89485535Y-39607071D01*
X89475182Y-39622070D01*
X89427777Y-39747070D01*
X89414860Y-39781129D01*
X89403818Y-39872070D01*
X89394355Y-39950000D01*
X89414860Y-40118872D01*
X89475182Y-40277930D01*
X89571817Y-40417929D01*
X89699148Y-40530734D01*
X89849775Y-40609790D01*
X89903638Y-40623065D01*
X89949949Y-40649184D01*
X90126722Y-40825957D01*
X90154499Y-40880474D01*
X90155718Y-40895961D01*
X90155718Y-44630142D01*
X90136811Y-44688333D01*
X90087311Y-44724297D01*
X90026125Y-44724297D01*
X89978176Y-44690410D01*
X89940350Y-44641115D01*
X89940350Y-44641114D01*
X89916186Y-44609623D01*
X89916185Y-44609622D01*
X89916182Y-44609618D01*
X89916177Y-44609614D01*
X89916176Y-44609613D01*
X89889836Y-44589402D01*
X89880099Y-44580864D01*
X87954496Y-42655261D01*
X87926719Y-42600744D01*
X87925500Y-42585257D01*
X87925500Y-40469010D01*
X87943026Y-40412769D01*
X87949818Y-40402930D01*
X88010140Y-40243872D01*
X88028889Y-40089461D01*
X88030645Y-40075001D01*
X88030645Y-40074998D01*
X88020524Y-39991651D01*
X88010140Y-39906128D01*
X87949818Y-39747070D01*
X87853183Y-39607071D01*
X87845595Y-39600349D01*
X87739403Y-39506271D01*
X87725852Y-39494266D01*
X87575225Y-39415210D01*
X87575224Y-39415209D01*
X87575223Y-39415209D01*
X87521360Y-39401933D01*
X87475049Y-39375814D01*
X87040296Y-38941061D01*
X87012519Y-38886544D01*
X87011300Y-38871057D01*
X87011300Y-37923899D01*
X87030207Y-37865708D01*
X87079707Y-37829744D01*
X87110300Y-37824899D01*
X87308667Y-37824899D01*
X87308672Y-37824899D01*
X87368283Y-37818491D01*
X87435707Y-37793343D01*
X87503129Y-37768197D01*
X87503129Y-37768196D01*
X87503131Y-37768196D01*
X87618346Y-37681946D01*
X87704596Y-37566731D01*
X87754891Y-37431883D01*
X87756409Y-37417762D01*
X87781428Y-37361927D01*
X87834489Y-37331460D01*
X87895324Y-37338000D01*
X87924842Y-37358338D01*
X88079399Y-37512895D01*
X88272970Y-37648435D01*
X88487137Y-37748303D01*
X88715392Y-37809463D01*
X88715396Y-37809463D01*
X88715399Y-37809464D01*
X88950796Y-37830059D01*
X88950800Y-37830059D01*
X88950804Y-37830059D01*
X89186200Y-37809464D01*
X89186201Y-37809463D01*
X89186208Y-37809463D01*
X89414463Y-37748303D01*
X89628630Y-37648435D01*
X89822201Y-37512895D01*
X89989295Y-37345801D01*
X90124835Y-37152230D01*
X90131075Y-37138847D01*
X90172803Y-37094100D01*
X90232864Y-37082425D01*
X90288317Y-37108283D01*
G37*
%TD.AperFunction*%
%TA.AperFunction,Conductor*%
G36*
X92828317Y-37108283D02*
G01*
X92850525Y-37138848D01*
X92856764Y-37152228D01*
X92986842Y-37338000D01*
X92992305Y-37345801D01*
X93159399Y-37512895D01*
X93352970Y-37648435D01*
X93373138Y-37657839D01*
X93417887Y-37699566D01*
X93430300Y-37747564D01*
X93430300Y-40829457D01*
X93411393Y-40887648D01*
X93401303Y-40899461D01*
X93249949Y-41050814D01*
X93203639Y-41076933D01*
X93149776Y-41090209D01*
X92999146Y-41169267D01*
X92871818Y-41282069D01*
X92871816Y-41282072D01*
X92775182Y-41422069D01*
X92719478Y-41568950D01*
X92696915Y-41603848D01*
X92340901Y-41959862D01*
X92331168Y-41968398D01*
X92304818Y-41988618D01*
X92304813Y-41988623D01*
X92268842Y-42035503D01*
X92218418Y-42070159D01*
X92157253Y-42068558D01*
X92108712Y-42031311D01*
X92091300Y-41975236D01*
X92091300Y-37747564D01*
X92110207Y-37689373D01*
X92148461Y-37657839D01*
X92168630Y-37648435D01*
X92362201Y-37512895D01*
X92529295Y-37345801D01*
X92664835Y-37152230D01*
X92671075Y-37138847D01*
X92712803Y-37094100D01*
X92772864Y-37082425D01*
X92828317Y-37108283D01*
G37*
%TD.AperFunction*%
%TA.AperFunction,Conductor*%
G36*
X97908317Y-37108283D02*
G01*
X97930525Y-37138848D01*
X97936764Y-37152228D01*
X98066842Y-37338000D01*
X98072305Y-37345801D01*
X98239399Y-37512895D01*
X98432970Y-37648435D01*
X98453138Y-37657839D01*
X98497887Y-37699566D01*
X98510300Y-37747564D01*
X98510300Y-39235406D01*
X98491393Y-39293597D01*
X98441893Y-39329561D01*
X98434993Y-39331529D01*
X98399776Y-39340209D01*
X98249146Y-39419267D01*
X98121818Y-39532069D01*
X98121817Y-39532071D01*
X98025182Y-39672070D01*
X97981761Y-39786565D01*
X97964860Y-39831129D01*
X97944355Y-39999998D01*
X97944355Y-40000001D01*
X97948135Y-40031128D01*
X97964860Y-40168872D01*
X98025182Y-40327930D01*
X98121817Y-40467929D01*
X98249148Y-40580734D01*
X98399775Y-40659790D01*
X98453638Y-40673065D01*
X98499949Y-40699184D01*
X98940522Y-41139757D01*
X98968299Y-41194274D01*
X98969518Y-41209761D01*
X98969518Y-41510475D01*
X98950611Y-41568666D01*
X98901111Y-41604630D01*
X98839925Y-41604630D01*
X98800514Y-41580479D01*
X97273884Y-40053849D01*
X97251322Y-40018952D01*
X97195618Y-39872070D01*
X97188823Y-39862225D01*
X97171300Y-39805989D01*
X97171300Y-37747564D01*
X97190207Y-37689373D01*
X97228461Y-37657839D01*
X97248630Y-37648435D01*
X97442201Y-37512895D01*
X97609295Y-37345801D01*
X97744835Y-37152230D01*
X97751075Y-37138847D01*
X97792803Y-37094100D01*
X97852864Y-37082425D01*
X97908317Y-37108283D01*
G37*
%TD.AperFunction*%
%TA.AperFunction,Conductor*%
G36*
X102988317Y-37108283D02*
G01*
X103010525Y-37138848D01*
X103016764Y-37152228D01*
X103146842Y-37338000D01*
X103152305Y-37345801D01*
X103319399Y-37512895D01*
X103512970Y-37648435D01*
X103533138Y-37657839D01*
X103577887Y-37699566D01*
X103590300Y-37747564D01*
X103590300Y-40019457D01*
X103571393Y-40077648D01*
X103561304Y-40089461D01*
X102355379Y-41295385D01*
X102300862Y-41323162D01*
X102240430Y-41313591D01*
X102197165Y-41270326D01*
X102187594Y-41209894D01*
X102193909Y-41187501D01*
X102235844Y-41086262D01*
X102251300Y-40968861D01*
X102256482Y-40929500D01*
X102252147Y-40896571D01*
X102251300Y-40883649D01*
X102251300Y-37747564D01*
X102270207Y-37689373D01*
X102308461Y-37657839D01*
X102328630Y-37648435D01*
X102522201Y-37512895D01*
X102689295Y-37345801D01*
X102824835Y-37152230D01*
X102831075Y-37138847D01*
X102872803Y-37094100D01*
X102932864Y-37082425D01*
X102988317Y-37108283D01*
G37*
%TD.AperFunction*%
%TA.AperFunction,Conductor*%
G36*
X100448317Y-37108283D02*
G01*
X100470525Y-37138848D01*
X100476764Y-37152228D01*
X100606842Y-37338000D01*
X100612305Y-37345801D01*
X100779399Y-37512895D01*
X100972970Y-37648435D01*
X100993138Y-37657839D01*
X101037887Y-37699566D01*
X101050300Y-37747564D01*
X101050300Y-40639757D01*
X101031393Y-40697948D01*
X101021303Y-40709761D01*
X100672249Y-41058814D01*
X100625939Y-41084933D01*
X100572076Y-41098209D01*
X100421446Y-41177267D01*
X100335167Y-41253704D01*
X100279073Y-41278139D01*
X100219329Y-41264936D01*
X100178756Y-41219138D01*
X100170518Y-41179601D01*
X100170518Y-40965867D01*
X100171365Y-40952945D01*
X100175700Y-40920018D01*
X100175700Y-40920017D01*
X100157363Y-40780734D01*
X100155062Y-40763256D01*
X100132904Y-40709761D01*
X100094555Y-40617179D01*
X100094553Y-40617175D01*
X100077281Y-40594666D01*
X100077278Y-40594663D01*
X100066588Y-40580732D01*
X99998300Y-40491736D01*
X99998295Y-40491732D01*
X99998294Y-40491731D01*
X99971954Y-40471520D01*
X99962217Y-40462982D01*
X99569054Y-40069819D01*
X99541277Y-40015302D01*
X99550848Y-39954870D01*
X99560516Y-39939548D01*
X99635336Y-39842041D01*
X99695844Y-39695962D01*
X99711300Y-39578561D01*
X99716482Y-39539200D01*
X99715543Y-39532071D01*
X99712147Y-39506271D01*
X99711300Y-39493349D01*
X99711300Y-37747564D01*
X99730207Y-37689373D01*
X99768461Y-37657839D01*
X99788630Y-37648435D01*
X99982201Y-37512895D01*
X100149295Y-37345801D01*
X100284835Y-37152230D01*
X100291075Y-37138847D01*
X100332803Y-37094100D01*
X100392864Y-37082425D01*
X100448317Y-37108283D01*
G37*
%TD.AperFunction*%
%TA.AperFunction,Conductor*%
G36*
X109003522Y-30000252D02*
G01*
X109038561Y-30002757D01*
X109277574Y-30019852D01*
X109291537Y-30021859D01*
X109556555Y-30079510D01*
X109570096Y-30083487D01*
X109824203Y-30178264D01*
X109837037Y-30184125D01*
X110043804Y-30297028D01*
X110075068Y-30314100D01*
X110086943Y-30321731D01*
X110304058Y-30484262D01*
X110314723Y-30493503D01*
X110506496Y-30685276D01*
X110515738Y-30695942D01*
X110678266Y-30913052D01*
X110685899Y-30924931D01*
X110815870Y-31162954D01*
X110821738Y-31175803D01*
X110916510Y-31429897D01*
X110920490Y-31443450D01*
X110978138Y-31708452D01*
X110980148Y-31722433D01*
X110999748Y-31996476D01*
X111000000Y-32003539D01*
X111000000Y-56996460D01*
X110999748Y-57003523D01*
X110980148Y-57277566D01*
X110978138Y-57291547D01*
X110920490Y-57556549D01*
X110916510Y-57570102D01*
X110821738Y-57824196D01*
X110815870Y-57837045D01*
X110685899Y-58075068D01*
X110678263Y-58086951D01*
X110515746Y-58304048D01*
X110506496Y-58314723D01*
X110314723Y-58506496D01*
X110304048Y-58515746D01*
X110086951Y-58678263D01*
X110075068Y-58685899D01*
X109837045Y-58815870D01*
X109824196Y-58821738D01*
X109570102Y-58916510D01*
X109556549Y-58920490D01*
X109291547Y-58978138D01*
X109277566Y-58980148D01*
X109003523Y-58999748D01*
X108996460Y-59000000D01*
X94000000Y-59000000D01*
X93538240Y-60354750D01*
X93538239Y-60354753D01*
X93538229Y-60354780D01*
X88412871Y-75391990D01*
X88410446Y-75398376D01*
X88307624Y-75643270D01*
X88301482Y-75655466D01*
X88167700Y-75880919D01*
X88159939Y-75892153D01*
X87996405Y-76097057D01*
X87987172Y-76107116D01*
X87797003Y-76287567D01*
X87786473Y-76296261D01*
X87573283Y-76448830D01*
X87561658Y-76455992D01*
X87329497Y-76577779D01*
X87316996Y-76583273D01*
X87070294Y-76671954D01*
X87057157Y-76675676D01*
X86800588Y-76729571D01*
X86787063Y-76731449D01*
X86522120Y-76749764D01*
X86515293Y-76750000D01*
X83199235Y-76750000D01*
X82730422Y-76281187D01*
X82702645Y-76226670D01*
X82702273Y-76224104D01*
X82701347Y-76217070D01*
X82700500Y-76204149D01*
X82700500Y-75186684D01*
X83012500Y-75186684D01*
X83022824Y-75287744D01*
X83022827Y-75287756D01*
X83077091Y-75451514D01*
X83077094Y-75451520D01*
X83167657Y-75598346D01*
X83167658Y-75598347D01*
X83167660Y-75598350D01*
X83289650Y-75720340D01*
X83436484Y-75810908D01*
X83600247Y-75865174D01*
X83600251Y-75865174D01*
X83600253Y-75865175D01*
X83668905Y-75872188D01*
X83701323Y-75875500D01*
X84399676Y-75875499D01*
X84399684Y-75875499D01*
X84500744Y-75865175D01*
X84500744Y-75865174D01*
X84500753Y-75865174D01*
X84664516Y-75810908D01*
X84811350Y-75720340D01*
X84842998Y-75688691D01*
X84897513Y-75660916D01*
X84957945Y-75670487D01*
X84983000Y-75688690D01*
X85014650Y-75720340D01*
X85161484Y-75810908D01*
X85325247Y-75865174D01*
X85325251Y-75865174D01*
X85325253Y-75865175D01*
X85393905Y-75872188D01*
X85426323Y-75875500D01*
X86124676Y-75875499D01*
X86124684Y-75875499D01*
X86225744Y-75865175D01*
X86225744Y-75865174D01*
X86225753Y-75865174D01*
X86389516Y-75810908D01*
X86536350Y-75720340D01*
X86658340Y-75598350D01*
X86748908Y-75451516D01*
X86803174Y-75287753D01*
X86803363Y-75285908D01*
X86813499Y-75186684D01*
X86813500Y-75186677D01*
X86813499Y-74613324D01*
X86813499Y-74613323D01*
X86813499Y-74613315D01*
X86803175Y-74512255D01*
X86803174Y-74512253D01*
X86803174Y-74512247D01*
X86748908Y-74348484D01*
X86658340Y-74201650D01*
X86536350Y-74079660D01*
X86536347Y-74079658D01*
X86536346Y-74079657D01*
X86474128Y-74041281D01*
X86434526Y-73994640D01*
X86427100Y-73957020D01*
X86427100Y-72901858D01*
X86446007Y-72843667D01*
X86474128Y-72817597D01*
X86499329Y-72802053D01*
X86537450Y-72778540D01*
X86659440Y-72656550D01*
X86750008Y-72509716D01*
X86804274Y-72345953D01*
X86814600Y-72244877D01*
X86814599Y-71860441D01*
X86833506Y-71802251D01*
X86843589Y-71790444D01*
X87615805Y-71018228D01*
X87625537Y-71009696D01*
X87651882Y-70989482D01*
X87651884Y-70989480D01*
X87708536Y-70915649D01*
X87748136Y-70864041D01*
X87808644Y-70717962D01*
X87820101Y-70630937D01*
X87829282Y-70561200D01*
X87824947Y-70528271D01*
X87824100Y-70515349D01*
X87824100Y-68942348D01*
X87843007Y-68884157D01*
X87871128Y-68858087D01*
X87885536Y-68849200D01*
X87921950Y-68826740D01*
X88043940Y-68704750D01*
X88134508Y-68557916D01*
X88188774Y-68394153D01*
X88199100Y-68293077D01*
X88199099Y-67694724D01*
X88199099Y-67694723D01*
X88199099Y-67694715D01*
X88188775Y-67593655D01*
X88188774Y-67593653D01*
X88188774Y-67593647D01*
X88134508Y-67429884D01*
X88056958Y-67304156D01*
X88043942Y-67283053D01*
X88043941Y-67283052D01*
X88043940Y-67283050D01*
X87921950Y-67161060D01*
X87921947Y-67161058D01*
X87921945Y-67161056D01*
X87919418Y-67159058D01*
X87918362Y-67157473D01*
X87917872Y-67156983D01*
X87917970Y-67156884D01*
X87885498Y-67108135D01*
X87887989Y-67047001D01*
X87917894Y-67005839D01*
X87917872Y-67005817D01*
X87918012Y-67005676D01*
X87919418Y-67003742D01*
X87921945Y-67001743D01*
X87921944Y-67001743D01*
X87921950Y-67001740D01*
X88043940Y-66879750D01*
X88134508Y-66732916D01*
X88188774Y-66569153D01*
X88189001Y-66566937D01*
X88199099Y-66468084D01*
X88199100Y-66468077D01*
X88199099Y-65869724D01*
X88199099Y-65869723D01*
X88199099Y-65869715D01*
X88188775Y-65768655D01*
X88188774Y-65768653D01*
X88188774Y-65768647D01*
X88134508Y-65604884D01*
X88043940Y-65458050D01*
X87921950Y-65336060D01*
X87921947Y-65336058D01*
X87921946Y-65336057D01*
X87775120Y-65245494D01*
X87775114Y-65245491D01*
X87611356Y-65191227D01*
X87611346Y-65191224D01*
X87510284Y-65180900D01*
X86936915Y-65180900D01*
X86835855Y-65191224D01*
X86835843Y-65191227D01*
X86672085Y-65245491D01*
X86672079Y-65245494D01*
X86525253Y-65336057D01*
X86403257Y-65458053D01*
X86312694Y-65604879D01*
X86312691Y-65604885D01*
X86258427Y-65768643D01*
X86258424Y-65768653D01*
X86248100Y-65869715D01*
X86248100Y-66468084D01*
X86258424Y-66569144D01*
X86258427Y-66569156D01*
X86312691Y-66732914D01*
X86312694Y-66732920D01*
X86403257Y-66879746D01*
X86403258Y-66879747D01*
X86403260Y-66879750D01*
X86525250Y-67001740D01*
X86525252Y-67001741D01*
X86525253Y-67001742D01*
X86527787Y-67003746D01*
X86528843Y-67005332D01*
X86529328Y-67005817D01*
X86529230Y-67005914D01*
X86561703Y-67054671D01*
X86559208Y-67115806D01*
X86529306Y-67156961D01*
X86529328Y-67156983D01*
X86529195Y-67157115D01*
X86527787Y-67159054D01*
X86525253Y-67161057D01*
X86403257Y-67283053D01*
X86312694Y-67429879D01*
X86312691Y-67429885D01*
X86258427Y-67593643D01*
X86258424Y-67593653D01*
X86248100Y-67694715D01*
X86248100Y-68293084D01*
X86258424Y-68394144D01*
X86258427Y-68394156D01*
X86312691Y-68557914D01*
X86312694Y-68557920D01*
X86403257Y-68704746D01*
X86403258Y-68704747D01*
X86403260Y-68704750D01*
X86525250Y-68826740D01*
X86525252Y-68826741D01*
X86525253Y-68826742D01*
X86576072Y-68858087D01*
X86615674Y-68904728D01*
X86623100Y-68942348D01*
X86623100Y-70271456D01*
X86604193Y-70329647D01*
X86594104Y-70341460D01*
X85981859Y-70953704D01*
X85927342Y-70981481D01*
X85911855Y-70982700D01*
X85527415Y-70982700D01*
X85426355Y-70993024D01*
X85426343Y-70993027D01*
X85262585Y-71047291D01*
X85262579Y-71047294D01*
X85115753Y-71137857D01*
X84993757Y-71259853D01*
X84991754Y-71262387D01*
X84990167Y-71263443D01*
X84989683Y-71263928D01*
X84989585Y-71263830D01*
X84940829Y-71296303D01*
X84879694Y-71293808D01*
X84838538Y-71263906D01*
X84838517Y-71263928D01*
X84838384Y-71263795D01*
X84836446Y-71262387D01*
X84834442Y-71259853D01*
X84834441Y-71259852D01*
X84834440Y-71259850D01*
X84712450Y-71137860D01*
X84712447Y-71137858D01*
X84712446Y-71137857D01*
X84565620Y-71047294D01*
X84565614Y-71047291D01*
X84401856Y-70993027D01*
X84401846Y-70993024D01*
X84300784Y-70982700D01*
X83702415Y-70982700D01*
X83601355Y-70993024D01*
X83601343Y-70993027D01*
X83437585Y-71047291D01*
X83437579Y-71047294D01*
X83290753Y-71137857D01*
X83168757Y-71259853D01*
X83078194Y-71406679D01*
X83078191Y-71406685D01*
X83023927Y-71570443D01*
X83023924Y-71570453D01*
X83013600Y-71671515D01*
X83013600Y-72244884D01*
X83023924Y-72345944D01*
X83023927Y-72345956D01*
X83078191Y-72509714D01*
X83078194Y-72509720D01*
X83168757Y-72656546D01*
X83168758Y-72656547D01*
X83168760Y-72656550D01*
X83290750Y-72778540D01*
X83290752Y-72778541D01*
X83290753Y-72778542D01*
X83401099Y-72846604D01*
X83437584Y-72869108D01*
X83601347Y-72923374D01*
X83601351Y-72923374D01*
X83601353Y-72923375D01*
X83670005Y-72930388D01*
X83702423Y-72933700D01*
X84300776Y-72933699D01*
X84300784Y-72933699D01*
X84401844Y-72923375D01*
X84401844Y-72923374D01*
X84401853Y-72923374D01*
X84565616Y-72869108D01*
X84712450Y-72778540D01*
X84834440Y-72656550D01*
X84834443Y-72656544D01*
X84836442Y-72654018D01*
X84838026Y-72652962D01*
X84838517Y-72652472D01*
X84838615Y-72652570D01*
X84887365Y-72620098D01*
X84948499Y-72622589D01*
X84989660Y-72652494D01*
X84989683Y-72652472D01*
X84989823Y-72652612D01*
X84991758Y-72654018D01*
X84993756Y-72656545D01*
X84993758Y-72656547D01*
X84993760Y-72656550D01*
X85115750Y-72778540D01*
X85115752Y-72778541D01*
X85115753Y-72778542D01*
X85179072Y-72817597D01*
X85218674Y-72864238D01*
X85226100Y-72901858D01*
X85226100Y-73896192D01*
X85207193Y-73954383D01*
X85165775Y-73984659D01*
X85166707Y-73986657D01*
X85161479Y-73989094D01*
X85014653Y-74079657D01*
X84983003Y-74111307D01*
X84928486Y-74139083D01*
X84868054Y-74129511D01*
X84842997Y-74111307D01*
X84829953Y-74098263D01*
X84811350Y-74079660D01*
X84811347Y-74079658D01*
X84811346Y-74079657D01*
X84664520Y-73989094D01*
X84664514Y-73989091D01*
X84500756Y-73934827D01*
X84500746Y-73934824D01*
X84399684Y-73924500D01*
X83701315Y-73924500D01*
X83600255Y-73934824D01*
X83600243Y-73934827D01*
X83436485Y-73989091D01*
X83436479Y-73989094D01*
X83289653Y-74079657D01*
X83167657Y-74201653D01*
X83077094Y-74348479D01*
X83077091Y-74348485D01*
X83022827Y-74512243D01*
X83022824Y-74512253D01*
X83012500Y-74613315D01*
X83012500Y-75186684D01*
X82700500Y-75186684D01*
X82700500Y-53250001D01*
X84244355Y-53250001D01*
X84248708Y-53285850D01*
X84264860Y-53418872D01*
X84295023Y-53498405D01*
X84325181Y-53577928D01*
X84325183Y-53577931D01*
X84331974Y-53587769D01*
X84349500Y-53644010D01*
X84349500Y-59954149D01*
X84348653Y-59967071D01*
X84344318Y-59999999D01*
X84344318Y-60000000D01*
X84349500Y-60039361D01*
X84364955Y-60156758D01*
X84364957Y-60156766D01*
X84425462Y-60302838D01*
X84425462Y-60302839D01*
X84518198Y-60423695D01*
X84521718Y-60428282D01*
X84521722Y-60428285D01*
X84548063Y-60448497D01*
X84557800Y-60457035D01*
X88496915Y-64396150D01*
X88519478Y-64431048D01*
X88575182Y-64577931D01*
X88614430Y-64634790D01*
X88671817Y-64717929D01*
X88799148Y-64830734D01*
X88949775Y-64909790D01*
X89114944Y-64950500D01*
X89114947Y-64950500D01*
X89285053Y-64950500D01*
X89285056Y-64950500D01*
X89450225Y-64909790D01*
X89600852Y-64830734D01*
X89728183Y-64717929D01*
X89824818Y-64577930D01*
X89885140Y-64418872D01*
X89905645Y-64250000D01*
X89885140Y-64081128D01*
X89824818Y-63922070D01*
X89728183Y-63782071D01*
X89600852Y-63669266D01*
X89450225Y-63590210D01*
X89450224Y-63590209D01*
X89450223Y-63590209D01*
X89396360Y-63576933D01*
X89350049Y-63550814D01*
X85579496Y-59780261D01*
X85551719Y-59725744D01*
X85550500Y-59710257D01*
X85550500Y-53644010D01*
X85568026Y-53587769D01*
X85574818Y-53577930D01*
X85635140Y-53418872D01*
X85655645Y-53250000D01*
X85655584Y-53249500D01*
X85651991Y-53219907D01*
X85635140Y-53081128D01*
X85574818Y-52922070D01*
X85478183Y-52782071D01*
X85350852Y-52669266D01*
X85200225Y-52590210D01*
X85200224Y-52590209D01*
X85200223Y-52590209D01*
X85035058Y-52549500D01*
X85035056Y-52549500D01*
X84864944Y-52549500D01*
X84864941Y-52549500D01*
X84699776Y-52590209D01*
X84549146Y-52669267D01*
X84421818Y-52782069D01*
X84421816Y-52782072D01*
X84325182Y-52922070D01*
X84305012Y-52975256D01*
X84264860Y-53081129D01*
X84244355Y-53249998D01*
X84244355Y-53250001D01*
X82700500Y-53250001D01*
X82700500Y-48395849D01*
X82701347Y-48382927D01*
X82705682Y-48350000D01*
X82705682Y-48349999D01*
X82700481Y-48310496D01*
X82685044Y-48193238D01*
X82650164Y-48109031D01*
X82624537Y-48047161D01*
X82624537Y-48047160D01*
X82571685Y-47978282D01*
X82528286Y-47921723D01*
X82528285Y-47921722D01*
X82528282Y-47921718D01*
X82528277Y-47921714D01*
X82528276Y-47921713D01*
X82501936Y-47901502D01*
X82492199Y-47892964D01*
X81757035Y-47157800D01*
X81748497Y-47148063D01*
X81728285Y-47121722D01*
X81728282Y-47121718D01*
X81728277Y-47121714D01*
X81728276Y-47121713D01*
X81637369Y-47051958D01*
X81602841Y-47025464D01*
X81602840Y-47025463D01*
X81602838Y-47025462D01*
X81456766Y-46964957D01*
X81456758Y-46964955D01*
X81339361Y-46949500D01*
X81300000Y-46944318D01*
X81299999Y-46944318D01*
X81267072Y-46948653D01*
X81254150Y-46949500D01*
X68995850Y-46949500D01*
X68982928Y-46948653D01*
X68950001Y-46944318D01*
X68950000Y-46944318D01*
X68910639Y-46949500D01*
X68793241Y-46964955D01*
X68793233Y-46964957D01*
X68647161Y-47025462D01*
X68647160Y-47025462D01*
X68521723Y-47121713D01*
X68521718Y-47121718D01*
X68501498Y-47148068D01*
X68492962Y-47157801D01*
X66882801Y-48767962D01*
X66873068Y-48776498D01*
X66846718Y-48796718D01*
X66846713Y-48796723D01*
X66750462Y-48922160D01*
X66750462Y-48922161D01*
X66689957Y-49068233D01*
X66689955Y-49068241D01*
X66669318Y-49224999D01*
X66669318Y-49225000D01*
X66673653Y-49257927D01*
X66674500Y-49270849D01*
X66674500Y-50105989D01*
X66656977Y-50162225D01*
X66650182Y-50172070D01*
X66590425Y-50329640D01*
X66589860Y-50331129D01*
X66571403Y-50483136D01*
X66569355Y-50500000D01*
X66589860Y-50668872D01*
X66650182Y-50827930D01*
X66746817Y-50967929D01*
X66874148Y-51080734D01*
X67024775Y-51159790D01*
X67189944Y-51200500D01*
X67189947Y-51200500D01*
X67360053Y-51200500D01*
X67360056Y-51200500D01*
X67525225Y-51159790D01*
X67675852Y-51080734D01*
X67803183Y-50967929D01*
X67899818Y-50827930D01*
X67960140Y-50668872D01*
X67980645Y-50500000D01*
X67960140Y-50331128D01*
X67899818Y-50172070D01*
X67893023Y-50162225D01*
X67875500Y-50105989D01*
X67875500Y-49514743D01*
X67894407Y-49456552D01*
X67904496Y-49444739D01*
X67911736Y-49437499D01*
X77053800Y-49437499D01*
X77053801Y-49437500D01*
X77928799Y-49437500D01*
X77928800Y-49437499D01*
X78128800Y-49437499D01*
X78128801Y-49437500D01*
X79003798Y-49437500D01*
X79003799Y-49437499D01*
X79675000Y-49437499D01*
X79675001Y-49437500D01*
X80549999Y-49437500D01*
X80550000Y-49437499D01*
X80550000Y-48500001D01*
X80549999Y-48500000D01*
X80363345Y-48500000D01*
X80262357Y-48510317D01*
X80262345Y-48510320D01*
X80098693Y-48564548D01*
X79951964Y-48655053D01*
X79830053Y-48776964D01*
X79739548Y-48923693D01*
X79685318Y-49087351D01*
X79675000Y-49188344D01*
X79675000Y-49437499D01*
X79003799Y-49437499D01*
X79003799Y-49188345D01*
X78993482Y-49087357D01*
X78993479Y-49087345D01*
X78939251Y-48923693D01*
X78848746Y-48776964D01*
X78726835Y-48655053D01*
X78580106Y-48564548D01*
X78416448Y-48510318D01*
X78315455Y-48500000D01*
X78128801Y-48500000D01*
X78128800Y-48500001D01*
X78128800Y-49437499D01*
X77928800Y-49437499D01*
X77928800Y-48500001D01*
X77928799Y-48500000D01*
X77742145Y-48500000D01*
X77641157Y-48510317D01*
X77641145Y-48510320D01*
X77477493Y-48564548D01*
X77330764Y-48655053D01*
X77208853Y-48776964D01*
X77118348Y-48923693D01*
X77064118Y-49087351D01*
X77053800Y-49188344D01*
X77053800Y-49437499D01*
X67911736Y-49437499D01*
X69169739Y-48179496D01*
X69224256Y-48151719D01*
X69239743Y-48150500D01*
X81010257Y-48150500D01*
X81068448Y-48169407D01*
X81080261Y-48179496D01*
X81300781Y-48400016D01*
X81328558Y-48454533D01*
X81318987Y-48514965D01*
X81275722Y-48558230D01*
X81215290Y-48567801D01*
X81199637Y-48563995D01*
X81037648Y-48510318D01*
X80936655Y-48500000D01*
X80750001Y-48500000D01*
X80750000Y-48500001D01*
X80750000Y-49538500D01*
X80731093Y-49596691D01*
X80681593Y-49632655D01*
X80651000Y-49637500D01*
X79675002Y-49637500D01*
X79675001Y-49637501D01*
X79675001Y-49886654D01*
X79685317Y-49987642D01*
X79685320Y-49987654D01*
X79739548Y-50151306D01*
X79830053Y-50298035D01*
X79861660Y-50329642D01*
X79889437Y-50384159D01*
X79879866Y-50444591D01*
X79861661Y-50469649D01*
X79829657Y-50501653D01*
X79739094Y-50648479D01*
X79739091Y-50648485D01*
X79684827Y-50812243D01*
X79684824Y-50812253D01*
X79674500Y-50913315D01*
X79674500Y-51611684D01*
X79684824Y-51712744D01*
X79684827Y-51712756D01*
X79739091Y-51876514D01*
X79739094Y-51876520D01*
X79829657Y-52023346D01*
X79829658Y-52023347D01*
X79829660Y-52023350D01*
X79908534Y-52102224D01*
X79936310Y-52156739D01*
X79926739Y-52217171D01*
X79908533Y-52242230D01*
X78830261Y-53320504D01*
X78775744Y-53348281D01*
X78760257Y-53349500D01*
X78737593Y-53349500D01*
X78691585Y-53338160D01*
X78600223Y-53290209D01*
X78435058Y-53249500D01*
X78435056Y-53249500D01*
X78264944Y-53249500D01*
X78264941Y-53249500D01*
X78099776Y-53290209D01*
X78008415Y-53338160D01*
X77962407Y-53349500D01*
X77688743Y-53349500D01*
X77630552Y-53330593D01*
X77594588Y-53281093D01*
X77594588Y-53219907D01*
X77618739Y-53180497D01*
X78420997Y-52378237D01*
X78430737Y-52369696D01*
X78457082Y-52349482D01*
X78513404Y-52276079D01*
X78560809Y-52242371D01*
X78580316Y-52235908D01*
X78727150Y-52145340D01*
X78849140Y-52023350D01*
X78939708Y-51876516D01*
X78993974Y-51712753D01*
X79004300Y-51611677D01*
X79004299Y-50913324D01*
X79004299Y-50913323D01*
X79004299Y-50913315D01*
X78993975Y-50812255D01*
X78993974Y-50812253D01*
X78993974Y-50812247D01*
X78939708Y-50648484D01*
X78904352Y-50591163D01*
X78849142Y-50501653D01*
X78849141Y-50501652D01*
X78849140Y-50501650D01*
X78817137Y-50469647D01*
X78789362Y-50415133D01*
X78798933Y-50354701D01*
X78817141Y-50329640D01*
X78848746Y-50298036D01*
X78939251Y-50151306D01*
X78993481Y-49987648D01*
X79003800Y-49886655D01*
X79003800Y-49637501D01*
X79003799Y-49637500D01*
X77053802Y-49637500D01*
X77053801Y-49637501D01*
X77053801Y-49886654D01*
X77064117Y-49987642D01*
X77064120Y-49987654D01*
X77118348Y-50151306D01*
X77208853Y-50298035D01*
X77240460Y-50329642D01*
X77268237Y-50384159D01*
X77258666Y-50444591D01*
X77240461Y-50469649D01*
X77208457Y-50501653D01*
X77117894Y-50648479D01*
X77117891Y-50648485D01*
X77063627Y-50812243D01*
X77063624Y-50812253D01*
X77053300Y-50913315D01*
X77053300Y-51611684D01*
X77063624Y-51712744D01*
X77063625Y-51712746D01*
X77063626Y-51712753D01*
X77098291Y-51817365D01*
X77117891Y-51876513D01*
X77120330Y-51881743D01*
X77118997Y-51882364D01*
X77131828Y-51935119D01*
X77108581Y-51991716D01*
X77103115Y-51997648D01*
X75735661Y-53365104D01*
X75681144Y-53392881D01*
X75665657Y-53394100D01*
X75342993Y-53394100D01*
X75296985Y-53382760D01*
X75205625Y-53334810D01*
X75151760Y-53321533D01*
X75105449Y-53295414D01*
X73766996Y-51956961D01*
X73739219Y-51902444D01*
X73738000Y-51886957D01*
X73738000Y-51498308D01*
X73752738Y-51446337D01*
X73784814Y-51394334D01*
X73839999Y-51227797D01*
X73850499Y-51125016D01*
X74149500Y-51125016D01*
X74159999Y-51227788D01*
X74160000Y-51227795D01*
X74160001Y-51227797D01*
X74184434Y-51301532D01*
X74215187Y-51394336D01*
X74307285Y-51543652D01*
X74307286Y-51543653D01*
X74307288Y-51543656D01*
X74431344Y-51667712D01*
X74580666Y-51759814D01*
X74747203Y-51814999D01*
X74849991Y-51825500D01*
X76025008Y-51825499D01*
X76025016Y-51825499D01*
X76127788Y-51815000D01*
X76127788Y-51814999D01*
X76127797Y-51814999D01*
X76294334Y-51759814D01*
X76443656Y-51667712D01*
X76567712Y-51543656D01*
X76659814Y-51394334D01*
X76714999Y-51227797D01*
X76725500Y-51125009D01*
X76725499Y-50174992D01*
X76725499Y-50174991D01*
X76725499Y-50174983D01*
X76715000Y-50072211D01*
X76714999Y-50072209D01*
X76714999Y-50072203D01*
X76659814Y-49905666D01*
X76567712Y-49756344D01*
X76443656Y-49632288D01*
X76443653Y-49632286D01*
X76443652Y-49632285D01*
X76294336Y-49540187D01*
X76294335Y-49540186D01*
X76294334Y-49540186D01*
X76127797Y-49485001D01*
X76127794Y-49485000D01*
X76025016Y-49474500D01*
X74849983Y-49474500D01*
X74747211Y-49484999D01*
X74747199Y-49485002D01*
X74580663Y-49540187D01*
X74431347Y-49632285D01*
X74307285Y-49756347D01*
X74215187Y-49905663D01*
X74160000Y-50072205D01*
X74149500Y-50174983D01*
X74149500Y-51125016D01*
X73850499Y-51125016D01*
X73850500Y-51125009D01*
X73850499Y-50174992D01*
X73850499Y-50174991D01*
X73850499Y-50174983D01*
X73840000Y-50072211D01*
X73839999Y-50072209D01*
X73839999Y-50072203D01*
X73784814Y-49905666D01*
X73692712Y-49756344D01*
X73568656Y-49632288D01*
X73568653Y-49632286D01*
X73568652Y-49632285D01*
X73419336Y-49540187D01*
X73419335Y-49540186D01*
X73419334Y-49540186D01*
X73252797Y-49485001D01*
X73252794Y-49485000D01*
X73150016Y-49474500D01*
X71974983Y-49474500D01*
X71872211Y-49484999D01*
X71872199Y-49485002D01*
X71705663Y-49540187D01*
X71556347Y-49632285D01*
X71432285Y-49756347D01*
X71340187Y-49905663D01*
X71285000Y-50072205D01*
X71274500Y-50174983D01*
X71274500Y-51125016D01*
X71284999Y-51227788D01*
X71285000Y-51227795D01*
X71285001Y-51227797D01*
X71309434Y-51301532D01*
X71340187Y-51394336D01*
X71432285Y-51543652D01*
X71432286Y-51543653D01*
X71432288Y-51543656D01*
X71556344Y-51667712D01*
X71705666Y-51759814D01*
X71872203Y-51814999D01*
X71974991Y-51825500D01*
X72438000Y-51825499D01*
X72496191Y-51844406D01*
X72532155Y-51893906D01*
X72537000Y-51924499D01*
X72537000Y-52130849D01*
X72536153Y-52143771D01*
X72531818Y-52176699D01*
X72531818Y-52176700D01*
X72548159Y-52300823D01*
X72552455Y-52333458D01*
X72552457Y-52333466D01*
X72612962Y-52479538D01*
X72612962Y-52479539D01*
X72697882Y-52590209D01*
X72709218Y-52604982D01*
X72709222Y-52604985D01*
X72735563Y-52625197D01*
X72745300Y-52633735D01*
X73961769Y-53850204D01*
X60008120Y-53924955D01*
X52691253Y-53964153D01*
X52632962Y-53945557D01*
X52596734Y-53896251D01*
X52595096Y-53890776D01*
X52594350Y-53887993D01*
X52581903Y-53841537D01*
X52506027Y-53678821D01*
X52482040Y-53627381D01*
X52482036Y-53627373D01*
X52436610Y-53562498D01*
X52346495Y-53433799D01*
X52179401Y-53266705D01*
X52179397Y-53266702D01*
X52179396Y-53266701D01*
X51997042Y-53139016D01*
X51985830Y-53131165D01*
X51972447Y-53124924D01*
X51927700Y-53083197D01*
X51916025Y-53023136D01*
X51941883Y-52967683D01*
X51972448Y-52945475D01*
X51985830Y-52939235D01*
X52078775Y-52874154D01*
X66223901Y-52874154D01*
X66234217Y-52975142D01*
X66234220Y-52975154D01*
X66288448Y-53138806D01*
X66378953Y-53285535D01*
X66500864Y-53407446D01*
X66647593Y-53497951D01*
X66811251Y-53552181D01*
X66912245Y-53562499D01*
X67161398Y-53562499D01*
X67161400Y-53562498D01*
X67361400Y-53562498D01*
X67361401Y-53562499D01*
X67610554Y-53562499D01*
X67711542Y-53552182D01*
X67711554Y-53552179D01*
X67875206Y-53497951D01*
X68021936Y-53407446D01*
X68053540Y-53375841D01*
X68108056Y-53348062D01*
X68168489Y-53357632D01*
X68193546Y-53375836D01*
X68225550Y-53407840D01*
X68225552Y-53407841D01*
X68225553Y-53407842D01*
X68371643Y-53497951D01*
X68372384Y-53498408D01*
X68536147Y-53552674D01*
X68536151Y-53552674D01*
X68536153Y-53552675D01*
X68604805Y-53559688D01*
X68637223Y-53563000D01*
X69335576Y-53562999D01*
X69335584Y-53562999D01*
X69436644Y-53552675D01*
X69436644Y-53552674D01*
X69436653Y-53552674D01*
X69600416Y-53498408D01*
X69747250Y-53407840D01*
X69869240Y-53285850D01*
X69959808Y-53139016D01*
X70014074Y-52975253D01*
X70014086Y-52975142D01*
X70024399Y-52874184D01*
X70024400Y-52874177D01*
X70024399Y-52300824D01*
X70024399Y-52300823D01*
X70024399Y-52300815D01*
X70014075Y-52199755D01*
X70014074Y-52199753D01*
X70014074Y-52199747D01*
X69959808Y-52035984D01*
X69893181Y-51927965D01*
X69869242Y-51889153D01*
X69869241Y-51889152D01*
X69869240Y-51889150D01*
X69747250Y-51767160D01*
X69747247Y-51767158D01*
X69747246Y-51767157D01*
X69600420Y-51676594D01*
X69600414Y-51676591D01*
X69436656Y-51622327D01*
X69436646Y-51622324D01*
X69335584Y-51612000D01*
X68637215Y-51612000D01*
X68536155Y-51622324D01*
X68536143Y-51622327D01*
X68372385Y-51676591D01*
X68372379Y-51676594D01*
X68225553Y-51767157D01*
X68193549Y-51799161D01*
X68139032Y-51826937D01*
X68078600Y-51817365D01*
X68053542Y-51799160D01*
X68021935Y-51767553D01*
X67875206Y-51677048D01*
X67711548Y-51622818D01*
X67610555Y-51612500D01*
X67361401Y-51612500D01*
X67361400Y-51612501D01*
X67361400Y-53562498D01*
X67161400Y-53562498D01*
X67161400Y-52687501D01*
X67161399Y-52687500D01*
X66223902Y-52687500D01*
X66223901Y-52687501D01*
X66223901Y-52874154D01*
X52078775Y-52874154D01*
X52179401Y-52803695D01*
X52346495Y-52636601D01*
X52450897Y-52487499D01*
X66223900Y-52487499D01*
X66223901Y-52487500D01*
X67161399Y-52487500D01*
X67161400Y-52487499D01*
X67161400Y-51612501D01*
X67161399Y-51612500D01*
X66912245Y-51612500D01*
X66811257Y-51622817D01*
X66811245Y-51622820D01*
X66647593Y-51677048D01*
X66500864Y-51767553D01*
X66378953Y-51889464D01*
X66288448Y-52036193D01*
X66234218Y-52199851D01*
X66223900Y-52300844D01*
X66223900Y-52487499D01*
X52450897Y-52487499D01*
X52482035Y-52443030D01*
X52581903Y-52228863D01*
X52643063Y-52000608D01*
X52644367Y-51985709D01*
X52663659Y-51765204D01*
X52663659Y-51765195D01*
X52643064Y-51529799D01*
X52643063Y-51529796D01*
X52643063Y-51529792D01*
X52581903Y-51301537D01*
X52547519Y-51227800D01*
X52482040Y-51087381D01*
X52482036Y-51087373D01*
X52477387Y-51080734D01*
X52391523Y-50958106D01*
X52346498Y-50893803D01*
X52346497Y-50893802D01*
X52346495Y-50893799D01*
X52179401Y-50726705D01*
X52179397Y-50726702D01*
X52179396Y-50726701D01*
X52067683Y-50648479D01*
X51985830Y-50591165D01*
X51972447Y-50584924D01*
X51927700Y-50543197D01*
X51916025Y-50483136D01*
X51941883Y-50427683D01*
X51972448Y-50405475D01*
X51985830Y-50399235D01*
X52179401Y-50263695D01*
X52346495Y-50096601D01*
X52482035Y-49903030D01*
X52581903Y-49688863D01*
X52643063Y-49460608D01*
X52643418Y-49456552D01*
X52663659Y-49225204D01*
X52663659Y-49225195D01*
X52643064Y-48989799D01*
X52643063Y-48989796D01*
X52643063Y-48989792D01*
X52581903Y-48761537D01*
X52581901Y-48761532D01*
X52482040Y-48547381D01*
X52482036Y-48547373D01*
X52477455Y-48540831D01*
X52383036Y-48405985D01*
X52346498Y-48353803D01*
X52346497Y-48353802D01*
X52346495Y-48353799D01*
X52179401Y-48186705D01*
X52179397Y-48186702D01*
X52179396Y-48186701D01*
X52068468Y-48109029D01*
X51985830Y-48051165D01*
X51972447Y-48044924D01*
X51927700Y-48003197D01*
X51916025Y-47943136D01*
X51941883Y-47887683D01*
X51972448Y-47865475D01*
X51985830Y-47859235D01*
X52179401Y-47723695D01*
X52346495Y-47556601D01*
X52482035Y-47363030D01*
X52581903Y-47148863D01*
X52643063Y-46920608D01*
X52643064Y-46920600D01*
X52663659Y-46685204D01*
X52663659Y-46685195D01*
X52643064Y-46449799D01*
X52643063Y-46449796D01*
X52643063Y-46449792D01*
X52581903Y-46221537D01*
X52546394Y-46145388D01*
X52482040Y-46007381D01*
X52482036Y-46007373D01*
X52346498Y-45813803D01*
X52346497Y-45813802D01*
X52346495Y-45813799D01*
X52179401Y-45646705D01*
X52179397Y-45646702D01*
X52179396Y-45646701D01*
X52016768Y-45532828D01*
X51985830Y-45511165D01*
X51972447Y-45504924D01*
X51927700Y-45463197D01*
X51916025Y-45403136D01*
X51941883Y-45347683D01*
X51972448Y-45325475D01*
X51985830Y-45319235D01*
X52179401Y-45183695D01*
X52346495Y-45016601D01*
X52482035Y-44823030D01*
X52581903Y-44608863D01*
X52643063Y-44380608D01*
X52643064Y-44380600D01*
X52663659Y-44145204D01*
X52663659Y-44145195D01*
X52643064Y-43909799D01*
X52643063Y-43909796D01*
X52643063Y-43909792D01*
X52581903Y-43681537D01*
X52581901Y-43681532D01*
X52482040Y-43467381D01*
X52482036Y-43467373D01*
X52346498Y-43273803D01*
X52346497Y-43273802D01*
X52346495Y-43273799D01*
X52179401Y-43106705D01*
X52179397Y-43106702D01*
X52179396Y-43106701D01*
X52057853Y-43021596D01*
X51985830Y-42971165D01*
X51771663Y-42871297D01*
X51543408Y-42810137D01*
X51543407Y-42810136D01*
X51543400Y-42810135D01*
X51308004Y-42789541D01*
X51307996Y-42789541D01*
X51072599Y-42810135D01*
X50844332Y-42871298D01*
X50630181Y-42971159D01*
X50630173Y-42971163D01*
X50436603Y-43106701D01*
X50269501Y-43273803D01*
X50133963Y-43467373D01*
X50133959Y-43467381D01*
X50034098Y-43681532D01*
X49972935Y-43909799D01*
X49952341Y-44145195D01*
X49952341Y-44145204D01*
X49972935Y-44380600D01*
X49972936Y-44380607D01*
X49972937Y-44380608D01*
X50034097Y-44608863D01*
X50133965Y-44823030D01*
X50269505Y-45016601D01*
X50436599Y-45183695D01*
X50630170Y-45319235D01*
X50643552Y-45325475D01*
X50688300Y-45367203D01*
X50699975Y-45427264D01*
X50674117Y-45482717D01*
X50643554Y-45504924D01*
X50630173Y-45511163D01*
X50436603Y-45646701D01*
X50269501Y-45813803D01*
X50133963Y-46007373D01*
X50133959Y-46007381D01*
X50034098Y-46221532D01*
X49972935Y-46449799D01*
X49952341Y-46685195D01*
X49952341Y-46685204D01*
X49972935Y-46920600D01*
X49972936Y-46920607D01*
X49972937Y-46920608D01*
X50034097Y-47148863D01*
X50133965Y-47363030D01*
X50269505Y-47556601D01*
X50436599Y-47723695D01*
X50630170Y-47859235D01*
X50643552Y-47865475D01*
X50688300Y-47907203D01*
X50699975Y-47967264D01*
X50674117Y-48022717D01*
X50643554Y-48044924D01*
X50630173Y-48051163D01*
X50436603Y-48186701D01*
X50269501Y-48353803D01*
X50133963Y-48547373D01*
X50133959Y-48547381D01*
X50034098Y-48761532D01*
X49972935Y-48989799D01*
X49952341Y-49225195D01*
X49952341Y-49225204D01*
X49972935Y-49460600D01*
X49972936Y-49460607D01*
X49972937Y-49460608D01*
X50034097Y-49688863D01*
X50121355Y-49875988D01*
X50133964Y-49903028D01*
X50252422Y-50072205D01*
X50269505Y-50096601D01*
X50436599Y-50263695D01*
X50630170Y-50399235D01*
X50643552Y-50405475D01*
X50688300Y-50447203D01*
X50699975Y-50507264D01*
X50674117Y-50562717D01*
X50643554Y-50584924D01*
X50630173Y-50591163D01*
X50436603Y-50726701D01*
X50269501Y-50893803D01*
X50133963Y-51087373D01*
X50133959Y-51087381D01*
X50034098Y-51301532D01*
X49972935Y-51529799D01*
X49952341Y-51765195D01*
X49952341Y-51765204D01*
X49972935Y-52000600D01*
X49972936Y-52000607D01*
X49972937Y-52000608D01*
X50034097Y-52228863D01*
X50133965Y-52443030D01*
X50194307Y-52529207D01*
X50261519Y-52625197D01*
X50269505Y-52636601D01*
X50436599Y-52803695D01*
X50630170Y-52939235D01*
X50643552Y-52945475D01*
X50688300Y-52987203D01*
X50699975Y-53047264D01*
X50674117Y-53102717D01*
X50643554Y-53124924D01*
X50630173Y-53131163D01*
X50436603Y-53266701D01*
X50269501Y-53433803D01*
X50133963Y-53627373D01*
X50133959Y-53627381D01*
X50034098Y-53841533D01*
X50034096Y-53841537D01*
X50016926Y-53905615D01*
X49983601Y-53956928D01*
X49926480Y-53978854D01*
X49921830Y-53978989D01*
X48014260Y-53989208D01*
X48007173Y-53988992D01*
X47732102Y-53970733D01*
X47718063Y-53968784D01*
X47451897Y-53912171D01*
X47438280Y-53908237D01*
X47182933Y-53814200D01*
X47170018Y-53808363D01*
X46930706Y-53678821D01*
X46918757Y-53671199D01*
X46700404Y-53508818D01*
X46689665Y-53499568D01*
X46496729Y-53307662D01*
X46487422Y-53296973D01*
X46429467Y-53219907D01*
X46323870Y-53079489D01*
X46316187Y-53067585D01*
X46185368Y-52828974D01*
X46179461Y-52816091D01*
X46174821Y-52803698D01*
X46084052Y-52561239D01*
X46080048Y-52547648D01*
X46022010Y-52281786D01*
X46019987Y-52267764D01*
X46017240Y-52229491D01*
X46003368Y-52036193D01*
X46000254Y-51992795D01*
X46000000Y-51985709D01*
X46000000Y-37372266D01*
X85060300Y-37372266D01*
X85060301Y-37372270D01*
X85066708Y-37431880D01*
X85066709Y-37431885D01*
X85117002Y-37566729D01*
X85178168Y-37648436D01*
X85203254Y-37681946D01*
X85203257Y-37681948D01*
X85203258Y-37681949D01*
X85318470Y-37768197D01*
X85453311Y-37818489D01*
X85453312Y-37818489D01*
X85453317Y-37818491D01*
X85512927Y-37824900D01*
X85711301Y-37824899D01*
X85769490Y-37843806D01*
X85805454Y-37893306D01*
X85810300Y-37923899D01*
X85810300Y-39114949D01*
X85809453Y-39127871D01*
X85805118Y-39160800D01*
X85816796Y-39249501D01*
X85825755Y-39317559D01*
X85825757Y-39317566D01*
X85886262Y-39463638D01*
X85886262Y-39463639D01*
X85974445Y-39578561D01*
X85982518Y-39589082D01*
X85982522Y-39589085D01*
X86008863Y-39609297D01*
X86018600Y-39617835D01*
X86621915Y-40221150D01*
X86644477Y-40256046D01*
X86700182Y-40402930D01*
X86700183Y-40402931D01*
X86706974Y-40412769D01*
X86724500Y-40469010D01*
X86724500Y-42829149D01*
X86723653Y-42842071D01*
X86719318Y-42874999D01*
X86719318Y-42875000D01*
X86728064Y-42941436D01*
X86739955Y-43031762D01*
X86800462Y-43177838D01*
X86800462Y-43177839D01*
X86800464Y-43177841D01*
X86896718Y-43303282D01*
X86896722Y-43303285D01*
X86923063Y-43323497D01*
X86932800Y-43332035D01*
X88618778Y-45018013D01*
X88646555Y-45072530D01*
X88636984Y-45132962D01*
X88608104Y-45167269D01*
X88533459Y-45223149D01*
X88533450Y-45223158D01*
X88447202Y-45338370D01*
X88396910Y-45473211D01*
X88396908Y-45473222D01*
X88390500Y-45532829D01*
X88390500Y-46517566D01*
X88390501Y-46517570D01*
X88396908Y-46577180D01*
X88396909Y-46577185D01*
X88447202Y-46712029D01*
X88533450Y-46827241D01*
X88533454Y-46827246D01*
X88570948Y-46855314D01*
X88577671Y-46860347D01*
X88612923Y-46910357D01*
X88612049Y-46971536D01*
X88577671Y-47018853D01*
X88533455Y-47051953D01*
X88533450Y-47051958D01*
X88447202Y-47167170D01*
X88396910Y-47302011D01*
X88396908Y-47302022D01*
X88390500Y-47361629D01*
X88390500Y-48346366D01*
X88390500Y-48346369D01*
X88390501Y-48346372D01*
X88391918Y-48359550D01*
X88396908Y-48405980D01*
X88396909Y-48405985D01*
X88447202Y-48540829D01*
X88533450Y-48656041D01*
X88533454Y-48656046D01*
X88533457Y-48656048D01*
X88533458Y-48656049D01*
X88648670Y-48742297D01*
X88783511Y-48792589D01*
X88783512Y-48792589D01*
X88783517Y-48792591D01*
X88843127Y-48799000D01*
X90132672Y-48798999D01*
X90192283Y-48792591D01*
X90192291Y-48792587D01*
X90197530Y-48791350D01*
X90243084Y-48791349D01*
X90248324Y-48792587D01*
X90248335Y-48792591D01*
X90307945Y-48799000D01*
X90962490Y-48798999D01*
X91022101Y-48792591D01*
X91022102Y-48792590D01*
X91027223Y-48791380D01*
X91072775Y-48791380D01*
X91077895Y-48792589D01*
X91077899Y-48792591D01*
X91137509Y-48799000D01*
X91792054Y-48798999D01*
X91851665Y-48792591D01*
X91851673Y-48792587D01*
X91856912Y-48791350D01*
X91902466Y-48791349D01*
X91907706Y-48792587D01*
X91907717Y-48792591D01*
X91967327Y-48799000D01*
X93256872Y-48798999D01*
X93316483Y-48792591D01*
X93399757Y-48761532D01*
X93451329Y-48742297D01*
X93451329Y-48742296D01*
X93451331Y-48742296D01*
X93566546Y-48656046D01*
X93652796Y-48540831D01*
X93662444Y-48514965D01*
X93703089Y-48405988D01*
X93703090Y-48405985D01*
X93703091Y-48405983D01*
X93709500Y-48346373D01*
X93709499Y-47361628D01*
X93703091Y-47302017D01*
X93703089Y-47302011D01*
X93652797Y-47167170D01*
X93566549Y-47051958D01*
X93566548Y-47051957D01*
X93566546Y-47051954D01*
X93522327Y-47018852D01*
X93487075Y-46968845D01*
X93487949Y-46907666D01*
X93522327Y-46860347D01*
X93566546Y-46827246D01*
X93652796Y-46712031D01*
X93703091Y-46577183D01*
X93709500Y-46517573D01*
X93709499Y-45532828D01*
X93703091Y-45473217D01*
X93676953Y-45403136D01*
X93652797Y-45338370D01*
X93566549Y-45223158D01*
X93566548Y-45223157D01*
X93566546Y-45223154D01*
X93566541Y-45223150D01*
X93451332Y-45136904D01*
X93398003Y-45117013D01*
X93350088Y-45078962D01*
X93333600Y-45024255D01*
X93333600Y-42706641D01*
X93352507Y-42648450D01*
X93362590Y-42636644D01*
X93550049Y-42449184D01*
X93596357Y-42423066D01*
X93650225Y-42409790D01*
X93800852Y-42330734D01*
X93928183Y-42217929D01*
X94024818Y-42077930D01*
X94080523Y-41931044D01*
X94103083Y-41896150D01*
X94423005Y-41576228D01*
X94432737Y-41567696D01*
X94459082Y-41547482D01*
X94459084Y-41547480D01*
X94549175Y-41430070D01*
X94555336Y-41422041D01*
X94615844Y-41275962D01*
X94626995Y-41191262D01*
X94636482Y-41119200D01*
X94632665Y-41090210D01*
X94632147Y-41086271D01*
X94631300Y-41073349D01*
X94631300Y-37747564D01*
X94650207Y-37689373D01*
X94688461Y-37657839D01*
X94708630Y-37648435D01*
X94902201Y-37512895D01*
X95069295Y-37345801D01*
X95204835Y-37152230D01*
X95211075Y-37138847D01*
X95252803Y-37094100D01*
X95312864Y-37082425D01*
X95368317Y-37108283D01*
X95390525Y-37138848D01*
X95396764Y-37152228D01*
X95526842Y-37338000D01*
X95532305Y-37345801D01*
X95699399Y-37512895D01*
X95892970Y-37648435D01*
X95913138Y-37657839D01*
X95957887Y-37699566D01*
X95970300Y-37747564D01*
X95970300Y-39805989D01*
X95952777Y-39862225D01*
X95945982Y-39872070D01*
X95890087Y-40019457D01*
X95885660Y-40031129D01*
X95868935Y-40168872D01*
X95865155Y-40200000D01*
X95885660Y-40368872D01*
X95945982Y-40527930D01*
X96042617Y-40667929D01*
X96169948Y-40780734D01*
X96320575Y-40859790D01*
X96374438Y-40873065D01*
X96420749Y-40899184D01*
X97793204Y-42271639D01*
X97820981Y-42326156D01*
X97822200Y-42341643D01*
X97822200Y-44554713D01*
X97803293Y-44612904D01*
X97753793Y-44648868D01*
X97733784Y-44653146D01*
X97721993Y-44654413D01*
X97718317Y-44654809D01*
X97718314Y-44654809D01*
X97583470Y-44705102D01*
X97468258Y-44791350D01*
X97468250Y-44791358D01*
X97382002Y-44906570D01*
X97331710Y-45041411D01*
X97331708Y-45041422D01*
X97325300Y-45101029D01*
X97325300Y-46085766D01*
X97325301Y-46085770D01*
X97331708Y-46145380D01*
X97331709Y-46145385D01*
X97382002Y-46280229D01*
X97468250Y-46395441D01*
X97468254Y-46395446D01*
X97505748Y-46423514D01*
X97512471Y-46428547D01*
X97547723Y-46478557D01*
X97546849Y-46539736D01*
X97512471Y-46587053D01*
X97468255Y-46620153D01*
X97468250Y-46620158D01*
X97382002Y-46735370D01*
X97331710Y-46870211D01*
X97331708Y-46870222D01*
X97325300Y-46929829D01*
X97325300Y-47914566D01*
X97325301Y-47914570D01*
X97331708Y-47974180D01*
X97331709Y-47974185D01*
X97382002Y-48109029D01*
X97468250Y-48224241D01*
X97468254Y-48224246D01*
X97468257Y-48224248D01*
X97468258Y-48224249D01*
X97583470Y-48310497D01*
X97718311Y-48360789D01*
X97718312Y-48360789D01*
X97718317Y-48360791D01*
X97777927Y-48367200D01*
X99067472Y-48367199D01*
X99127083Y-48360791D01*
X99127091Y-48360787D01*
X99132330Y-48359550D01*
X99177884Y-48359549D01*
X99183124Y-48360787D01*
X99183135Y-48360791D01*
X99242745Y-48367200D01*
X99897290Y-48367199D01*
X99956901Y-48360791D01*
X99956902Y-48360790D01*
X99962023Y-48359580D01*
X100007575Y-48359580D01*
X100012695Y-48360789D01*
X100012699Y-48360791D01*
X100072309Y-48367200D01*
X100726854Y-48367199D01*
X100786465Y-48360791D01*
X100786473Y-48360787D01*
X100791712Y-48359550D01*
X100837266Y-48359549D01*
X100842506Y-48360787D01*
X100842517Y-48360791D01*
X100902127Y-48367200D01*
X102191672Y-48367199D01*
X102251283Y-48360791D01*
X102318707Y-48335643D01*
X102386129Y-48310497D01*
X102386129Y-48310496D01*
X102386131Y-48310496D01*
X102501346Y-48224246D01*
X102587596Y-48109031D01*
X102637891Y-47974183D01*
X102644300Y-47914573D01*
X102644299Y-46929828D01*
X102637891Y-46870217D01*
X102634210Y-46860347D01*
X102587597Y-46735370D01*
X102501349Y-46620158D01*
X102501348Y-46620157D01*
X102501346Y-46620154D01*
X102457127Y-46587052D01*
X102421875Y-46537045D01*
X102422749Y-46475866D01*
X102457127Y-46428547D01*
X102501346Y-46395446D01*
X102587596Y-46280231D01*
X102609488Y-46221537D01*
X102637889Y-46145388D01*
X102637890Y-46145385D01*
X102637891Y-46145383D01*
X102644300Y-46085773D01*
X102644299Y-45101028D01*
X102637891Y-45041417D01*
X102628635Y-45016601D01*
X102587597Y-44906570D01*
X102501349Y-44791358D01*
X102501348Y-44791357D01*
X102501346Y-44791354D01*
X102411770Y-44724297D01*
X102386129Y-44705102D01*
X102251288Y-44654810D01*
X102251278Y-44654808D01*
X102235816Y-44653146D01*
X102179980Y-44628126D01*
X102149514Y-44575064D01*
X102147400Y-44554713D01*
X102147400Y-44342749D01*
X102148247Y-44329827D01*
X102152582Y-44296900D01*
X102152582Y-44296899D01*
X102132610Y-44145200D01*
X102131944Y-44140138D01*
X102071436Y-43994059D01*
X102071435Y-43994057D01*
X102047989Y-43963502D01*
X102047986Y-43963499D01*
X101975185Y-43868622D01*
X101975182Y-43868618D01*
X101975177Y-43868614D01*
X101975176Y-43868613D01*
X101948836Y-43848402D01*
X101939099Y-43839864D01*
X101729496Y-43630261D01*
X101701719Y-43575744D01*
X101700500Y-43560257D01*
X101700500Y-43136054D01*
X101719407Y-43077863D01*
X101768907Y-43041899D01*
X101799500Y-43037054D01*
X102017596Y-43037054D01*
X102030518Y-43037901D01*
X102063445Y-43042236D01*
X102063446Y-43042236D01*
X102063447Y-43042236D01*
X102102807Y-43037054D01*
X102220208Y-43021598D01*
X102366287Y-42961090D01*
X102407409Y-42929536D01*
X102478482Y-42875000D01*
X102491726Y-42864838D01*
X102491728Y-42864836D01*
X102511942Y-42838491D01*
X102520474Y-42828759D01*
X104583005Y-40766228D01*
X104592737Y-40757696D01*
X104619082Y-40737482D01*
X104619084Y-40737480D01*
X104663875Y-40679106D01*
X104715336Y-40612041D01*
X104775844Y-40465962D01*
X104791300Y-40348561D01*
X104796482Y-40309200D01*
X104792147Y-40276271D01*
X104791300Y-40263349D01*
X104791300Y-37747564D01*
X104810207Y-37689373D01*
X104848461Y-37657839D01*
X104868630Y-37648435D01*
X105062201Y-37512895D01*
X105229295Y-37345801D01*
X105364835Y-37152230D01*
X105464703Y-36938063D01*
X105525863Y-36709808D01*
X105546459Y-36474400D01*
X105525863Y-36238992D01*
X105464703Y-36010737D01*
X105401598Y-35875408D01*
X105364840Y-35796581D01*
X105364836Y-35796573D01*
X105324700Y-35739253D01*
X105239964Y-35618236D01*
X105229298Y-35603003D01*
X105229297Y-35603002D01*
X105229295Y-35602999D01*
X105062201Y-35435905D01*
X105062197Y-35435902D01*
X105062196Y-35435901D01*
X104954807Y-35360707D01*
X104868630Y-35300365D01*
X104654463Y-35200497D01*
X104426208Y-35139337D01*
X104426207Y-35139336D01*
X104426200Y-35139335D01*
X104190804Y-35118741D01*
X104190796Y-35118741D01*
X103955399Y-35139335D01*
X103727132Y-35200498D01*
X103512981Y-35300359D01*
X103512973Y-35300363D01*
X103319403Y-35435901D01*
X103152301Y-35603003D01*
X103016763Y-35796573D01*
X103010524Y-35809954D01*
X102968795Y-35854701D01*
X102908733Y-35866375D01*
X102853281Y-35840516D01*
X102831076Y-35809954D01*
X102824836Y-35796573D01*
X102784700Y-35739253D01*
X102699964Y-35618236D01*
X102689298Y-35603003D01*
X102689297Y-35603002D01*
X102689295Y-35602999D01*
X102522201Y-35435905D01*
X102522197Y-35435902D01*
X102522196Y-35435901D01*
X102414807Y-35360707D01*
X102328630Y-35300365D01*
X102114463Y-35200497D01*
X101886208Y-35139337D01*
X101886207Y-35139336D01*
X101886200Y-35139335D01*
X101650804Y-35118741D01*
X101650796Y-35118741D01*
X101415399Y-35139335D01*
X101187132Y-35200498D01*
X100972981Y-35300359D01*
X100972973Y-35300363D01*
X100779403Y-35435901D01*
X100612301Y-35603003D01*
X100476763Y-35796573D01*
X100470524Y-35809954D01*
X100428795Y-35854701D01*
X100368733Y-35866375D01*
X100313281Y-35840516D01*
X100291076Y-35809954D01*
X100284836Y-35796573D01*
X100244700Y-35739253D01*
X100159964Y-35618236D01*
X100149298Y-35603003D01*
X100149297Y-35603002D01*
X100149295Y-35602999D01*
X99982201Y-35435905D01*
X99982197Y-35435902D01*
X99982196Y-35435901D01*
X99874807Y-35360707D01*
X99788630Y-35300365D01*
X99574463Y-35200497D01*
X99346208Y-35139337D01*
X99346207Y-35139336D01*
X99346200Y-35139335D01*
X99110804Y-35118741D01*
X99110796Y-35118741D01*
X98875399Y-35139335D01*
X98647132Y-35200498D01*
X98432981Y-35300359D01*
X98432973Y-35300363D01*
X98239403Y-35435901D01*
X98072301Y-35603003D01*
X97936763Y-35796573D01*
X97930524Y-35809954D01*
X97888795Y-35854701D01*
X97828733Y-35866375D01*
X97773281Y-35840516D01*
X97751076Y-35809954D01*
X97744836Y-35796573D01*
X97704700Y-35739253D01*
X97619964Y-35618236D01*
X97609298Y-35603003D01*
X97609297Y-35603002D01*
X97609295Y-35602999D01*
X97442201Y-35435905D01*
X97442197Y-35435902D01*
X97442196Y-35435901D01*
X97334807Y-35360707D01*
X97248630Y-35300365D01*
X97034463Y-35200497D01*
X96806208Y-35139337D01*
X96806207Y-35139336D01*
X96806200Y-35139335D01*
X96570804Y-35118741D01*
X96570796Y-35118741D01*
X96335399Y-35139335D01*
X96107132Y-35200498D01*
X95892981Y-35300359D01*
X95892973Y-35300363D01*
X95699403Y-35435901D01*
X95532301Y-35603003D01*
X95396763Y-35796573D01*
X95390524Y-35809954D01*
X95348795Y-35854701D01*
X95288733Y-35866375D01*
X95233281Y-35840516D01*
X95211076Y-35809954D01*
X95204836Y-35796573D01*
X95164700Y-35739253D01*
X95079964Y-35618236D01*
X95069298Y-35603003D01*
X95069297Y-35603002D01*
X95069295Y-35602999D01*
X94902201Y-35435905D01*
X94902197Y-35435902D01*
X94902196Y-35435901D01*
X94794807Y-35360707D01*
X94708630Y-35300365D01*
X94494463Y-35200497D01*
X94266208Y-35139337D01*
X94266207Y-35139336D01*
X94266200Y-35139335D01*
X94030804Y-35118741D01*
X94030796Y-35118741D01*
X93795399Y-35139335D01*
X93567132Y-35200498D01*
X93352981Y-35300359D01*
X93352973Y-35300363D01*
X93159403Y-35435901D01*
X92992301Y-35603003D01*
X92856763Y-35796573D01*
X92850524Y-35809954D01*
X92808795Y-35854701D01*
X92748733Y-35866375D01*
X92693281Y-35840516D01*
X92671076Y-35809954D01*
X92664836Y-35796573D01*
X92624700Y-35739253D01*
X92539964Y-35618236D01*
X92529298Y-35603003D01*
X92529297Y-35603002D01*
X92529295Y-35602999D01*
X92362201Y-35435905D01*
X92362197Y-35435902D01*
X92362196Y-35435901D01*
X92254807Y-35360707D01*
X92168630Y-35300365D01*
X91954463Y-35200497D01*
X91726208Y-35139337D01*
X91726207Y-35139336D01*
X91726200Y-35139335D01*
X91490804Y-35118741D01*
X91490796Y-35118741D01*
X91255399Y-35139335D01*
X91027132Y-35200498D01*
X90812981Y-35300359D01*
X90812973Y-35300363D01*
X90619403Y-35435901D01*
X90452301Y-35603003D01*
X90316763Y-35796573D01*
X90310524Y-35809954D01*
X90268795Y-35854701D01*
X90208733Y-35866375D01*
X90153281Y-35840516D01*
X90131076Y-35809954D01*
X90124836Y-35796573D01*
X90084700Y-35739253D01*
X89999964Y-35618236D01*
X89989298Y-35603003D01*
X89989297Y-35603002D01*
X89989295Y-35602999D01*
X89822201Y-35435905D01*
X89822197Y-35435902D01*
X89822196Y-35435901D01*
X89714807Y-35360707D01*
X89628630Y-35300365D01*
X89414463Y-35200497D01*
X89186208Y-35139337D01*
X89186207Y-35139336D01*
X89186200Y-35139335D01*
X88950804Y-35118741D01*
X88950796Y-35118741D01*
X88715399Y-35139335D01*
X88487132Y-35200498D01*
X88272981Y-35300359D01*
X88272973Y-35300363D01*
X88079402Y-35435902D01*
X88079398Y-35435905D01*
X87924844Y-35590459D01*
X87870328Y-35618236D01*
X87809896Y-35608665D01*
X87766631Y-35565400D01*
X87756408Y-35531033D01*
X87754891Y-35516922D01*
X87754891Y-35516917D01*
X87724676Y-35435905D01*
X87704597Y-35382070D01*
X87618349Y-35266858D01*
X87618348Y-35266857D01*
X87618346Y-35266854D01*
X87618341Y-35266850D01*
X87503129Y-35180602D01*
X87368288Y-35130310D01*
X87368283Y-35130309D01*
X87368281Y-35130308D01*
X87368277Y-35130308D01*
X87337049Y-35126950D01*
X87308673Y-35123900D01*
X87308670Y-35123900D01*
X85512933Y-35123900D01*
X85512929Y-35123900D01*
X85512928Y-35123901D01*
X85505749Y-35124672D01*
X85453319Y-35130308D01*
X85453314Y-35130309D01*
X85318470Y-35180602D01*
X85203258Y-35266850D01*
X85203250Y-35266858D01*
X85117002Y-35382070D01*
X85066710Y-35516911D01*
X85066708Y-35516922D01*
X85060300Y-35576529D01*
X85060300Y-37372266D01*
X46000000Y-37372266D01*
X46000000Y-32919596D01*
X46745687Y-32919596D01*
X46776114Y-33196125D01*
X46846479Y-33465273D01*
X46955284Y-33721315D01*
X47100209Y-33958782D01*
X47100213Y-33958788D01*
X47278155Y-34172609D01*
X47278160Y-34172614D01*
X47485355Y-34358262D01*
X47485588Y-34358416D01*
X47717373Y-34511763D01*
X47717376Y-34511764D01*
X47717380Y-34511767D01*
X47853134Y-34575405D01*
X47969267Y-34629846D01*
X48118643Y-34674787D01*
X48235655Y-34709991D01*
X48235657Y-34709991D01*
X48235669Y-34709995D01*
X48407461Y-34735277D01*
X48510899Y-34750500D01*
X48510901Y-34750500D01*
X48719464Y-34750500D01*
X48745462Y-34748597D01*
X48927455Y-34735277D01*
X49198997Y-34674788D01*
X49458838Y-34575408D01*
X49701440Y-34439253D01*
X49921632Y-34269226D01*
X49969481Y-34219596D01*
X76295687Y-34219596D01*
X76326114Y-34496125D01*
X76396479Y-34765273D01*
X76505284Y-35021315D01*
X76564743Y-35118741D01*
X76614638Y-35200498D01*
X76650209Y-35258782D01*
X76650213Y-35258788D01*
X76828155Y-35472609D01*
X76828160Y-35472614D01*
X76828161Y-35472615D01*
X76828163Y-35472617D01*
X76886714Y-35525079D01*
X77035355Y-35658262D01*
X77035357Y-35658263D01*
X77267373Y-35811763D01*
X77267376Y-35811764D01*
X77267380Y-35811767D01*
X77383871Y-35866375D01*
X77519267Y-35929846D01*
X77668643Y-35974787D01*
X77785655Y-36009991D01*
X77785657Y-36009991D01*
X77785669Y-36009995D01*
X77957461Y-36035277D01*
X78060899Y-36050500D01*
X78060901Y-36050500D01*
X78269464Y-36050500D01*
X78295462Y-36048597D01*
X78477455Y-36035277D01*
X78748997Y-35974788D01*
X79008838Y-35875408D01*
X79251440Y-35739253D01*
X79471632Y-35569226D01*
X79664722Y-35368951D01*
X79826593Y-35142696D01*
X79836257Y-35123901D01*
X79889000Y-35021314D01*
X79953797Y-34895283D01*
X80043621Y-34631986D01*
X80094152Y-34358416D01*
X80104313Y-34080404D01*
X80073886Y-33803876D01*
X80003520Y-33534724D01*
X79894716Y-33278686D01*
X79749792Y-33041219D01*
X79749788Y-33041214D01*
X79749786Y-33041211D01*
X79571844Y-32827390D01*
X79571839Y-32827385D01*
X79364644Y-32641737D01*
X79132619Y-32488232D01*
X78880731Y-32370153D01*
X78614344Y-32290008D01*
X78614332Y-32290005D01*
X78614331Y-32290005D01*
X78614329Y-32290004D01*
X78614326Y-32290004D01*
X78339101Y-32249500D01*
X78339099Y-32249500D01*
X78130537Y-32249500D01*
X78130536Y-32249500D01*
X77922551Y-32264722D01*
X77922547Y-32264722D01*
X77922545Y-32264723D01*
X77651003Y-32325212D01*
X77533497Y-32370154D01*
X77391156Y-32424594D01*
X77148563Y-32560744D01*
X77148556Y-32560749D01*
X76928371Y-32730770D01*
X76735277Y-32931049D01*
X76573403Y-33157308D01*
X76446204Y-33404714D01*
X76356379Y-33668014D01*
X76356378Y-33668017D01*
X76305847Y-33941586D01*
X76295687Y-34219596D01*
X49969481Y-34219596D01*
X50114722Y-34068951D01*
X50276593Y-33842696D01*
X50403797Y-33595283D01*
X50493621Y-33331986D01*
X50544152Y-33058416D01*
X50554313Y-32780404D01*
X50523886Y-32503876D01*
X50453520Y-32234724D01*
X50344716Y-31978686D01*
X50199792Y-31741219D01*
X50199788Y-31741214D01*
X50199786Y-31741211D01*
X50021844Y-31527390D01*
X50021839Y-31527385D01*
X49814644Y-31341737D01*
X49582619Y-31188232D01*
X49330731Y-31070153D01*
X49064344Y-30990008D01*
X49064332Y-30990005D01*
X49064331Y-30990005D01*
X49064329Y-30990004D01*
X49064326Y-30990004D01*
X48789101Y-30949500D01*
X48789099Y-30949500D01*
X48580537Y-30949500D01*
X48580536Y-30949500D01*
X48372551Y-30964722D01*
X48372547Y-30964722D01*
X48372545Y-30964723D01*
X48101003Y-31025212D01*
X47983497Y-31070154D01*
X47841156Y-31124594D01*
X47598563Y-31260744D01*
X47598556Y-31260749D01*
X47378371Y-31430770D01*
X47185277Y-31631049D01*
X47023403Y-31857308D01*
X46896204Y-32104714D01*
X46806379Y-32368014D01*
X46806378Y-32368017D01*
X46755847Y-32641586D01*
X46745687Y-32919596D01*
X46000000Y-32919596D01*
X46000000Y-32003539D01*
X46000252Y-31996477D01*
X46018508Y-31741217D01*
X46019852Y-31722423D01*
X46021859Y-31708464D01*
X46079511Y-31443440D01*
X46083485Y-31429907D01*
X46178266Y-31175790D01*
X46184122Y-31162967D01*
X46314102Y-30924926D01*
X46321726Y-30913062D01*
X46484267Y-30695934D01*
X46493496Y-30685283D01*
X46685283Y-30493496D01*
X46695934Y-30484267D01*
X46913062Y-30321726D01*
X46924926Y-30314102D01*
X47162967Y-30184122D01*
X47175790Y-30178266D01*
X47429907Y-30083485D01*
X47443440Y-30079511D01*
X47708464Y-30021859D01*
X47722423Y-30019852D01*
X47964287Y-30002554D01*
X47996478Y-30000252D01*
X48003540Y-30000000D01*
X108996460Y-30000000D01*
X109003522Y-30000252D01*
G37*
%TD.AperFunction*%
%TD*%
%TA.AperFunction,Conductor*%
%TO.N,PGND*%
G36*
X109004418Y-60000316D02*
G01*
X109275790Y-60019724D01*
X109293291Y-60022241D01*
X109554803Y-60079129D01*
X109571762Y-60084108D01*
X109822524Y-60177638D01*
X109838616Y-60184987D01*
X110073501Y-60313244D01*
X110088375Y-60322802D01*
X110302624Y-60483188D01*
X110315994Y-60494774D01*
X110505225Y-60684005D01*
X110516811Y-60697375D01*
X110630629Y-60849418D01*
X110677193Y-60911619D01*
X110686758Y-60926503D01*
X110815011Y-61161382D01*
X110822361Y-61177475D01*
X110915888Y-61428229D01*
X110920872Y-61445205D01*
X110977757Y-61706702D01*
X110980275Y-61724214D01*
X110999684Y-61995581D01*
X111000000Y-62004427D01*
X111000000Y-91995572D01*
X110999684Y-92004418D01*
X110980275Y-92275785D01*
X110977757Y-92293297D01*
X110920872Y-92554794D01*
X110915888Y-92571770D01*
X110822361Y-92822524D01*
X110815011Y-92838617D01*
X110686758Y-93073496D01*
X110677193Y-93088380D01*
X110516811Y-93302624D01*
X110505225Y-93315994D01*
X110315994Y-93505225D01*
X110302624Y-93516811D01*
X110088380Y-93677193D01*
X110073496Y-93686758D01*
X109838617Y-93815011D01*
X109822524Y-93822361D01*
X109571770Y-93915888D01*
X109554794Y-93920872D01*
X109293297Y-93977757D01*
X109275785Y-93980275D01*
X109004418Y-93999684D01*
X108995572Y-94000000D01*
X64004428Y-94000000D01*
X63995582Y-93999684D01*
X63724214Y-93980275D01*
X63706702Y-93977757D01*
X63445205Y-93920872D01*
X63428229Y-93915888D01*
X63177475Y-93822361D01*
X63161382Y-93815011D01*
X62926503Y-93686758D01*
X62911619Y-93677193D01*
X62697375Y-93516811D01*
X62684005Y-93505225D01*
X62494774Y-93315994D01*
X62483188Y-93302624D01*
X62322802Y-93088375D01*
X62313244Y-93073501D01*
X62184987Y-92838616D01*
X62177638Y-92822524D01*
X62084108Y-92571762D01*
X62079129Y-92554803D01*
X62022241Y-92293291D01*
X62019724Y-92275785D01*
X62000316Y-92004418D01*
X62000000Y-91995572D01*
X62000000Y-90519594D01*
X67645686Y-90519594D01*
X67676114Y-90796125D01*
X67746478Y-91065272D01*
X67828712Y-91258786D01*
X67855284Y-91321314D01*
X68000205Y-91558776D01*
X68000212Y-91558786D01*
X68178161Y-91772616D01*
X68178167Y-91772621D01*
X68292884Y-91875407D01*
X68385357Y-91958263D01*
X68617373Y-92111763D01*
X68869267Y-92229846D01*
X68869274Y-92229848D01*
X68869276Y-92229849D01*
X69135657Y-92309992D01*
X69135664Y-92309993D01*
X69135669Y-92309995D01*
X69410901Y-92350500D01*
X69410906Y-92350500D01*
X69619461Y-92350500D01*
X69619463Y-92350500D01*
X69619467Y-92350499D01*
X69619481Y-92350499D01*
X69666953Y-92347024D01*
X69827455Y-92335277D01*
X70098997Y-92274788D01*
X70358838Y-92175408D01*
X70601440Y-92039253D01*
X70821632Y-91869226D01*
X71014722Y-91668951D01*
X71176593Y-91442696D01*
X71271148Y-91258786D01*
X71303790Y-91195298D01*
X71303794Y-91195288D01*
X71303797Y-91195283D01*
X71393621Y-90931986D01*
X71444152Y-90658416D01*
X71454313Y-90380404D01*
X71436619Y-90219594D01*
X105095686Y-90219594D01*
X105126114Y-90496125D01*
X105196478Y-90765272D01*
X105267323Y-90931986D01*
X105305284Y-91021314D01*
X105411456Y-91195283D01*
X105450205Y-91258776D01*
X105450212Y-91258786D01*
X105628161Y-91472616D01*
X105628167Y-91472621D01*
X105793918Y-91621133D01*
X105835357Y-91658263D01*
X106067373Y-91811763D01*
X106319267Y-91929846D01*
X106319274Y-91929848D01*
X106319276Y-91929849D01*
X106585657Y-92009992D01*
X106585664Y-92009993D01*
X106585669Y-92009995D01*
X106860901Y-92050500D01*
X106860906Y-92050500D01*
X107069461Y-92050500D01*
X107069463Y-92050500D01*
X107069467Y-92050499D01*
X107069481Y-92050499D01*
X107116953Y-92047024D01*
X107277455Y-92035277D01*
X107548997Y-91974788D01*
X107808838Y-91875408D01*
X108051440Y-91739253D01*
X108271632Y-91569226D01*
X108281698Y-91558786D01*
X108364776Y-91472616D01*
X108464722Y-91368951D01*
X108626593Y-91142696D01*
X108702580Y-90994900D01*
X108753790Y-90895298D01*
X108753794Y-90895288D01*
X108753797Y-90895283D01*
X108843621Y-90631986D01*
X108894152Y-90358416D01*
X108904313Y-90080404D01*
X108873886Y-89803876D01*
X108803520Y-89534724D01*
X108694716Y-89278686D01*
X108549792Y-89041219D01*
X108548588Y-89039772D01*
X108371838Y-88827383D01*
X108371832Y-88827378D01*
X108164643Y-88641737D01*
X107932629Y-88488238D01*
X107932627Y-88488237D01*
X107680733Y-88370154D01*
X107680728Y-88370152D01*
X107680723Y-88370150D01*
X107414342Y-88290007D01*
X107414328Y-88290004D01*
X107295565Y-88272526D01*
X107139099Y-88249500D01*
X106930537Y-88249500D01*
X106930518Y-88249500D01*
X106722545Y-88264723D01*
X106722535Y-88264724D01*
X106451007Y-88325210D01*
X106450997Y-88325213D01*
X106191161Y-88424592D01*
X105948561Y-88560746D01*
X105948556Y-88560749D01*
X105728369Y-88730772D01*
X105728359Y-88730781D01*
X105535281Y-88931045D01*
X105535274Y-88931053D01*
X105373412Y-89157295D01*
X105373405Y-89157307D01*
X105246209Y-89404701D01*
X105246205Y-89404711D01*
X105156379Y-89668012D01*
X105156378Y-89668018D01*
X105105848Y-89941584D01*
X105105847Y-89941591D01*
X105095686Y-90219594D01*
X71436619Y-90219594D01*
X71423886Y-90103876D01*
X71353520Y-89834724D01*
X71244716Y-89578686D01*
X71099792Y-89341219D01*
X71008112Y-89231053D01*
X70921838Y-89127383D01*
X70921832Y-89127378D01*
X70714643Y-88941737D01*
X70482629Y-88788238D01*
X70482627Y-88788237D01*
X70230733Y-88670154D01*
X70230728Y-88670152D01*
X70230723Y-88670150D01*
X69964342Y-88590007D01*
X69964328Y-88590004D01*
X69845565Y-88572526D01*
X69689099Y-88549500D01*
X69480537Y-88549500D01*
X69480518Y-88549500D01*
X69272545Y-88564723D01*
X69272535Y-88564724D01*
X69001007Y-88625210D01*
X69000997Y-88625213D01*
X68741161Y-88724592D01*
X68498561Y-88860746D01*
X68498556Y-88860749D01*
X68278369Y-89030772D01*
X68278359Y-89030781D01*
X68085281Y-89231045D01*
X68085274Y-89231053D01*
X67923412Y-89457295D01*
X67923405Y-89457307D01*
X67796209Y-89704701D01*
X67796205Y-89704711D01*
X67706379Y-89968012D01*
X67706378Y-89968018D01*
X67655848Y-90241584D01*
X67655847Y-90241591D01*
X67645686Y-90519594D01*
X62000000Y-90519594D01*
X62000000Y-86702902D01*
X81840500Y-86702902D01*
X81855659Y-86818052D01*
X81855662Y-86818063D01*
X81915007Y-86961336D01*
X81915010Y-86961342D01*
X82009420Y-87084378D01*
X82009421Y-87084379D01*
X82132457Y-87178789D01*
X82132463Y-87178792D01*
X82204099Y-87208464D01*
X82275740Y-87238139D01*
X82390899Y-87253300D01*
X83501100Y-87253299D01*
X83501102Y-87253299D01*
X83616252Y-87238140D01*
X83616251Y-87238140D01*
X83616260Y-87238139D01*
X83759541Y-87178790D01*
X83882579Y-87084379D01*
X83976990Y-86961341D01*
X84036339Y-86818060D01*
X84051500Y-86702902D01*
X84350500Y-86702902D01*
X84365659Y-86818052D01*
X84365662Y-86818063D01*
X84425007Y-86961336D01*
X84425010Y-86961342D01*
X84519420Y-87084378D01*
X84519421Y-87084379D01*
X84642457Y-87178789D01*
X84642463Y-87178792D01*
X84714099Y-87208464D01*
X84785740Y-87238139D01*
X84900899Y-87253300D01*
X86011100Y-87253299D01*
X86011102Y-87253299D01*
X86126252Y-87238140D01*
X86126251Y-87238140D01*
X86126260Y-87238139D01*
X86269541Y-87178790D01*
X86392579Y-87084379D01*
X86392581Y-87084377D01*
X86398330Y-87078629D01*
X86399438Y-87079737D01*
X86448370Y-87044010D01*
X86490315Y-87036700D01*
X87310904Y-87036700D01*
X87377943Y-87056385D01*
X87423698Y-87109189D01*
X87428610Y-87121696D01*
X87430201Y-87126497D01*
X87485386Y-87293034D01*
X87577488Y-87442356D01*
X87701544Y-87566412D01*
X87850866Y-87658514D01*
X88017403Y-87713699D01*
X88120191Y-87724200D01*
X89070208Y-87724199D01*
X89070216Y-87724198D01*
X89070219Y-87724198D01*
X89126502Y-87718448D01*
X89172997Y-87713699D01*
X89339534Y-87658514D01*
X89488856Y-87566412D01*
X89612912Y-87442356D01*
X89682830Y-87329001D01*
X90390900Y-87329001D01*
X90390901Y-87329019D01*
X90401400Y-87431796D01*
X90401401Y-87431799D01*
X90404900Y-87442357D01*
X90456586Y-87598334D01*
X90548688Y-87747656D01*
X90672744Y-87871712D01*
X90822066Y-87963814D01*
X90988603Y-88018999D01*
X91091391Y-88029500D01*
X92266408Y-88029499D01*
X92369197Y-88018999D01*
X92535734Y-87963814D01*
X92685056Y-87871712D01*
X92809112Y-87747656D01*
X92901214Y-87598334D01*
X92956399Y-87431797D01*
X92966900Y-87329009D01*
X92966900Y-87329001D01*
X93265900Y-87329001D01*
X93265901Y-87329019D01*
X93276400Y-87431796D01*
X93276401Y-87431799D01*
X93279900Y-87442357D01*
X93331586Y-87598334D01*
X93423688Y-87747656D01*
X93547744Y-87871712D01*
X93697066Y-87963814D01*
X93863603Y-88018999D01*
X93966391Y-88029500D01*
X95141408Y-88029499D01*
X95244197Y-88018999D01*
X95410734Y-87963814D01*
X95560056Y-87871712D01*
X95684112Y-87747656D01*
X95776214Y-87598334D01*
X95831399Y-87431797D01*
X95841900Y-87329009D01*
X95841899Y-86378992D01*
X95831399Y-86276203D01*
X95776214Y-86109666D01*
X95684112Y-85960344D01*
X95560056Y-85836288D01*
X95424865Y-85752902D01*
X95410736Y-85744187D01*
X95410731Y-85744185D01*
X95239396Y-85687410D01*
X95181951Y-85647637D01*
X95155128Y-85583121D01*
X95154400Y-85569704D01*
X95154400Y-85295787D01*
X95155461Y-85279601D01*
X95159582Y-85248299D01*
X95159582Y-85248298D01*
X95138944Y-85091539D01*
X95138942Y-85091534D01*
X95124585Y-85056874D01*
X95078436Y-84945459D01*
X95034346Y-84888000D01*
X94982182Y-84820018D01*
X94959875Y-84802901D01*
X94957128Y-84800793D01*
X94944934Y-84790099D01*
X94900480Y-84745645D01*
X94872219Y-84701934D01*
X94818418Y-84560071D01*
X94818417Y-84560068D01*
X94784076Y-84510318D01*
X94721783Y-84420071D01*
X94626916Y-84336026D01*
X94594449Y-84307263D01*
X94443826Y-84228210D01*
X94278656Y-84187500D01*
X94108544Y-84187500D01*
X93943373Y-84228210D01*
X93792750Y-84307263D01*
X93665416Y-84420072D01*
X93568782Y-84560068D01*
X93508463Y-84719119D01*
X93508459Y-84719130D01*
X93487955Y-84887999D01*
X93508459Y-85056869D01*
X93508460Y-85056874D01*
X93568782Y-85215931D01*
X93601065Y-85262700D01*
X93665417Y-85355929D01*
X93749074Y-85430042D01*
X93792750Y-85468736D01*
X93818926Y-85482474D01*
X93869139Y-85531059D01*
X93885113Y-85599078D01*
X93861778Y-85664935D01*
X93806541Y-85707722D01*
X93800305Y-85709976D01*
X93697066Y-85744186D01*
X93697063Y-85744187D01*
X93547742Y-85836289D01*
X93423689Y-85960342D01*
X93331587Y-86109663D01*
X93331586Y-86109666D01*
X93276401Y-86276203D01*
X93276401Y-86276204D01*
X93276400Y-86276204D01*
X93265900Y-86378983D01*
X93265900Y-87329001D01*
X92966900Y-87329001D01*
X92966899Y-86378992D01*
X92956399Y-86276203D01*
X92901214Y-86109666D01*
X92809112Y-85960344D01*
X92685056Y-85836288D01*
X92549865Y-85752902D01*
X92535736Y-85744187D01*
X92535731Y-85744185D01*
X92534262Y-85743698D01*
X92369197Y-85689001D01*
X92369195Y-85689000D01*
X92266410Y-85678500D01*
X91091398Y-85678500D01*
X91091381Y-85678501D01*
X90988603Y-85689000D01*
X90988600Y-85689001D01*
X90822068Y-85744185D01*
X90822063Y-85744187D01*
X90672742Y-85836289D01*
X90548689Y-85960342D01*
X90456587Y-86109663D01*
X90456586Y-86109666D01*
X90401401Y-86276203D01*
X90401401Y-86276204D01*
X90401400Y-86276204D01*
X90390900Y-86378983D01*
X90390900Y-87329001D01*
X89682830Y-87329001D01*
X89705014Y-87293034D01*
X89760199Y-87126497D01*
X89770700Y-87023709D01*
X89770699Y-85848692D01*
X89769297Y-85834972D01*
X89760199Y-85745903D01*
X89760198Y-85745900D01*
X89747547Y-85707722D01*
X89705014Y-85579366D01*
X89612912Y-85430044D01*
X89488856Y-85305988D01*
X89395325Y-85248298D01*
X89339536Y-85213887D01*
X89339531Y-85213885D01*
X89338062Y-85213398D01*
X89172997Y-85158701D01*
X89172995Y-85158700D01*
X89070210Y-85148200D01*
X88120198Y-85148200D01*
X88120180Y-85148201D01*
X88017403Y-85158700D01*
X88017400Y-85158701D01*
X87850868Y-85213885D01*
X87850863Y-85213887D01*
X87701542Y-85305989D01*
X87577489Y-85430042D01*
X87485387Y-85579363D01*
X87485385Y-85579368D01*
X87428610Y-85750704D01*
X87388837Y-85808149D01*
X87324321Y-85834972D01*
X87310904Y-85835700D01*
X86685500Y-85835700D01*
X86618461Y-85816015D01*
X86572706Y-85763211D01*
X86561500Y-85711700D01*
X86561499Y-85262699D01*
X86555073Y-85213886D01*
X86546339Y-85147540D01*
X86518195Y-85079595D01*
X86510727Y-85010130D01*
X86518197Y-84984692D01*
X86545850Y-84917932D01*
X86545851Y-84917928D01*
X86560999Y-84802878D01*
X86561000Y-84802864D01*
X86561000Y-84682800D01*
X84351001Y-84682800D01*
X84351001Y-84802870D01*
X84366147Y-84917926D01*
X84366148Y-84917927D01*
X84393803Y-84984695D01*
X84401270Y-85054164D01*
X84393803Y-85079597D01*
X84365661Y-85147539D01*
X84365661Y-85147540D01*
X84350500Y-85262691D01*
X84350500Y-85752902D01*
X84365659Y-85868057D01*
X84365660Y-85868059D01*
X84393532Y-85935347D01*
X84401001Y-86004817D01*
X84393535Y-86030244D01*
X84365663Y-86097536D01*
X84365660Y-86097543D01*
X84350500Y-86212691D01*
X84350500Y-86702902D01*
X84051500Y-86702902D01*
X84051500Y-86702901D01*
X84051499Y-86212700D01*
X84036339Y-86097540D01*
X83988812Y-85982800D01*
X83976992Y-85954263D01*
X83976989Y-85954257D01*
X83882579Y-85831221D01*
X83882578Y-85831220D01*
X83759542Y-85736810D01*
X83759536Y-85736807D01*
X83616263Y-85677462D01*
X83616261Y-85677461D01*
X83616260Y-85677461D01*
X83501101Y-85662300D01*
X82390897Y-85662300D01*
X82275747Y-85677459D01*
X82275736Y-85677462D01*
X82132463Y-85736807D01*
X82132457Y-85736810D01*
X82009421Y-85831220D01*
X82009420Y-85831221D01*
X81915010Y-85954257D01*
X81915007Y-85954263D01*
X81855662Y-86097536D01*
X81855661Y-86097540D01*
X81840500Y-86212691D01*
X81840500Y-86702902D01*
X62000000Y-86702902D01*
X62000000Y-85004427D01*
X62000316Y-84995581D01*
X62001095Y-84984692D01*
X62019724Y-84724207D01*
X62022240Y-84706710D01*
X62079130Y-84445192D01*
X62084107Y-84428241D01*
X62177640Y-84177470D01*
X62184985Y-84161388D01*
X62313248Y-83926491D01*
X62322798Y-83911630D01*
X62483195Y-83697366D01*
X62494767Y-83684012D01*
X62684012Y-83494767D01*
X62697366Y-83483195D01*
X62911630Y-83322798D01*
X62926491Y-83313248D01*
X63161388Y-83184985D01*
X63177470Y-83177640D01*
X63428241Y-83084107D01*
X63445192Y-83079130D01*
X63706710Y-83022240D01*
X63724207Y-83019724D01*
X63995582Y-83000316D01*
X64004428Y-83000000D01*
X65299403Y-83000000D01*
X65366442Y-83019685D01*
X65387084Y-83036319D01*
X66191799Y-83841034D01*
X66202493Y-83853228D01*
X66221718Y-83878282D01*
X66265179Y-83911630D01*
X66290709Y-83931220D01*
X66290710Y-83931222D01*
X66336503Y-83966359D01*
X66347159Y-83974536D01*
X66347161Y-83974536D01*
X66347163Y-83974538D01*
X66420198Y-84004790D01*
X66493238Y-84035044D01*
X66571619Y-84045363D01*
X66649999Y-84055682D01*
X66650000Y-84055682D01*
X66681302Y-84051560D01*
X66697487Y-84050500D01*
X81733625Y-84050500D01*
X81800664Y-84070185D01*
X81846419Y-84122989D01*
X81856564Y-84190686D01*
X81855661Y-84197538D01*
X81855661Y-84197540D01*
X81851623Y-84228210D01*
X81840500Y-84312691D01*
X81840500Y-84802902D01*
X81855659Y-84918052D01*
X81855662Y-84918063D01*
X81915007Y-85061336D01*
X81915010Y-85061342D01*
X82009420Y-85184378D01*
X82009421Y-85184379D01*
X82132457Y-85278789D01*
X82132463Y-85278792D01*
X82153875Y-85287661D01*
X82275740Y-85338139D01*
X82390899Y-85353300D01*
X83501100Y-85353299D01*
X83501102Y-85353299D01*
X83616252Y-85338140D01*
X83616251Y-85338140D01*
X83616260Y-85338139D01*
X83759541Y-85278790D01*
X83882579Y-85184379D01*
X83976990Y-85061341D01*
X84036339Y-84918060D01*
X84051500Y-84802901D01*
X84051499Y-84312700D01*
X84050784Y-84307266D01*
X84035437Y-84190684D01*
X84046203Y-84121649D01*
X84092584Y-84069393D01*
X84158376Y-84050500D01*
X84244129Y-84050500D01*
X84311168Y-84070185D01*
X84356923Y-84122989D01*
X84367068Y-84190686D01*
X84351000Y-84312721D01*
X84351000Y-84432800D01*
X85331000Y-84432800D01*
X85331000Y-83762800D01*
X85581000Y-83762800D01*
X85581000Y-84432800D01*
X86560999Y-84432800D01*
X86560999Y-84312729D01*
X86545852Y-84197673D01*
X86545850Y-84197668D01*
X86486555Y-84054513D01*
X86392222Y-83931577D01*
X86269286Y-83837244D01*
X86126132Y-83777949D01*
X86126128Y-83777948D01*
X86011078Y-83762800D01*
X85581000Y-83762800D01*
X85331000Y-83762800D01*
X85135794Y-83762800D01*
X85068755Y-83743115D01*
X85023000Y-83690311D01*
X85022409Y-83686200D01*
X87420201Y-83686200D01*
X87420201Y-84148686D01*
X87430694Y-84251397D01*
X87485841Y-84417819D01*
X87485843Y-84417824D01*
X87577884Y-84567045D01*
X87701854Y-84691015D01*
X87851075Y-84783056D01*
X87851080Y-84783058D01*
X88017502Y-84838205D01*
X88017509Y-84838206D01*
X88120219Y-84848699D01*
X88470199Y-84848699D01*
X88470200Y-84848698D01*
X88470200Y-83686200D01*
X88720200Y-83686200D01*
X88720200Y-84848699D01*
X89070172Y-84848699D01*
X89070186Y-84848698D01*
X89172897Y-84838205D01*
X89339319Y-84783058D01*
X89339324Y-84783056D01*
X89488545Y-84691015D01*
X89612515Y-84567045D01*
X89704556Y-84417824D01*
X89704558Y-84417819D01*
X89759705Y-84251397D01*
X89759706Y-84251390D01*
X89770199Y-84148686D01*
X89770200Y-84148673D01*
X89770200Y-83686200D01*
X88720200Y-83686200D01*
X88470200Y-83686200D01*
X87420201Y-83686200D01*
X85022409Y-83686200D01*
X85013056Y-83621153D01*
X85042081Y-83557597D01*
X85048081Y-83551152D01*
X86462417Y-82136819D01*
X86523740Y-82103334D01*
X86550098Y-82100500D01*
X87803949Y-82100500D01*
X87870988Y-82120185D01*
X87916743Y-82172989D01*
X87926687Y-82242147D01*
X87897662Y-82305703D01*
X87856352Y-82336883D01*
X87851079Y-82339341D01*
X87701854Y-82431384D01*
X87577884Y-82555354D01*
X87485843Y-82704575D01*
X87485841Y-82704580D01*
X87430694Y-82871002D01*
X87430693Y-82871009D01*
X87420200Y-82973713D01*
X87420200Y-83436200D01*
X89770199Y-83436200D01*
X89770199Y-82973728D01*
X89770198Y-82973713D01*
X89759705Y-82871002D01*
X89704558Y-82704580D01*
X89704556Y-82704575D01*
X89612515Y-82555354D01*
X89488545Y-82431384D01*
X89339320Y-82339341D01*
X89334048Y-82336883D01*
X89281608Y-82290711D01*
X89262455Y-82223518D01*
X89282670Y-82156637D01*
X89335834Y-82111301D01*
X89386451Y-82100500D01*
X92552513Y-82100500D01*
X92568697Y-82101560D01*
X92600000Y-82105682D01*
X92600001Y-82105682D01*
X92652254Y-82098802D01*
X92756762Y-82085044D01*
X92902841Y-82024536D01*
X92919719Y-82011585D01*
X93028282Y-81928282D01*
X93047509Y-81903223D01*
X93058190Y-81891043D01*
X93420677Y-81528556D01*
X93481998Y-81495073D01*
X93523137Y-81493124D01*
X93592882Y-81501500D01*
X93592883Y-81501500D01*
X94845119Y-81501500D01*
X94866884Y-81498886D01*
X94932185Y-81491044D01*
X95070738Y-81436406D01*
X95189412Y-81346412D01*
X95279406Y-81227738D01*
X95334044Y-81089185D01*
X95344500Y-81002118D01*
X95344500Y-80409882D01*
X95334044Y-80322815D01*
X95315505Y-80275805D01*
X95309225Y-80206220D01*
X95315507Y-80184825D01*
X95333554Y-80139063D01*
X95344000Y-80052071D01*
X95344000Y-79881000D01*
X94218000Y-79881000D01*
X94150961Y-79861315D01*
X94105206Y-79808511D01*
X94094000Y-79757000D01*
X94094000Y-79755000D01*
X94113685Y-79687961D01*
X94166489Y-79642206D01*
X94218000Y-79631000D01*
X95344000Y-79631000D01*
X95344000Y-79533328D01*
X95363685Y-79466289D01*
X95416489Y-79420534D01*
X95484189Y-79410390D01*
X95494000Y-79411682D01*
X95650762Y-79391044D01*
X95796841Y-79330536D01*
X95875695Y-79270029D01*
X95922282Y-79234282D01*
X95941509Y-79209223D01*
X95952190Y-79197043D01*
X98027255Y-77121978D01*
X98088576Y-77088495D01*
X98158268Y-77093479D01*
X98214201Y-77135351D01*
X98238462Y-77198853D01*
X98258336Y-77426003D01*
X98258338Y-77426013D01*
X98319494Y-77654255D01*
X98319496Y-77654259D01*
X98319497Y-77654263D01*
X98369671Y-77761861D01*
X98419365Y-77868430D01*
X98419367Y-77868434D01*
X98491350Y-77971235D01*
X98554901Y-78061996D01*
X98554906Y-78062002D01*
X98676830Y-78183926D01*
X98710315Y-78245249D01*
X98705331Y-78314941D01*
X98663459Y-78370874D01*
X98632483Y-78387789D01*
X98501069Y-78436803D01*
X98501064Y-78436806D01*
X98385855Y-78523052D01*
X98385852Y-78523055D01*
X98299606Y-78638264D01*
X98299602Y-78638271D01*
X98249308Y-78773117D01*
X98242901Y-78832716D01*
X98242901Y-78832723D01*
X98242900Y-78832735D01*
X98242900Y-80628470D01*
X98242901Y-80628476D01*
X98249308Y-80688083D01*
X98299602Y-80822928D01*
X98299606Y-80822935D01*
X98385852Y-80938144D01*
X98385855Y-80938147D01*
X98501064Y-81024393D01*
X98501071Y-81024397D01*
X98635917Y-81074691D01*
X98635916Y-81074691D01*
X98642844Y-81075435D01*
X98695527Y-81081100D01*
X100491272Y-81081099D01*
X100550883Y-81074691D01*
X100685731Y-81024396D01*
X100800946Y-80938146D01*
X100887196Y-80822931D01*
X100937491Y-80688083D01*
X100943900Y-80628473D01*
X100943899Y-78832728D01*
X100937491Y-78773117D01*
X100887196Y-78638269D01*
X100887195Y-78638268D01*
X100887193Y-78638264D01*
X100800947Y-78523055D01*
X100800944Y-78523052D01*
X100685735Y-78436806D01*
X100685728Y-78436802D01*
X100554317Y-78387789D01*
X100498383Y-78345918D01*
X100473966Y-78280453D01*
X100488818Y-78212180D01*
X100509963Y-78183932D01*
X100631895Y-78062001D01*
X100767435Y-77868430D01*
X100867303Y-77654263D01*
X100928463Y-77426008D01*
X100949059Y-77190600D01*
X100928463Y-76955192D01*
X100867303Y-76726937D01*
X100843971Y-76676902D01*
X100833480Y-76607828D01*
X100861999Y-76544044D01*
X100920475Y-76505804D01*
X100956354Y-76500500D01*
X102290213Y-76500500D01*
X102306397Y-76501560D01*
X102337700Y-76505682D01*
X102337701Y-76505682D01*
X102389954Y-76498802D01*
X102494462Y-76485044D01*
X102640541Y-76424536D01*
X102656379Y-76412383D01*
X102765982Y-76328282D01*
X102785209Y-76303223D01*
X102795890Y-76291043D01*
X104978921Y-74108012D01*
X105040240Y-74074530D01*
X105109932Y-74079514D01*
X105165865Y-74121386D01*
X105189956Y-74183094D01*
X105196919Y-74251252D01*
X105251146Y-74414900D01*
X105251151Y-74414911D01*
X105341652Y-74561634D01*
X105341655Y-74561638D01*
X105463561Y-74683544D01*
X105463565Y-74683547D01*
X105610288Y-74774048D01*
X105610299Y-74774053D01*
X105773947Y-74828280D01*
X105874951Y-74838599D01*
X106036599Y-74838599D01*
X106036600Y-74838598D01*
X106036600Y-73926100D01*
X106286600Y-73926100D01*
X106286600Y-74838599D01*
X106448240Y-74838599D01*
X106448254Y-74838598D01*
X106549252Y-74828280D01*
X106712900Y-74774053D01*
X106712911Y-74774048D01*
X106859634Y-74683547D01*
X106859638Y-74683544D01*
X106981544Y-74561638D01*
X106981547Y-74561634D01*
X107072048Y-74414911D01*
X107072053Y-74414900D01*
X107126280Y-74251252D01*
X107136599Y-74150254D01*
X107136600Y-74150241D01*
X107136600Y-73926100D01*
X106286600Y-73926100D01*
X106036600Y-73926100D01*
X106036600Y-73800100D01*
X106056285Y-73733061D01*
X106109089Y-73687306D01*
X106160600Y-73676100D01*
X107136599Y-73676100D01*
X107136599Y-73451960D01*
X107136598Y-73451945D01*
X107126280Y-73350947D01*
X107072053Y-73187299D01*
X107072048Y-73187288D01*
X106981547Y-73040565D01*
X106981544Y-73040561D01*
X106967617Y-73026634D01*
X106934132Y-72965311D01*
X106939116Y-72895619D01*
X106967617Y-72851272D01*
X106981940Y-72836950D01*
X107072508Y-72690116D01*
X107126774Y-72526353D01*
X107137100Y-72425277D01*
X107137099Y-71726924D01*
X107137011Y-71726067D01*
X107126774Y-71625847D01*
X107072508Y-71462084D01*
X106981940Y-71315250D01*
X106859950Y-71193260D01*
X106713116Y-71102692D01*
X106549353Y-71048426D01*
X106549351Y-71048425D01*
X106448278Y-71038100D01*
X105874930Y-71038100D01*
X105874912Y-71038101D01*
X105773847Y-71048425D01*
X105610084Y-71102692D01*
X105610081Y-71102693D01*
X105463248Y-71193261D01*
X105341261Y-71315248D01*
X105250693Y-71462081D01*
X105250691Y-71462086D01*
X105223319Y-71544688D01*
X105196426Y-71625847D01*
X105196426Y-71625848D01*
X105196425Y-71625848D01*
X105186100Y-71726915D01*
X105186100Y-72151002D01*
X105166415Y-72218041D01*
X105149781Y-72238683D01*
X102125284Y-75263181D01*
X102063961Y-75296666D01*
X102037603Y-75299500D01*
X100975566Y-75299500D01*
X100908527Y-75279815D01*
X100862772Y-75227011D01*
X100852828Y-75157853D01*
X100863185Y-75123093D01*
X100867300Y-75114269D01*
X100867303Y-75114263D01*
X100928463Y-74886008D01*
X100949059Y-74650600D01*
X100928463Y-74415192D01*
X100867303Y-74186937D01*
X100767435Y-73972771D01*
X100631895Y-73779199D01*
X100631894Y-73779197D01*
X100464802Y-73612106D01*
X100464796Y-73612101D01*
X100279242Y-73482175D01*
X100235617Y-73427598D01*
X100228423Y-73358100D01*
X100259946Y-73295745D01*
X100279242Y-73279025D01*
X100410240Y-73187299D01*
X100464801Y-73149095D01*
X100631895Y-72982001D01*
X100767435Y-72788430D01*
X100867303Y-72574263D01*
X100928463Y-72346008D01*
X100949059Y-72110600D01*
X100928463Y-71875192D01*
X100867303Y-71646937D01*
X100767435Y-71432771D01*
X100685147Y-71315250D01*
X100631894Y-71239197D01*
X100464802Y-71072106D01*
X100464796Y-71072101D01*
X100279242Y-70942175D01*
X100235617Y-70887598D01*
X100228423Y-70818100D01*
X100259946Y-70755745D01*
X100279242Y-70739025D01*
X100356243Y-70685108D01*
X100464801Y-70609095D01*
X100631895Y-70442001D01*
X100685759Y-70365076D01*
X100740336Y-70321451D01*
X100787333Y-70312200D01*
X105173148Y-70312200D01*
X105240187Y-70331885D01*
X105278686Y-70371103D01*
X105341257Y-70472546D01*
X105341260Y-70472550D01*
X105463250Y-70594540D01*
X105610084Y-70685108D01*
X105773847Y-70739374D01*
X105874923Y-70749700D01*
X106448276Y-70749699D01*
X106448284Y-70749698D01*
X106448287Y-70749698D01*
X106503630Y-70744044D01*
X106549353Y-70739374D01*
X106713116Y-70685108D01*
X106859950Y-70594540D01*
X106981940Y-70472550D01*
X107072508Y-70325716D01*
X107126774Y-70161953D01*
X107137100Y-70060877D01*
X107137099Y-69362524D01*
X107134307Y-69335196D01*
X107126774Y-69261447D01*
X107125222Y-69256762D01*
X107072508Y-69097684D01*
X106981940Y-68950850D01*
X106967617Y-68936527D01*
X106934132Y-68875204D01*
X106939116Y-68805512D01*
X106967621Y-68761160D01*
X106981547Y-68747235D01*
X107072048Y-68600511D01*
X107072053Y-68600500D01*
X107126280Y-68436852D01*
X107136599Y-68335854D01*
X107136600Y-68335841D01*
X107136600Y-68111700D01*
X105186601Y-68111700D01*
X105186601Y-68335854D01*
X105196919Y-68436852D01*
X105251146Y-68600500D01*
X105251151Y-68600511D01*
X105341652Y-68747234D01*
X105341655Y-68747238D01*
X105355582Y-68761165D01*
X105389067Y-68822488D01*
X105384083Y-68892180D01*
X105355584Y-68936525D01*
X105341261Y-68950848D01*
X105341257Y-68950853D01*
X105278686Y-69052297D01*
X105226738Y-69099022D01*
X105173148Y-69111200D01*
X100948288Y-69111200D01*
X100881249Y-69091515D01*
X100835906Y-69039605D01*
X100767435Y-68892771D01*
X100767434Y-68892769D01*
X100631894Y-68699197D01*
X100464802Y-68532106D01*
X100464801Y-68532105D01*
X100278805Y-68401869D01*
X100235181Y-68347292D01*
X100227988Y-68277793D01*
X100259510Y-68215439D01*
X100278805Y-68198719D01*
X100464482Y-68068705D01*
X100631505Y-67901682D01*
X100659501Y-67861700D01*
X105186600Y-67861700D01*
X106036600Y-67861700D01*
X106036600Y-66949200D01*
X106286600Y-66949200D01*
X106286600Y-67861700D01*
X107136599Y-67861700D01*
X107136599Y-67637560D01*
X107136598Y-67637545D01*
X107126280Y-67536547D01*
X107072053Y-67372899D01*
X107072048Y-67372888D01*
X106981547Y-67226165D01*
X106981544Y-67226161D01*
X106859638Y-67104255D01*
X106859634Y-67104252D01*
X106712911Y-67013751D01*
X106712900Y-67013746D01*
X106549252Y-66959519D01*
X106448254Y-66949200D01*
X106286600Y-66949200D01*
X106036600Y-66949200D01*
X105874961Y-66949200D01*
X105874944Y-66949201D01*
X105773947Y-66959519D01*
X105610299Y-67013746D01*
X105610288Y-67013751D01*
X105463565Y-67104252D01*
X105463561Y-67104255D01*
X105341655Y-67226161D01*
X105341652Y-67226165D01*
X105251151Y-67372888D01*
X105251146Y-67372899D01*
X105196919Y-67536547D01*
X105186600Y-67637545D01*
X105186600Y-67861700D01*
X100659501Y-67861700D01*
X100767000Y-67708178D01*
X100866829Y-67494092D01*
X100866833Y-67494083D01*
X100927967Y-67265926D01*
X100927969Y-67265916D01*
X100937621Y-67155600D01*
X100077805Y-67155600D01*
X100093400Y-67102489D01*
X100093400Y-66958711D01*
X100077805Y-66905600D01*
X100937621Y-66905600D01*
X100927969Y-66795283D01*
X100927967Y-66795273D01*
X100866833Y-66567116D01*
X100866829Y-66567107D01*
X100767000Y-66353022D01*
X100766999Y-66353020D01*
X100631513Y-66159526D01*
X100631508Y-66159520D01*
X100464482Y-65992494D01*
X100278368Y-65862175D01*
X100234744Y-65807598D01*
X100227551Y-65738099D01*
X100259073Y-65675745D01*
X100278368Y-65659025D01*
X100464482Y-65528705D01*
X100631505Y-65361682D01*
X100767000Y-65168178D01*
X100866829Y-64954092D01*
X100866833Y-64954083D01*
X100927967Y-64725926D01*
X100927969Y-64725916D01*
X100937621Y-64615600D01*
X100077805Y-64615600D01*
X100093400Y-64562489D01*
X100093400Y-64418711D01*
X100077805Y-64365600D01*
X100937621Y-64365600D01*
X100927969Y-64255283D01*
X100927967Y-64255273D01*
X100866833Y-64027116D01*
X100866829Y-64027107D01*
X100767000Y-63813022D01*
X100766999Y-63813020D01*
X100631513Y-63619526D01*
X100631508Y-63619520D01*
X100464478Y-63452490D01*
X100278805Y-63322479D01*
X100235180Y-63267902D01*
X100227988Y-63198404D01*
X100259510Y-63136049D01*
X100278806Y-63119330D01*
X100464801Y-62989095D01*
X100631895Y-62822001D01*
X100767435Y-62628430D01*
X100867303Y-62414263D01*
X100928463Y-62186008D01*
X100949059Y-61950600D01*
X100928463Y-61715192D01*
X100867303Y-61486937D01*
X100767435Y-61272771D01*
X100741019Y-61235044D01*
X100631894Y-61079197D01*
X100464802Y-60912106D01*
X100464795Y-60912101D01*
X100271234Y-60776567D01*
X100271230Y-60776565D01*
X100255423Y-60769194D01*
X100057063Y-60676697D01*
X100057059Y-60676696D01*
X100057055Y-60676694D01*
X99828813Y-60615538D01*
X99828803Y-60615536D01*
X99593401Y-60594941D01*
X99593399Y-60594941D01*
X99357996Y-60615536D01*
X99357986Y-60615538D01*
X99129744Y-60676694D01*
X99129735Y-60676698D01*
X98915571Y-60776564D01*
X98915569Y-60776565D01*
X98721997Y-60912105D01*
X98554905Y-61079197D01*
X98419365Y-61272769D01*
X98419364Y-61272771D01*
X98319498Y-61486935D01*
X98319494Y-61486944D01*
X98258338Y-61715186D01*
X98258336Y-61715196D01*
X98237741Y-61950599D01*
X98237741Y-61950600D01*
X98258336Y-62186003D01*
X98258338Y-62186013D01*
X98319494Y-62414255D01*
X98319496Y-62414259D01*
X98319497Y-62414263D01*
X98408088Y-62604247D01*
X98419365Y-62628430D01*
X98419367Y-62628434D01*
X98554901Y-62821995D01*
X98554906Y-62822002D01*
X98721997Y-62989093D01*
X98722003Y-62989098D01*
X98907994Y-63119330D01*
X98951619Y-63173907D01*
X98958813Y-63243405D01*
X98927290Y-63305760D01*
X98907995Y-63322480D01*
X98722322Y-63452490D01*
X98722320Y-63452491D01*
X98555291Y-63619520D01*
X98555286Y-63619526D01*
X98419800Y-63813020D01*
X98419799Y-63813022D01*
X98319970Y-64027107D01*
X98319966Y-64027116D01*
X98258832Y-64255273D01*
X98258830Y-64255283D01*
X98249179Y-64365600D01*
X99108995Y-64365600D01*
X99093400Y-64418711D01*
X99093400Y-64562489D01*
X99108995Y-64615600D01*
X98249179Y-64615600D01*
X98258830Y-64725916D01*
X98258832Y-64725926D01*
X98319966Y-64954083D01*
X98319970Y-64954092D01*
X98419799Y-65168178D01*
X98555294Y-65361682D01*
X98722317Y-65528705D01*
X98908431Y-65659025D01*
X98952056Y-65713603D01*
X98959248Y-65783101D01*
X98927726Y-65845456D01*
X98908431Y-65862175D01*
X98722322Y-65992490D01*
X98722320Y-65992491D01*
X98555291Y-66159520D01*
X98555286Y-66159526D01*
X98419800Y-66353020D01*
X98419799Y-66353022D01*
X98319970Y-66567107D01*
X98319966Y-66567116D01*
X98258832Y-66795273D01*
X98258830Y-66795283D01*
X98249179Y-66905600D01*
X99108995Y-66905600D01*
X99093400Y-66958711D01*
X99093400Y-67102489D01*
X99108995Y-67155600D01*
X98249179Y-67155600D01*
X98258830Y-67265916D01*
X98258832Y-67265926D01*
X98319966Y-67494083D01*
X98319970Y-67494092D01*
X98419799Y-67708178D01*
X98555294Y-67901682D01*
X98722317Y-68068705D01*
X98907995Y-68198719D01*
X98951619Y-68253296D01*
X98958812Y-68322795D01*
X98927290Y-68385149D01*
X98907995Y-68401869D01*
X98721994Y-68532108D01*
X98554905Y-68699197D01*
X98419365Y-68892769D01*
X98419364Y-68892771D01*
X98319498Y-69106935D01*
X98319494Y-69106944D01*
X98258338Y-69335186D01*
X98258336Y-69335196D01*
X98237741Y-69570599D01*
X98237741Y-69570600D01*
X98258336Y-69806003D01*
X98258338Y-69806013D01*
X98319494Y-70034255D01*
X98319496Y-70034259D01*
X98319497Y-70034263D01*
X98331911Y-70060884D01*
X98419365Y-70248430D01*
X98419367Y-70248434D01*
X98554901Y-70441995D01*
X98554906Y-70442002D01*
X98721997Y-70609093D01*
X98722003Y-70609098D01*
X98907558Y-70739025D01*
X98951183Y-70793602D01*
X98958377Y-70863100D01*
X98926854Y-70925455D01*
X98907558Y-70942175D01*
X98721997Y-71072105D01*
X98554905Y-71239197D01*
X98419365Y-71432769D01*
X98419364Y-71432771D01*
X98319498Y-71646935D01*
X98319494Y-71646944D01*
X98258338Y-71875186D01*
X98258336Y-71875196D01*
X98237741Y-72110599D01*
X98237741Y-72110600D01*
X98258336Y-72346003D01*
X98258338Y-72346013D01*
X98319494Y-72574255D01*
X98319496Y-72574259D01*
X98319497Y-72574263D01*
X98392419Y-72730645D01*
X98419365Y-72788430D01*
X98419367Y-72788434D01*
X98495770Y-72897548D01*
X98538757Y-72958940D01*
X98554901Y-72981995D01*
X98554906Y-72982002D01*
X98721997Y-73149093D01*
X98722003Y-73149098D01*
X98907558Y-73279025D01*
X98951183Y-73333602D01*
X98958377Y-73403100D01*
X98926854Y-73465455D01*
X98907558Y-73482175D01*
X98721997Y-73612105D01*
X98554905Y-73779197D01*
X98419365Y-73972769D01*
X98419364Y-73972771D01*
X98319498Y-74186935D01*
X98319494Y-74186944D01*
X98258338Y-74415186D01*
X98258336Y-74415196D01*
X98237741Y-74650599D01*
X98237741Y-74650600D01*
X98258336Y-74886003D01*
X98258338Y-74886013D01*
X98319494Y-75114255D01*
X98319499Y-75114269D01*
X98331787Y-75140620D01*
X98342279Y-75209697D01*
X98313759Y-75273481D01*
X98255282Y-75311720D01*
X98251029Y-75312636D01*
X98251088Y-75312853D01*
X98243237Y-75314956D01*
X98097160Y-75375463D01*
X97971714Y-75471721D01*
X97952495Y-75496769D01*
X97941800Y-75508964D01*
X95320330Y-78130434D01*
X95259007Y-78163919D01*
X95189315Y-78158935D01*
X95157724Y-78141557D01*
X95070740Y-78075595D01*
X95070738Y-78075594D01*
X94932185Y-78020956D01*
X94932184Y-78020955D01*
X94932182Y-78020955D01*
X94845119Y-78010500D01*
X94845118Y-78010500D01*
X93592882Y-78010500D01*
X93592881Y-78010500D01*
X93505817Y-78020955D01*
X93505816Y-78020955D01*
X93367261Y-78075594D01*
X93248582Y-78165592D01*
X93242591Y-78171584D01*
X93240846Y-78169839D01*
X93194924Y-78203769D01*
X93168505Y-78210257D01*
X93087239Y-78220955D01*
X93087237Y-78220956D01*
X92941156Y-78281465D01*
X92941155Y-78281465D01*
X92930176Y-78289890D01*
X92865006Y-78315082D01*
X92796562Y-78301042D01*
X92755889Y-78266437D01*
X92679413Y-78165589D01*
X92670638Y-78158935D01*
X92560738Y-78075594D01*
X92422185Y-78020956D01*
X92422184Y-78020955D01*
X92422182Y-78020955D01*
X92335119Y-78010500D01*
X92335118Y-78010500D01*
X91082882Y-78010500D01*
X91082881Y-78010500D01*
X90995817Y-78020955D01*
X90995816Y-78020955D01*
X90857261Y-78075594D01*
X90738588Y-78165588D01*
X90648594Y-78284261D01*
X90593955Y-78422816D01*
X90593955Y-78422817D01*
X90583500Y-78509881D01*
X90583500Y-79102118D01*
X90593955Y-79189182D01*
X90593955Y-79189183D01*
X90620962Y-79257669D01*
X90648594Y-79327738D01*
X90738588Y-79446412D01*
X90857262Y-79536406D01*
X90995815Y-79591044D01*
X91053859Y-79598014D01*
X91082881Y-79601500D01*
X91082882Y-79601500D01*
X92335118Y-79601500D01*
X92360715Y-79598426D01*
X92429623Y-79609976D01*
X92481348Y-79656948D01*
X92499500Y-79721541D01*
X92499500Y-79790458D01*
X92479815Y-79857497D01*
X92427011Y-79903252D01*
X92360719Y-79913574D01*
X92346353Y-79911849D01*
X92335118Y-79910500D01*
X91082882Y-79910500D01*
X91082881Y-79910500D01*
X90995817Y-79920955D01*
X90995816Y-79920955D01*
X90857261Y-79975594D01*
X90738588Y-80065588D01*
X90648594Y-80184261D01*
X90593955Y-80322816D01*
X90593955Y-80322817D01*
X90583500Y-80409881D01*
X90583500Y-80775500D01*
X90563815Y-80842539D01*
X90511011Y-80888294D01*
X90459500Y-80899500D01*
X86297487Y-80899500D01*
X86281302Y-80898439D01*
X86250000Y-80894318D01*
X86249999Y-80894318D01*
X86093239Y-80914955D01*
X86093234Y-80914957D01*
X85947163Y-80975461D01*
X85947158Y-80975464D01*
X85863886Y-81039361D01*
X85821717Y-81071718D01*
X85802493Y-81096770D01*
X85791801Y-81108961D01*
X84087584Y-82813181D01*
X84026261Y-82846666D01*
X83999903Y-82849500D01*
X83000000Y-82849500D01*
X83000000Y-81700499D01*
X83820372Y-81700499D01*
X83879983Y-81694091D01*
X84014831Y-81643796D01*
X84130046Y-81557546D01*
X84216296Y-81442331D01*
X84266591Y-81307483D01*
X84273000Y-81247873D01*
X84272999Y-80752128D01*
X84266591Y-80692517D01*
X84266589Y-80692513D01*
X84266132Y-80688255D01*
X84266132Y-80661745D01*
X84266589Y-80657486D01*
X84266591Y-80657483D01*
X84273000Y-80597873D01*
X84272999Y-80102128D01*
X84266591Y-80042517D01*
X84266589Y-80042513D01*
X84266132Y-80038255D01*
X84266132Y-80011745D01*
X84266589Y-80007486D01*
X84266591Y-80007483D01*
X84273000Y-79947873D01*
X84272999Y-79452128D01*
X84266591Y-79392517D01*
X84243474Y-79330538D01*
X84216297Y-79257671D01*
X84216293Y-79257664D01*
X84130047Y-79142455D01*
X84130044Y-79142452D01*
X84014835Y-79056206D01*
X84014832Y-79056205D01*
X84014831Y-79056204D01*
X84003661Y-79052038D01*
X83947731Y-79010166D01*
X83923316Y-78944701D01*
X83923000Y-78935858D01*
X83923000Y-77769987D01*
X83924061Y-77753801D01*
X83928182Y-77722499D01*
X83928182Y-77722498D01*
X83907544Y-77565739D01*
X83907544Y-77565738D01*
X83868561Y-77471627D01*
X83861093Y-77402158D01*
X83892368Y-77339679D01*
X83908814Y-77324907D01*
X83911622Y-77322805D01*
X83926494Y-77313246D01*
X84004473Y-77270666D01*
X84063899Y-77255500D01*
X86515320Y-77255500D01*
X86532726Y-77255199D01*
X86532752Y-77255198D01*
X86532757Y-77255198D01*
X86539584Y-77254962D01*
X86556981Y-77254060D01*
X86821924Y-77235745D01*
X86856587Y-77232145D01*
X86856593Y-77232144D01*
X86856604Y-77232143D01*
X86861764Y-77231426D01*
X86870112Y-77230267D01*
X86891341Y-77226567D01*
X86904479Y-77224279D01*
X86904487Y-77224277D01*
X86904506Y-77224274D01*
X87161075Y-77170379D01*
X87194952Y-77162033D01*
X87208089Y-77158311D01*
X87241292Y-77147653D01*
X87487994Y-77058972D01*
X87520381Y-77046053D01*
X87532882Y-77040559D01*
X87564323Y-77025425D01*
X87593872Y-77009923D01*
X87628942Y-77000000D01*
X89000000Y-77000000D01*
X89594722Y-75314956D01*
X91228785Y-70685108D01*
X94527641Y-61338346D01*
X94530732Y-61330462D01*
X94634109Y-61091113D01*
X94641873Y-61076059D01*
X94774733Y-60856682D01*
X94784484Y-60842820D01*
X94902430Y-60697375D01*
X94946023Y-60643618D01*
X94957565Y-60631223D01*
X95144776Y-60455912D01*
X95157901Y-60445207D01*
X95367276Y-60297071D01*
X95381732Y-60288261D01*
X95609362Y-60170067D01*
X95624889Y-60163310D01*
X95866498Y-60077277D01*
X95882815Y-60072697D01*
X96133899Y-60020425D01*
X96150687Y-60018113D01*
X96400398Y-60001002D01*
X96410798Y-60000290D01*
X96419275Y-60000000D01*
X108995572Y-60000000D01*
X109004418Y-60000316D01*
G37*
%TD.AperFunction*%
%TA.AperFunction,Conductor*%
G36*
X99718400Y-66543430D02*
G01*
X99629163Y-66530600D01*
X99557637Y-66530600D01*
X99468400Y-66543430D01*
X99468400Y-64977769D01*
X99557637Y-64990600D01*
X99629163Y-64990600D01*
X99718400Y-64977769D01*
X99718400Y-66543430D01*
G37*
%TD.AperFunction*%
%TD*%
D31*
X44642800Y-29311600D02*
X111507000Y-29311600D01*
X111507000Y-94973400D01*
X44642800Y-94973400D01*
X44642800Y-29311600D01*
M02*
