M48
; DRILL file {KiCad 7.0.10} date Saturday, March 16, 2024 at 11:25:46 PM
; FORMAT={-:-/ absolute / metric / decimal}
; #@! TF.CreationDate,2024-03-16T23:25:46+05:30
; #@! TF.GenerationSoftware,Kicad,Pcbnew,7.0.10
; #@! TF.FileFunction,Plated,1,2,PTH
FMAT,2
METRIC
; #@! TA.AperFunction,Plated,PTH,ViaDrill
T1C0.200
; #@! TA.AperFunction,Plated,PTH,ComponentDrill
T2C1.000
%
G90
G05
T1
X59.55Y-57.4
X59.9Y-62.503
X60.9Y-68.0
X61.353Y-62.503
X61.4Y-60.65
X61.75Y-59.75
X65.2Y-64.77
X65.212Y-66.675
X66.7Y-62.15
X66.725Y-63.975
X67.275Y-50.5
X67.9Y-61.95
X68.975Y-52.555
X69.312Y-69.55
X70.3Y-58.05
X70.5Y-55.1
X72.0Y-61.3
X72.0Y-65.7
X72.1Y-58.1
X72.4Y-71.6
X72.825Y-59.85
X73.05Y-65.8
X73.138Y-50.65
X73.85Y-72.587
X73.85Y-74.312
X74.45Y-70.65
X74.6Y-65.65
X74.862Y-50.65
X74.955Y-53.995
X75.85Y-77.725
X75.85Y-79.45
X76.763Y-63.0
X76.8Y-58.35
X76.8Y-69.7
X77.0Y-65.5
X77.15Y-59.8
X78.0Y-72.625
X78.0Y-74.35
X78.029Y-49.537
X78.029Y-51.262
X78.15Y-65.4
X78.35Y-53.95
X79.05Y-58.35
X80.65Y-51.262
X81.123Y-80.35
X82.93Y-84.568
X82.93Y-86.473
X83.322Y-79.7
X84.002Y-71.958
X84.05Y-74.9
X84.95Y-53.25
X85.775Y-74.9
X85.827Y-71.958
X87.224Y-66.169
X87.224Y-67.994
X87.325Y-40.075
X87.8Y-50.4
X88.595Y-85.861
X88.95Y-42.75
X89.2Y-64.25
X89.91Y-47.775
X90.1Y-39.95
X90.67Y-47.775
X91.43Y-47.775
X91.684Y-86.788
X91.697Y-78.802
X91.7Y-43.3
X92.19Y-47.775
X92.75Y-38.85
X93.4Y-41.75
X94.194Y-84.888
X94.2Y-80.7
X95.75Y-45.4
X95.8Y-42.65
X96.1Y-47.75
X96.571Y-40.2
X97.8Y-38.9
X98.65Y-40.0
X98.845Y-47.333
X99.605Y-47.333
X100.365Y-47.333
X100.45Y-39.0
X100.822Y-41.758
X101.1Y-42.437
X101.125Y-47.333
X103.05Y-38.95
X106.131Y-69.706
X106.131Y-72.076
X106.162Y-67.987
T2
X51.308Y-44.145
X51.308Y-46.685
X51.308Y-49.225
X51.308Y-51.765
X51.308Y-54.305
X51.308Y-56.845
X51.308Y-59.385
X51.308Y-61.925
X51.308Y-66.015
X51.308Y-68.555
X51.308Y-71.095
X51.308Y-73.635
X51.308Y-76.175
X51.308Y-78.715
X51.308Y-81.255
X51.308Y-83.795
X51.308Y-86.335
X51.308Y-88.875
X86.411Y-36.474
X88.951Y-36.474
X91.491Y-36.474
X94.031Y-36.474
X96.571Y-36.474
X99.111Y-36.474
X99.593Y-61.951
X99.593Y-64.491
X99.593Y-67.031
X99.593Y-69.571
X99.593Y-72.111
X99.593Y-74.651
X99.593Y-77.191
X99.593Y-79.731
X101.651Y-36.474
X104.191Y-36.474
M30
