%TF.GenerationSoftware,KiCad,Pcbnew,7.0.10*%
%TF.CreationDate,2024-03-16T23:25:41+05:30*%
%TF.ProjectId,breakout,62726561-6b6f-4757-942e-6b696361645f,rev?*%
%TF.SameCoordinates,Original*%
%TF.FileFunction,Legend,Bot*%
%TF.FilePolarity,Positive*%
%FSLAX46Y46*%
G04 Gerber Fmt 4.6, Leading zero omitted, Abs format (unit mm)*
G04 Created by KiCad (PCBNEW 7.0.10) date 2024-03-16 23:25:41*
%MOMM*%
%LPD*%
G01*
G04 APERTURE LIST*
G04 Aperture macros list*
%AMRoundRect*
0 Rectangle with rounded corners*
0 $1 Rounding radius*
0 $2 $3 $4 $5 $6 $7 $8 $9 X,Y pos of 4 corners*
0 Add a 4 corners polygon primitive as box body*
4,1,4,$2,$3,$4,$5,$6,$7,$8,$9,$2,$3,0*
0 Add four circle primitives for the rounded corners*
1,1,$1+$1,$2,$3*
1,1,$1+$1,$4,$5*
1,1,$1+$1,$6,$7*
1,1,$1+$1,$8,$9*
0 Add four rect primitives between the rounded corners*
20,1,$1+$1,$2,$3,$4,$5,0*
20,1,$1+$1,$4,$5,$6,$7,0*
20,1,$1+$1,$6,$7,$8,$9,0*
20,1,$1+$1,$8,$9,$2,$3,0*%
G04 Aperture macros list end*
%ADD10C,0.200000*%
%ADD11C,0.120000*%
%ADD12C,0.152400*%
%ADD13C,0.127000*%
%ADD14C,3.200000*%
%ADD15RoundRect,0.237500X-0.237500X0.300000X-0.237500X-0.300000X0.237500X-0.300000X0.237500X0.300000X0*%
%ADD16O,1.700000X1.700000*%
%ADD17R,1.700000X1.700000*%
%ADD18R,1.193800X0.889000*%
%ADD19R,0.558800X0.889000*%
%ADD20RoundRect,0.237500X0.237500X-0.300000X0.237500X0.300000X-0.237500X0.300000X-0.237500X-0.300000X0*%
%ADD21RoundRect,0.237500X0.300000X0.237500X-0.300000X0.237500X-0.300000X-0.237500X0.300000X-0.237500X0*%
%ADD22RoundRect,0.102000X-0.450000X-0.200000X0.450000X-0.200000X0.450000X0.200000X-0.450000X0.200000X0*%
%ADD23RoundRect,0.055580X0.671420X0.341420X-0.671420X0.341420X-0.671420X-0.341420X0.671420X-0.341420X0*%
%ADD24RoundRect,0.237500X0.237500X-0.250000X0.237500X0.250000X-0.237500X0.250000X-0.237500X-0.250000X0*%
%ADD25RoundRect,0.237500X-0.250000X-0.237500X0.250000X-0.237500X0.250000X0.237500X-0.250000X0.237500X0*%
%ADD26RoundRect,0.237500X0.250000X0.237500X-0.250000X0.237500X-0.250000X-0.237500X0.250000X-0.237500X0*%
%ADD27RoundRect,0.250000X-0.537500X-0.425000X0.537500X-0.425000X0.537500X0.425000X-0.537500X0.425000X0*%
%ADD28RoundRect,0.237500X-0.300000X-0.237500X0.300000X-0.237500X0.300000X0.237500X-0.300000X0.237500X0*%
%ADD29RoundRect,0.237500X0.237500X-0.287500X0.237500X0.287500X-0.237500X0.287500X-0.237500X-0.287500X0*%
%ADD30RoundRect,0.250000X-0.425000X0.537500X-0.425000X-0.537500X0.425000X-0.537500X0.425000X0.537500X0*%
%ADD31RoundRect,0.119100X0.587900X0.277900X-0.587900X0.277900X-0.587900X-0.277900X0.587900X-0.277900X0*%
%ADD32RoundRect,0.250000X0.537500X0.425000X-0.537500X0.425000X-0.537500X-0.425000X0.537500X-0.425000X0*%
%ADD33RoundRect,0.250000X-0.412500X-0.650000X0.412500X-0.650000X0.412500X0.650000X-0.412500X0.650000X0*%
%TA.AperFunction,Profile*%
%ADD34C,0.050000*%
%TD*%
G04 APERTURE END LIST*
D10*
X63166041Y-36049123D02*
X62785088Y-36049123D01*
X63242231Y-36277695D02*
X62975564Y-35477695D01*
X62975564Y-35477695D02*
X62708898Y-36277695D01*
X61985088Y-36277695D02*
X62251755Y-35896742D01*
X62442231Y-36277695D02*
X62442231Y-35477695D01*
X62442231Y-35477695D02*
X62137469Y-35477695D01*
X62137469Y-35477695D02*
X62061279Y-35515790D01*
X62061279Y-35515790D02*
X62023184Y-35553885D01*
X62023184Y-35553885D02*
X61985088Y-35630076D01*
X61985088Y-35630076D02*
X61985088Y-35744361D01*
X61985088Y-35744361D02*
X62023184Y-35820552D01*
X62023184Y-35820552D02*
X62061279Y-35858647D01*
X62061279Y-35858647D02*
X62137469Y-35896742D01*
X62137469Y-35896742D02*
X62442231Y-35896742D01*
X61489850Y-35896742D02*
X61489850Y-36277695D01*
X61756517Y-35477695D02*
X61489850Y-35896742D01*
X61489850Y-35896742D02*
X61223184Y-35477695D01*
X60994613Y-36049123D02*
X60613660Y-36049123D01*
X61070803Y-36277695D02*
X60804136Y-35477695D01*
X60804136Y-35477695D02*
X60537470Y-36277695D01*
X60270803Y-36277695D02*
X60270803Y-35477695D01*
X60270803Y-35477695D02*
X59813660Y-36277695D01*
X59813660Y-36277695D02*
X59813660Y-35477695D01*
X58556518Y-35858647D02*
X58442232Y-35896742D01*
X58442232Y-35896742D02*
X58404137Y-35934838D01*
X58404137Y-35934838D02*
X58366041Y-36011028D01*
X58366041Y-36011028D02*
X58366041Y-36125314D01*
X58366041Y-36125314D02*
X58404137Y-36201504D01*
X58404137Y-36201504D02*
X58442232Y-36239600D01*
X58442232Y-36239600D02*
X58518422Y-36277695D01*
X58518422Y-36277695D02*
X58823184Y-36277695D01*
X58823184Y-36277695D02*
X58823184Y-35477695D01*
X58823184Y-35477695D02*
X58556518Y-35477695D01*
X58556518Y-35477695D02*
X58480327Y-35515790D01*
X58480327Y-35515790D02*
X58442232Y-35553885D01*
X58442232Y-35553885D02*
X58404137Y-35630076D01*
X58404137Y-35630076D02*
X58404137Y-35706266D01*
X58404137Y-35706266D02*
X58442232Y-35782457D01*
X58442232Y-35782457D02*
X58480327Y-35820552D01*
X58480327Y-35820552D02*
X58556518Y-35858647D01*
X58556518Y-35858647D02*
X58823184Y-35858647D01*
X58023184Y-36201504D02*
X57985089Y-36239600D01*
X57985089Y-36239600D02*
X58023184Y-36277695D01*
X58023184Y-36277695D02*
X58061280Y-36239600D01*
X58061280Y-36239600D02*
X58023184Y-36201504D01*
X58023184Y-36201504D02*
X58023184Y-36277695D01*
X62899374Y-36765695D02*
X62899374Y-37337123D01*
X62899374Y-37337123D02*
X62937469Y-37451409D01*
X62937469Y-37451409D02*
X63013660Y-37527600D01*
X63013660Y-37527600D02*
X63127945Y-37565695D01*
X63127945Y-37565695D02*
X63204136Y-37565695D01*
X62556517Y-37337123D02*
X62175564Y-37337123D01*
X62632707Y-37565695D02*
X62366040Y-36765695D01*
X62366040Y-36765695D02*
X62099374Y-37565695D01*
X61832707Y-37565695D02*
X61832707Y-36765695D01*
X61832707Y-37146647D02*
X61375564Y-37146647D01*
X61375564Y-37565695D02*
X61375564Y-36765695D01*
X60994612Y-37565695D02*
X60994612Y-36765695D01*
X60994612Y-36765695D02*
X60537469Y-37565695D01*
X60537469Y-37565695D02*
X60537469Y-36765695D01*
X60270803Y-36765695D02*
X60004136Y-37565695D01*
X60004136Y-37565695D02*
X59737470Y-36765695D01*
X59470803Y-37146647D02*
X59204137Y-37146647D01*
X59089851Y-37565695D02*
X59470803Y-37565695D01*
X59470803Y-37565695D02*
X59470803Y-36765695D01*
X59470803Y-36765695D02*
X59089851Y-36765695D01*
X58746993Y-37146647D02*
X58480327Y-37146647D01*
X58366041Y-37565695D02*
X58746993Y-37565695D01*
X58746993Y-37565695D02*
X58746993Y-36765695D01*
X58746993Y-36765695D02*
X58366041Y-36765695D01*
X57527945Y-36765695D02*
X57070802Y-36765695D01*
X57299374Y-37565695D02*
X57299374Y-36765695D01*
X56804135Y-37489504D02*
X56766040Y-37527600D01*
X56766040Y-37527600D02*
X56804135Y-37565695D01*
X56804135Y-37565695D02*
X56842231Y-37527600D01*
X56842231Y-37527600D02*
X56804135Y-37489504D01*
X56804135Y-37489504D02*
X56804135Y-37565695D01*
X63127945Y-38853695D02*
X63127945Y-38053695D01*
X63127945Y-38053695D02*
X62670802Y-38853695D01*
X62670802Y-38853695D02*
X62670802Y-38053695D01*
X62327946Y-38625123D02*
X61946993Y-38625123D01*
X62404136Y-38853695D02*
X62137469Y-38053695D01*
X62137469Y-38053695D02*
X61870803Y-38853695D01*
X61718422Y-38053695D02*
X61261279Y-38053695D01*
X61489851Y-38853695D02*
X61489851Y-38053695D01*
X61032708Y-38625123D02*
X60651755Y-38625123D01*
X61108898Y-38853695D02*
X60842231Y-38053695D01*
X60842231Y-38053695D02*
X60575565Y-38853695D01*
X60346994Y-38815600D02*
X60232708Y-38853695D01*
X60232708Y-38853695D02*
X60042232Y-38853695D01*
X60042232Y-38853695D02*
X59966041Y-38815600D01*
X59966041Y-38815600D02*
X59927946Y-38777504D01*
X59927946Y-38777504D02*
X59889851Y-38701314D01*
X59889851Y-38701314D02*
X59889851Y-38625123D01*
X59889851Y-38625123D02*
X59927946Y-38548933D01*
X59927946Y-38548933D02*
X59966041Y-38510838D01*
X59966041Y-38510838D02*
X60042232Y-38472742D01*
X60042232Y-38472742D02*
X60194613Y-38434647D01*
X60194613Y-38434647D02*
X60270803Y-38396552D01*
X60270803Y-38396552D02*
X60308898Y-38358457D01*
X60308898Y-38358457D02*
X60346994Y-38282266D01*
X60346994Y-38282266D02*
X60346994Y-38206076D01*
X60346994Y-38206076D02*
X60308898Y-38129885D01*
X60308898Y-38129885D02*
X60270803Y-38091790D01*
X60270803Y-38091790D02*
X60194613Y-38053695D01*
X60194613Y-38053695D02*
X60004136Y-38053695D01*
X60004136Y-38053695D02*
X59889851Y-38091790D01*
X59546993Y-38853695D02*
X59546993Y-38053695D01*
X59546993Y-38434647D02*
X59089850Y-38434647D01*
X59089850Y-38853695D02*
X59089850Y-38053695D01*
X58746994Y-38625123D02*
X58366041Y-38625123D01*
X58823184Y-38853695D02*
X58556517Y-38053695D01*
X58556517Y-38053695D02*
X58289851Y-38853695D01*
X56956517Y-38853695D02*
X57223184Y-38472742D01*
X57413660Y-38853695D02*
X57413660Y-38053695D01*
X57413660Y-38053695D02*
X57108898Y-38053695D01*
X57108898Y-38053695D02*
X57032708Y-38091790D01*
X57032708Y-38091790D02*
X56994613Y-38129885D01*
X56994613Y-38129885D02*
X56956517Y-38206076D01*
X56956517Y-38206076D02*
X56956517Y-38320361D01*
X56956517Y-38320361D02*
X56994613Y-38396552D01*
X56994613Y-38396552D02*
X57032708Y-38434647D01*
X57032708Y-38434647D02*
X57108898Y-38472742D01*
X57108898Y-38472742D02*
X57413660Y-38472742D01*
X56613660Y-38777504D02*
X56575565Y-38815600D01*
X56575565Y-38815600D02*
X56613660Y-38853695D01*
X56613660Y-38853695D02*
X56651756Y-38815600D01*
X56651756Y-38815600D02*
X56613660Y-38777504D01*
X56613660Y-38777504D02*
X56613660Y-38853695D01*
X63166041Y-40103600D02*
X63051755Y-40141695D01*
X63051755Y-40141695D02*
X62861279Y-40141695D01*
X62861279Y-40141695D02*
X62785088Y-40103600D01*
X62785088Y-40103600D02*
X62746993Y-40065504D01*
X62746993Y-40065504D02*
X62708898Y-39989314D01*
X62708898Y-39989314D02*
X62708898Y-39913123D01*
X62708898Y-39913123D02*
X62746993Y-39836933D01*
X62746993Y-39836933D02*
X62785088Y-39798838D01*
X62785088Y-39798838D02*
X62861279Y-39760742D01*
X62861279Y-39760742D02*
X63013660Y-39722647D01*
X63013660Y-39722647D02*
X63089850Y-39684552D01*
X63089850Y-39684552D02*
X63127945Y-39646457D01*
X63127945Y-39646457D02*
X63166041Y-39570266D01*
X63166041Y-39570266D02*
X63166041Y-39494076D01*
X63166041Y-39494076D02*
X63127945Y-39417885D01*
X63127945Y-39417885D02*
X63089850Y-39379790D01*
X63089850Y-39379790D02*
X63013660Y-39341695D01*
X63013660Y-39341695D02*
X62823183Y-39341695D01*
X62823183Y-39341695D02*
X62708898Y-39379790D01*
X62213659Y-39341695D02*
X62061278Y-39341695D01*
X62061278Y-39341695D02*
X61985088Y-39379790D01*
X61985088Y-39379790D02*
X61908897Y-39455980D01*
X61908897Y-39455980D02*
X61870802Y-39608361D01*
X61870802Y-39608361D02*
X61870802Y-39875028D01*
X61870802Y-39875028D02*
X61908897Y-40027409D01*
X61908897Y-40027409D02*
X61985088Y-40103600D01*
X61985088Y-40103600D02*
X62061278Y-40141695D01*
X62061278Y-40141695D02*
X62213659Y-40141695D01*
X62213659Y-40141695D02*
X62289850Y-40103600D01*
X62289850Y-40103600D02*
X62366040Y-40027409D01*
X62366040Y-40027409D02*
X62404136Y-39875028D01*
X62404136Y-39875028D02*
X62404136Y-39608361D01*
X62404136Y-39608361D02*
X62366040Y-39455980D01*
X62366040Y-39455980D02*
X62289850Y-39379790D01*
X62289850Y-39379790D02*
X62213659Y-39341695D01*
X61527945Y-40141695D02*
X61527945Y-39341695D01*
X61527945Y-39722647D02*
X61070802Y-39722647D01*
X61070802Y-40141695D02*
X61070802Y-39341695D01*
X60727946Y-39913123D02*
X60346993Y-39913123D01*
X60804136Y-40141695D02*
X60537469Y-39341695D01*
X60537469Y-39341695D02*
X60270803Y-40141695D01*
X60004136Y-40141695D02*
X60004136Y-39341695D01*
X60004136Y-39341695D02*
X59737470Y-39913123D01*
X59737470Y-39913123D02*
X59470803Y-39341695D01*
X59470803Y-39341695D02*
X59470803Y-40141695D01*
X58480326Y-40141695D02*
X58480326Y-39341695D01*
X58480326Y-39341695D02*
X58023183Y-40141695D01*
X58023183Y-40141695D02*
X58023183Y-39341695D01*
X57642231Y-40065504D02*
X57604136Y-40103600D01*
X57604136Y-40103600D02*
X57642231Y-40141695D01*
X57642231Y-40141695D02*
X57680327Y-40103600D01*
X57680327Y-40103600D02*
X57642231Y-40065504D01*
X57642231Y-40065504D02*
X57642231Y-40141695D01*
X97092231Y-69191695D02*
X96825564Y-69991695D01*
X96825564Y-69991695D02*
X96558898Y-69191695D01*
X96292231Y-69991695D02*
X96292231Y-69191695D01*
X96292231Y-69191695D02*
X96101755Y-69191695D01*
X96101755Y-69191695D02*
X95987469Y-69229790D01*
X95987469Y-69229790D02*
X95911279Y-69305980D01*
X95911279Y-69305980D02*
X95873184Y-69382171D01*
X95873184Y-69382171D02*
X95835088Y-69534552D01*
X95835088Y-69534552D02*
X95835088Y-69648838D01*
X95835088Y-69648838D02*
X95873184Y-69801219D01*
X95873184Y-69801219D02*
X95911279Y-69877409D01*
X95911279Y-69877409D02*
X95987469Y-69953600D01*
X95987469Y-69953600D02*
X96101755Y-69991695D01*
X96101755Y-69991695D02*
X96292231Y-69991695D01*
X95492231Y-69991695D02*
X95492231Y-69191695D01*
X95492231Y-69191695D02*
X95301755Y-69191695D01*
X95301755Y-69191695D02*
X95187469Y-69229790D01*
X95187469Y-69229790D02*
X95111279Y-69305980D01*
X95111279Y-69305980D02*
X95073184Y-69382171D01*
X95073184Y-69382171D02*
X95035088Y-69534552D01*
X95035088Y-69534552D02*
X95035088Y-69648838D01*
X95035088Y-69648838D02*
X95073184Y-69801219D01*
X95073184Y-69801219D02*
X95111279Y-69877409D01*
X95111279Y-69877409D02*
X95187469Y-69953600D01*
X95187469Y-69953600D02*
X95301755Y-69991695D01*
X95301755Y-69991695D02*
X95492231Y-69991695D01*
X97177945Y-67391695D02*
X97177945Y-66591695D01*
X97177945Y-66591695D02*
X96873183Y-66591695D01*
X96873183Y-66591695D02*
X96796993Y-66629790D01*
X96796993Y-66629790D02*
X96758898Y-66667885D01*
X96758898Y-66667885D02*
X96720802Y-66744076D01*
X96720802Y-66744076D02*
X96720802Y-66858361D01*
X96720802Y-66858361D02*
X96758898Y-66934552D01*
X96758898Y-66934552D02*
X96796993Y-66972647D01*
X96796993Y-66972647D02*
X96873183Y-67010742D01*
X96873183Y-67010742D02*
X97177945Y-67010742D01*
X95958898Y-66629790D02*
X96035088Y-66591695D01*
X96035088Y-66591695D02*
X96149374Y-66591695D01*
X96149374Y-66591695D02*
X96263660Y-66629790D01*
X96263660Y-66629790D02*
X96339850Y-66705980D01*
X96339850Y-66705980D02*
X96377945Y-66782171D01*
X96377945Y-66782171D02*
X96416041Y-66934552D01*
X96416041Y-66934552D02*
X96416041Y-67048838D01*
X96416041Y-67048838D02*
X96377945Y-67201219D01*
X96377945Y-67201219D02*
X96339850Y-67277409D01*
X96339850Y-67277409D02*
X96263660Y-67353600D01*
X96263660Y-67353600D02*
X96149374Y-67391695D01*
X96149374Y-67391695D02*
X96073183Y-67391695D01*
X96073183Y-67391695D02*
X95958898Y-67353600D01*
X95958898Y-67353600D02*
X95920802Y-67315504D01*
X95920802Y-67315504D02*
X95920802Y-67048838D01*
X95920802Y-67048838D02*
X96073183Y-67048838D01*
X95577945Y-67391695D02*
X95577945Y-66591695D01*
X95577945Y-66591695D02*
X95120802Y-67391695D01*
X95120802Y-67391695D02*
X95120802Y-66591695D01*
X94739850Y-67391695D02*
X94739850Y-66591695D01*
X94739850Y-66591695D02*
X94549374Y-66591695D01*
X94549374Y-66591695D02*
X94435088Y-66629790D01*
X94435088Y-66629790D02*
X94358898Y-66705980D01*
X94358898Y-66705980D02*
X94320803Y-66782171D01*
X94320803Y-66782171D02*
X94282707Y-66934552D01*
X94282707Y-66934552D02*
X94282707Y-67048838D01*
X94282707Y-67048838D02*
X94320803Y-67201219D01*
X94320803Y-67201219D02*
X94358898Y-67277409D01*
X94358898Y-67277409D02*
X94435088Y-67353600D01*
X94435088Y-67353600D02*
X94549374Y-67391695D01*
X94549374Y-67391695D02*
X94739850Y-67391695D01*
X97227945Y-65041695D02*
X97227945Y-64241695D01*
X97227945Y-64241695D02*
X96923183Y-64241695D01*
X96923183Y-64241695D02*
X96846993Y-64279790D01*
X96846993Y-64279790D02*
X96808898Y-64317885D01*
X96808898Y-64317885D02*
X96770802Y-64394076D01*
X96770802Y-64394076D02*
X96770802Y-64508361D01*
X96770802Y-64508361D02*
X96808898Y-64584552D01*
X96808898Y-64584552D02*
X96846993Y-64622647D01*
X96846993Y-64622647D02*
X96923183Y-64660742D01*
X96923183Y-64660742D02*
X97227945Y-64660742D01*
X96008898Y-64279790D02*
X96085088Y-64241695D01*
X96085088Y-64241695D02*
X96199374Y-64241695D01*
X96199374Y-64241695D02*
X96313660Y-64279790D01*
X96313660Y-64279790D02*
X96389850Y-64355980D01*
X96389850Y-64355980D02*
X96427945Y-64432171D01*
X96427945Y-64432171D02*
X96466041Y-64584552D01*
X96466041Y-64584552D02*
X96466041Y-64698838D01*
X96466041Y-64698838D02*
X96427945Y-64851219D01*
X96427945Y-64851219D02*
X96389850Y-64927409D01*
X96389850Y-64927409D02*
X96313660Y-65003600D01*
X96313660Y-65003600D02*
X96199374Y-65041695D01*
X96199374Y-65041695D02*
X96123183Y-65041695D01*
X96123183Y-65041695D02*
X96008898Y-65003600D01*
X96008898Y-65003600D02*
X95970802Y-64965504D01*
X95970802Y-64965504D02*
X95970802Y-64698838D01*
X95970802Y-64698838D02*
X96123183Y-64698838D01*
X95627945Y-65041695D02*
X95627945Y-64241695D01*
X95627945Y-64241695D02*
X95170802Y-65041695D01*
X95170802Y-65041695D02*
X95170802Y-64241695D01*
X94789850Y-65041695D02*
X94789850Y-64241695D01*
X94789850Y-64241695D02*
X94599374Y-64241695D01*
X94599374Y-64241695D02*
X94485088Y-64279790D01*
X94485088Y-64279790D02*
X94408898Y-64355980D01*
X94408898Y-64355980D02*
X94370803Y-64432171D01*
X94370803Y-64432171D02*
X94332707Y-64584552D01*
X94332707Y-64584552D02*
X94332707Y-64698838D01*
X94332707Y-64698838D02*
X94370803Y-64851219D01*
X94370803Y-64851219D02*
X94408898Y-64927409D01*
X94408898Y-64927409D02*
X94485088Y-65003600D01*
X94485088Y-65003600D02*
X94599374Y-65041695D01*
X94599374Y-65041695D02*
X94789850Y-65041695D01*
X56327945Y-81641695D02*
X56327945Y-80841695D01*
X56327945Y-80841695D02*
X56137469Y-80841695D01*
X56137469Y-80841695D02*
X56023183Y-80879790D01*
X56023183Y-80879790D02*
X55946993Y-80955980D01*
X55946993Y-80955980D02*
X55908898Y-81032171D01*
X55908898Y-81032171D02*
X55870802Y-81184552D01*
X55870802Y-81184552D02*
X55870802Y-81298838D01*
X55870802Y-81298838D02*
X55908898Y-81451219D01*
X55908898Y-81451219D02*
X55946993Y-81527409D01*
X55946993Y-81527409D02*
X56023183Y-81603600D01*
X56023183Y-81603600D02*
X56137469Y-81641695D01*
X56137469Y-81641695D02*
X56327945Y-81641695D01*
X55108898Y-80879790D02*
X55185088Y-80841695D01*
X55185088Y-80841695D02*
X55299374Y-80841695D01*
X55299374Y-80841695D02*
X55413660Y-80879790D01*
X55413660Y-80879790D02*
X55489850Y-80955980D01*
X55489850Y-80955980D02*
X55527945Y-81032171D01*
X55527945Y-81032171D02*
X55566041Y-81184552D01*
X55566041Y-81184552D02*
X55566041Y-81298838D01*
X55566041Y-81298838D02*
X55527945Y-81451219D01*
X55527945Y-81451219D02*
X55489850Y-81527409D01*
X55489850Y-81527409D02*
X55413660Y-81603600D01*
X55413660Y-81603600D02*
X55299374Y-81641695D01*
X55299374Y-81641695D02*
X55223183Y-81641695D01*
X55223183Y-81641695D02*
X55108898Y-81603600D01*
X55108898Y-81603600D02*
X55070802Y-81565504D01*
X55070802Y-81565504D02*
X55070802Y-81298838D01*
X55070802Y-81298838D02*
X55223183Y-81298838D01*
X54727945Y-81641695D02*
X54727945Y-80841695D01*
X54727945Y-80841695D02*
X54270802Y-81641695D01*
X54270802Y-81641695D02*
X54270802Y-80841695D01*
X53889850Y-81641695D02*
X53889850Y-80841695D01*
X53889850Y-80841695D02*
X53699374Y-80841695D01*
X53699374Y-80841695D02*
X53585088Y-80879790D01*
X53585088Y-80879790D02*
X53508898Y-80955980D01*
X53508898Y-80955980D02*
X53470803Y-81032171D01*
X53470803Y-81032171D02*
X53432707Y-81184552D01*
X53432707Y-81184552D02*
X53432707Y-81298838D01*
X53432707Y-81298838D02*
X53470803Y-81451219D01*
X53470803Y-81451219D02*
X53508898Y-81527409D01*
X53508898Y-81527409D02*
X53585088Y-81603600D01*
X53585088Y-81603600D02*
X53699374Y-81641695D01*
X53699374Y-81641695D02*
X53889850Y-81641695D01*
X56116041Y-79103600D02*
X56001755Y-79141695D01*
X56001755Y-79141695D02*
X55811279Y-79141695D01*
X55811279Y-79141695D02*
X55735088Y-79103600D01*
X55735088Y-79103600D02*
X55696993Y-79065504D01*
X55696993Y-79065504D02*
X55658898Y-78989314D01*
X55658898Y-78989314D02*
X55658898Y-78913123D01*
X55658898Y-78913123D02*
X55696993Y-78836933D01*
X55696993Y-78836933D02*
X55735088Y-78798838D01*
X55735088Y-78798838D02*
X55811279Y-78760742D01*
X55811279Y-78760742D02*
X55963660Y-78722647D01*
X55963660Y-78722647D02*
X56039850Y-78684552D01*
X56039850Y-78684552D02*
X56077945Y-78646457D01*
X56077945Y-78646457D02*
X56116041Y-78570266D01*
X56116041Y-78570266D02*
X56116041Y-78494076D01*
X56116041Y-78494076D02*
X56077945Y-78417885D01*
X56077945Y-78417885D02*
X56039850Y-78379790D01*
X56039850Y-78379790D02*
X55963660Y-78341695D01*
X55963660Y-78341695D02*
X55773183Y-78341695D01*
X55773183Y-78341695D02*
X55658898Y-78379790D01*
X54858897Y-79065504D02*
X54896993Y-79103600D01*
X54896993Y-79103600D02*
X55011278Y-79141695D01*
X55011278Y-79141695D02*
X55087469Y-79141695D01*
X55087469Y-79141695D02*
X55201755Y-79103600D01*
X55201755Y-79103600D02*
X55277945Y-79027409D01*
X55277945Y-79027409D02*
X55316040Y-78951219D01*
X55316040Y-78951219D02*
X55354136Y-78798838D01*
X55354136Y-78798838D02*
X55354136Y-78684552D01*
X55354136Y-78684552D02*
X55316040Y-78532171D01*
X55316040Y-78532171D02*
X55277945Y-78455980D01*
X55277945Y-78455980D02*
X55201755Y-78379790D01*
X55201755Y-78379790D02*
X55087469Y-78341695D01*
X55087469Y-78341695D02*
X55011278Y-78341695D01*
X55011278Y-78341695D02*
X54896993Y-78379790D01*
X54896993Y-78379790D02*
X54858897Y-78417885D01*
X54135088Y-79141695D02*
X54516040Y-79141695D01*
X54516040Y-79141695D02*
X54516040Y-78341695D01*
X53868421Y-79141695D02*
X53868421Y-78341695D01*
X53411278Y-79141695D02*
X53754136Y-78684552D01*
X53411278Y-78341695D02*
X53868421Y-78798838D01*
X56127945Y-76641695D02*
X56127945Y-75841695D01*
X56127945Y-75841695D02*
X55937469Y-75841695D01*
X55937469Y-75841695D02*
X55823183Y-75879790D01*
X55823183Y-75879790D02*
X55746993Y-75955980D01*
X55746993Y-75955980D02*
X55708898Y-76032171D01*
X55708898Y-76032171D02*
X55670802Y-76184552D01*
X55670802Y-76184552D02*
X55670802Y-76298838D01*
X55670802Y-76298838D02*
X55708898Y-76451219D01*
X55708898Y-76451219D02*
X55746993Y-76527409D01*
X55746993Y-76527409D02*
X55823183Y-76603600D01*
X55823183Y-76603600D02*
X55937469Y-76641695D01*
X55937469Y-76641695D02*
X56127945Y-76641695D01*
X55175564Y-75841695D02*
X55023183Y-75841695D01*
X55023183Y-75841695D02*
X54946993Y-75879790D01*
X54946993Y-75879790D02*
X54870802Y-75955980D01*
X54870802Y-75955980D02*
X54832707Y-76108361D01*
X54832707Y-76108361D02*
X54832707Y-76375028D01*
X54832707Y-76375028D02*
X54870802Y-76527409D01*
X54870802Y-76527409D02*
X54946993Y-76603600D01*
X54946993Y-76603600D02*
X55023183Y-76641695D01*
X55023183Y-76641695D02*
X55175564Y-76641695D01*
X55175564Y-76641695D02*
X55251755Y-76603600D01*
X55251755Y-76603600D02*
X55327945Y-76527409D01*
X55327945Y-76527409D02*
X55366041Y-76375028D01*
X55366041Y-76375028D02*
X55366041Y-76108361D01*
X55366041Y-76108361D02*
X55327945Y-75955980D01*
X55327945Y-75955980D02*
X55251755Y-75879790D01*
X55251755Y-75879790D02*
X55175564Y-75841695D01*
X54489850Y-75841695D02*
X54489850Y-76489314D01*
X54489850Y-76489314D02*
X54451755Y-76565504D01*
X54451755Y-76565504D02*
X54413660Y-76603600D01*
X54413660Y-76603600D02*
X54337469Y-76641695D01*
X54337469Y-76641695D02*
X54185088Y-76641695D01*
X54185088Y-76641695D02*
X54108898Y-76603600D01*
X54108898Y-76603600D02*
X54070803Y-76565504D01*
X54070803Y-76565504D02*
X54032707Y-76489314D01*
X54032707Y-76489314D02*
X54032707Y-75841695D01*
X53766041Y-75841695D02*
X53308898Y-75841695D01*
X53537470Y-76641695D02*
X53537470Y-75841695D01*
X55077945Y-73991695D02*
X55077945Y-73191695D01*
X55077945Y-73191695D02*
X54887469Y-73191695D01*
X54887469Y-73191695D02*
X54773183Y-73229790D01*
X54773183Y-73229790D02*
X54696993Y-73305980D01*
X54696993Y-73305980D02*
X54658898Y-73382171D01*
X54658898Y-73382171D02*
X54620802Y-73534552D01*
X54620802Y-73534552D02*
X54620802Y-73648838D01*
X54620802Y-73648838D02*
X54658898Y-73801219D01*
X54658898Y-73801219D02*
X54696993Y-73877409D01*
X54696993Y-73877409D02*
X54773183Y-73953600D01*
X54773183Y-73953600D02*
X54887469Y-73991695D01*
X54887469Y-73991695D02*
X55077945Y-73991695D01*
X54277945Y-73991695D02*
X54277945Y-73191695D01*
X53896993Y-73991695D02*
X53896993Y-73191695D01*
X53896993Y-73191695D02*
X53439850Y-73991695D01*
X53439850Y-73991695D02*
X53439850Y-73191695D01*
X54320802Y-71465504D02*
X54358898Y-71503600D01*
X54358898Y-71503600D02*
X54473183Y-71541695D01*
X54473183Y-71541695D02*
X54549374Y-71541695D01*
X54549374Y-71541695D02*
X54663660Y-71503600D01*
X54663660Y-71503600D02*
X54739850Y-71427409D01*
X54739850Y-71427409D02*
X54777945Y-71351219D01*
X54777945Y-71351219D02*
X54816041Y-71198838D01*
X54816041Y-71198838D02*
X54816041Y-71084552D01*
X54816041Y-71084552D02*
X54777945Y-70932171D01*
X54777945Y-70932171D02*
X54739850Y-70855980D01*
X54739850Y-70855980D02*
X54663660Y-70779790D01*
X54663660Y-70779790D02*
X54549374Y-70741695D01*
X54549374Y-70741695D02*
X54473183Y-70741695D01*
X54473183Y-70741695D02*
X54358898Y-70779790D01*
X54358898Y-70779790D02*
X54320802Y-70817885D01*
X54016041Y-71503600D02*
X53901755Y-71541695D01*
X53901755Y-71541695D02*
X53711279Y-71541695D01*
X53711279Y-71541695D02*
X53635088Y-71503600D01*
X53635088Y-71503600D02*
X53596993Y-71465504D01*
X53596993Y-71465504D02*
X53558898Y-71389314D01*
X53558898Y-71389314D02*
X53558898Y-71313123D01*
X53558898Y-71313123D02*
X53596993Y-71236933D01*
X53596993Y-71236933D02*
X53635088Y-71198838D01*
X53635088Y-71198838D02*
X53711279Y-71160742D01*
X53711279Y-71160742D02*
X53863660Y-71122647D01*
X53863660Y-71122647D02*
X53939850Y-71084552D01*
X53939850Y-71084552D02*
X53977945Y-71046457D01*
X53977945Y-71046457D02*
X54016041Y-70970266D01*
X54016041Y-70970266D02*
X54016041Y-70894076D01*
X54016041Y-70894076D02*
X53977945Y-70817885D01*
X53977945Y-70817885D02*
X53939850Y-70779790D01*
X53939850Y-70779790D02*
X53863660Y-70741695D01*
X53863660Y-70741695D02*
X53673183Y-70741695D01*
X53673183Y-70741695D02*
X53558898Y-70779790D01*
X56766041Y-62403600D02*
X56651755Y-62441695D01*
X56651755Y-62441695D02*
X56461279Y-62441695D01*
X56461279Y-62441695D02*
X56385088Y-62403600D01*
X56385088Y-62403600D02*
X56346993Y-62365504D01*
X56346993Y-62365504D02*
X56308898Y-62289314D01*
X56308898Y-62289314D02*
X56308898Y-62213123D01*
X56308898Y-62213123D02*
X56346993Y-62136933D01*
X56346993Y-62136933D02*
X56385088Y-62098838D01*
X56385088Y-62098838D02*
X56461279Y-62060742D01*
X56461279Y-62060742D02*
X56613660Y-62022647D01*
X56613660Y-62022647D02*
X56689850Y-61984552D01*
X56689850Y-61984552D02*
X56727945Y-61946457D01*
X56727945Y-61946457D02*
X56766041Y-61870266D01*
X56766041Y-61870266D02*
X56766041Y-61794076D01*
X56766041Y-61794076D02*
X56727945Y-61717885D01*
X56727945Y-61717885D02*
X56689850Y-61679790D01*
X56689850Y-61679790D02*
X56613660Y-61641695D01*
X56613660Y-61641695D02*
X56423183Y-61641695D01*
X56423183Y-61641695D02*
X56308898Y-61679790D01*
X56080326Y-61641695D02*
X55623183Y-61641695D01*
X55851755Y-62441695D02*
X55851755Y-61641695D01*
X55394612Y-62213123D02*
X55013659Y-62213123D01*
X55470802Y-62441695D02*
X55204135Y-61641695D01*
X55204135Y-61641695D02*
X54937469Y-62441695D01*
X54213659Y-62441695D02*
X54480326Y-62060742D01*
X54670802Y-62441695D02*
X54670802Y-61641695D01*
X54670802Y-61641695D02*
X54366040Y-61641695D01*
X54366040Y-61641695D02*
X54289850Y-61679790D01*
X54289850Y-61679790D02*
X54251755Y-61717885D01*
X54251755Y-61717885D02*
X54213659Y-61794076D01*
X54213659Y-61794076D02*
X54213659Y-61908361D01*
X54213659Y-61908361D02*
X54251755Y-61984552D01*
X54251755Y-61984552D02*
X54289850Y-62022647D01*
X54289850Y-62022647D02*
X54366040Y-62060742D01*
X54366040Y-62060742D02*
X54670802Y-62060742D01*
X53985088Y-61641695D02*
X53527945Y-61641695D01*
X53756517Y-62441695D02*
X53756517Y-61641695D01*
X56570802Y-59791695D02*
X56837469Y-59410742D01*
X57027945Y-59791695D02*
X57027945Y-58991695D01*
X57027945Y-58991695D02*
X56723183Y-58991695D01*
X56723183Y-58991695D02*
X56646993Y-59029790D01*
X56646993Y-59029790D02*
X56608898Y-59067885D01*
X56608898Y-59067885D02*
X56570802Y-59144076D01*
X56570802Y-59144076D02*
X56570802Y-59258361D01*
X56570802Y-59258361D02*
X56608898Y-59334552D01*
X56608898Y-59334552D02*
X56646993Y-59372647D01*
X56646993Y-59372647D02*
X56723183Y-59410742D01*
X56723183Y-59410742D02*
X57027945Y-59410742D01*
X56227945Y-59372647D02*
X55961279Y-59372647D01*
X55846993Y-59791695D02*
X56227945Y-59791695D01*
X56227945Y-59791695D02*
X56227945Y-58991695D01*
X56227945Y-58991695D02*
X55846993Y-58991695D01*
X55542231Y-59753600D02*
X55427945Y-59791695D01*
X55427945Y-59791695D02*
X55237469Y-59791695D01*
X55237469Y-59791695D02*
X55161278Y-59753600D01*
X55161278Y-59753600D02*
X55123183Y-59715504D01*
X55123183Y-59715504D02*
X55085088Y-59639314D01*
X55085088Y-59639314D02*
X55085088Y-59563123D01*
X55085088Y-59563123D02*
X55123183Y-59486933D01*
X55123183Y-59486933D02*
X55161278Y-59448838D01*
X55161278Y-59448838D02*
X55237469Y-59410742D01*
X55237469Y-59410742D02*
X55389850Y-59372647D01*
X55389850Y-59372647D02*
X55466040Y-59334552D01*
X55466040Y-59334552D02*
X55504135Y-59296457D01*
X55504135Y-59296457D02*
X55542231Y-59220266D01*
X55542231Y-59220266D02*
X55542231Y-59144076D01*
X55542231Y-59144076D02*
X55504135Y-59067885D01*
X55504135Y-59067885D02*
X55466040Y-59029790D01*
X55466040Y-59029790D02*
X55389850Y-58991695D01*
X55389850Y-58991695D02*
X55199373Y-58991695D01*
X55199373Y-58991695D02*
X55085088Y-59029790D01*
X54742230Y-59372647D02*
X54475564Y-59372647D01*
X54361278Y-59791695D02*
X54742230Y-59791695D01*
X54742230Y-59791695D02*
X54742230Y-58991695D01*
X54742230Y-58991695D02*
X54361278Y-58991695D01*
X54132706Y-58991695D02*
X53675563Y-58991695D01*
X53904135Y-59791695D02*
X53904135Y-58991695D01*
X56477945Y-57241695D02*
X56477945Y-56441695D01*
X56477945Y-56441695D02*
X56287469Y-56441695D01*
X56287469Y-56441695D02*
X56173183Y-56479790D01*
X56173183Y-56479790D02*
X56096993Y-56555980D01*
X56096993Y-56555980D02*
X56058898Y-56632171D01*
X56058898Y-56632171D02*
X56020802Y-56784552D01*
X56020802Y-56784552D02*
X56020802Y-56898838D01*
X56020802Y-56898838D02*
X56058898Y-57051219D01*
X56058898Y-57051219D02*
X56096993Y-57127409D01*
X56096993Y-57127409D02*
X56173183Y-57203600D01*
X56173183Y-57203600D02*
X56287469Y-57241695D01*
X56287469Y-57241695D02*
X56477945Y-57241695D01*
X55220802Y-57241695D02*
X55487469Y-56860742D01*
X55677945Y-57241695D02*
X55677945Y-56441695D01*
X55677945Y-56441695D02*
X55373183Y-56441695D01*
X55373183Y-56441695D02*
X55296993Y-56479790D01*
X55296993Y-56479790D02*
X55258898Y-56517885D01*
X55258898Y-56517885D02*
X55220802Y-56594076D01*
X55220802Y-56594076D02*
X55220802Y-56708361D01*
X55220802Y-56708361D02*
X55258898Y-56784552D01*
X55258898Y-56784552D02*
X55296993Y-56822647D01*
X55296993Y-56822647D02*
X55373183Y-56860742D01*
X55373183Y-56860742D02*
X55677945Y-56860742D01*
X54877945Y-57241695D02*
X54877945Y-56441695D01*
X54877945Y-56441695D02*
X54687469Y-56441695D01*
X54687469Y-56441695D02*
X54573183Y-56479790D01*
X54573183Y-56479790D02*
X54496993Y-56555980D01*
X54496993Y-56555980D02*
X54458898Y-56632171D01*
X54458898Y-56632171D02*
X54420802Y-56784552D01*
X54420802Y-56784552D02*
X54420802Y-56898838D01*
X54420802Y-56898838D02*
X54458898Y-57051219D01*
X54458898Y-57051219D02*
X54496993Y-57127409D01*
X54496993Y-57127409D02*
X54573183Y-57203600D01*
X54573183Y-57203600D02*
X54687469Y-57241695D01*
X54687469Y-57241695D02*
X54877945Y-57241695D01*
X53925564Y-56860742D02*
X53925564Y-57241695D01*
X54192231Y-56441695D02*
X53925564Y-56860742D01*
X53925564Y-56860742D02*
X53658898Y-56441695D01*
X74533504Y-77985714D02*
X74571600Y-77947618D01*
X74571600Y-77947618D02*
X74609695Y-77833333D01*
X74609695Y-77833333D02*
X74609695Y-77757142D01*
X74609695Y-77757142D02*
X74571600Y-77642856D01*
X74571600Y-77642856D02*
X74495409Y-77566666D01*
X74495409Y-77566666D02*
X74419219Y-77528571D01*
X74419219Y-77528571D02*
X74266838Y-77490475D01*
X74266838Y-77490475D02*
X74152552Y-77490475D01*
X74152552Y-77490475D02*
X74000171Y-77528571D01*
X74000171Y-77528571D02*
X73923980Y-77566666D01*
X73923980Y-77566666D02*
X73847790Y-77642856D01*
X73847790Y-77642856D02*
X73809695Y-77757142D01*
X73809695Y-77757142D02*
X73809695Y-77833333D01*
X73809695Y-77833333D02*
X73847790Y-77947618D01*
X73847790Y-77947618D02*
X73885885Y-77985714D01*
X73885885Y-78290475D02*
X73847790Y-78328571D01*
X73847790Y-78328571D02*
X73809695Y-78404761D01*
X73809695Y-78404761D02*
X73809695Y-78595237D01*
X73809695Y-78595237D02*
X73847790Y-78671428D01*
X73847790Y-78671428D02*
X73885885Y-78709523D01*
X73885885Y-78709523D02*
X73962076Y-78747618D01*
X73962076Y-78747618D02*
X74038266Y-78747618D01*
X74038266Y-78747618D02*
X74152552Y-78709523D01*
X74152552Y-78709523D02*
X74609695Y-78252380D01*
X74609695Y-78252380D02*
X74609695Y-78747618D01*
X74609695Y-79128571D02*
X74609695Y-79280952D01*
X74609695Y-79280952D02*
X74571600Y-79357142D01*
X74571600Y-79357142D02*
X74533504Y-79395238D01*
X74533504Y-79395238D02*
X74419219Y-79471428D01*
X74419219Y-79471428D02*
X74266838Y-79509523D01*
X74266838Y-79509523D02*
X73962076Y-79509523D01*
X73962076Y-79509523D02*
X73885885Y-79471428D01*
X73885885Y-79471428D02*
X73847790Y-79433333D01*
X73847790Y-79433333D02*
X73809695Y-79357142D01*
X73809695Y-79357142D02*
X73809695Y-79204761D01*
X73809695Y-79204761D02*
X73847790Y-79128571D01*
X73847790Y-79128571D02*
X73885885Y-79090476D01*
X73885885Y-79090476D02*
X73962076Y-79052380D01*
X73962076Y-79052380D02*
X74152552Y-79052380D01*
X74152552Y-79052380D02*
X74228742Y-79090476D01*
X74228742Y-79090476D02*
X74266838Y-79128571D01*
X74266838Y-79128571D02*
X74304933Y-79204761D01*
X74304933Y-79204761D02*
X74304933Y-79357142D01*
X74304933Y-79357142D02*
X74266838Y-79433333D01*
X74266838Y-79433333D02*
X74228742Y-79471428D01*
X74228742Y-79471428D02*
X74152552Y-79509523D01*
X104370395Y-46298267D02*
X103989442Y-46031600D01*
X104370395Y-45841124D02*
X103570395Y-45841124D01*
X103570395Y-45841124D02*
X103570395Y-46145886D01*
X103570395Y-46145886D02*
X103608490Y-46222076D01*
X103608490Y-46222076D02*
X103646585Y-46260171D01*
X103646585Y-46260171D02*
X103722776Y-46298267D01*
X103722776Y-46298267D02*
X103837061Y-46298267D01*
X103837061Y-46298267D02*
X103913252Y-46260171D01*
X103913252Y-46260171D02*
X103951347Y-46222076D01*
X103951347Y-46222076D02*
X103989442Y-46145886D01*
X103989442Y-46145886D02*
X103989442Y-45841124D01*
X104370395Y-47060171D02*
X104370395Y-46603028D01*
X104370395Y-46831600D02*
X103570395Y-46831600D01*
X103570395Y-46831600D02*
X103684680Y-46755409D01*
X103684680Y-46755409D02*
X103760871Y-46679219D01*
X103760871Y-46679219D02*
X103798966Y-46603028D01*
X103214795Y-44094799D02*
X103405271Y-44094799D01*
X103329080Y-43904323D02*
X103405271Y-44094799D01*
X103405271Y-44094799D02*
X103329080Y-44285276D01*
X103557652Y-43980514D02*
X103405271Y-44094799D01*
X103405271Y-44094799D02*
X103557652Y-44209085D01*
X96407595Y-47066599D02*
X96598071Y-47066599D01*
X96521880Y-46876123D02*
X96598071Y-47066599D01*
X96598071Y-47066599D02*
X96521880Y-47257076D01*
X96750452Y-46952314D02*
X96598071Y-47066599D01*
X96598071Y-47066599D02*
X96750452Y-47180885D01*
X78483504Y-46835714D02*
X78521600Y-46797618D01*
X78521600Y-46797618D02*
X78559695Y-46683333D01*
X78559695Y-46683333D02*
X78559695Y-46607142D01*
X78559695Y-46607142D02*
X78521600Y-46492856D01*
X78521600Y-46492856D02*
X78445409Y-46416666D01*
X78445409Y-46416666D02*
X78369219Y-46378571D01*
X78369219Y-46378571D02*
X78216838Y-46340475D01*
X78216838Y-46340475D02*
X78102552Y-46340475D01*
X78102552Y-46340475D02*
X77950171Y-46378571D01*
X77950171Y-46378571D02*
X77873980Y-46416666D01*
X77873980Y-46416666D02*
X77797790Y-46492856D01*
X77797790Y-46492856D02*
X77759695Y-46607142D01*
X77759695Y-46607142D02*
X77759695Y-46683333D01*
X77759695Y-46683333D02*
X77797790Y-46797618D01*
X77797790Y-46797618D02*
X77835885Y-46835714D01*
X78026361Y-47521428D02*
X78559695Y-47521428D01*
X77721600Y-47330952D02*
X78293028Y-47140475D01*
X78293028Y-47140475D02*
X78293028Y-47635714D01*
X77759695Y-48092857D02*
X77759695Y-48169047D01*
X77759695Y-48169047D02*
X77797790Y-48245238D01*
X77797790Y-48245238D02*
X77835885Y-48283333D01*
X77835885Y-48283333D02*
X77912076Y-48321428D01*
X77912076Y-48321428D02*
X78064457Y-48359523D01*
X78064457Y-48359523D02*
X78254933Y-48359523D01*
X78254933Y-48359523D02*
X78407314Y-48321428D01*
X78407314Y-48321428D02*
X78483504Y-48283333D01*
X78483504Y-48283333D02*
X78521600Y-48245238D01*
X78521600Y-48245238D02*
X78559695Y-48169047D01*
X78559695Y-48169047D02*
X78559695Y-48092857D01*
X78559695Y-48092857D02*
X78521600Y-48016666D01*
X78521600Y-48016666D02*
X78483504Y-47978571D01*
X78483504Y-47978571D02*
X78407314Y-47940476D01*
X78407314Y-47940476D02*
X78254933Y-47902380D01*
X78254933Y-47902380D02*
X78064457Y-47902380D01*
X78064457Y-47902380D02*
X77912076Y-47940476D01*
X77912076Y-47940476D02*
X77835885Y-47978571D01*
X77835885Y-47978571D02*
X77797790Y-48016666D01*
X77797790Y-48016666D02*
X77759695Y-48092857D01*
X88564285Y-75133504D02*
X88602381Y-75171600D01*
X88602381Y-75171600D02*
X88716666Y-75209695D01*
X88716666Y-75209695D02*
X88792857Y-75209695D01*
X88792857Y-75209695D02*
X88907143Y-75171600D01*
X88907143Y-75171600D02*
X88983333Y-75095409D01*
X88983333Y-75095409D02*
X89021428Y-75019219D01*
X89021428Y-75019219D02*
X89059524Y-74866838D01*
X89059524Y-74866838D02*
X89059524Y-74752552D01*
X89059524Y-74752552D02*
X89021428Y-74600171D01*
X89021428Y-74600171D02*
X88983333Y-74523980D01*
X88983333Y-74523980D02*
X88907143Y-74447790D01*
X88907143Y-74447790D02*
X88792857Y-74409695D01*
X88792857Y-74409695D02*
X88716666Y-74409695D01*
X88716666Y-74409695D02*
X88602381Y-74447790D01*
X88602381Y-74447790D02*
X88564285Y-74485885D01*
X88259524Y-74485885D02*
X88221428Y-74447790D01*
X88221428Y-74447790D02*
X88145238Y-74409695D01*
X88145238Y-74409695D02*
X87954762Y-74409695D01*
X87954762Y-74409695D02*
X87878571Y-74447790D01*
X87878571Y-74447790D02*
X87840476Y-74485885D01*
X87840476Y-74485885D02*
X87802381Y-74562076D01*
X87802381Y-74562076D02*
X87802381Y-74638266D01*
X87802381Y-74638266D02*
X87840476Y-74752552D01*
X87840476Y-74752552D02*
X88297619Y-75209695D01*
X88297619Y-75209695D02*
X87802381Y-75209695D01*
X87078571Y-74409695D02*
X87459523Y-74409695D01*
X87459523Y-74409695D02*
X87497619Y-74790647D01*
X87497619Y-74790647D02*
X87459523Y-74752552D01*
X87459523Y-74752552D02*
X87383333Y-74714457D01*
X87383333Y-74714457D02*
X87192857Y-74714457D01*
X87192857Y-74714457D02*
X87116666Y-74752552D01*
X87116666Y-74752552D02*
X87078571Y-74790647D01*
X87078571Y-74790647D02*
X87040476Y-74866838D01*
X87040476Y-74866838D02*
X87040476Y-75057314D01*
X87040476Y-75057314D02*
X87078571Y-75133504D01*
X87078571Y-75133504D02*
X87116666Y-75171600D01*
X87116666Y-75171600D02*
X87192857Y-75209695D01*
X87192857Y-75209695D02*
X87383333Y-75209695D01*
X87383333Y-75209695D02*
X87459523Y-75171600D01*
X87459523Y-75171600D02*
X87497619Y-75133504D01*
X82790475Y-78459695D02*
X82790475Y-77659695D01*
X82790475Y-77659695D02*
X82599999Y-77659695D01*
X82599999Y-77659695D02*
X82485713Y-77697790D01*
X82485713Y-77697790D02*
X82409523Y-77773980D01*
X82409523Y-77773980D02*
X82371428Y-77850171D01*
X82371428Y-77850171D02*
X82333332Y-78002552D01*
X82333332Y-78002552D02*
X82333332Y-78116838D01*
X82333332Y-78116838D02*
X82371428Y-78269219D01*
X82371428Y-78269219D02*
X82409523Y-78345409D01*
X82409523Y-78345409D02*
X82485713Y-78421600D01*
X82485713Y-78421600D02*
X82599999Y-78459695D01*
X82599999Y-78459695D02*
X82790475Y-78459695D01*
X82066666Y-77659695D02*
X81571428Y-77659695D01*
X81571428Y-77659695D02*
X81838094Y-77964457D01*
X81838094Y-77964457D02*
X81723809Y-77964457D01*
X81723809Y-77964457D02*
X81647618Y-78002552D01*
X81647618Y-78002552D02*
X81609523Y-78040647D01*
X81609523Y-78040647D02*
X81571428Y-78116838D01*
X81571428Y-78116838D02*
X81571428Y-78307314D01*
X81571428Y-78307314D02*
X81609523Y-78383504D01*
X81609523Y-78383504D02*
X81647618Y-78421600D01*
X81647618Y-78421600D02*
X81723809Y-78459695D01*
X81723809Y-78459695D02*
X81952380Y-78459695D01*
X81952380Y-78459695D02*
X82028571Y-78421600D01*
X82028571Y-78421600D02*
X82066666Y-78383504D01*
X105015104Y-72805267D02*
X105053200Y-72767171D01*
X105053200Y-72767171D02*
X105091295Y-72652886D01*
X105091295Y-72652886D02*
X105091295Y-72576695D01*
X105091295Y-72576695D02*
X105053200Y-72462409D01*
X105053200Y-72462409D02*
X104977009Y-72386219D01*
X104977009Y-72386219D02*
X104900819Y-72348124D01*
X104900819Y-72348124D02*
X104748438Y-72310028D01*
X104748438Y-72310028D02*
X104634152Y-72310028D01*
X104634152Y-72310028D02*
X104481771Y-72348124D01*
X104481771Y-72348124D02*
X104405580Y-72386219D01*
X104405580Y-72386219D02*
X104329390Y-72462409D01*
X104329390Y-72462409D02*
X104291295Y-72576695D01*
X104291295Y-72576695D02*
X104291295Y-72652886D01*
X104291295Y-72652886D02*
X104329390Y-72767171D01*
X104329390Y-72767171D02*
X104367485Y-72805267D01*
X104291295Y-73071933D02*
X104291295Y-73605267D01*
X104291295Y-73605267D02*
X105091295Y-73262409D01*
X73183504Y-67185714D02*
X73221600Y-67147618D01*
X73221600Y-67147618D02*
X73259695Y-67033333D01*
X73259695Y-67033333D02*
X73259695Y-66957142D01*
X73259695Y-66957142D02*
X73221600Y-66842856D01*
X73221600Y-66842856D02*
X73145409Y-66766666D01*
X73145409Y-66766666D02*
X73069219Y-66728571D01*
X73069219Y-66728571D02*
X72916838Y-66690475D01*
X72916838Y-66690475D02*
X72802552Y-66690475D01*
X72802552Y-66690475D02*
X72650171Y-66728571D01*
X72650171Y-66728571D02*
X72573980Y-66766666D01*
X72573980Y-66766666D02*
X72497790Y-66842856D01*
X72497790Y-66842856D02*
X72459695Y-66957142D01*
X72459695Y-66957142D02*
X72459695Y-67033333D01*
X72459695Y-67033333D02*
X72497790Y-67147618D01*
X72497790Y-67147618D02*
X72535885Y-67185714D01*
X72535885Y-67490475D02*
X72497790Y-67528571D01*
X72497790Y-67528571D02*
X72459695Y-67604761D01*
X72459695Y-67604761D02*
X72459695Y-67795237D01*
X72459695Y-67795237D02*
X72497790Y-67871428D01*
X72497790Y-67871428D02*
X72535885Y-67909523D01*
X72535885Y-67909523D02*
X72612076Y-67947618D01*
X72612076Y-67947618D02*
X72688266Y-67947618D01*
X72688266Y-67947618D02*
X72802552Y-67909523D01*
X72802552Y-67909523D02*
X73259695Y-67452380D01*
X73259695Y-67452380D02*
X73259695Y-67947618D01*
X72535885Y-68252380D02*
X72497790Y-68290476D01*
X72497790Y-68290476D02*
X72459695Y-68366666D01*
X72459695Y-68366666D02*
X72459695Y-68557142D01*
X72459695Y-68557142D02*
X72497790Y-68633333D01*
X72497790Y-68633333D02*
X72535885Y-68671428D01*
X72535885Y-68671428D02*
X72612076Y-68709523D01*
X72612076Y-68709523D02*
X72688266Y-68709523D01*
X72688266Y-68709523D02*
X72802552Y-68671428D01*
X72802552Y-68671428D02*
X73259695Y-68214285D01*
X73259695Y-68214285D02*
X73259695Y-68709523D01*
X81664285Y-60233504D02*
X81702381Y-60271600D01*
X81702381Y-60271600D02*
X81816666Y-60309695D01*
X81816666Y-60309695D02*
X81892857Y-60309695D01*
X81892857Y-60309695D02*
X82007143Y-60271600D01*
X82007143Y-60271600D02*
X82083333Y-60195409D01*
X82083333Y-60195409D02*
X82121428Y-60119219D01*
X82121428Y-60119219D02*
X82159524Y-59966838D01*
X82159524Y-59966838D02*
X82159524Y-59852552D01*
X82159524Y-59852552D02*
X82121428Y-59700171D01*
X82121428Y-59700171D02*
X82083333Y-59623980D01*
X82083333Y-59623980D02*
X82007143Y-59547790D01*
X82007143Y-59547790D02*
X81892857Y-59509695D01*
X81892857Y-59509695D02*
X81816666Y-59509695D01*
X81816666Y-59509695D02*
X81702381Y-59547790D01*
X81702381Y-59547790D02*
X81664285Y-59585885D01*
X80902381Y-60309695D02*
X81359524Y-60309695D01*
X81130952Y-60309695D02*
X81130952Y-59509695D01*
X81130952Y-59509695D02*
X81207143Y-59623980D01*
X81207143Y-59623980D02*
X81283333Y-59700171D01*
X81283333Y-59700171D02*
X81359524Y-59738266D01*
X80216666Y-59509695D02*
X80369047Y-59509695D01*
X80369047Y-59509695D02*
X80445238Y-59547790D01*
X80445238Y-59547790D02*
X80483333Y-59585885D01*
X80483333Y-59585885D02*
X80559523Y-59700171D01*
X80559523Y-59700171D02*
X80597619Y-59852552D01*
X80597619Y-59852552D02*
X80597619Y-60157314D01*
X80597619Y-60157314D02*
X80559523Y-60233504D01*
X80559523Y-60233504D02*
X80521428Y-60271600D01*
X80521428Y-60271600D02*
X80445238Y-60309695D01*
X80445238Y-60309695D02*
X80292857Y-60309695D01*
X80292857Y-60309695D02*
X80216666Y-60271600D01*
X80216666Y-60271600D02*
X80178571Y-60233504D01*
X80178571Y-60233504D02*
X80140476Y-60157314D01*
X80140476Y-60157314D02*
X80140476Y-59966838D01*
X80140476Y-59966838D02*
X80178571Y-59890647D01*
X80178571Y-59890647D02*
X80216666Y-59852552D01*
X80216666Y-59852552D02*
X80292857Y-59814457D01*
X80292857Y-59814457D02*
X80445238Y-59814457D01*
X80445238Y-59814457D02*
X80521428Y-59852552D01*
X80521428Y-59852552D02*
X80559523Y-59890647D01*
X80559523Y-59890647D02*
X80597619Y-59966838D01*
X81033504Y-46635714D02*
X81071600Y-46597618D01*
X81071600Y-46597618D02*
X81109695Y-46483333D01*
X81109695Y-46483333D02*
X81109695Y-46407142D01*
X81109695Y-46407142D02*
X81071600Y-46292856D01*
X81071600Y-46292856D02*
X80995409Y-46216666D01*
X80995409Y-46216666D02*
X80919219Y-46178571D01*
X80919219Y-46178571D02*
X80766838Y-46140475D01*
X80766838Y-46140475D02*
X80652552Y-46140475D01*
X80652552Y-46140475D02*
X80500171Y-46178571D01*
X80500171Y-46178571D02*
X80423980Y-46216666D01*
X80423980Y-46216666D02*
X80347790Y-46292856D01*
X80347790Y-46292856D02*
X80309695Y-46407142D01*
X80309695Y-46407142D02*
X80309695Y-46483333D01*
X80309695Y-46483333D02*
X80347790Y-46597618D01*
X80347790Y-46597618D02*
X80385885Y-46635714D01*
X80576361Y-47321428D02*
X81109695Y-47321428D01*
X80271600Y-47130952D02*
X80843028Y-46940475D01*
X80843028Y-46940475D02*
X80843028Y-47435714D01*
X80576361Y-48083333D02*
X81109695Y-48083333D01*
X80271600Y-47892857D02*
X80843028Y-47702380D01*
X80843028Y-47702380D02*
X80843028Y-48197619D01*
X93730951Y-77509695D02*
X93730951Y-76709695D01*
X92892856Y-77433504D02*
X92930952Y-77471600D01*
X92930952Y-77471600D02*
X93045237Y-77509695D01*
X93045237Y-77509695D02*
X93121428Y-77509695D01*
X93121428Y-77509695D02*
X93235714Y-77471600D01*
X93235714Y-77471600D02*
X93311904Y-77395409D01*
X93311904Y-77395409D02*
X93349999Y-77319219D01*
X93349999Y-77319219D02*
X93388095Y-77166838D01*
X93388095Y-77166838D02*
X93388095Y-77052552D01*
X93388095Y-77052552D02*
X93349999Y-76900171D01*
X93349999Y-76900171D02*
X93311904Y-76823980D01*
X93311904Y-76823980D02*
X93235714Y-76747790D01*
X93235714Y-76747790D02*
X93121428Y-76709695D01*
X93121428Y-76709695D02*
X93045237Y-76709695D01*
X93045237Y-76709695D02*
X92930952Y-76747790D01*
X92930952Y-76747790D02*
X92892856Y-76785885D01*
X92130952Y-77509695D02*
X92588095Y-77509695D01*
X92359523Y-77509695D02*
X92359523Y-76709695D01*
X92359523Y-76709695D02*
X92435714Y-76823980D01*
X92435714Y-76823980D02*
X92511904Y-76900171D01*
X92511904Y-76900171D02*
X92588095Y-76938266D01*
X75111904Y-53155867D02*
X75150000Y-53117771D01*
X75150000Y-53117771D02*
X75188095Y-53003486D01*
X75188095Y-53003486D02*
X75188095Y-52927295D01*
X75188095Y-52927295D02*
X75150000Y-52813009D01*
X75150000Y-52813009D02*
X75073809Y-52736819D01*
X75073809Y-52736819D02*
X74997619Y-52698724D01*
X74997619Y-52698724D02*
X74845238Y-52660628D01*
X74845238Y-52660628D02*
X74730952Y-52660628D01*
X74730952Y-52660628D02*
X74578571Y-52698724D01*
X74578571Y-52698724D02*
X74502380Y-52736819D01*
X74502380Y-52736819D02*
X74426190Y-52813009D01*
X74426190Y-52813009D02*
X74388095Y-52927295D01*
X74388095Y-52927295D02*
X74388095Y-53003486D01*
X74388095Y-53003486D02*
X74426190Y-53117771D01*
X74426190Y-53117771D02*
X74464285Y-53155867D01*
X74388095Y-53422533D02*
X74388095Y-53917771D01*
X74388095Y-53917771D02*
X74692857Y-53651105D01*
X74692857Y-53651105D02*
X74692857Y-53765390D01*
X74692857Y-53765390D02*
X74730952Y-53841581D01*
X74730952Y-53841581D02*
X74769047Y-53879676D01*
X74769047Y-53879676D02*
X74845238Y-53917771D01*
X74845238Y-53917771D02*
X75035714Y-53917771D01*
X75035714Y-53917771D02*
X75111904Y-53879676D01*
X75111904Y-53879676D02*
X75150000Y-53841581D01*
X75150000Y-53841581D02*
X75188095Y-53765390D01*
X75188095Y-53765390D02*
X75188095Y-53536819D01*
X75188095Y-53536819D02*
X75150000Y-53460628D01*
X75150000Y-53460628D02*
X75111904Y-53422533D01*
X89013295Y-66948067D02*
X88632342Y-66681400D01*
X89013295Y-66490924D02*
X88213295Y-66490924D01*
X88213295Y-66490924D02*
X88213295Y-66795686D01*
X88213295Y-66795686D02*
X88251390Y-66871876D01*
X88251390Y-66871876D02*
X88289485Y-66909971D01*
X88289485Y-66909971D02*
X88365676Y-66948067D01*
X88365676Y-66948067D02*
X88479961Y-66948067D01*
X88479961Y-66948067D02*
X88556152Y-66909971D01*
X88556152Y-66909971D02*
X88594247Y-66871876D01*
X88594247Y-66871876D02*
X88632342Y-66795686D01*
X88632342Y-66795686D02*
X88632342Y-66490924D01*
X88213295Y-67214733D02*
X88213295Y-67709971D01*
X88213295Y-67709971D02*
X88518057Y-67443305D01*
X88518057Y-67443305D02*
X88518057Y-67557590D01*
X88518057Y-67557590D02*
X88556152Y-67633781D01*
X88556152Y-67633781D02*
X88594247Y-67671876D01*
X88594247Y-67671876D02*
X88670438Y-67709971D01*
X88670438Y-67709971D02*
X88860914Y-67709971D01*
X88860914Y-67709971D02*
X88937104Y-67671876D01*
X88937104Y-67671876D02*
X88975200Y-67633781D01*
X88975200Y-67633781D02*
X89013295Y-67557590D01*
X89013295Y-67557590D02*
X89013295Y-67329019D01*
X89013295Y-67329019D02*
X88975200Y-67252828D01*
X88975200Y-67252828D02*
X88937104Y-67214733D01*
X75783504Y-72785714D02*
X75821600Y-72747618D01*
X75821600Y-72747618D02*
X75859695Y-72633333D01*
X75859695Y-72633333D02*
X75859695Y-72557142D01*
X75859695Y-72557142D02*
X75821600Y-72442856D01*
X75821600Y-72442856D02*
X75745409Y-72366666D01*
X75745409Y-72366666D02*
X75669219Y-72328571D01*
X75669219Y-72328571D02*
X75516838Y-72290475D01*
X75516838Y-72290475D02*
X75402552Y-72290475D01*
X75402552Y-72290475D02*
X75250171Y-72328571D01*
X75250171Y-72328571D02*
X75173980Y-72366666D01*
X75173980Y-72366666D02*
X75097790Y-72442856D01*
X75097790Y-72442856D02*
X75059695Y-72557142D01*
X75059695Y-72557142D02*
X75059695Y-72633333D01*
X75059695Y-72633333D02*
X75097790Y-72747618D01*
X75097790Y-72747618D02*
X75135885Y-72785714D01*
X75135885Y-73090475D02*
X75097790Y-73128571D01*
X75097790Y-73128571D02*
X75059695Y-73204761D01*
X75059695Y-73204761D02*
X75059695Y-73395237D01*
X75059695Y-73395237D02*
X75097790Y-73471428D01*
X75097790Y-73471428D02*
X75135885Y-73509523D01*
X75135885Y-73509523D02*
X75212076Y-73547618D01*
X75212076Y-73547618D02*
X75288266Y-73547618D01*
X75288266Y-73547618D02*
X75402552Y-73509523D01*
X75402552Y-73509523D02*
X75859695Y-73052380D01*
X75859695Y-73052380D02*
X75859695Y-73547618D01*
X75059695Y-74233333D02*
X75059695Y-74080952D01*
X75059695Y-74080952D02*
X75097790Y-74004761D01*
X75097790Y-74004761D02*
X75135885Y-73966666D01*
X75135885Y-73966666D02*
X75250171Y-73890476D01*
X75250171Y-73890476D02*
X75402552Y-73852380D01*
X75402552Y-73852380D02*
X75707314Y-73852380D01*
X75707314Y-73852380D02*
X75783504Y-73890476D01*
X75783504Y-73890476D02*
X75821600Y-73928571D01*
X75821600Y-73928571D02*
X75859695Y-74004761D01*
X75859695Y-74004761D02*
X75859695Y-74157142D01*
X75859695Y-74157142D02*
X75821600Y-74233333D01*
X75821600Y-74233333D02*
X75783504Y-74271428D01*
X75783504Y-74271428D02*
X75707314Y-74309523D01*
X75707314Y-74309523D02*
X75516838Y-74309523D01*
X75516838Y-74309523D02*
X75440647Y-74271428D01*
X75440647Y-74271428D02*
X75402552Y-74233333D01*
X75402552Y-74233333D02*
X75364457Y-74157142D01*
X75364457Y-74157142D02*
X75364457Y-74004761D01*
X75364457Y-74004761D02*
X75402552Y-73928571D01*
X75402552Y-73928571D02*
X75440647Y-73890476D01*
X75440647Y-73890476D02*
X75516838Y-73852380D01*
X64433332Y-60059695D02*
X64699999Y-59678742D01*
X64890475Y-60059695D02*
X64890475Y-59259695D01*
X64890475Y-59259695D02*
X64585713Y-59259695D01*
X64585713Y-59259695D02*
X64509523Y-59297790D01*
X64509523Y-59297790D02*
X64471428Y-59335885D01*
X64471428Y-59335885D02*
X64433332Y-59412076D01*
X64433332Y-59412076D02*
X64433332Y-59526361D01*
X64433332Y-59526361D02*
X64471428Y-59602552D01*
X64471428Y-59602552D02*
X64509523Y-59640647D01*
X64509523Y-59640647D02*
X64585713Y-59678742D01*
X64585713Y-59678742D02*
X64890475Y-59678742D01*
X63976190Y-59602552D02*
X64052380Y-59564457D01*
X64052380Y-59564457D02*
X64090475Y-59526361D01*
X64090475Y-59526361D02*
X64128571Y-59450171D01*
X64128571Y-59450171D02*
X64128571Y-59412076D01*
X64128571Y-59412076D02*
X64090475Y-59335885D01*
X64090475Y-59335885D02*
X64052380Y-59297790D01*
X64052380Y-59297790D02*
X63976190Y-59259695D01*
X63976190Y-59259695D02*
X63823809Y-59259695D01*
X63823809Y-59259695D02*
X63747618Y-59297790D01*
X63747618Y-59297790D02*
X63709523Y-59335885D01*
X63709523Y-59335885D02*
X63671428Y-59412076D01*
X63671428Y-59412076D02*
X63671428Y-59450171D01*
X63671428Y-59450171D02*
X63709523Y-59526361D01*
X63709523Y-59526361D02*
X63747618Y-59564457D01*
X63747618Y-59564457D02*
X63823809Y-59602552D01*
X63823809Y-59602552D02*
X63976190Y-59602552D01*
X63976190Y-59602552D02*
X64052380Y-59640647D01*
X64052380Y-59640647D02*
X64090475Y-59678742D01*
X64090475Y-59678742D02*
X64128571Y-59754933D01*
X64128571Y-59754933D02*
X64128571Y-59907314D01*
X64128571Y-59907314D02*
X64090475Y-59983504D01*
X64090475Y-59983504D02*
X64052380Y-60021600D01*
X64052380Y-60021600D02*
X63976190Y-60059695D01*
X63976190Y-60059695D02*
X63823809Y-60059695D01*
X63823809Y-60059695D02*
X63747618Y-60021600D01*
X63747618Y-60021600D02*
X63709523Y-59983504D01*
X63709523Y-59983504D02*
X63671428Y-59907314D01*
X63671428Y-59907314D02*
X63671428Y-59754933D01*
X63671428Y-59754933D02*
X63709523Y-59678742D01*
X63709523Y-59678742D02*
X63747618Y-59640647D01*
X63747618Y-59640647D02*
X63823809Y-59602552D01*
X91209695Y-49566667D02*
X90828742Y-49300000D01*
X91209695Y-49109524D02*
X90409695Y-49109524D01*
X90409695Y-49109524D02*
X90409695Y-49414286D01*
X90409695Y-49414286D02*
X90447790Y-49490476D01*
X90447790Y-49490476D02*
X90485885Y-49528571D01*
X90485885Y-49528571D02*
X90562076Y-49566667D01*
X90562076Y-49566667D02*
X90676361Y-49566667D01*
X90676361Y-49566667D02*
X90752552Y-49528571D01*
X90752552Y-49528571D02*
X90790647Y-49490476D01*
X90790647Y-49490476D02*
X90828742Y-49414286D01*
X90828742Y-49414286D02*
X90828742Y-49109524D01*
X90485885Y-49871428D02*
X90447790Y-49909524D01*
X90447790Y-49909524D02*
X90409695Y-49985714D01*
X90409695Y-49985714D02*
X90409695Y-50176190D01*
X90409695Y-50176190D02*
X90447790Y-50252381D01*
X90447790Y-50252381D02*
X90485885Y-50290476D01*
X90485885Y-50290476D02*
X90562076Y-50328571D01*
X90562076Y-50328571D02*
X90638266Y-50328571D01*
X90638266Y-50328571D02*
X90752552Y-50290476D01*
X90752552Y-50290476D02*
X91209695Y-49833333D01*
X91209695Y-49833333D02*
X91209695Y-50328571D01*
X87409295Y-46093017D02*
X87599771Y-46093017D01*
X87523580Y-45902541D02*
X87599771Y-46093017D01*
X87599771Y-46093017D02*
X87523580Y-46283494D01*
X87752152Y-45978732D02*
X87599771Y-46093017D01*
X87599771Y-46093017D02*
X87752152Y-46207303D01*
X87485495Y-44746817D02*
X87675971Y-44746817D01*
X87599780Y-44556341D02*
X87675971Y-44746817D01*
X87675971Y-44746817D02*
X87599780Y-44937294D01*
X87828352Y-44632532D02*
X87675971Y-44746817D01*
X87675971Y-44746817D02*
X87828352Y-44861103D01*
X67964285Y-63409695D02*
X68230952Y-63028742D01*
X68421428Y-63409695D02*
X68421428Y-62609695D01*
X68421428Y-62609695D02*
X68116666Y-62609695D01*
X68116666Y-62609695D02*
X68040476Y-62647790D01*
X68040476Y-62647790D02*
X68002381Y-62685885D01*
X68002381Y-62685885D02*
X67964285Y-62762076D01*
X67964285Y-62762076D02*
X67964285Y-62876361D01*
X67964285Y-62876361D02*
X68002381Y-62952552D01*
X68002381Y-62952552D02*
X68040476Y-62990647D01*
X68040476Y-62990647D02*
X68116666Y-63028742D01*
X68116666Y-63028742D02*
X68421428Y-63028742D01*
X67202381Y-63409695D02*
X67659524Y-63409695D01*
X67430952Y-63409695D02*
X67430952Y-62609695D01*
X67430952Y-62609695D02*
X67507143Y-62723980D01*
X67507143Y-62723980D02*
X67583333Y-62800171D01*
X67583333Y-62800171D02*
X67659524Y-62838266D01*
X66707142Y-62609695D02*
X66630952Y-62609695D01*
X66630952Y-62609695D02*
X66554761Y-62647790D01*
X66554761Y-62647790D02*
X66516666Y-62685885D01*
X66516666Y-62685885D02*
X66478571Y-62762076D01*
X66478571Y-62762076D02*
X66440476Y-62914457D01*
X66440476Y-62914457D02*
X66440476Y-63104933D01*
X66440476Y-63104933D02*
X66478571Y-63257314D01*
X66478571Y-63257314D02*
X66516666Y-63333504D01*
X66516666Y-63333504D02*
X66554761Y-63371600D01*
X66554761Y-63371600D02*
X66630952Y-63409695D01*
X66630952Y-63409695D02*
X66707142Y-63409695D01*
X66707142Y-63409695D02*
X66783333Y-63371600D01*
X66783333Y-63371600D02*
X66821428Y-63333504D01*
X66821428Y-63333504D02*
X66859523Y-63257314D01*
X66859523Y-63257314D02*
X66897619Y-63104933D01*
X66897619Y-63104933D02*
X66897619Y-62914457D01*
X66897619Y-62914457D02*
X66859523Y-62762076D01*
X66859523Y-62762076D02*
X66821428Y-62685885D01*
X66821428Y-62685885D02*
X66783333Y-62647790D01*
X66783333Y-62647790D02*
X66707142Y-62609695D01*
X97614285Y-87183504D02*
X97652381Y-87221600D01*
X97652381Y-87221600D02*
X97766666Y-87259695D01*
X97766666Y-87259695D02*
X97842857Y-87259695D01*
X97842857Y-87259695D02*
X97957143Y-87221600D01*
X97957143Y-87221600D02*
X98033333Y-87145409D01*
X98033333Y-87145409D02*
X98071428Y-87069219D01*
X98071428Y-87069219D02*
X98109524Y-86916838D01*
X98109524Y-86916838D02*
X98109524Y-86802552D01*
X98109524Y-86802552D02*
X98071428Y-86650171D01*
X98071428Y-86650171D02*
X98033333Y-86573980D01*
X98033333Y-86573980D02*
X97957143Y-86497790D01*
X97957143Y-86497790D02*
X97842857Y-86459695D01*
X97842857Y-86459695D02*
X97766666Y-86459695D01*
X97766666Y-86459695D02*
X97652381Y-86497790D01*
X97652381Y-86497790D02*
X97614285Y-86535885D01*
X96852381Y-87259695D02*
X97309524Y-87259695D01*
X97080952Y-87259695D02*
X97080952Y-86459695D01*
X97080952Y-86459695D02*
X97157143Y-86573980D01*
X97157143Y-86573980D02*
X97233333Y-86650171D01*
X97233333Y-86650171D02*
X97309524Y-86688266D01*
X96585714Y-86459695D02*
X96090476Y-86459695D01*
X96090476Y-86459695D02*
X96357142Y-86764457D01*
X96357142Y-86764457D02*
X96242857Y-86764457D01*
X96242857Y-86764457D02*
X96166666Y-86802552D01*
X96166666Y-86802552D02*
X96128571Y-86840647D01*
X96128571Y-86840647D02*
X96090476Y-86916838D01*
X96090476Y-86916838D02*
X96090476Y-87107314D01*
X96090476Y-87107314D02*
X96128571Y-87183504D01*
X96128571Y-87183504D02*
X96166666Y-87221600D01*
X96166666Y-87221600D02*
X96242857Y-87259695D01*
X96242857Y-87259695D02*
X96471428Y-87259695D01*
X96471428Y-87259695D02*
X96547619Y-87221600D01*
X96547619Y-87221600D02*
X96585714Y-87183504D01*
X79183504Y-67285714D02*
X79221600Y-67247618D01*
X79221600Y-67247618D02*
X79259695Y-67133333D01*
X79259695Y-67133333D02*
X79259695Y-67057142D01*
X79259695Y-67057142D02*
X79221600Y-66942856D01*
X79221600Y-66942856D02*
X79145409Y-66866666D01*
X79145409Y-66866666D02*
X79069219Y-66828571D01*
X79069219Y-66828571D02*
X78916838Y-66790475D01*
X78916838Y-66790475D02*
X78802552Y-66790475D01*
X78802552Y-66790475D02*
X78650171Y-66828571D01*
X78650171Y-66828571D02*
X78573980Y-66866666D01*
X78573980Y-66866666D02*
X78497790Y-66942856D01*
X78497790Y-66942856D02*
X78459695Y-67057142D01*
X78459695Y-67057142D02*
X78459695Y-67133333D01*
X78459695Y-67133333D02*
X78497790Y-67247618D01*
X78497790Y-67247618D02*
X78535885Y-67285714D01*
X78535885Y-67590475D02*
X78497790Y-67628571D01*
X78497790Y-67628571D02*
X78459695Y-67704761D01*
X78459695Y-67704761D02*
X78459695Y-67895237D01*
X78459695Y-67895237D02*
X78497790Y-67971428D01*
X78497790Y-67971428D02*
X78535885Y-68009523D01*
X78535885Y-68009523D02*
X78612076Y-68047618D01*
X78612076Y-68047618D02*
X78688266Y-68047618D01*
X78688266Y-68047618D02*
X78802552Y-68009523D01*
X78802552Y-68009523D02*
X79259695Y-67552380D01*
X79259695Y-67552380D02*
X79259695Y-68047618D01*
X79259695Y-68809523D02*
X79259695Y-68352380D01*
X79259695Y-68580952D02*
X78459695Y-68580952D01*
X78459695Y-68580952D02*
X78573980Y-68504761D01*
X78573980Y-68504761D02*
X78650171Y-68428571D01*
X78650171Y-68428571D02*
X78688266Y-68352380D01*
X88564285Y-72459695D02*
X88830952Y-72078742D01*
X89021428Y-72459695D02*
X89021428Y-71659695D01*
X89021428Y-71659695D02*
X88716666Y-71659695D01*
X88716666Y-71659695D02*
X88640476Y-71697790D01*
X88640476Y-71697790D02*
X88602381Y-71735885D01*
X88602381Y-71735885D02*
X88564285Y-71812076D01*
X88564285Y-71812076D02*
X88564285Y-71926361D01*
X88564285Y-71926361D02*
X88602381Y-72002552D01*
X88602381Y-72002552D02*
X88640476Y-72040647D01*
X88640476Y-72040647D02*
X88716666Y-72078742D01*
X88716666Y-72078742D02*
X89021428Y-72078742D01*
X87802381Y-72459695D02*
X88259524Y-72459695D01*
X88030952Y-72459695D02*
X88030952Y-71659695D01*
X88030952Y-71659695D02*
X88107143Y-71773980D01*
X88107143Y-71773980D02*
X88183333Y-71850171D01*
X88183333Y-71850171D02*
X88259524Y-71888266D01*
X87535714Y-71659695D02*
X87002380Y-71659695D01*
X87002380Y-71659695D02*
X87345238Y-72459695D01*
X80033504Y-72885714D02*
X80071600Y-72847618D01*
X80071600Y-72847618D02*
X80109695Y-72733333D01*
X80109695Y-72733333D02*
X80109695Y-72657142D01*
X80109695Y-72657142D02*
X80071600Y-72542856D01*
X80071600Y-72542856D02*
X79995409Y-72466666D01*
X79995409Y-72466666D02*
X79919219Y-72428571D01*
X79919219Y-72428571D02*
X79766838Y-72390475D01*
X79766838Y-72390475D02*
X79652552Y-72390475D01*
X79652552Y-72390475D02*
X79500171Y-72428571D01*
X79500171Y-72428571D02*
X79423980Y-72466666D01*
X79423980Y-72466666D02*
X79347790Y-72542856D01*
X79347790Y-72542856D02*
X79309695Y-72657142D01*
X79309695Y-72657142D02*
X79309695Y-72733333D01*
X79309695Y-72733333D02*
X79347790Y-72847618D01*
X79347790Y-72847618D02*
X79385885Y-72885714D01*
X79576361Y-73571428D02*
X80109695Y-73571428D01*
X79271600Y-73380952D02*
X79843028Y-73190475D01*
X79843028Y-73190475D02*
X79843028Y-73685714D01*
X79385885Y-73952380D02*
X79347790Y-73990476D01*
X79347790Y-73990476D02*
X79309695Y-74066666D01*
X79309695Y-74066666D02*
X79309695Y-74257142D01*
X79309695Y-74257142D02*
X79347790Y-74333333D01*
X79347790Y-74333333D02*
X79385885Y-74371428D01*
X79385885Y-74371428D02*
X79462076Y-74409523D01*
X79462076Y-74409523D02*
X79538266Y-74409523D01*
X79538266Y-74409523D02*
X79652552Y-74371428D01*
X79652552Y-74371428D02*
X80109695Y-73914285D01*
X80109695Y-73914285D02*
X80109695Y-74409523D01*
X61683332Y-67109695D02*
X61949999Y-66728742D01*
X62140475Y-67109695D02*
X62140475Y-66309695D01*
X62140475Y-66309695D02*
X61835713Y-66309695D01*
X61835713Y-66309695D02*
X61759523Y-66347790D01*
X61759523Y-66347790D02*
X61721428Y-66385885D01*
X61721428Y-66385885D02*
X61683332Y-66462076D01*
X61683332Y-66462076D02*
X61683332Y-66576361D01*
X61683332Y-66576361D02*
X61721428Y-66652552D01*
X61721428Y-66652552D02*
X61759523Y-66690647D01*
X61759523Y-66690647D02*
X61835713Y-66728742D01*
X61835713Y-66728742D02*
X62140475Y-66728742D01*
X61302380Y-67109695D02*
X61149999Y-67109695D01*
X61149999Y-67109695D02*
X61073809Y-67071600D01*
X61073809Y-67071600D02*
X61035713Y-67033504D01*
X61035713Y-67033504D02*
X60959523Y-66919219D01*
X60959523Y-66919219D02*
X60921428Y-66766838D01*
X60921428Y-66766838D02*
X60921428Y-66462076D01*
X60921428Y-66462076D02*
X60959523Y-66385885D01*
X60959523Y-66385885D02*
X60997618Y-66347790D01*
X60997618Y-66347790D02*
X61073809Y-66309695D01*
X61073809Y-66309695D02*
X61226190Y-66309695D01*
X61226190Y-66309695D02*
X61302380Y-66347790D01*
X61302380Y-66347790D02*
X61340475Y-66385885D01*
X61340475Y-66385885D02*
X61378571Y-66462076D01*
X61378571Y-66462076D02*
X61378571Y-66652552D01*
X61378571Y-66652552D02*
X61340475Y-66728742D01*
X61340475Y-66728742D02*
X61302380Y-66766838D01*
X61302380Y-66766838D02*
X61226190Y-66804933D01*
X61226190Y-66804933D02*
X61073809Y-66804933D01*
X61073809Y-66804933D02*
X60997618Y-66766838D01*
X60997618Y-66766838D02*
X60959523Y-66728742D01*
X60959523Y-66728742D02*
X60921428Y-66652552D01*
X81233504Y-55335714D02*
X81271600Y-55297618D01*
X81271600Y-55297618D02*
X81309695Y-55183333D01*
X81309695Y-55183333D02*
X81309695Y-55107142D01*
X81309695Y-55107142D02*
X81271600Y-54992856D01*
X81271600Y-54992856D02*
X81195409Y-54916666D01*
X81195409Y-54916666D02*
X81119219Y-54878571D01*
X81119219Y-54878571D02*
X80966838Y-54840475D01*
X80966838Y-54840475D02*
X80852552Y-54840475D01*
X80852552Y-54840475D02*
X80700171Y-54878571D01*
X80700171Y-54878571D02*
X80623980Y-54916666D01*
X80623980Y-54916666D02*
X80547790Y-54992856D01*
X80547790Y-54992856D02*
X80509695Y-55107142D01*
X80509695Y-55107142D02*
X80509695Y-55183333D01*
X80509695Y-55183333D02*
X80547790Y-55297618D01*
X80547790Y-55297618D02*
X80585885Y-55335714D01*
X81309695Y-56097618D02*
X81309695Y-55640475D01*
X81309695Y-55869047D02*
X80509695Y-55869047D01*
X80509695Y-55869047D02*
X80623980Y-55792856D01*
X80623980Y-55792856D02*
X80700171Y-55716666D01*
X80700171Y-55716666D02*
X80738266Y-55640475D01*
X80509695Y-56364285D02*
X80509695Y-56897619D01*
X80509695Y-56897619D02*
X81309695Y-56554761D01*
X72476785Y-58633504D02*
X72514881Y-58671600D01*
X72514881Y-58671600D02*
X72629166Y-58709695D01*
X72629166Y-58709695D02*
X72705357Y-58709695D01*
X72705357Y-58709695D02*
X72819643Y-58671600D01*
X72819643Y-58671600D02*
X72895833Y-58595409D01*
X72895833Y-58595409D02*
X72933928Y-58519219D01*
X72933928Y-58519219D02*
X72972024Y-58366838D01*
X72972024Y-58366838D02*
X72972024Y-58252552D01*
X72972024Y-58252552D02*
X72933928Y-58100171D01*
X72933928Y-58100171D02*
X72895833Y-58023980D01*
X72895833Y-58023980D02*
X72819643Y-57947790D01*
X72819643Y-57947790D02*
X72705357Y-57909695D01*
X72705357Y-57909695D02*
X72629166Y-57909695D01*
X72629166Y-57909695D02*
X72514881Y-57947790D01*
X72514881Y-57947790D02*
X72476785Y-57985885D01*
X71714881Y-58709695D02*
X72172024Y-58709695D01*
X71943452Y-58709695D02*
X71943452Y-57909695D01*
X71943452Y-57909695D02*
X72019643Y-58023980D01*
X72019643Y-58023980D02*
X72095833Y-58100171D01*
X72095833Y-58100171D02*
X72172024Y-58138266D01*
X71257738Y-58252552D02*
X71333928Y-58214457D01*
X71333928Y-58214457D02*
X71372023Y-58176361D01*
X71372023Y-58176361D02*
X71410119Y-58100171D01*
X71410119Y-58100171D02*
X71410119Y-58062076D01*
X71410119Y-58062076D02*
X71372023Y-57985885D01*
X71372023Y-57985885D02*
X71333928Y-57947790D01*
X71333928Y-57947790D02*
X71257738Y-57909695D01*
X71257738Y-57909695D02*
X71105357Y-57909695D01*
X71105357Y-57909695D02*
X71029166Y-57947790D01*
X71029166Y-57947790D02*
X70991071Y-57985885D01*
X70991071Y-57985885D02*
X70952976Y-58062076D01*
X70952976Y-58062076D02*
X70952976Y-58100171D01*
X70952976Y-58100171D02*
X70991071Y-58176361D01*
X70991071Y-58176361D02*
X71029166Y-58214457D01*
X71029166Y-58214457D02*
X71105357Y-58252552D01*
X71105357Y-58252552D02*
X71257738Y-58252552D01*
X71257738Y-58252552D02*
X71333928Y-58290647D01*
X71333928Y-58290647D02*
X71372023Y-58328742D01*
X71372023Y-58328742D02*
X71410119Y-58404933D01*
X71410119Y-58404933D02*
X71410119Y-58557314D01*
X71410119Y-58557314D02*
X71372023Y-58633504D01*
X71372023Y-58633504D02*
X71333928Y-58671600D01*
X71333928Y-58671600D02*
X71257738Y-58709695D01*
X71257738Y-58709695D02*
X71105357Y-58709695D01*
X71105357Y-58709695D02*
X71029166Y-58671600D01*
X71029166Y-58671600D02*
X70991071Y-58633504D01*
X70991071Y-58633504D02*
X70952976Y-58557314D01*
X70952976Y-58557314D02*
X70952976Y-58404933D01*
X70952976Y-58404933D02*
X70991071Y-58328742D01*
X70991071Y-58328742D02*
X71029166Y-58290647D01*
X71029166Y-58290647D02*
X71105357Y-58252552D01*
X69490647Y-74233333D02*
X69490647Y-73966667D01*
X69909695Y-73966667D02*
X69109695Y-73966667D01*
X69109695Y-73966667D02*
X69109695Y-74347619D01*
X69490647Y-74919047D02*
X69528742Y-75033333D01*
X69528742Y-75033333D02*
X69566838Y-75071428D01*
X69566838Y-75071428D02*
X69643028Y-75109524D01*
X69643028Y-75109524D02*
X69757314Y-75109524D01*
X69757314Y-75109524D02*
X69833504Y-75071428D01*
X69833504Y-75071428D02*
X69871600Y-75033333D01*
X69871600Y-75033333D02*
X69909695Y-74957143D01*
X69909695Y-74957143D02*
X69909695Y-74652381D01*
X69909695Y-74652381D02*
X69109695Y-74652381D01*
X69109695Y-74652381D02*
X69109695Y-74919047D01*
X69109695Y-74919047D02*
X69147790Y-74995238D01*
X69147790Y-74995238D02*
X69185885Y-75033333D01*
X69185885Y-75033333D02*
X69262076Y-75071428D01*
X69262076Y-75071428D02*
X69338266Y-75071428D01*
X69338266Y-75071428D02*
X69414457Y-75033333D01*
X69414457Y-75033333D02*
X69452552Y-74995238D01*
X69452552Y-74995238D02*
X69490647Y-74919047D01*
X69490647Y-74919047D02*
X69490647Y-74652381D01*
X69185885Y-75414285D02*
X69147790Y-75452381D01*
X69147790Y-75452381D02*
X69109695Y-75528571D01*
X69109695Y-75528571D02*
X69109695Y-75719047D01*
X69109695Y-75719047D02*
X69147790Y-75795238D01*
X69147790Y-75795238D02*
X69185885Y-75833333D01*
X69185885Y-75833333D02*
X69262076Y-75871428D01*
X69262076Y-75871428D02*
X69338266Y-75871428D01*
X69338266Y-75871428D02*
X69452552Y-75833333D01*
X69452552Y-75833333D02*
X69909695Y-75376190D01*
X69909695Y-75376190D02*
X69909695Y-75871428D01*
X88983504Y-88535714D02*
X89021600Y-88497618D01*
X89021600Y-88497618D02*
X89059695Y-88383333D01*
X89059695Y-88383333D02*
X89059695Y-88307142D01*
X89059695Y-88307142D02*
X89021600Y-88192856D01*
X89021600Y-88192856D02*
X88945409Y-88116666D01*
X88945409Y-88116666D02*
X88869219Y-88078571D01*
X88869219Y-88078571D02*
X88716838Y-88040475D01*
X88716838Y-88040475D02*
X88602552Y-88040475D01*
X88602552Y-88040475D02*
X88450171Y-88078571D01*
X88450171Y-88078571D02*
X88373980Y-88116666D01*
X88373980Y-88116666D02*
X88297790Y-88192856D01*
X88297790Y-88192856D02*
X88259695Y-88307142D01*
X88259695Y-88307142D02*
X88259695Y-88383333D01*
X88259695Y-88383333D02*
X88297790Y-88497618D01*
X88297790Y-88497618D02*
X88335885Y-88535714D01*
X89059695Y-89297618D02*
X89059695Y-88840475D01*
X89059695Y-89069047D02*
X88259695Y-89069047D01*
X88259695Y-89069047D02*
X88373980Y-88992856D01*
X88373980Y-88992856D02*
X88450171Y-88916666D01*
X88450171Y-88916666D02*
X88488266Y-88840475D01*
X88526361Y-89983333D02*
X89059695Y-89983333D01*
X88221600Y-89792857D02*
X88793028Y-89602380D01*
X88793028Y-89602380D02*
X88793028Y-90097619D01*
X61583332Y-65209695D02*
X61849999Y-64828742D01*
X62040475Y-65209695D02*
X62040475Y-64409695D01*
X62040475Y-64409695D02*
X61735713Y-64409695D01*
X61735713Y-64409695D02*
X61659523Y-64447790D01*
X61659523Y-64447790D02*
X61621428Y-64485885D01*
X61621428Y-64485885D02*
X61583332Y-64562076D01*
X61583332Y-64562076D02*
X61583332Y-64676361D01*
X61583332Y-64676361D02*
X61621428Y-64752552D01*
X61621428Y-64752552D02*
X61659523Y-64790647D01*
X61659523Y-64790647D02*
X61735713Y-64828742D01*
X61735713Y-64828742D02*
X62040475Y-64828742D01*
X60897618Y-64409695D02*
X61049999Y-64409695D01*
X61049999Y-64409695D02*
X61126190Y-64447790D01*
X61126190Y-64447790D02*
X61164285Y-64485885D01*
X61164285Y-64485885D02*
X61240475Y-64600171D01*
X61240475Y-64600171D02*
X61278571Y-64752552D01*
X61278571Y-64752552D02*
X61278571Y-65057314D01*
X61278571Y-65057314D02*
X61240475Y-65133504D01*
X61240475Y-65133504D02*
X61202380Y-65171600D01*
X61202380Y-65171600D02*
X61126190Y-65209695D01*
X61126190Y-65209695D02*
X60973809Y-65209695D01*
X60973809Y-65209695D02*
X60897618Y-65171600D01*
X60897618Y-65171600D02*
X60859523Y-65133504D01*
X60859523Y-65133504D02*
X60821428Y-65057314D01*
X60821428Y-65057314D02*
X60821428Y-64866838D01*
X60821428Y-64866838D02*
X60859523Y-64790647D01*
X60859523Y-64790647D02*
X60897618Y-64752552D01*
X60897618Y-64752552D02*
X60973809Y-64714457D01*
X60973809Y-64714457D02*
X61126190Y-64714457D01*
X61126190Y-64714457D02*
X61202380Y-64752552D01*
X61202380Y-64752552D02*
X61240475Y-64790647D01*
X61240475Y-64790647D02*
X61278571Y-64866838D01*
X76983504Y-52766667D02*
X77021600Y-52728571D01*
X77021600Y-52728571D02*
X77059695Y-52614286D01*
X77059695Y-52614286D02*
X77059695Y-52538095D01*
X77059695Y-52538095D02*
X77021600Y-52423809D01*
X77021600Y-52423809D02*
X76945409Y-52347619D01*
X76945409Y-52347619D02*
X76869219Y-52309524D01*
X76869219Y-52309524D02*
X76716838Y-52271428D01*
X76716838Y-52271428D02*
X76602552Y-52271428D01*
X76602552Y-52271428D02*
X76450171Y-52309524D01*
X76450171Y-52309524D02*
X76373980Y-52347619D01*
X76373980Y-52347619D02*
X76297790Y-52423809D01*
X76297790Y-52423809D02*
X76259695Y-52538095D01*
X76259695Y-52538095D02*
X76259695Y-52614286D01*
X76259695Y-52614286D02*
X76297790Y-52728571D01*
X76297790Y-52728571D02*
X76335885Y-52766667D01*
X76259695Y-53490476D02*
X76259695Y-53109524D01*
X76259695Y-53109524D02*
X76640647Y-53071428D01*
X76640647Y-53071428D02*
X76602552Y-53109524D01*
X76602552Y-53109524D02*
X76564457Y-53185714D01*
X76564457Y-53185714D02*
X76564457Y-53376190D01*
X76564457Y-53376190D02*
X76602552Y-53452381D01*
X76602552Y-53452381D02*
X76640647Y-53490476D01*
X76640647Y-53490476D02*
X76716838Y-53528571D01*
X76716838Y-53528571D02*
X76907314Y-53528571D01*
X76907314Y-53528571D02*
X76983504Y-53490476D01*
X76983504Y-53490476D02*
X77021600Y-53452381D01*
X77021600Y-53452381D02*
X77059695Y-53376190D01*
X77059695Y-53376190D02*
X77059695Y-53185714D01*
X77059695Y-53185714D02*
X77021600Y-53109524D01*
X77021600Y-53109524D02*
X76983504Y-53071428D01*
X64389285Y-52189004D02*
X64427381Y-52227100D01*
X64427381Y-52227100D02*
X64541666Y-52265195D01*
X64541666Y-52265195D02*
X64617857Y-52265195D01*
X64617857Y-52265195D02*
X64732143Y-52227100D01*
X64732143Y-52227100D02*
X64808333Y-52150909D01*
X64808333Y-52150909D02*
X64846428Y-52074719D01*
X64846428Y-52074719D02*
X64884524Y-51922338D01*
X64884524Y-51922338D02*
X64884524Y-51808052D01*
X64884524Y-51808052D02*
X64846428Y-51655671D01*
X64846428Y-51655671D02*
X64808333Y-51579480D01*
X64808333Y-51579480D02*
X64732143Y-51503290D01*
X64732143Y-51503290D02*
X64617857Y-51465195D01*
X64617857Y-51465195D02*
X64541666Y-51465195D01*
X64541666Y-51465195D02*
X64427381Y-51503290D01*
X64427381Y-51503290D02*
X64389285Y-51541385D01*
X64084524Y-51541385D02*
X64046428Y-51503290D01*
X64046428Y-51503290D02*
X63970238Y-51465195D01*
X63970238Y-51465195D02*
X63779762Y-51465195D01*
X63779762Y-51465195D02*
X63703571Y-51503290D01*
X63703571Y-51503290D02*
X63665476Y-51541385D01*
X63665476Y-51541385D02*
X63627381Y-51617576D01*
X63627381Y-51617576D02*
X63627381Y-51693766D01*
X63627381Y-51693766D02*
X63665476Y-51808052D01*
X63665476Y-51808052D02*
X64122619Y-52265195D01*
X64122619Y-52265195D02*
X63627381Y-52265195D01*
X63170238Y-51808052D02*
X63246428Y-51769957D01*
X63246428Y-51769957D02*
X63284523Y-51731861D01*
X63284523Y-51731861D02*
X63322619Y-51655671D01*
X63322619Y-51655671D02*
X63322619Y-51617576D01*
X63322619Y-51617576D02*
X63284523Y-51541385D01*
X63284523Y-51541385D02*
X63246428Y-51503290D01*
X63246428Y-51503290D02*
X63170238Y-51465195D01*
X63170238Y-51465195D02*
X63017857Y-51465195D01*
X63017857Y-51465195D02*
X62941666Y-51503290D01*
X62941666Y-51503290D02*
X62903571Y-51541385D01*
X62903571Y-51541385D02*
X62865476Y-51617576D01*
X62865476Y-51617576D02*
X62865476Y-51655671D01*
X62865476Y-51655671D02*
X62903571Y-51731861D01*
X62903571Y-51731861D02*
X62941666Y-51769957D01*
X62941666Y-51769957D02*
X63017857Y-51808052D01*
X63017857Y-51808052D02*
X63170238Y-51808052D01*
X63170238Y-51808052D02*
X63246428Y-51846147D01*
X63246428Y-51846147D02*
X63284523Y-51884242D01*
X63284523Y-51884242D02*
X63322619Y-51960433D01*
X63322619Y-51960433D02*
X63322619Y-52112814D01*
X63322619Y-52112814D02*
X63284523Y-52189004D01*
X63284523Y-52189004D02*
X63246428Y-52227100D01*
X63246428Y-52227100D02*
X63170238Y-52265195D01*
X63170238Y-52265195D02*
X63017857Y-52265195D01*
X63017857Y-52265195D02*
X62941666Y-52227100D01*
X62941666Y-52227100D02*
X62903571Y-52189004D01*
X62903571Y-52189004D02*
X62865476Y-52112814D01*
X62865476Y-52112814D02*
X62865476Y-51960433D01*
X62865476Y-51960433D02*
X62903571Y-51884242D01*
X62903571Y-51884242D02*
X62941666Y-51846147D01*
X62941666Y-51846147D02*
X63017857Y-51808052D01*
X84659523Y-87909695D02*
X84659523Y-88557314D01*
X84659523Y-88557314D02*
X84621428Y-88633504D01*
X84621428Y-88633504D02*
X84583333Y-88671600D01*
X84583333Y-88671600D02*
X84507142Y-88709695D01*
X84507142Y-88709695D02*
X84354761Y-88709695D01*
X84354761Y-88709695D02*
X84278571Y-88671600D01*
X84278571Y-88671600D02*
X84240476Y-88633504D01*
X84240476Y-88633504D02*
X84202380Y-88557314D01*
X84202380Y-88557314D02*
X84202380Y-87909695D01*
X83897619Y-87909695D02*
X83402381Y-87909695D01*
X83402381Y-87909695D02*
X83669047Y-88214457D01*
X83669047Y-88214457D02*
X83554762Y-88214457D01*
X83554762Y-88214457D02*
X83478571Y-88252552D01*
X83478571Y-88252552D02*
X83440476Y-88290647D01*
X83440476Y-88290647D02*
X83402381Y-88366838D01*
X83402381Y-88366838D02*
X83402381Y-88557314D01*
X83402381Y-88557314D02*
X83440476Y-88633504D01*
X83440476Y-88633504D02*
X83478571Y-88671600D01*
X83478571Y-88671600D02*
X83554762Y-88709695D01*
X83554762Y-88709695D02*
X83783333Y-88709695D01*
X83783333Y-88709695D02*
X83859524Y-88671600D01*
X83859524Y-88671600D02*
X83897619Y-88633504D01*
X68964285Y-71263504D02*
X69002381Y-71301600D01*
X69002381Y-71301600D02*
X69116666Y-71339695D01*
X69116666Y-71339695D02*
X69192857Y-71339695D01*
X69192857Y-71339695D02*
X69307143Y-71301600D01*
X69307143Y-71301600D02*
X69383333Y-71225409D01*
X69383333Y-71225409D02*
X69421428Y-71149219D01*
X69421428Y-71149219D02*
X69459524Y-70996838D01*
X69459524Y-70996838D02*
X69459524Y-70882552D01*
X69459524Y-70882552D02*
X69421428Y-70730171D01*
X69421428Y-70730171D02*
X69383333Y-70653980D01*
X69383333Y-70653980D02*
X69307143Y-70577790D01*
X69307143Y-70577790D02*
X69192857Y-70539695D01*
X69192857Y-70539695D02*
X69116666Y-70539695D01*
X69116666Y-70539695D02*
X69002381Y-70577790D01*
X69002381Y-70577790D02*
X68964285Y-70615885D01*
X68659524Y-70615885D02*
X68621428Y-70577790D01*
X68621428Y-70577790D02*
X68545238Y-70539695D01*
X68545238Y-70539695D02*
X68354762Y-70539695D01*
X68354762Y-70539695D02*
X68278571Y-70577790D01*
X68278571Y-70577790D02*
X68240476Y-70615885D01*
X68240476Y-70615885D02*
X68202381Y-70692076D01*
X68202381Y-70692076D02*
X68202381Y-70768266D01*
X68202381Y-70768266D02*
X68240476Y-70882552D01*
X68240476Y-70882552D02*
X68697619Y-71339695D01*
X68697619Y-71339695D02*
X68202381Y-71339695D01*
X67516666Y-70806361D02*
X67516666Y-71339695D01*
X67707142Y-70501600D02*
X67897619Y-71073028D01*
X67897619Y-71073028D02*
X67402380Y-71073028D01*
X107875104Y-68715867D02*
X107913200Y-68677771D01*
X107913200Y-68677771D02*
X107951295Y-68563486D01*
X107951295Y-68563486D02*
X107951295Y-68487295D01*
X107951295Y-68487295D02*
X107913200Y-68373009D01*
X107913200Y-68373009D02*
X107837009Y-68296819D01*
X107837009Y-68296819D02*
X107760819Y-68258724D01*
X107760819Y-68258724D02*
X107608438Y-68220628D01*
X107608438Y-68220628D02*
X107494152Y-68220628D01*
X107494152Y-68220628D02*
X107341771Y-68258724D01*
X107341771Y-68258724D02*
X107265580Y-68296819D01*
X107265580Y-68296819D02*
X107189390Y-68373009D01*
X107189390Y-68373009D02*
X107151295Y-68487295D01*
X107151295Y-68487295D02*
X107151295Y-68563486D01*
X107151295Y-68563486D02*
X107189390Y-68677771D01*
X107189390Y-68677771D02*
X107227485Y-68715867D01*
X107151295Y-69401581D02*
X107151295Y-69249200D01*
X107151295Y-69249200D02*
X107189390Y-69173009D01*
X107189390Y-69173009D02*
X107227485Y-69134914D01*
X107227485Y-69134914D02*
X107341771Y-69058724D01*
X107341771Y-69058724D02*
X107494152Y-69020628D01*
X107494152Y-69020628D02*
X107798914Y-69020628D01*
X107798914Y-69020628D02*
X107875104Y-69058724D01*
X107875104Y-69058724D02*
X107913200Y-69096819D01*
X107913200Y-69096819D02*
X107951295Y-69173009D01*
X107951295Y-69173009D02*
X107951295Y-69325390D01*
X107951295Y-69325390D02*
X107913200Y-69401581D01*
X107913200Y-69401581D02*
X107875104Y-69439676D01*
X107875104Y-69439676D02*
X107798914Y-69477771D01*
X107798914Y-69477771D02*
X107608438Y-69477771D01*
X107608438Y-69477771D02*
X107532247Y-69439676D01*
X107532247Y-69439676D02*
X107494152Y-69401581D01*
X107494152Y-69401581D02*
X107456057Y-69325390D01*
X107456057Y-69325390D02*
X107456057Y-69173009D01*
X107456057Y-69173009D02*
X107494152Y-69096819D01*
X107494152Y-69096819D02*
X107532247Y-69058724D01*
X107532247Y-69058724D02*
X107608438Y-69020628D01*
X74514285Y-49183504D02*
X74552381Y-49221600D01*
X74552381Y-49221600D02*
X74666666Y-49259695D01*
X74666666Y-49259695D02*
X74742857Y-49259695D01*
X74742857Y-49259695D02*
X74857143Y-49221600D01*
X74857143Y-49221600D02*
X74933333Y-49145409D01*
X74933333Y-49145409D02*
X74971428Y-49069219D01*
X74971428Y-49069219D02*
X75009524Y-48916838D01*
X75009524Y-48916838D02*
X75009524Y-48802552D01*
X75009524Y-48802552D02*
X74971428Y-48650171D01*
X74971428Y-48650171D02*
X74933333Y-48573980D01*
X74933333Y-48573980D02*
X74857143Y-48497790D01*
X74857143Y-48497790D02*
X74742857Y-48459695D01*
X74742857Y-48459695D02*
X74666666Y-48459695D01*
X74666666Y-48459695D02*
X74552381Y-48497790D01*
X74552381Y-48497790D02*
X74514285Y-48535885D01*
X74209524Y-48535885D02*
X74171428Y-48497790D01*
X74171428Y-48497790D02*
X74095238Y-48459695D01*
X74095238Y-48459695D02*
X73904762Y-48459695D01*
X73904762Y-48459695D02*
X73828571Y-48497790D01*
X73828571Y-48497790D02*
X73790476Y-48535885D01*
X73790476Y-48535885D02*
X73752381Y-48612076D01*
X73752381Y-48612076D02*
X73752381Y-48688266D01*
X73752381Y-48688266D02*
X73790476Y-48802552D01*
X73790476Y-48802552D02*
X74247619Y-49259695D01*
X74247619Y-49259695D02*
X73752381Y-49259695D01*
X73257142Y-48459695D02*
X73180952Y-48459695D01*
X73180952Y-48459695D02*
X73104761Y-48497790D01*
X73104761Y-48497790D02*
X73066666Y-48535885D01*
X73066666Y-48535885D02*
X73028571Y-48612076D01*
X73028571Y-48612076D02*
X72990476Y-48764457D01*
X72990476Y-48764457D02*
X72990476Y-48954933D01*
X72990476Y-48954933D02*
X73028571Y-49107314D01*
X73028571Y-49107314D02*
X73066666Y-49183504D01*
X73066666Y-49183504D02*
X73104761Y-49221600D01*
X73104761Y-49221600D02*
X73180952Y-49259695D01*
X73180952Y-49259695D02*
X73257142Y-49259695D01*
X73257142Y-49259695D02*
X73333333Y-49221600D01*
X73333333Y-49221600D02*
X73371428Y-49183504D01*
X73371428Y-49183504D02*
X73409523Y-49107314D01*
X73409523Y-49107314D02*
X73447619Y-48954933D01*
X73447619Y-48954933D02*
X73447619Y-48764457D01*
X73447619Y-48764457D02*
X73409523Y-48612076D01*
X73409523Y-48612076D02*
X73371428Y-48535885D01*
X73371428Y-48535885D02*
X73333333Y-48497790D01*
X73333333Y-48497790D02*
X73257142Y-48459695D01*
X80014285Y-63283504D02*
X80052381Y-63321600D01*
X80052381Y-63321600D02*
X80166666Y-63359695D01*
X80166666Y-63359695D02*
X80242857Y-63359695D01*
X80242857Y-63359695D02*
X80357143Y-63321600D01*
X80357143Y-63321600D02*
X80433333Y-63245409D01*
X80433333Y-63245409D02*
X80471428Y-63169219D01*
X80471428Y-63169219D02*
X80509524Y-63016838D01*
X80509524Y-63016838D02*
X80509524Y-62902552D01*
X80509524Y-62902552D02*
X80471428Y-62750171D01*
X80471428Y-62750171D02*
X80433333Y-62673980D01*
X80433333Y-62673980D02*
X80357143Y-62597790D01*
X80357143Y-62597790D02*
X80242857Y-62559695D01*
X80242857Y-62559695D02*
X80166666Y-62559695D01*
X80166666Y-62559695D02*
X80052381Y-62597790D01*
X80052381Y-62597790D02*
X80014285Y-62635885D01*
X79252381Y-63359695D02*
X79709524Y-63359695D01*
X79480952Y-63359695D02*
X79480952Y-62559695D01*
X79480952Y-62559695D02*
X79557143Y-62673980D01*
X79557143Y-62673980D02*
X79633333Y-62750171D01*
X79633333Y-62750171D02*
X79709524Y-62788266D01*
X78871428Y-63359695D02*
X78719047Y-63359695D01*
X78719047Y-63359695D02*
X78642857Y-63321600D01*
X78642857Y-63321600D02*
X78604761Y-63283504D01*
X78604761Y-63283504D02*
X78528571Y-63169219D01*
X78528571Y-63169219D02*
X78490476Y-63016838D01*
X78490476Y-63016838D02*
X78490476Y-62712076D01*
X78490476Y-62712076D02*
X78528571Y-62635885D01*
X78528571Y-62635885D02*
X78566666Y-62597790D01*
X78566666Y-62597790D02*
X78642857Y-62559695D01*
X78642857Y-62559695D02*
X78795238Y-62559695D01*
X78795238Y-62559695D02*
X78871428Y-62597790D01*
X78871428Y-62597790D02*
X78909523Y-62635885D01*
X78909523Y-62635885D02*
X78947619Y-62712076D01*
X78947619Y-62712076D02*
X78947619Y-62902552D01*
X78947619Y-62902552D02*
X78909523Y-62978742D01*
X78909523Y-62978742D02*
X78871428Y-63016838D01*
X78871428Y-63016838D02*
X78795238Y-63054933D01*
X78795238Y-63054933D02*
X78642857Y-63054933D01*
X78642857Y-63054933D02*
X78566666Y-63016838D01*
X78566666Y-63016838D02*
X78528571Y-62978742D01*
X78528571Y-62978742D02*
X78490476Y-62902552D01*
D11*
%TO.C,C29*%
X76360000Y-78441233D02*
X76360000Y-78733767D01*
X75340000Y-78441233D02*
X75340000Y-78733767D01*
D12*
%TO.C,R1*%
X101813600Y-46370640D02*
X101813600Y-46644960D01*
X98156000Y-46370640D02*
X98156000Y-46644960D01*
D11*
%TO.C,C40*%
X77518800Y-50546267D02*
X77518800Y-50253733D01*
X78538800Y-50546267D02*
X78538800Y-50253733D01*
%TO.C,C25*%
X85059267Y-75410000D02*
X84766733Y-75410000D01*
X85059267Y-74390000D02*
X84766733Y-74390000D01*
D13*
%TO.C,D3*%
X81597500Y-79180000D02*
X82847500Y-79180000D01*
X81597500Y-81520000D02*
X82847500Y-81520000D01*
D10*
X79952500Y-81000000D02*
G75*
G03*
X79752500Y-81000000I-100000J0D01*
G01*
X79752500Y-81000000D02*
G75*
G03*
X79952500Y-81000000I100000J0D01*
G01*
D11*
%TO.C,C7*%
X106671600Y-72792333D02*
X106671600Y-73084867D01*
X105651600Y-72792333D02*
X105651600Y-73084867D01*
%TO.C,C22*%
X74089800Y-67964267D02*
X74089800Y-67671733D01*
X75109800Y-67964267D02*
X75109800Y-67671733D01*
%TO.C,C16*%
X78158767Y-60310000D02*
X77866233Y-60310000D01*
X78158767Y-59290000D02*
X77866233Y-59290000D01*
%TO.C,C44*%
X81160000Y-50253733D02*
X81160000Y-50546267D01*
X80140000Y-50253733D02*
X80140000Y-50546267D01*
D13*
%TO.C,IC1*%
X93764000Y-81321000D02*
X92164000Y-81321000D01*
X93764000Y-78191000D02*
X92164000Y-78191000D01*
D10*
X95564000Y-78556000D02*
G75*
G03*
X95364000Y-78556000I-100000J0D01*
G01*
X95364000Y-78556000D02*
G75*
G03*
X95564000Y-78556000I100000J0D01*
G01*
D11*
%TO.C,C3*%
X74445400Y-56280267D02*
X74445400Y-55987733D01*
X75465400Y-56280267D02*
X75465400Y-55987733D01*
%TO.C,R3*%
X86701100Y-67336124D02*
X86701100Y-66826676D01*
X87746100Y-67336124D02*
X87746100Y-66826676D01*
%TO.C,C26*%
X73340000Y-73596267D02*
X73340000Y-73303733D01*
X74360000Y-73596267D02*
X74360000Y-73303733D01*
%TO.C,R8*%
X64045276Y-60677500D02*
X64554724Y-60677500D01*
X64045276Y-61722500D02*
X64554724Y-61722500D01*
D12*
%TO.C,R2*%
X92878800Y-46802440D02*
X92878800Y-47076760D01*
X89221200Y-46802440D02*
X89221200Y-47076760D01*
D11*
%TO.C,R10*%
X64554724Y-63514500D02*
X64045276Y-63514500D01*
X64554724Y-62469500D02*
X64045276Y-62469500D01*
%TO.C,C13*%
X90631400Y-85919000D02*
X94716400Y-85919000D01*
X90631400Y-87789000D02*
X90631400Y-85919000D01*
X94716400Y-87789000D02*
X90631400Y-87789000D01*
%TO.C,C21*%
X76553600Y-67862667D02*
X76553600Y-67570133D01*
X77573600Y-67862667D02*
X77573600Y-67570133D01*
%TO.C,R17*%
X85168824Y-72480700D02*
X84659376Y-72480700D01*
X85168824Y-71435700D02*
X84659376Y-71435700D01*
%TO.C,C42*%
X77490000Y-73633767D02*
X77490000Y-73341233D01*
X78510000Y-73633767D02*
X78510000Y-73341233D01*
%TO.C,R9*%
X64554724Y-67197500D02*
X64045276Y-67197500D01*
X64554724Y-66152500D02*
X64045276Y-66152500D01*
%TO.C,C17*%
X79529400Y-55962333D02*
X79529400Y-56254867D01*
X78509400Y-55962333D02*
X78509400Y-56254867D01*
%TO.C,C18*%
X71816233Y-59340000D02*
X72108767Y-59340000D01*
X71816233Y-60360000D02*
X72108767Y-60360000D01*
%TO.C,FB2*%
X71041800Y-74974267D02*
X71041800Y-74631733D01*
X72061800Y-74974267D02*
X72061800Y-74631733D01*
%TO.C,C14*%
X89530200Y-82513700D02*
X89530200Y-86598700D01*
X87660200Y-82513700D02*
X89530200Y-82513700D01*
X87660200Y-86598700D02*
X87660200Y-82513700D01*
%TO.C,R6*%
X64554724Y-65292500D02*
X64045276Y-65292500D01*
X64554724Y-64247500D02*
X64045276Y-64247500D01*
%TO.C,C5*%
X76325000Y-56254867D02*
X76325000Y-55962333D01*
X77345000Y-56254867D02*
X77345000Y-55962333D01*
%TO.C,C28*%
X68270167Y-53097500D02*
X67977633Y-53097500D01*
X68270167Y-52077500D02*
X67977633Y-52077500D01*
D10*
%TO.C,U3*%
X86711000Y-84457800D02*
G75*
G03*
X86511000Y-84457800I-100000J0D01*
G01*
X86511000Y-84457800D02*
G75*
G03*
X86711000Y-84457800I100000J0D01*
G01*
D13*
X83401000Y-85172800D02*
X83401000Y-85842800D01*
X83871000Y-86957800D02*
X84531000Y-86957800D01*
X84531000Y-84057800D02*
X83871000Y-84057800D01*
D11*
%TO.C,C24*%
X68303733Y-70060000D02*
X68596267Y-70060000D01*
X68303733Y-69040000D02*
X68596267Y-69040000D01*
%TO.C,C6*%
X105651600Y-68995467D02*
X105651600Y-68702933D01*
X106671600Y-68995467D02*
X106671600Y-68702933D01*
%TO.C,C20*%
X76485000Y-51585000D02*
X72400000Y-51585000D01*
X76485000Y-49715000D02*
X76485000Y-51585000D01*
X72400000Y-49715000D02*
X76485000Y-49715000D01*
%TO.C,C19*%
X74488748Y-62090000D02*
X75911252Y-62090000D01*
X74488748Y-63910000D02*
X75911252Y-63910000D01*
%TD*%
%LPC*%
D14*
%TO.C,H4*%
X69550000Y-90450000D03*
%TD*%
%TO.C,H3*%
X107000000Y-90150000D03*
%TD*%
%TO.C,H2*%
X48650000Y-32850000D03*
%TD*%
%TO.C,H1*%
X78200000Y-34150000D03*
%TD*%
D15*
%TO.C,C29*%
X75850000Y-77725000D03*
X75850000Y-79450000D03*
%TD*%
D16*
%TO.C,J2*%
X51308000Y-44145200D03*
X51308000Y-46685200D03*
X51308000Y-49225200D03*
X51308000Y-51765200D03*
X51308000Y-54305200D03*
X51308000Y-56845200D03*
X51308000Y-59385200D03*
D17*
X51308000Y-61925200D03*
%TD*%
D16*
%TO.C,J1*%
X51308000Y-66014600D03*
X51308000Y-68554600D03*
X51308000Y-71094600D03*
X51308000Y-73634600D03*
X51308000Y-76174600D03*
X51308000Y-78714600D03*
X51308000Y-81254600D03*
X51308000Y-83794600D03*
X51308000Y-86334600D03*
D17*
X51308000Y-88874600D03*
%TD*%
D16*
%TO.C,J3*%
X99593400Y-61950600D03*
X99593400Y-64490600D03*
X99593400Y-67030600D03*
X99593400Y-69570600D03*
X99593400Y-72110600D03*
X99593400Y-74650600D03*
X99593400Y-77190600D03*
D17*
X99593400Y-79730600D03*
%TD*%
D18*
%TO.C,R1*%
X98422700Y-45593400D03*
D19*
X99570018Y-45593400D03*
X100399582Y-45593400D03*
D18*
X101546900Y-45593400D03*
X101546900Y-47422200D03*
D19*
X100399582Y-47422200D03*
X99570018Y-47422200D03*
D18*
X98422700Y-47422200D03*
%TD*%
D20*
%TO.C,C40*%
X78028800Y-51262500D03*
X78028800Y-49537500D03*
%TD*%
D21*
%TO.C,C25*%
X85775500Y-74900000D03*
X84050500Y-74900000D03*
%TD*%
D22*
%TO.C,D3*%
X81122500Y-81000000D03*
X81122500Y-80350000D03*
X81122500Y-79700000D03*
X83322500Y-79700000D03*
X83322500Y-80350000D03*
X83322500Y-81000000D03*
%TD*%
D15*
%TO.C,C7*%
X106161600Y-72076100D03*
X106161600Y-73801100D03*
%TD*%
D20*
%TO.C,C22*%
X74599800Y-68680500D03*
X74599800Y-66955500D03*
%TD*%
D21*
%TO.C,C16*%
X78875000Y-59800000D03*
X77150000Y-59800000D03*
%TD*%
D15*
%TO.C,C44*%
X80650000Y-49537500D03*
X80650000Y-51262500D03*
%TD*%
D23*
%TO.C,IC1*%
X94219000Y-78806000D03*
X94219000Y-79756000D03*
X94219000Y-80706000D03*
X91709000Y-80706000D03*
X91709000Y-78806000D03*
%TD*%
D20*
%TO.C,C3*%
X74955400Y-56996500D03*
X74955400Y-55271500D03*
%TD*%
D24*
%TO.C,R3*%
X87223600Y-67993900D03*
X87223600Y-66168900D03*
%TD*%
D20*
%TO.C,C26*%
X73850000Y-74312500D03*
X73850000Y-72587500D03*
%TD*%
D25*
%TO.C,R8*%
X63387500Y-61200000D03*
X65212500Y-61200000D03*
%TD*%
D18*
%TO.C,R2*%
X89487900Y-46025200D03*
D19*
X90635218Y-46025200D03*
X91464782Y-46025200D03*
D18*
X92612100Y-46025200D03*
X92612100Y-47854000D03*
D19*
X91464782Y-47854000D03*
X90635218Y-47854000D03*
D18*
X89487900Y-47854000D03*
%TD*%
D26*
%TO.C,R10*%
X65212500Y-62992000D03*
X63387500Y-62992000D03*
%TD*%
D27*
%TO.C,C13*%
X91678900Y-86854000D03*
X94553900Y-86854000D03*
%TD*%
D20*
%TO.C,C21*%
X77063600Y-68578900D03*
X77063600Y-66853900D03*
%TD*%
D26*
%TO.C,R17*%
X85826600Y-71958200D03*
X84001600Y-71958200D03*
%TD*%
D20*
%TO.C,C42*%
X78000000Y-74350000D03*
X78000000Y-72625000D03*
%TD*%
D26*
%TO.C,R9*%
X65212500Y-66675000D03*
X63387500Y-66675000D03*
%TD*%
D15*
%TO.C,C17*%
X79019400Y-55246100D03*
X79019400Y-56971100D03*
%TD*%
D28*
%TO.C,C18*%
X71100000Y-59850000D03*
X72825000Y-59850000D03*
%TD*%
D29*
%TO.C,FB2*%
X71551800Y-75678000D03*
X71551800Y-73928000D03*
%TD*%
D30*
%TO.C,C14*%
X88595200Y-83561200D03*
X88595200Y-86436200D03*
%TD*%
D26*
%TO.C,R6*%
X65212500Y-64770000D03*
X63387500Y-64770000D03*
%TD*%
D20*
%TO.C,C5*%
X76835000Y-56971100D03*
X76835000Y-55246100D03*
%TD*%
D21*
%TO.C,C28*%
X68986400Y-52587500D03*
X67261400Y-52587500D03*
%TD*%
D31*
%TO.C,U3*%
X82946000Y-84557800D03*
X82946000Y-86457800D03*
X85456000Y-86457800D03*
X85456000Y-85507800D03*
X85456000Y-84557800D03*
%TD*%
D17*
%TO.C,J4*%
X86410800Y-36474400D03*
D16*
X88950800Y-36474400D03*
X91490800Y-36474400D03*
X94030800Y-36474400D03*
X96570800Y-36474400D03*
X99110800Y-36474400D03*
X101650800Y-36474400D03*
X104190800Y-36474400D03*
%TD*%
D28*
%TO.C,C24*%
X69312500Y-69550000D03*
X67587500Y-69550000D03*
%TD*%
D20*
%TO.C,C6*%
X106161600Y-69711700D03*
X106161600Y-67986700D03*
%TD*%
D32*
%TO.C,C20*%
X75437500Y-50650000D03*
X72562500Y-50650000D03*
%TD*%
D33*
%TO.C,C19*%
X73637500Y-63000000D03*
X76762500Y-63000000D03*
%TD*%
%LPD*%
D34*
X44642800Y-29311600D02*
X111507000Y-29311600D01*
X111507000Y-94973400D01*
X44642800Y-94973400D01*
X44642800Y-29311600D01*
M02*
